G04 #@! TF.GenerationSoftware,KiCad,Pcbnew,(5.1.5-0-10_14)*
G04 #@! TF.CreationDate,2020-04-03T00:26:54-07:00*
G04 #@! TF.ProjectId,bike-light-board,62696b65-2d6c-4696-9768-742d626f6172,rev?*
G04 #@! TF.SameCoordinates,Original*
G04 #@! TF.FileFunction,Soldermask,Top*
G04 #@! TF.FilePolarity,Negative*
%FSLAX46Y46*%
G04 Gerber Fmt 4.6, Leading zero omitted, Abs format (unit mm)*
G04 Created by KiCad (PCBNEW (5.1.5-0-10_14)) date 2020-04-03 00:26:54*
%MOMM*%
%LPD*%
G04 APERTURE LIST*
%ADD10C,0.100000*%
G04 APERTURE END LIST*
D10*
G36*
X164250999Y-132321508D02*
G01*
X162648999Y-132321508D01*
X162648999Y-131219508D01*
X164250999Y-131219508D01*
X164250999Y-132321508D01*
G37*
G36*
X159350999Y-132321508D02*
G01*
X157748999Y-132321508D01*
X157748999Y-131219508D01*
X159350999Y-131219508D01*
X159350999Y-132321508D01*
G37*
G36*
X159350999Y-129121508D02*
G01*
X157748999Y-129121508D01*
X157748999Y-128019508D01*
X159350999Y-128019508D01*
X159350999Y-129121508D01*
G37*
G36*
X164250999Y-129121508D02*
G01*
X162648999Y-129121508D01*
X162648999Y-128019508D01*
X164250999Y-128019508D01*
X164250999Y-129121508D01*
G37*
G36*
X158247246Y-126202523D02*
G01*
X158273683Y-126210543D01*
X158298052Y-126223568D01*
X158319410Y-126241097D01*
X158336939Y-126262455D01*
X158349964Y-126286824D01*
X158357984Y-126313261D01*
X158360999Y-126343875D01*
X158360999Y-126797141D01*
X158357984Y-126827755D01*
X158349964Y-126854192D01*
X158336939Y-126878561D01*
X158319410Y-126899919D01*
X158298052Y-126917448D01*
X158273683Y-126930473D01*
X158247246Y-126938493D01*
X158216632Y-126941508D01*
X157813366Y-126941508D01*
X157782752Y-126938493D01*
X157756315Y-126930473D01*
X157731946Y-126917448D01*
X157710588Y-126899919D01*
X157693059Y-126878561D01*
X157680034Y-126854192D01*
X157672014Y-126827755D01*
X157668999Y-126797141D01*
X157668999Y-126343875D01*
X157672014Y-126313261D01*
X157680034Y-126286824D01*
X157693059Y-126262455D01*
X157710588Y-126241097D01*
X157731946Y-126223568D01*
X157756315Y-126210543D01*
X157782752Y-126202523D01*
X157813366Y-126199508D01*
X158216632Y-126199508D01*
X158247246Y-126202523D01*
G37*
G36*
X159217246Y-126202523D02*
G01*
X159243683Y-126210543D01*
X159268052Y-126223568D01*
X159289410Y-126241097D01*
X159306939Y-126262455D01*
X159319964Y-126286824D01*
X159327984Y-126313261D01*
X159330999Y-126343875D01*
X159330999Y-126797141D01*
X159327984Y-126827755D01*
X159319964Y-126854192D01*
X159306939Y-126878561D01*
X159289410Y-126899919D01*
X159268052Y-126917448D01*
X159243683Y-126930473D01*
X159217246Y-126938493D01*
X159186632Y-126941508D01*
X158783366Y-126941508D01*
X158752752Y-126938493D01*
X158726315Y-126930473D01*
X158701946Y-126917448D01*
X158680588Y-126899919D01*
X158663059Y-126878561D01*
X158650034Y-126854192D01*
X158642014Y-126827755D01*
X158638999Y-126797141D01*
X158638999Y-126343875D01*
X158642014Y-126313261D01*
X158650034Y-126286824D01*
X158663059Y-126262455D01*
X158680588Y-126241097D01*
X158701946Y-126223568D01*
X158726315Y-126210543D01*
X158752752Y-126202523D01*
X158783366Y-126199508D01*
X159186632Y-126199508D01*
X159217246Y-126202523D01*
G37*
G36*
X164250999Y-121721508D02*
G01*
X162648999Y-121721508D01*
X162648999Y-120619508D01*
X164250999Y-120619508D01*
X164250999Y-121721508D01*
G37*
G36*
X159350999Y-121721508D02*
G01*
X157748999Y-121721508D01*
X157748999Y-120619508D01*
X159350999Y-120619508D01*
X159350999Y-121721508D01*
G37*
G36*
X164250999Y-118521508D02*
G01*
X162648999Y-118521508D01*
X162648999Y-117419508D01*
X164250999Y-117419508D01*
X164250999Y-118521508D01*
G37*
G36*
X159350999Y-118521508D02*
G01*
X157748999Y-118521508D01*
X157748999Y-117419508D01*
X159350999Y-117419508D01*
X159350999Y-118521508D01*
G37*
G36*
X159217246Y-115602523D02*
G01*
X159243683Y-115610543D01*
X159268052Y-115623568D01*
X159289410Y-115641097D01*
X159306939Y-115662455D01*
X159319964Y-115686824D01*
X159327984Y-115713261D01*
X159330999Y-115743875D01*
X159330999Y-116197141D01*
X159327984Y-116227755D01*
X159319964Y-116254192D01*
X159306939Y-116278561D01*
X159289410Y-116299919D01*
X159268052Y-116317448D01*
X159243683Y-116330473D01*
X159217246Y-116338493D01*
X159186632Y-116341508D01*
X158783366Y-116341508D01*
X158752752Y-116338493D01*
X158726315Y-116330473D01*
X158701946Y-116317448D01*
X158680588Y-116299919D01*
X158663059Y-116278561D01*
X158650034Y-116254192D01*
X158642014Y-116227755D01*
X158638999Y-116197141D01*
X158638999Y-115743875D01*
X158642014Y-115713261D01*
X158650034Y-115686824D01*
X158663059Y-115662455D01*
X158680588Y-115641097D01*
X158701946Y-115623568D01*
X158726315Y-115610543D01*
X158752752Y-115602523D01*
X158783366Y-115599508D01*
X159186632Y-115599508D01*
X159217246Y-115602523D01*
G37*
G36*
X158247246Y-115602523D02*
G01*
X158273683Y-115610543D01*
X158298052Y-115623568D01*
X158319410Y-115641097D01*
X158336939Y-115662455D01*
X158349964Y-115686824D01*
X158357984Y-115713261D01*
X158360999Y-115743875D01*
X158360999Y-116197141D01*
X158357984Y-116227755D01*
X158349964Y-116254192D01*
X158336939Y-116278561D01*
X158319410Y-116299919D01*
X158298052Y-116317448D01*
X158273683Y-116330473D01*
X158247246Y-116338493D01*
X158216632Y-116341508D01*
X157813366Y-116341508D01*
X157782752Y-116338493D01*
X157756315Y-116330473D01*
X157731946Y-116317448D01*
X157710588Y-116299919D01*
X157693059Y-116278561D01*
X157680034Y-116254192D01*
X157672014Y-116227755D01*
X157668999Y-116197141D01*
X157668999Y-115743875D01*
X157672014Y-115713261D01*
X157680034Y-115686824D01*
X157693059Y-115662455D01*
X157710588Y-115641097D01*
X157731946Y-115623568D01*
X157756315Y-115610543D01*
X157782752Y-115602523D01*
X157813366Y-115599508D01*
X158216632Y-115599508D01*
X158247246Y-115602523D01*
G37*
G36*
X164250999Y-111121508D02*
G01*
X162648999Y-111121508D01*
X162648999Y-110019508D01*
X164250999Y-110019508D01*
X164250999Y-111121508D01*
G37*
G36*
X159350999Y-111121508D02*
G01*
X157748999Y-111121508D01*
X157748999Y-110019508D01*
X159350999Y-110019508D01*
X159350999Y-111121508D01*
G37*
G36*
X164250999Y-107921508D02*
G01*
X162648999Y-107921508D01*
X162648999Y-106819508D01*
X164250999Y-106819508D01*
X164250999Y-107921508D01*
G37*
G36*
X159350999Y-107921508D02*
G01*
X157748999Y-107921508D01*
X157748999Y-106819508D01*
X159350999Y-106819508D01*
X159350999Y-107921508D01*
G37*
G36*
X143742813Y-105903204D02*
G01*
X143856107Y-105937571D01*
X143960514Y-105993378D01*
X144052027Y-106068480D01*
X144127129Y-106159993D01*
X144182936Y-106264400D01*
X144217303Y-106377694D01*
X144228907Y-106495508D01*
X144217303Y-106613322D01*
X144182936Y-106726616D01*
X144127129Y-106831023D01*
X144052027Y-106922536D01*
X143960514Y-106997638D01*
X143856107Y-107053445D01*
X143742813Y-107087812D01*
X143654524Y-107096508D01*
X142295474Y-107096508D01*
X142207185Y-107087812D01*
X142093891Y-107053445D01*
X141989484Y-106997638D01*
X141897971Y-106922536D01*
X141822869Y-106831023D01*
X141767062Y-106726616D01*
X141732695Y-106613322D01*
X141721091Y-106495508D01*
X141732695Y-106377694D01*
X141767062Y-106264400D01*
X141822869Y-106159993D01*
X141897971Y-106068480D01*
X141989484Y-105993378D01*
X142093891Y-105937571D01*
X142207185Y-105903204D01*
X142295474Y-105894508D01*
X143654524Y-105894508D01*
X143742813Y-105903204D01*
G37*
G36*
X145177382Y-105332997D02*
G01*
X145241263Y-105359457D01*
X145298744Y-105397864D01*
X145347643Y-105446763D01*
X145386050Y-105504244D01*
X145412510Y-105568125D01*
X145425999Y-105635938D01*
X145425999Y-105705078D01*
X145412510Y-105772891D01*
X145386050Y-105836772D01*
X145347643Y-105894253D01*
X145298744Y-105943152D01*
X145241263Y-105981559D01*
X145212729Y-105993378D01*
X145177382Y-106008019D01*
X145109569Y-106021508D01*
X145040429Y-106021508D01*
X144972616Y-106008019D01*
X144937269Y-105993378D01*
X144908735Y-105981559D01*
X144851254Y-105943152D01*
X144802355Y-105894253D01*
X144763948Y-105836772D01*
X144737488Y-105772891D01*
X144723999Y-105705078D01*
X144723999Y-105635938D01*
X144737488Y-105568125D01*
X144763948Y-105504244D01*
X144802355Y-105446763D01*
X144851254Y-105397864D01*
X144908735Y-105359457D01*
X144972616Y-105332997D01*
X145040429Y-105319508D01*
X145109569Y-105319508D01*
X145177382Y-105332997D01*
G37*
G36*
X159217246Y-105002523D02*
G01*
X159243683Y-105010543D01*
X159268052Y-105023568D01*
X159289410Y-105041097D01*
X159306939Y-105062455D01*
X159319964Y-105086824D01*
X159327984Y-105113261D01*
X159330999Y-105143875D01*
X159330999Y-105597141D01*
X159327984Y-105627755D01*
X159319964Y-105654192D01*
X159306939Y-105678561D01*
X159289410Y-105699919D01*
X159268052Y-105717448D01*
X159243683Y-105730473D01*
X159217246Y-105738493D01*
X159186632Y-105741508D01*
X158783366Y-105741508D01*
X158752752Y-105738493D01*
X158726315Y-105730473D01*
X158701946Y-105717448D01*
X158680588Y-105699919D01*
X158663059Y-105678561D01*
X158650034Y-105654192D01*
X158642014Y-105627755D01*
X158638999Y-105597141D01*
X158638999Y-105143875D01*
X158642014Y-105113261D01*
X158650034Y-105086824D01*
X158663059Y-105062455D01*
X158680588Y-105041097D01*
X158701946Y-105023568D01*
X158726315Y-105010543D01*
X158752752Y-105002523D01*
X158783366Y-104999508D01*
X159186632Y-104999508D01*
X159217246Y-105002523D01*
G37*
G36*
X158247246Y-105002523D02*
G01*
X158273683Y-105010543D01*
X158298052Y-105023568D01*
X158319410Y-105041097D01*
X158336939Y-105062455D01*
X158349964Y-105086824D01*
X158357984Y-105113261D01*
X158360999Y-105143875D01*
X158360999Y-105597141D01*
X158357984Y-105627755D01*
X158349964Y-105654192D01*
X158336939Y-105678561D01*
X158319410Y-105699919D01*
X158298052Y-105717448D01*
X158273683Y-105730473D01*
X158247246Y-105738493D01*
X158216632Y-105741508D01*
X157813366Y-105741508D01*
X157782752Y-105738493D01*
X157756315Y-105730473D01*
X157731946Y-105717448D01*
X157710588Y-105699919D01*
X157693059Y-105678561D01*
X157680034Y-105654192D01*
X157672014Y-105627755D01*
X157668999Y-105597141D01*
X157668999Y-105143875D01*
X157672014Y-105113261D01*
X157680034Y-105086824D01*
X157693059Y-105062455D01*
X157710588Y-105041097D01*
X157731946Y-105023568D01*
X157756315Y-105010543D01*
X157782752Y-105002523D01*
X157813366Y-104999508D01*
X158216632Y-104999508D01*
X158247246Y-105002523D01*
G37*
G36*
X162284772Y-102674373D02*
G01*
X162329270Y-102687871D01*
X162370275Y-102709788D01*
X162406219Y-102739288D01*
X162435719Y-102775232D01*
X162457636Y-102816237D01*
X162471134Y-102860735D01*
X162475999Y-102910125D01*
X162475999Y-103930891D01*
X162471134Y-103980281D01*
X162457636Y-104024779D01*
X162435719Y-104065784D01*
X162406219Y-104101728D01*
X162370275Y-104131228D01*
X162329270Y-104153145D01*
X162284772Y-104166643D01*
X162235382Y-104171508D01*
X161639616Y-104171508D01*
X161590226Y-104166643D01*
X161545728Y-104153145D01*
X161504723Y-104131228D01*
X161468779Y-104101728D01*
X161439279Y-104065784D01*
X161417362Y-104024779D01*
X161403864Y-103980281D01*
X161398999Y-103930891D01*
X161398999Y-102910125D01*
X161403864Y-102860735D01*
X161417362Y-102816237D01*
X161439279Y-102775232D01*
X161468779Y-102739288D01*
X161504723Y-102709788D01*
X161545728Y-102687871D01*
X161590226Y-102674373D01*
X161639616Y-102669508D01*
X162235382Y-102669508D01*
X162284772Y-102674373D01*
G37*
G36*
X160409772Y-102674373D02*
G01*
X160454270Y-102687871D01*
X160495275Y-102709788D01*
X160531219Y-102739288D01*
X160560719Y-102775232D01*
X160582636Y-102816237D01*
X160596134Y-102860735D01*
X160600999Y-102910125D01*
X160600999Y-103930891D01*
X160596134Y-103980281D01*
X160582636Y-104024779D01*
X160560719Y-104065784D01*
X160531219Y-104101728D01*
X160495275Y-104131228D01*
X160454270Y-104153145D01*
X160409772Y-104166643D01*
X160360382Y-104171508D01*
X159764616Y-104171508D01*
X159715226Y-104166643D01*
X159670728Y-104153145D01*
X159629723Y-104131228D01*
X159593779Y-104101728D01*
X159564279Y-104065784D01*
X159542362Y-104024779D01*
X159528864Y-103980281D01*
X159523999Y-103930891D01*
X159523999Y-102910125D01*
X159528864Y-102860735D01*
X159542362Y-102816237D01*
X159564279Y-102775232D01*
X159593779Y-102739288D01*
X159629723Y-102709788D01*
X159670728Y-102687871D01*
X159715226Y-102674373D01*
X159764616Y-102669508D01*
X160360382Y-102669508D01*
X160409772Y-102674373D01*
G37*
G36*
X145177382Y-101332997D02*
G01*
X145241263Y-101359457D01*
X145298744Y-101397864D01*
X145347643Y-101446763D01*
X145386050Y-101504244D01*
X145412510Y-101568125D01*
X145425999Y-101635938D01*
X145425999Y-101705078D01*
X145412510Y-101772891D01*
X145386050Y-101836772D01*
X145347643Y-101894253D01*
X145298744Y-101943152D01*
X145241263Y-101981559D01*
X145177382Y-102008019D01*
X145109569Y-102021508D01*
X145040429Y-102021508D01*
X144972616Y-102008019D01*
X144908735Y-101981559D01*
X144851254Y-101943152D01*
X144802355Y-101894253D01*
X144763948Y-101836772D01*
X144737488Y-101772891D01*
X144723999Y-101705078D01*
X144723999Y-101635938D01*
X144737488Y-101568125D01*
X144763948Y-101504244D01*
X144802355Y-101446763D01*
X144851254Y-101397864D01*
X144908735Y-101359457D01*
X144972616Y-101332997D01*
X145040429Y-101319508D01*
X145109569Y-101319508D01*
X145177382Y-101332997D01*
G37*
G36*
X143742813Y-100253204D02*
G01*
X143856107Y-100287571D01*
X143960514Y-100343378D01*
X144052027Y-100418480D01*
X144127129Y-100509993D01*
X144182936Y-100614400D01*
X144217303Y-100727694D01*
X144228907Y-100845508D01*
X144217303Y-100963322D01*
X144182936Y-101076616D01*
X144127129Y-101181023D01*
X144052027Y-101272536D01*
X143960514Y-101347638D01*
X143856107Y-101403445D01*
X143742813Y-101437812D01*
X143654524Y-101446508D01*
X142295474Y-101446508D01*
X142207185Y-101437812D01*
X142093891Y-101403445D01*
X141989484Y-101347638D01*
X141897971Y-101272536D01*
X141822869Y-101181023D01*
X141767062Y-101076616D01*
X141732695Y-100963322D01*
X141721091Y-100845508D01*
X141732695Y-100727694D01*
X141767062Y-100614400D01*
X141822869Y-100509993D01*
X141897971Y-100418480D01*
X141989484Y-100343378D01*
X142093891Y-100287571D01*
X142207185Y-100253204D01*
X142295474Y-100244508D01*
X143654524Y-100244508D01*
X143742813Y-100253204D01*
G37*
G36*
X164250999Y-100521508D02*
G01*
X162648999Y-100521508D01*
X162648999Y-99419508D01*
X164250999Y-99419508D01*
X164250999Y-100521508D01*
G37*
G36*
X159350999Y-100521508D02*
G01*
X157748999Y-100521508D01*
X157748999Y-99419508D01*
X159350999Y-99419508D01*
X159350999Y-100521508D01*
G37*
G36*
X159350999Y-97321508D02*
G01*
X157748999Y-97321508D01*
X157748999Y-96219508D01*
X159350999Y-96219508D01*
X159350999Y-97321508D01*
G37*
G36*
X164250999Y-97321508D02*
G01*
X162648999Y-97321508D01*
X162648999Y-96219508D01*
X164250999Y-96219508D01*
X164250999Y-97321508D01*
G37*
G36*
X159217246Y-94402523D02*
G01*
X159243683Y-94410543D01*
X159268052Y-94423568D01*
X159289410Y-94441097D01*
X159306939Y-94462455D01*
X159319964Y-94486824D01*
X159327984Y-94513261D01*
X159330999Y-94543875D01*
X159330999Y-94997141D01*
X159327984Y-95027755D01*
X159319964Y-95054192D01*
X159306939Y-95078561D01*
X159289410Y-95099919D01*
X159268052Y-95117448D01*
X159243683Y-95130473D01*
X159217246Y-95138493D01*
X159186632Y-95141508D01*
X158783366Y-95141508D01*
X158752752Y-95138493D01*
X158726315Y-95130473D01*
X158701946Y-95117448D01*
X158680588Y-95099919D01*
X158663059Y-95078561D01*
X158650034Y-95054192D01*
X158642014Y-95027755D01*
X158638999Y-94997141D01*
X158638999Y-94543875D01*
X158642014Y-94513261D01*
X158650034Y-94486824D01*
X158663059Y-94462455D01*
X158680588Y-94441097D01*
X158701946Y-94423568D01*
X158726315Y-94410543D01*
X158752752Y-94402523D01*
X158783366Y-94399508D01*
X159186632Y-94399508D01*
X159217246Y-94402523D01*
G37*
G36*
X158247246Y-94402523D02*
G01*
X158273683Y-94410543D01*
X158298052Y-94423568D01*
X158319410Y-94441097D01*
X158336939Y-94462455D01*
X158349964Y-94486824D01*
X158357984Y-94513261D01*
X158360999Y-94543875D01*
X158360999Y-94997141D01*
X158357984Y-95027755D01*
X158349964Y-95054192D01*
X158336939Y-95078561D01*
X158319410Y-95099919D01*
X158298052Y-95117448D01*
X158273683Y-95130473D01*
X158247246Y-95138493D01*
X158216632Y-95141508D01*
X157813366Y-95141508D01*
X157782752Y-95138493D01*
X157756315Y-95130473D01*
X157731946Y-95117448D01*
X157710588Y-95099919D01*
X157693059Y-95078561D01*
X157680034Y-95054192D01*
X157672014Y-95027755D01*
X157668999Y-94997141D01*
X157668999Y-94543875D01*
X157672014Y-94513261D01*
X157680034Y-94486824D01*
X157693059Y-94462455D01*
X157710588Y-94441097D01*
X157731946Y-94423568D01*
X157756315Y-94410543D01*
X157782752Y-94402523D01*
X157813366Y-94399508D01*
X158216632Y-94399508D01*
X158247246Y-94402523D01*
G37*
G36*
X164250999Y-89921508D02*
G01*
X162648999Y-89921508D01*
X162648999Y-88819508D01*
X164250999Y-88819508D01*
X164250999Y-89921508D01*
G37*
G36*
X159350999Y-89921508D02*
G01*
X157748999Y-89921508D01*
X157748999Y-88819508D01*
X159350999Y-88819508D01*
X159350999Y-89921508D01*
G37*
G36*
X159350999Y-86721508D02*
G01*
X157748999Y-86721508D01*
X157748999Y-85619508D01*
X159350999Y-85619508D01*
X159350999Y-86721508D01*
G37*
G36*
X164250999Y-86721508D02*
G01*
X162648999Y-86721508D01*
X162648999Y-85619508D01*
X164250999Y-85619508D01*
X164250999Y-86721508D01*
G37*
G36*
X158247246Y-83802523D02*
G01*
X158273683Y-83810543D01*
X158298052Y-83823568D01*
X158319410Y-83841097D01*
X158336939Y-83862455D01*
X158349964Y-83886824D01*
X158357984Y-83913261D01*
X158360999Y-83943875D01*
X158360999Y-84397141D01*
X158357984Y-84427755D01*
X158349964Y-84454192D01*
X158336939Y-84478561D01*
X158319410Y-84499919D01*
X158298052Y-84517448D01*
X158273683Y-84530473D01*
X158247246Y-84538493D01*
X158216632Y-84541508D01*
X157813366Y-84541508D01*
X157782752Y-84538493D01*
X157756315Y-84530473D01*
X157731946Y-84517448D01*
X157710588Y-84499919D01*
X157693059Y-84478561D01*
X157680034Y-84454192D01*
X157672014Y-84427755D01*
X157668999Y-84397141D01*
X157668999Y-83943875D01*
X157672014Y-83913261D01*
X157680034Y-83886824D01*
X157693059Y-83862455D01*
X157710588Y-83841097D01*
X157731946Y-83823568D01*
X157756315Y-83810543D01*
X157782752Y-83802523D01*
X157813366Y-83799508D01*
X158216632Y-83799508D01*
X158247246Y-83802523D01*
G37*
G36*
X159217246Y-83802523D02*
G01*
X159243683Y-83810543D01*
X159268052Y-83823568D01*
X159289410Y-83841097D01*
X159306939Y-83862455D01*
X159319964Y-83886824D01*
X159327984Y-83913261D01*
X159330999Y-83943875D01*
X159330999Y-84397141D01*
X159327984Y-84427755D01*
X159319964Y-84454192D01*
X159306939Y-84478561D01*
X159289410Y-84499919D01*
X159268052Y-84517448D01*
X159243683Y-84530473D01*
X159217246Y-84538493D01*
X159186632Y-84541508D01*
X158783366Y-84541508D01*
X158752752Y-84538493D01*
X158726315Y-84530473D01*
X158701946Y-84517448D01*
X158680588Y-84499919D01*
X158663059Y-84478561D01*
X158650034Y-84454192D01*
X158642014Y-84427755D01*
X158638999Y-84397141D01*
X158638999Y-83943875D01*
X158642014Y-83913261D01*
X158650034Y-83886824D01*
X158663059Y-83862455D01*
X158680588Y-83841097D01*
X158701946Y-83823568D01*
X158726315Y-83810543D01*
X158752752Y-83802523D01*
X158783366Y-83799508D01*
X159186632Y-83799508D01*
X159217246Y-83802523D01*
G37*
G36*
X164250999Y-79321508D02*
G01*
X162648999Y-79321508D01*
X162648999Y-78219508D01*
X164250999Y-78219508D01*
X164250999Y-79321508D01*
G37*
G36*
X159350999Y-79321508D02*
G01*
X157748999Y-79321508D01*
X157748999Y-78219508D01*
X159350999Y-78219508D01*
X159350999Y-79321508D01*
G37*
G36*
X159350999Y-76121508D02*
G01*
X157748999Y-76121508D01*
X157748999Y-75019508D01*
X159350999Y-75019508D01*
X159350999Y-76121508D01*
G37*
G36*
X164250999Y-76121508D02*
G01*
X162648999Y-76121508D01*
X162648999Y-75019508D01*
X164250999Y-75019508D01*
X164250999Y-76121508D01*
G37*
G36*
X158247246Y-73202523D02*
G01*
X158273683Y-73210543D01*
X158298052Y-73223568D01*
X158319410Y-73241097D01*
X158336939Y-73262455D01*
X158349964Y-73286824D01*
X158357984Y-73313261D01*
X158360999Y-73343875D01*
X158360999Y-73797141D01*
X158357984Y-73827755D01*
X158349964Y-73854192D01*
X158336939Y-73878561D01*
X158319410Y-73899919D01*
X158298052Y-73917448D01*
X158273683Y-73930473D01*
X158247246Y-73938493D01*
X158216632Y-73941508D01*
X157813366Y-73941508D01*
X157782752Y-73938493D01*
X157756315Y-73930473D01*
X157731946Y-73917448D01*
X157710588Y-73899919D01*
X157693059Y-73878561D01*
X157680034Y-73854192D01*
X157672014Y-73827755D01*
X157668999Y-73797141D01*
X157668999Y-73343875D01*
X157672014Y-73313261D01*
X157680034Y-73286824D01*
X157693059Y-73262455D01*
X157710588Y-73241097D01*
X157731946Y-73223568D01*
X157756315Y-73210543D01*
X157782752Y-73202523D01*
X157813366Y-73199508D01*
X158216632Y-73199508D01*
X158247246Y-73202523D01*
G37*
G36*
X159217246Y-73202523D02*
G01*
X159243683Y-73210543D01*
X159268052Y-73223568D01*
X159289410Y-73241097D01*
X159306939Y-73262455D01*
X159319964Y-73286824D01*
X159327984Y-73313261D01*
X159330999Y-73343875D01*
X159330999Y-73797141D01*
X159327984Y-73827755D01*
X159319964Y-73854192D01*
X159306939Y-73878561D01*
X159289410Y-73899919D01*
X159268052Y-73917448D01*
X159243683Y-73930473D01*
X159217246Y-73938493D01*
X159186632Y-73941508D01*
X158783366Y-73941508D01*
X158752752Y-73938493D01*
X158726315Y-73930473D01*
X158701946Y-73917448D01*
X158680588Y-73899919D01*
X158663059Y-73878561D01*
X158650034Y-73854192D01*
X158642014Y-73827755D01*
X158638999Y-73797141D01*
X158638999Y-73343875D01*
X158642014Y-73313261D01*
X158650034Y-73286824D01*
X158663059Y-73262455D01*
X158680588Y-73241097D01*
X158701946Y-73223568D01*
X158726315Y-73210543D01*
X158752752Y-73202523D01*
X158783366Y-73199508D01*
X159186632Y-73199508D01*
X159217246Y-73202523D01*
G37*
M02*
