G04 #@! TF.GenerationSoftware,KiCad,Pcbnew,(5.1.5-0-10_14)*
G04 #@! TF.CreationDate,2020-04-03T00:26:54-07:00*
G04 #@! TF.ProjectId,bike-light-board,62696b65-2d6c-4696-9768-742d626f6172,rev?*
G04 #@! TF.SameCoordinates,Original*
G04 #@! TF.FileFunction,Soldermask,Bot*
G04 #@! TF.FilePolarity,Negative*
%FSLAX46Y46*%
G04 Gerber Fmt 4.6, Leading zero omitted, Abs format (unit mm)*
G04 Created by KiCad (PCBNEW (5.1.5-0-10_14)) date 2020-04-03 00:26:54*
%MOMM*%
%LPD*%
G04 APERTURE LIST*
%ADD10C,0.100000*%
G04 APERTURE END LIST*
D10*
G36*
X165342143Y-127124793D02*
G01*
X165390752Y-127139538D01*
X165435542Y-127163479D01*
X165474805Y-127195702D01*
X165507028Y-127234965D01*
X165530969Y-127279755D01*
X165545714Y-127328364D01*
X165550999Y-127382025D01*
X165550999Y-131958991D01*
X165545714Y-132012652D01*
X165530969Y-132061261D01*
X165507028Y-132106051D01*
X165474805Y-132145314D01*
X165435542Y-132177537D01*
X165390752Y-132201478D01*
X165342143Y-132216223D01*
X165288482Y-132221508D01*
X162711516Y-132221508D01*
X162657855Y-132216223D01*
X162609246Y-132201478D01*
X162564456Y-132177537D01*
X162525193Y-132145314D01*
X162492970Y-132106051D01*
X162469029Y-132061261D01*
X162454284Y-132012652D01*
X162448999Y-131958991D01*
X162448999Y-127382025D01*
X162454284Y-127328364D01*
X162469029Y-127279755D01*
X162492970Y-127234965D01*
X162525193Y-127195702D01*
X162564456Y-127163479D01*
X162609246Y-127139538D01*
X162657855Y-127124793D01*
X162711516Y-127119508D01*
X165288482Y-127119508D01*
X165342143Y-127124793D01*
G37*
G36*
X159342143Y-127124793D02*
G01*
X159390752Y-127139538D01*
X159435542Y-127163479D01*
X159474805Y-127195702D01*
X159507028Y-127234965D01*
X159530969Y-127279755D01*
X159545714Y-127328364D01*
X159550999Y-127382025D01*
X159550999Y-131958991D01*
X159545714Y-132012652D01*
X159530969Y-132061261D01*
X159507028Y-132106051D01*
X159474805Y-132145314D01*
X159435542Y-132177537D01*
X159390752Y-132201478D01*
X159342143Y-132216223D01*
X159288482Y-132221508D01*
X156711516Y-132221508D01*
X156657855Y-132216223D01*
X156609246Y-132201478D01*
X156564456Y-132177537D01*
X156525193Y-132145314D01*
X156492970Y-132106051D01*
X156469029Y-132061261D01*
X156454284Y-132012652D01*
X156448999Y-131958991D01*
X156448999Y-127382025D01*
X156454284Y-127328364D01*
X156469029Y-127279755D01*
X156492970Y-127234965D01*
X156525193Y-127195702D01*
X156564456Y-127163479D01*
X156609246Y-127139538D01*
X156657855Y-127124793D01*
X156711516Y-127119508D01*
X159288482Y-127119508D01*
X159342143Y-127124793D01*
G37*
G36*
X165150999Y-124971508D02*
G01*
X163548999Y-124971508D01*
X163548999Y-121469508D01*
X165150999Y-121469508D01*
X165150999Y-124971508D01*
G37*
G36*
X158450999Y-124971508D02*
G01*
X156848999Y-124971508D01*
X156848999Y-121469508D01*
X158450999Y-121469508D01*
X158450999Y-124971508D01*
G37*
G36*
X162550999Y-119471508D02*
G01*
X161448999Y-119471508D01*
X161448999Y-115869508D01*
X162550999Y-115869508D01*
X162550999Y-119471508D01*
G37*
G36*
X160550999Y-119471508D02*
G01*
X159448999Y-119471508D01*
X159448999Y-115869508D01*
X160550999Y-115869508D01*
X160550999Y-119471508D01*
G37*
G36*
X166997246Y-114052523D02*
G01*
X167023683Y-114060543D01*
X167048052Y-114073568D01*
X167069410Y-114091097D01*
X167086939Y-114112455D01*
X167099964Y-114136824D01*
X167107984Y-114163261D01*
X167110999Y-114193875D01*
X167110999Y-114647141D01*
X167107984Y-114677755D01*
X167099964Y-114704192D01*
X167086939Y-114728561D01*
X167069410Y-114749919D01*
X167048052Y-114767448D01*
X167023683Y-114780473D01*
X166997246Y-114788493D01*
X166966632Y-114791508D01*
X166563366Y-114791508D01*
X166532752Y-114788493D01*
X166506315Y-114780473D01*
X166481946Y-114767448D01*
X166460588Y-114749919D01*
X166443059Y-114728561D01*
X166430034Y-114704192D01*
X166422014Y-114677755D01*
X166418999Y-114647141D01*
X166418999Y-114193875D01*
X166422014Y-114163261D01*
X166430034Y-114136824D01*
X166443059Y-114112455D01*
X166460588Y-114091097D01*
X166481946Y-114073568D01*
X166506315Y-114060543D01*
X166532752Y-114052523D01*
X166563366Y-114049508D01*
X166966632Y-114049508D01*
X166997246Y-114052523D01*
G37*
G36*
X167967246Y-114052523D02*
G01*
X167993683Y-114060543D01*
X168018052Y-114073568D01*
X168039410Y-114091097D01*
X168056939Y-114112455D01*
X168069964Y-114136824D01*
X168077984Y-114163261D01*
X168080999Y-114193875D01*
X168080999Y-114647141D01*
X168077984Y-114677755D01*
X168069964Y-114704192D01*
X168056939Y-114728561D01*
X168039410Y-114749919D01*
X168018052Y-114767448D01*
X167993683Y-114780473D01*
X167967246Y-114788493D01*
X167936632Y-114791508D01*
X167533366Y-114791508D01*
X167502752Y-114788493D01*
X167476315Y-114780473D01*
X167451946Y-114767448D01*
X167430588Y-114749919D01*
X167413059Y-114728561D01*
X167400034Y-114704192D01*
X167392014Y-114677755D01*
X167388999Y-114647141D01*
X167388999Y-114193875D01*
X167392014Y-114163261D01*
X167400034Y-114136824D01*
X167413059Y-114112455D01*
X167430588Y-114091097D01*
X167451946Y-114073568D01*
X167476315Y-114060543D01*
X167502752Y-114052523D01*
X167533366Y-114049508D01*
X167936632Y-114049508D01*
X167967246Y-114052523D01*
G37*
G36*
X154854893Y-112473892D02*
G01*
X154894704Y-112485968D01*
X154931389Y-112505577D01*
X154963543Y-112531964D01*
X154989930Y-112564118D01*
X155009539Y-112600803D01*
X155021615Y-112640614D01*
X155025999Y-112685125D01*
X155025999Y-113230891D01*
X155021615Y-113275402D01*
X155009539Y-113315213D01*
X154989930Y-113351898D01*
X154963543Y-113384052D01*
X154931389Y-113410439D01*
X154894704Y-113430048D01*
X154854893Y-113442124D01*
X154810382Y-113446508D01*
X154189616Y-113446508D01*
X154145105Y-113442124D01*
X154105294Y-113430048D01*
X154068609Y-113410439D01*
X154036455Y-113384052D01*
X154010068Y-113351898D01*
X153990459Y-113315213D01*
X153978383Y-113275402D01*
X153973999Y-113230891D01*
X153973999Y-112685125D01*
X153978383Y-112640614D01*
X153990459Y-112600803D01*
X154010068Y-112564118D01*
X154036455Y-112531964D01*
X154068609Y-112505577D01*
X154105294Y-112485968D01*
X154145105Y-112473892D01*
X154189616Y-112469508D01*
X154810382Y-112469508D01*
X154854893Y-112473892D01*
G37*
G36*
X159075999Y-113351508D02*
G01*
X158323999Y-113351508D01*
X158323999Y-112189508D01*
X159075999Y-112189508D01*
X159075999Y-113351508D01*
G37*
G36*
X158125999Y-113351508D02*
G01*
X157373999Y-113351508D01*
X157373999Y-112189508D01*
X158125999Y-112189508D01*
X158125999Y-113351508D01*
G37*
G36*
X157175999Y-113351508D02*
G01*
X156423999Y-113351508D01*
X156423999Y-112189508D01*
X157175999Y-112189508D01*
X157175999Y-113351508D01*
G37*
G36*
X166230999Y-112996508D02*
G01*
X165068999Y-112996508D01*
X165068999Y-112244508D01*
X166230999Y-112244508D01*
X166230999Y-112996508D01*
G37*
G36*
X163930999Y-112996508D02*
G01*
X162768999Y-112996508D01*
X162768999Y-112244508D01*
X163930999Y-112244508D01*
X163930999Y-112996508D01*
G37*
G36*
X161730999Y-112996508D02*
G01*
X160568999Y-112996508D01*
X160568999Y-112244508D01*
X161730999Y-112244508D01*
X161730999Y-112996508D01*
G37*
G36*
X168430999Y-112996508D02*
G01*
X167268999Y-112996508D01*
X167268999Y-112244508D01*
X168430999Y-112244508D01*
X168430999Y-112996508D01*
G37*
G36*
X168430999Y-112046508D02*
G01*
X167268999Y-112046508D01*
X167268999Y-111294508D01*
X168430999Y-111294508D01*
X168430999Y-112046508D01*
G37*
G36*
X166230999Y-112046508D02*
G01*
X165068999Y-112046508D01*
X165068999Y-111294508D01*
X166230999Y-111294508D01*
X166230999Y-112046508D01*
G37*
G36*
X163930999Y-112046508D02*
G01*
X162768999Y-112046508D01*
X162768999Y-111294508D01*
X163930999Y-111294508D01*
X163930999Y-112046508D01*
G37*
G36*
X161730999Y-112046508D02*
G01*
X160568999Y-112046508D01*
X160568999Y-111294508D01*
X161730999Y-111294508D01*
X161730999Y-112046508D01*
G37*
G36*
X154854893Y-110898892D02*
G01*
X154894704Y-110910968D01*
X154931389Y-110930577D01*
X154963543Y-110956964D01*
X154989930Y-110989118D01*
X155009539Y-111025803D01*
X155021615Y-111065614D01*
X155025999Y-111110125D01*
X155025999Y-111655891D01*
X155021615Y-111700402D01*
X155009539Y-111740213D01*
X154989930Y-111776898D01*
X154963543Y-111809052D01*
X154931389Y-111835439D01*
X154894704Y-111855048D01*
X154854893Y-111867124D01*
X154810382Y-111871508D01*
X154189616Y-111871508D01*
X154145105Y-111867124D01*
X154105294Y-111855048D01*
X154068609Y-111835439D01*
X154036455Y-111809052D01*
X154010068Y-111776898D01*
X153990459Y-111740213D01*
X153978383Y-111700402D01*
X153973999Y-111655891D01*
X153973999Y-111110125D01*
X153978383Y-111065614D01*
X153990459Y-111025803D01*
X154010068Y-110989118D01*
X154036455Y-110956964D01*
X154068609Y-110930577D01*
X154105294Y-110910968D01*
X154145105Y-110898892D01*
X154189616Y-110894508D01*
X154810382Y-110894508D01*
X154854893Y-110898892D01*
G37*
G36*
X159075999Y-111151508D02*
G01*
X158323999Y-111151508D01*
X158323999Y-109989508D01*
X159075999Y-109989508D01*
X159075999Y-111151508D01*
G37*
G36*
X157175999Y-111151508D02*
G01*
X156423999Y-111151508D01*
X156423999Y-109989508D01*
X157175999Y-109989508D01*
X157175999Y-111151508D01*
G37*
G36*
X168430999Y-111096508D02*
G01*
X167268999Y-111096508D01*
X167268999Y-110344508D01*
X168430999Y-110344508D01*
X168430999Y-111096508D01*
G37*
G36*
X166230999Y-111096508D02*
G01*
X165068999Y-111096508D01*
X165068999Y-110344508D01*
X166230999Y-110344508D01*
X166230999Y-111096508D01*
G37*
G36*
X161730999Y-111096508D02*
G01*
X160568999Y-111096508D01*
X160568999Y-110344508D01*
X161730999Y-110344508D01*
X161730999Y-111096508D01*
G37*
G36*
X163930999Y-111096508D02*
G01*
X162768999Y-111096508D01*
X162768999Y-110344508D01*
X163930999Y-110344508D01*
X163930999Y-111096508D01*
G37*
G36*
X154007246Y-109312523D02*
G01*
X154033683Y-109320543D01*
X154058052Y-109333568D01*
X154079410Y-109351097D01*
X154096939Y-109372455D01*
X154109964Y-109396824D01*
X154117984Y-109423261D01*
X154120999Y-109453875D01*
X154120999Y-109857141D01*
X154117984Y-109887755D01*
X154109964Y-109914192D01*
X154096939Y-109938561D01*
X154079410Y-109959919D01*
X154058052Y-109977448D01*
X154033683Y-109990473D01*
X154007246Y-109998493D01*
X153976632Y-110001508D01*
X153523366Y-110001508D01*
X153492752Y-109998493D01*
X153466315Y-109990473D01*
X153441946Y-109977448D01*
X153420588Y-109959919D01*
X153403059Y-109938561D01*
X153390034Y-109914192D01*
X153382014Y-109887755D01*
X153378999Y-109857141D01*
X153378999Y-109453875D01*
X153382014Y-109423261D01*
X153390034Y-109396824D01*
X153403059Y-109372455D01*
X153420588Y-109351097D01*
X153441946Y-109333568D01*
X153466315Y-109320543D01*
X153492752Y-109312523D01*
X153523366Y-109309508D01*
X153976632Y-109309508D01*
X154007246Y-109312523D01*
G37*
G36*
X161247246Y-108302523D02*
G01*
X161273683Y-108310543D01*
X161298052Y-108323568D01*
X161319410Y-108341097D01*
X161336939Y-108362455D01*
X161349964Y-108386824D01*
X161357984Y-108413261D01*
X161360999Y-108443875D01*
X161360999Y-108897141D01*
X161357984Y-108927755D01*
X161349964Y-108954192D01*
X161336939Y-108978561D01*
X161319410Y-108999919D01*
X161298052Y-109017448D01*
X161273683Y-109030473D01*
X161247246Y-109038493D01*
X161216632Y-109041508D01*
X160813366Y-109041508D01*
X160782752Y-109038493D01*
X160756315Y-109030473D01*
X160731946Y-109017448D01*
X160710588Y-108999919D01*
X160693059Y-108978561D01*
X160680034Y-108954192D01*
X160672014Y-108927755D01*
X160668999Y-108897141D01*
X160668999Y-108443875D01*
X160672014Y-108413261D01*
X160680034Y-108386824D01*
X160693059Y-108362455D01*
X160710588Y-108341097D01*
X160731946Y-108323568D01*
X160756315Y-108310543D01*
X160782752Y-108302523D01*
X160813366Y-108299508D01*
X161216632Y-108299508D01*
X161247246Y-108302523D01*
G37*
G36*
X162217246Y-108302523D02*
G01*
X162243683Y-108310543D01*
X162268052Y-108323568D01*
X162289410Y-108341097D01*
X162306939Y-108362455D01*
X162319964Y-108386824D01*
X162327984Y-108413261D01*
X162330999Y-108443875D01*
X162330999Y-108897141D01*
X162327984Y-108927755D01*
X162319964Y-108954192D01*
X162306939Y-108978561D01*
X162289410Y-108999919D01*
X162268052Y-109017448D01*
X162243683Y-109030473D01*
X162217246Y-109038493D01*
X162186632Y-109041508D01*
X161783366Y-109041508D01*
X161752752Y-109038493D01*
X161726315Y-109030473D01*
X161701946Y-109017448D01*
X161680588Y-108999919D01*
X161663059Y-108978561D01*
X161650034Y-108954192D01*
X161642014Y-108927755D01*
X161638999Y-108897141D01*
X161638999Y-108443875D01*
X161642014Y-108413261D01*
X161650034Y-108386824D01*
X161663059Y-108362455D01*
X161680588Y-108341097D01*
X161701946Y-108323568D01*
X161726315Y-108310543D01*
X161752752Y-108302523D01*
X161783366Y-108299508D01*
X162186632Y-108299508D01*
X162217246Y-108302523D01*
G37*
G36*
X165997246Y-108302523D02*
G01*
X166023683Y-108310543D01*
X166048052Y-108323568D01*
X166069410Y-108341097D01*
X166086939Y-108362455D01*
X166099964Y-108386824D01*
X166107984Y-108413261D01*
X166110999Y-108443875D01*
X166110999Y-108897141D01*
X166107984Y-108927755D01*
X166099964Y-108954192D01*
X166086939Y-108978561D01*
X166069410Y-108999919D01*
X166048052Y-109017448D01*
X166023683Y-109030473D01*
X165997246Y-109038493D01*
X165966632Y-109041508D01*
X165563366Y-109041508D01*
X165532752Y-109038493D01*
X165506315Y-109030473D01*
X165481946Y-109017448D01*
X165460588Y-108999919D01*
X165443059Y-108978561D01*
X165430034Y-108954192D01*
X165422014Y-108927755D01*
X165418999Y-108897141D01*
X165418999Y-108443875D01*
X165422014Y-108413261D01*
X165430034Y-108386824D01*
X165443059Y-108362455D01*
X165460588Y-108341097D01*
X165481946Y-108323568D01*
X165506315Y-108310543D01*
X165532752Y-108302523D01*
X165563366Y-108299508D01*
X165966632Y-108299508D01*
X165997246Y-108302523D01*
G37*
G36*
X166967246Y-108302523D02*
G01*
X166993683Y-108310543D01*
X167018052Y-108323568D01*
X167039410Y-108341097D01*
X167056939Y-108362455D01*
X167069964Y-108386824D01*
X167077984Y-108413261D01*
X167080999Y-108443875D01*
X167080999Y-108897141D01*
X167077984Y-108927755D01*
X167069964Y-108954192D01*
X167056939Y-108978561D01*
X167039410Y-108999919D01*
X167018052Y-109017448D01*
X166993683Y-109030473D01*
X166967246Y-109038493D01*
X166936632Y-109041508D01*
X166533366Y-109041508D01*
X166502752Y-109038493D01*
X166476315Y-109030473D01*
X166451946Y-109017448D01*
X166430588Y-108999919D01*
X166413059Y-108978561D01*
X166400034Y-108954192D01*
X166392014Y-108927755D01*
X166388999Y-108897141D01*
X166388999Y-108443875D01*
X166392014Y-108413261D01*
X166400034Y-108386824D01*
X166413059Y-108362455D01*
X166430588Y-108341097D01*
X166451946Y-108323568D01*
X166476315Y-108310543D01*
X166502752Y-108302523D01*
X166533366Y-108299508D01*
X166936632Y-108299508D01*
X166967246Y-108302523D01*
G37*
G36*
X159967246Y-108302523D02*
G01*
X159993683Y-108310543D01*
X160018052Y-108323568D01*
X160039410Y-108341097D01*
X160056939Y-108362455D01*
X160069964Y-108386824D01*
X160077984Y-108413261D01*
X160080999Y-108443875D01*
X160080999Y-108897141D01*
X160077984Y-108927755D01*
X160069964Y-108954192D01*
X160056939Y-108978561D01*
X160039410Y-108999919D01*
X160018052Y-109017448D01*
X159993683Y-109030473D01*
X159967246Y-109038493D01*
X159936632Y-109041508D01*
X159533366Y-109041508D01*
X159502752Y-109038493D01*
X159476315Y-109030473D01*
X159451946Y-109017448D01*
X159430588Y-108999919D01*
X159413059Y-108978561D01*
X159400034Y-108954192D01*
X159392014Y-108927755D01*
X159388999Y-108897141D01*
X159388999Y-108443875D01*
X159392014Y-108413261D01*
X159400034Y-108386824D01*
X159413059Y-108362455D01*
X159430588Y-108341097D01*
X159451946Y-108323568D01*
X159476315Y-108310543D01*
X159502752Y-108302523D01*
X159533366Y-108299508D01*
X159936632Y-108299508D01*
X159967246Y-108302523D01*
G37*
G36*
X158997246Y-108302523D02*
G01*
X159023683Y-108310543D01*
X159048052Y-108323568D01*
X159069410Y-108341097D01*
X159086939Y-108362455D01*
X159099964Y-108386824D01*
X159107984Y-108413261D01*
X159110999Y-108443875D01*
X159110999Y-108897141D01*
X159107984Y-108927755D01*
X159099964Y-108954192D01*
X159086939Y-108978561D01*
X159069410Y-108999919D01*
X159048052Y-109017448D01*
X159023683Y-109030473D01*
X158997246Y-109038493D01*
X158966632Y-109041508D01*
X158563366Y-109041508D01*
X158532752Y-109038493D01*
X158506315Y-109030473D01*
X158481946Y-109017448D01*
X158460588Y-108999919D01*
X158443059Y-108978561D01*
X158430034Y-108954192D01*
X158422014Y-108927755D01*
X158418999Y-108897141D01*
X158418999Y-108443875D01*
X158422014Y-108413261D01*
X158430034Y-108386824D01*
X158443059Y-108362455D01*
X158460588Y-108341097D01*
X158481946Y-108323568D01*
X158506315Y-108310543D01*
X158532752Y-108302523D01*
X158563366Y-108299508D01*
X158966632Y-108299508D01*
X158997246Y-108302523D01*
G37*
G36*
X154007246Y-108342523D02*
G01*
X154033683Y-108350543D01*
X154058052Y-108363568D01*
X154079410Y-108381097D01*
X154096939Y-108402455D01*
X154109964Y-108426824D01*
X154117984Y-108453261D01*
X154120999Y-108483875D01*
X154120999Y-108887141D01*
X154117984Y-108917755D01*
X154109964Y-108944192D01*
X154096939Y-108968561D01*
X154079410Y-108989919D01*
X154058052Y-109007448D01*
X154033683Y-109020473D01*
X154007246Y-109028493D01*
X153976632Y-109031508D01*
X153523366Y-109031508D01*
X153492752Y-109028493D01*
X153466315Y-109020473D01*
X153441946Y-109007448D01*
X153420588Y-108989919D01*
X153403059Y-108968561D01*
X153390034Y-108944192D01*
X153382014Y-108917755D01*
X153378999Y-108887141D01*
X153378999Y-108483875D01*
X153382014Y-108453261D01*
X153390034Y-108426824D01*
X153403059Y-108402455D01*
X153420588Y-108381097D01*
X153441946Y-108363568D01*
X153466315Y-108350543D01*
X153492752Y-108342523D01*
X153523366Y-108339508D01*
X153976632Y-108339508D01*
X154007246Y-108342523D01*
G37*
G36*
X157354893Y-107898892D02*
G01*
X157394704Y-107910968D01*
X157431389Y-107930577D01*
X157463543Y-107956964D01*
X157489930Y-107989118D01*
X157509539Y-108025803D01*
X157521615Y-108065614D01*
X157525999Y-108110125D01*
X157525999Y-108730891D01*
X157521615Y-108775402D01*
X157509539Y-108815213D01*
X157489930Y-108851898D01*
X157463543Y-108884052D01*
X157431389Y-108910439D01*
X157394704Y-108930048D01*
X157354893Y-108942124D01*
X157310382Y-108946508D01*
X156764616Y-108946508D01*
X156720105Y-108942124D01*
X156680294Y-108930048D01*
X156643609Y-108910439D01*
X156611455Y-108884052D01*
X156585068Y-108851898D01*
X156565459Y-108815213D01*
X156553383Y-108775402D01*
X156548999Y-108730891D01*
X156548999Y-108110125D01*
X156553383Y-108065614D01*
X156565459Y-108025803D01*
X156585068Y-107989118D01*
X156611455Y-107956964D01*
X156643609Y-107930577D01*
X156680294Y-107910968D01*
X156720105Y-107898892D01*
X156764616Y-107894508D01*
X157310382Y-107894508D01*
X157354893Y-107898892D01*
G37*
G36*
X155779893Y-107898892D02*
G01*
X155819704Y-107910968D01*
X155856389Y-107930577D01*
X155888543Y-107956964D01*
X155914930Y-107989118D01*
X155934539Y-108025803D01*
X155946615Y-108065614D01*
X155950999Y-108110125D01*
X155950999Y-108730891D01*
X155946615Y-108775402D01*
X155934539Y-108815213D01*
X155914930Y-108851898D01*
X155888543Y-108884052D01*
X155856389Y-108910439D01*
X155819704Y-108930048D01*
X155779893Y-108942124D01*
X155735382Y-108946508D01*
X155189616Y-108946508D01*
X155145105Y-108942124D01*
X155105294Y-108930048D01*
X155068609Y-108910439D01*
X155036455Y-108884052D01*
X155010068Y-108851898D01*
X154990459Y-108815213D01*
X154978383Y-108775402D01*
X154973999Y-108730891D01*
X154973999Y-108110125D01*
X154978383Y-108065614D01*
X154990459Y-108025803D01*
X155010068Y-107989118D01*
X155036455Y-107956964D01*
X155068609Y-107930577D01*
X155105294Y-107910968D01*
X155145105Y-107898892D01*
X155189616Y-107894508D01*
X155735382Y-107894508D01*
X155779893Y-107898892D01*
G37*
G36*
X169354893Y-107973892D02*
G01*
X169394704Y-107985968D01*
X169431389Y-108005577D01*
X169463543Y-108031964D01*
X169489930Y-108064118D01*
X169509539Y-108100803D01*
X169521615Y-108140614D01*
X169525999Y-108185125D01*
X169525999Y-108730891D01*
X169521615Y-108775402D01*
X169509539Y-108815213D01*
X169489930Y-108851898D01*
X169463543Y-108884052D01*
X169431389Y-108910439D01*
X169394704Y-108930048D01*
X169354893Y-108942124D01*
X169310382Y-108946508D01*
X168689616Y-108946508D01*
X168645105Y-108942124D01*
X168605294Y-108930048D01*
X168568609Y-108910439D01*
X168536455Y-108884052D01*
X168510068Y-108851898D01*
X168490459Y-108815213D01*
X168478383Y-108775402D01*
X168473999Y-108730891D01*
X168473999Y-108185125D01*
X168478383Y-108140614D01*
X168490459Y-108100803D01*
X168510068Y-108064118D01*
X168536455Y-108031964D01*
X168568609Y-108005577D01*
X168605294Y-107985968D01*
X168645105Y-107973892D01*
X168689616Y-107969508D01*
X169310382Y-107969508D01*
X169354893Y-107973892D01*
G37*
G36*
X162217246Y-107052523D02*
G01*
X162243683Y-107060543D01*
X162268052Y-107073568D01*
X162289410Y-107091097D01*
X162306939Y-107112455D01*
X162319964Y-107136824D01*
X162327984Y-107163261D01*
X162330999Y-107193875D01*
X162330999Y-107647141D01*
X162327984Y-107677755D01*
X162319964Y-107704192D01*
X162306939Y-107728561D01*
X162289410Y-107749919D01*
X162268052Y-107767448D01*
X162243683Y-107780473D01*
X162217246Y-107788493D01*
X162186632Y-107791508D01*
X161783366Y-107791508D01*
X161752752Y-107788493D01*
X161726315Y-107780473D01*
X161701946Y-107767448D01*
X161680588Y-107749919D01*
X161663059Y-107728561D01*
X161650034Y-107704192D01*
X161642014Y-107677755D01*
X161638999Y-107647141D01*
X161638999Y-107193875D01*
X161642014Y-107163261D01*
X161650034Y-107136824D01*
X161663059Y-107112455D01*
X161680588Y-107091097D01*
X161701946Y-107073568D01*
X161726315Y-107060543D01*
X161752752Y-107052523D01*
X161783366Y-107049508D01*
X162186632Y-107049508D01*
X162217246Y-107052523D01*
G37*
G36*
X166967246Y-107052523D02*
G01*
X166993683Y-107060543D01*
X167018052Y-107073568D01*
X167039410Y-107091097D01*
X167056939Y-107112455D01*
X167069964Y-107136824D01*
X167077984Y-107163261D01*
X167080999Y-107193875D01*
X167080999Y-107647141D01*
X167077984Y-107677755D01*
X167069964Y-107704192D01*
X167056939Y-107728561D01*
X167039410Y-107749919D01*
X167018052Y-107767448D01*
X166993683Y-107780473D01*
X166967246Y-107788493D01*
X166936632Y-107791508D01*
X166533366Y-107791508D01*
X166502752Y-107788493D01*
X166476315Y-107780473D01*
X166451946Y-107767448D01*
X166430588Y-107749919D01*
X166413059Y-107728561D01*
X166400034Y-107704192D01*
X166392014Y-107677755D01*
X166388999Y-107647141D01*
X166388999Y-107193875D01*
X166392014Y-107163261D01*
X166400034Y-107136824D01*
X166413059Y-107112455D01*
X166430588Y-107091097D01*
X166451946Y-107073568D01*
X166476315Y-107060543D01*
X166502752Y-107052523D01*
X166533366Y-107049508D01*
X166936632Y-107049508D01*
X166967246Y-107052523D01*
G37*
G36*
X165997246Y-107052523D02*
G01*
X166023683Y-107060543D01*
X166048052Y-107073568D01*
X166069410Y-107091097D01*
X166086939Y-107112455D01*
X166099964Y-107136824D01*
X166107984Y-107163261D01*
X166110999Y-107193875D01*
X166110999Y-107647141D01*
X166107984Y-107677755D01*
X166099964Y-107704192D01*
X166086939Y-107728561D01*
X166069410Y-107749919D01*
X166048052Y-107767448D01*
X166023683Y-107780473D01*
X165997246Y-107788493D01*
X165966632Y-107791508D01*
X165563366Y-107791508D01*
X165532752Y-107788493D01*
X165506315Y-107780473D01*
X165481946Y-107767448D01*
X165460588Y-107749919D01*
X165443059Y-107728561D01*
X165430034Y-107704192D01*
X165422014Y-107677755D01*
X165418999Y-107647141D01*
X165418999Y-107193875D01*
X165422014Y-107163261D01*
X165430034Y-107136824D01*
X165443059Y-107112455D01*
X165460588Y-107091097D01*
X165481946Y-107073568D01*
X165506315Y-107060543D01*
X165532752Y-107052523D01*
X165563366Y-107049508D01*
X165966632Y-107049508D01*
X165997246Y-107052523D01*
G37*
G36*
X161247246Y-107052523D02*
G01*
X161273683Y-107060543D01*
X161298052Y-107073568D01*
X161319410Y-107091097D01*
X161336939Y-107112455D01*
X161349964Y-107136824D01*
X161357984Y-107163261D01*
X161360999Y-107193875D01*
X161360999Y-107647141D01*
X161357984Y-107677755D01*
X161349964Y-107704192D01*
X161336939Y-107728561D01*
X161319410Y-107749919D01*
X161298052Y-107767448D01*
X161273683Y-107780473D01*
X161247246Y-107788493D01*
X161216632Y-107791508D01*
X160813366Y-107791508D01*
X160782752Y-107788493D01*
X160756315Y-107780473D01*
X160731946Y-107767448D01*
X160710588Y-107749919D01*
X160693059Y-107728561D01*
X160680034Y-107704192D01*
X160672014Y-107677755D01*
X160668999Y-107647141D01*
X160668999Y-107193875D01*
X160672014Y-107163261D01*
X160680034Y-107136824D01*
X160693059Y-107112455D01*
X160710588Y-107091097D01*
X160731946Y-107073568D01*
X160756315Y-107060543D01*
X160782752Y-107052523D01*
X160813366Y-107049508D01*
X161216632Y-107049508D01*
X161247246Y-107052523D01*
G37*
G36*
X145775999Y-107771508D02*
G01*
X144673999Y-107771508D01*
X144673999Y-106169508D01*
X145775999Y-106169508D01*
X145775999Y-107771508D01*
G37*
G36*
X179450999Y-107721508D02*
G01*
X178348999Y-107721508D01*
X178348999Y-105919508D01*
X179450999Y-105919508D01*
X179450999Y-107721508D01*
G37*
G36*
X175650999Y-107721508D02*
G01*
X174548999Y-107721508D01*
X174548999Y-105919508D01*
X175650999Y-105919508D01*
X175650999Y-107721508D01*
G37*
G36*
X154104893Y-106398892D02*
G01*
X154144704Y-106410968D01*
X154181389Y-106430577D01*
X154213543Y-106456964D01*
X154239930Y-106489118D01*
X154259539Y-106525803D01*
X154271615Y-106565614D01*
X154275999Y-106610125D01*
X154275999Y-107230891D01*
X154271615Y-107275402D01*
X154259539Y-107315213D01*
X154239930Y-107351898D01*
X154213543Y-107384052D01*
X154181389Y-107410439D01*
X154144704Y-107430048D01*
X154104893Y-107442124D01*
X154060382Y-107446508D01*
X153514616Y-107446508D01*
X153470105Y-107442124D01*
X153430294Y-107430048D01*
X153393609Y-107410439D01*
X153361455Y-107384052D01*
X153335068Y-107351898D01*
X153315459Y-107315213D01*
X153303383Y-107275402D01*
X153298999Y-107230891D01*
X153298999Y-106610125D01*
X153303383Y-106565614D01*
X153315459Y-106525803D01*
X153335068Y-106489118D01*
X153361455Y-106456964D01*
X153393609Y-106430577D01*
X153430294Y-106410968D01*
X153470105Y-106398892D01*
X153514616Y-106394508D01*
X154060382Y-106394508D01*
X154104893Y-106398892D01*
G37*
G36*
X152529893Y-106398892D02*
G01*
X152569704Y-106410968D01*
X152606389Y-106430577D01*
X152638543Y-106456964D01*
X152664930Y-106489118D01*
X152684539Y-106525803D01*
X152696615Y-106565614D01*
X152700999Y-106610125D01*
X152700999Y-107230891D01*
X152696615Y-107275402D01*
X152684539Y-107315213D01*
X152664930Y-107351898D01*
X152638543Y-107384052D01*
X152606389Y-107410439D01*
X152569704Y-107430048D01*
X152529893Y-107442124D01*
X152485382Y-107446508D01*
X151939616Y-107446508D01*
X151895105Y-107442124D01*
X151855294Y-107430048D01*
X151818609Y-107410439D01*
X151786455Y-107384052D01*
X151760068Y-107351898D01*
X151740459Y-107315213D01*
X151728383Y-107275402D01*
X151723999Y-107230891D01*
X151723999Y-106610125D01*
X151728383Y-106565614D01*
X151740459Y-106525803D01*
X151760068Y-106489118D01*
X151786455Y-106456964D01*
X151818609Y-106430577D01*
X151855294Y-106410968D01*
X151895105Y-106398892D01*
X151939616Y-106394508D01*
X152485382Y-106394508D01*
X152529893Y-106398892D01*
G37*
G36*
X169354893Y-106398892D02*
G01*
X169394704Y-106410968D01*
X169431389Y-106430577D01*
X169463543Y-106456964D01*
X169489930Y-106489118D01*
X169509539Y-106525803D01*
X169521615Y-106565614D01*
X169525999Y-106610125D01*
X169525999Y-107155891D01*
X169521615Y-107200402D01*
X169509539Y-107240213D01*
X169489930Y-107276898D01*
X169463543Y-107309052D01*
X169431389Y-107335439D01*
X169394704Y-107355048D01*
X169354893Y-107367124D01*
X169310382Y-107371508D01*
X168689616Y-107371508D01*
X168645105Y-107367124D01*
X168605294Y-107355048D01*
X168568609Y-107335439D01*
X168536455Y-107309052D01*
X168510068Y-107276898D01*
X168490459Y-107240213D01*
X168478383Y-107200402D01*
X168473999Y-107155891D01*
X168473999Y-106610125D01*
X168478383Y-106565614D01*
X168490459Y-106525803D01*
X168510068Y-106489118D01*
X168536455Y-106456964D01*
X168568609Y-106430577D01*
X168605294Y-106410968D01*
X168645105Y-106398892D01*
X168689616Y-106394508D01*
X169310382Y-106394508D01*
X169354893Y-106398892D01*
G37*
G36*
X143975999Y-105771508D02*
G01*
X143698233Y-105771508D01*
X143685845Y-105772728D01*
X143673933Y-105776342D01*
X143662955Y-105782210D01*
X143653332Y-105790106D01*
X143645436Y-105799729D01*
X143639568Y-105810707D01*
X143635954Y-105822619D01*
X143634734Y-105835007D01*
X143635954Y-105847395D01*
X143639568Y-105859307D01*
X143645436Y-105870285D01*
X143653332Y-105879908D01*
X143662955Y-105887804D01*
X143673933Y-105893672D01*
X143685845Y-105897286D01*
X143692009Y-105898200D01*
X143742813Y-105903204D01*
X143856107Y-105937571D01*
X143960514Y-105993378D01*
X144052027Y-106068480D01*
X144127129Y-106159993D01*
X144182936Y-106264400D01*
X144217303Y-106377694D01*
X144228907Y-106495508D01*
X144217303Y-106613322D01*
X144182936Y-106726616D01*
X144127129Y-106831023D01*
X144052027Y-106922536D01*
X143960514Y-106997638D01*
X143856107Y-107053445D01*
X143742813Y-107087812D01*
X143654524Y-107096508D01*
X142295474Y-107096508D01*
X142207185Y-107087812D01*
X142093891Y-107053445D01*
X141989484Y-106997638D01*
X141897971Y-106922536D01*
X141822869Y-106831023D01*
X141767062Y-106726616D01*
X141732695Y-106613322D01*
X141721091Y-106495508D01*
X141732695Y-106377694D01*
X141767062Y-106264400D01*
X141822869Y-106159993D01*
X141897971Y-106068480D01*
X141989484Y-105993378D01*
X142093891Y-105937571D01*
X142207185Y-105903204D01*
X142257989Y-105898200D01*
X142270198Y-105895772D01*
X142281698Y-105891008D01*
X142292048Y-105884092D01*
X142300850Y-105875290D01*
X142307766Y-105864940D01*
X142312530Y-105853440D01*
X142314958Y-105841231D01*
X142314958Y-105828783D01*
X142312530Y-105816574D01*
X142307766Y-105805074D01*
X142300850Y-105794724D01*
X142292048Y-105785922D01*
X142281698Y-105779006D01*
X142270198Y-105774242D01*
X142257989Y-105771814D01*
X142251765Y-105771508D01*
X141973999Y-105771508D01*
X141973999Y-103769508D01*
X143975999Y-103769508D01*
X143975999Y-105771508D01*
G37*
G36*
X166700999Y-106171508D02*
G01*
X165798999Y-106171508D01*
X165798999Y-105169508D01*
X166700999Y-105169508D01*
X166700999Y-106171508D01*
G37*
G36*
X147125999Y-105221508D02*
G01*
X145227456Y-105221508D01*
X145215068Y-105222728D01*
X145203156Y-105226342D01*
X145192178Y-105232210D01*
X145182555Y-105240106D01*
X145174659Y-105249729D01*
X145168791Y-105260707D01*
X145165177Y-105272619D01*
X145163957Y-105285007D01*
X145165177Y-105297395D01*
X145168791Y-105309307D01*
X145174659Y-105320285D01*
X145182555Y-105329908D01*
X145192178Y-105337804D01*
X145203157Y-105343673D01*
X145241263Y-105359457D01*
X145298744Y-105397864D01*
X145347643Y-105446763D01*
X145386050Y-105504244D01*
X145412510Y-105568125D01*
X145425999Y-105635938D01*
X145425999Y-105705078D01*
X145412510Y-105772891D01*
X145386050Y-105836772D01*
X145347643Y-105894253D01*
X145298744Y-105943152D01*
X145241263Y-105981559D01*
X145177382Y-106008019D01*
X145109569Y-106021508D01*
X145040429Y-106021508D01*
X144972616Y-106008019D01*
X144908735Y-105981559D01*
X144851254Y-105943152D01*
X144802355Y-105894253D01*
X144763948Y-105836772D01*
X144737488Y-105772891D01*
X144723999Y-105705078D01*
X144723999Y-105635938D01*
X144737488Y-105568125D01*
X144763948Y-105504244D01*
X144802355Y-105446763D01*
X144851254Y-105397864D01*
X144908735Y-105359457D01*
X144946841Y-105343673D01*
X144957820Y-105337805D01*
X144967442Y-105329908D01*
X144975339Y-105320286D01*
X144981207Y-105309308D01*
X144984821Y-105297396D01*
X144986041Y-105285008D01*
X144984821Y-105272620D01*
X144981208Y-105260708D01*
X144975340Y-105249729D01*
X144967443Y-105240107D01*
X144957821Y-105232210D01*
X144946843Y-105226342D01*
X144934931Y-105222728D01*
X144923999Y-105221651D01*
X144923999Y-104719508D01*
X147125999Y-104719508D01*
X147125999Y-105221508D01*
G37*
G36*
X158800999Y-105621508D02*
G01*
X156198999Y-105621508D01*
X156198999Y-103719508D01*
X158800999Y-103719508D01*
X158800999Y-105621508D01*
G37*
G36*
X162800999Y-105621508D02*
G01*
X160198999Y-105621508D01*
X160198999Y-103719508D01*
X162800999Y-103719508D01*
X162800999Y-105621508D01*
G37*
G36*
X152600999Y-105496508D02*
G01*
X152098999Y-105496508D01*
X152098999Y-104744508D01*
X152600999Y-104744508D01*
X152600999Y-105496508D01*
G37*
G36*
X153900999Y-105496508D02*
G01*
X153398999Y-105496508D01*
X153398999Y-104744508D01*
X153900999Y-104744508D01*
X153900999Y-105496508D01*
G37*
G36*
X169257246Y-104312523D02*
G01*
X169283683Y-104320543D01*
X169308052Y-104333568D01*
X169329410Y-104351097D01*
X169346939Y-104372455D01*
X169359964Y-104396824D01*
X169367984Y-104423261D01*
X169370999Y-104453875D01*
X169370999Y-104857141D01*
X169367984Y-104887755D01*
X169359964Y-104914192D01*
X169346939Y-104938561D01*
X169329410Y-104959919D01*
X169308052Y-104977448D01*
X169283683Y-104990473D01*
X169257246Y-104998493D01*
X169226632Y-105001508D01*
X168773366Y-105001508D01*
X168742752Y-104998493D01*
X168716315Y-104990473D01*
X168691946Y-104977448D01*
X168670588Y-104959919D01*
X168653059Y-104938561D01*
X168640034Y-104914192D01*
X168632014Y-104887755D01*
X168628999Y-104857141D01*
X168628999Y-104453875D01*
X168632014Y-104423261D01*
X168640034Y-104396824D01*
X168653059Y-104372455D01*
X168670588Y-104351097D01*
X168691946Y-104333568D01*
X168716315Y-104320543D01*
X168742752Y-104312523D01*
X168773366Y-104309508D01*
X169226632Y-104309508D01*
X169257246Y-104312523D01*
G37*
G36*
X147125999Y-104571508D02*
G01*
X144923999Y-104571508D01*
X144923999Y-104069508D01*
X147125999Y-104069508D01*
X147125999Y-104571508D01*
G37*
G36*
X167650999Y-104171508D02*
G01*
X166748999Y-104171508D01*
X166748999Y-103169508D01*
X167650999Y-103169508D01*
X167650999Y-104171508D01*
G37*
G36*
X165750999Y-104171508D02*
G01*
X164848999Y-104171508D01*
X164848999Y-103169508D01*
X165750999Y-103169508D01*
X165750999Y-104171508D01*
G37*
G36*
X169257246Y-103342523D02*
G01*
X169283683Y-103350543D01*
X169308052Y-103363568D01*
X169329410Y-103381097D01*
X169346939Y-103402455D01*
X169359964Y-103426824D01*
X169367984Y-103453261D01*
X169370999Y-103483875D01*
X169370999Y-103887141D01*
X169367984Y-103917755D01*
X169359964Y-103944192D01*
X169346939Y-103968561D01*
X169329410Y-103989919D01*
X169308052Y-104007448D01*
X169283683Y-104020473D01*
X169257246Y-104028493D01*
X169226632Y-104031508D01*
X168773366Y-104031508D01*
X168742752Y-104028493D01*
X168716315Y-104020473D01*
X168691946Y-104007448D01*
X168670588Y-103989919D01*
X168653059Y-103968561D01*
X168640034Y-103944192D01*
X168632014Y-103917755D01*
X168628999Y-103887141D01*
X168628999Y-103483875D01*
X168632014Y-103453261D01*
X168640034Y-103426824D01*
X168653059Y-103402455D01*
X168670588Y-103381097D01*
X168691946Y-103363568D01*
X168716315Y-103350543D01*
X168742752Y-103342523D01*
X168773366Y-103339508D01*
X169226632Y-103339508D01*
X169257246Y-103342523D01*
G37*
G36*
X147125999Y-103921508D02*
G01*
X144923999Y-103921508D01*
X144923999Y-103419508D01*
X147125999Y-103419508D01*
X147125999Y-103921508D01*
G37*
G36*
X153250999Y-103596508D02*
G01*
X152748999Y-103596508D01*
X152748999Y-102844508D01*
X153250999Y-102844508D01*
X153250999Y-103596508D01*
G37*
G36*
X153900999Y-103596508D02*
G01*
X153398999Y-103596508D01*
X153398999Y-102844508D01*
X153900999Y-102844508D01*
X153900999Y-103596508D01*
G37*
G36*
X152600999Y-103596508D02*
G01*
X152098999Y-103596508D01*
X152098999Y-102844508D01*
X152600999Y-102844508D01*
X152600999Y-103596508D01*
G37*
G36*
X143742813Y-100253204D02*
G01*
X143856107Y-100287571D01*
X143960514Y-100343378D01*
X144052027Y-100418480D01*
X144127129Y-100509993D01*
X144182936Y-100614400D01*
X144217303Y-100727694D01*
X144228907Y-100845508D01*
X144217303Y-100963322D01*
X144182936Y-101076616D01*
X144127129Y-101181023D01*
X144052027Y-101272536D01*
X143960514Y-101347638D01*
X143856107Y-101403445D01*
X143742813Y-101437812D01*
X143692009Y-101442816D01*
X143679800Y-101445244D01*
X143668300Y-101450008D01*
X143657950Y-101456924D01*
X143649148Y-101465726D01*
X143642232Y-101476076D01*
X143637468Y-101487576D01*
X143635040Y-101499785D01*
X143635040Y-101512233D01*
X143637468Y-101524442D01*
X143642232Y-101535942D01*
X143649148Y-101546292D01*
X143657950Y-101555094D01*
X143668300Y-101562010D01*
X143679800Y-101566774D01*
X143692009Y-101569202D01*
X143698233Y-101569508D01*
X143975999Y-101569508D01*
X143975999Y-103571508D01*
X141973999Y-103571508D01*
X141973999Y-101569508D01*
X142251765Y-101569508D01*
X142264153Y-101568288D01*
X142276065Y-101564674D01*
X142287043Y-101558806D01*
X142296666Y-101550910D01*
X142304562Y-101541287D01*
X142310430Y-101530309D01*
X142314044Y-101518397D01*
X142315264Y-101506009D01*
X142314044Y-101493621D01*
X142310430Y-101481709D01*
X142304562Y-101470731D01*
X142296666Y-101461108D01*
X142287043Y-101453212D01*
X142276065Y-101447344D01*
X142264153Y-101443730D01*
X142257989Y-101442816D01*
X142207185Y-101437812D01*
X142093891Y-101403445D01*
X141989484Y-101347638D01*
X141897971Y-101272536D01*
X141822869Y-101181023D01*
X141767062Y-101076616D01*
X141732695Y-100963322D01*
X141721091Y-100845508D01*
X141732695Y-100727694D01*
X141767062Y-100614400D01*
X141822869Y-100509993D01*
X141897971Y-100418480D01*
X141989484Y-100343378D01*
X142093891Y-100287571D01*
X142207185Y-100253204D01*
X142295474Y-100244508D01*
X143654524Y-100244508D01*
X143742813Y-100253204D01*
G37*
G36*
X147125999Y-103271508D02*
G01*
X144923999Y-103271508D01*
X144923999Y-102769508D01*
X147125999Y-102769508D01*
X147125999Y-103271508D01*
G37*
G36*
X169257246Y-102062523D02*
G01*
X169283683Y-102070543D01*
X169308052Y-102083568D01*
X169329410Y-102101097D01*
X169346939Y-102122455D01*
X169359964Y-102146824D01*
X169367984Y-102173261D01*
X169370999Y-102203875D01*
X169370999Y-102607141D01*
X169367984Y-102637755D01*
X169359964Y-102664192D01*
X169346939Y-102688561D01*
X169329410Y-102709919D01*
X169308052Y-102727448D01*
X169283683Y-102740473D01*
X169257246Y-102748493D01*
X169226632Y-102751508D01*
X168773366Y-102751508D01*
X168742752Y-102748493D01*
X168716315Y-102740473D01*
X168691946Y-102727448D01*
X168670588Y-102709919D01*
X168653059Y-102688561D01*
X168640034Y-102664192D01*
X168632014Y-102637755D01*
X168628999Y-102607141D01*
X168628999Y-102203875D01*
X168632014Y-102173261D01*
X168640034Y-102146824D01*
X168653059Y-102122455D01*
X168670588Y-102101097D01*
X168691946Y-102083568D01*
X168716315Y-102070543D01*
X168742752Y-102062523D01*
X168773366Y-102059508D01*
X169226632Y-102059508D01*
X169257246Y-102062523D01*
G37*
G36*
X145177382Y-101332997D02*
G01*
X145241263Y-101359457D01*
X145298744Y-101397864D01*
X145347643Y-101446763D01*
X145386050Y-101504244D01*
X145412510Y-101568125D01*
X145425999Y-101635938D01*
X145425999Y-101705078D01*
X145412510Y-101772891D01*
X145386050Y-101836772D01*
X145347643Y-101894253D01*
X145298744Y-101943152D01*
X145241263Y-101981559D01*
X145203157Y-101997343D01*
X145192178Y-102003211D01*
X145182556Y-102011108D01*
X145174659Y-102020730D01*
X145168791Y-102031708D01*
X145165177Y-102043620D01*
X145163957Y-102056008D01*
X145165177Y-102068396D01*
X145168790Y-102080308D01*
X145174658Y-102091287D01*
X145182555Y-102100909D01*
X145192177Y-102108806D01*
X145203155Y-102114674D01*
X145215067Y-102118288D01*
X145227456Y-102119508D01*
X147125999Y-102119508D01*
X147125999Y-102621508D01*
X144923999Y-102621508D01*
X144923999Y-102119365D01*
X144934930Y-102118288D01*
X144946842Y-102114674D01*
X144957820Y-102108806D01*
X144967443Y-102100910D01*
X144975339Y-102091287D01*
X144981207Y-102080309D01*
X144984821Y-102068397D01*
X144986041Y-102056009D01*
X144984821Y-102043621D01*
X144981207Y-102031709D01*
X144975339Y-102020731D01*
X144967443Y-102011108D01*
X144957820Y-102003212D01*
X144946841Y-101997343D01*
X144908735Y-101981559D01*
X144851254Y-101943152D01*
X144802355Y-101894253D01*
X144763948Y-101836772D01*
X144737488Y-101772891D01*
X144723999Y-101705078D01*
X144723999Y-101635938D01*
X144737488Y-101568125D01*
X144763948Y-101504244D01*
X144802355Y-101446763D01*
X144851254Y-101397864D01*
X144908735Y-101359457D01*
X144972616Y-101332997D01*
X145040429Y-101319508D01*
X145109569Y-101319508D01*
X145177382Y-101332997D01*
G37*
G36*
X169257246Y-101092523D02*
G01*
X169283683Y-101100543D01*
X169308052Y-101113568D01*
X169329410Y-101131097D01*
X169346939Y-101152455D01*
X169359964Y-101176824D01*
X169367984Y-101203261D01*
X169370999Y-101233875D01*
X169370999Y-101637141D01*
X169367984Y-101667755D01*
X169359964Y-101694192D01*
X169346939Y-101718561D01*
X169329410Y-101739919D01*
X169308052Y-101757448D01*
X169283683Y-101770473D01*
X169257246Y-101778493D01*
X169226632Y-101781508D01*
X168773366Y-101781508D01*
X168742752Y-101778493D01*
X168716315Y-101770473D01*
X168691946Y-101757448D01*
X168670588Y-101739919D01*
X168653059Y-101718561D01*
X168640034Y-101694192D01*
X168632014Y-101667755D01*
X168628999Y-101637141D01*
X168628999Y-101233875D01*
X168632014Y-101203261D01*
X168640034Y-101176824D01*
X168653059Y-101152455D01*
X168670588Y-101131097D01*
X168691946Y-101113568D01*
X168716315Y-101100543D01*
X168742752Y-101092523D01*
X168773366Y-101089508D01*
X169226632Y-101089508D01*
X169257246Y-101092523D01*
G37*
G36*
X164029893Y-100648892D02*
G01*
X164069704Y-100660968D01*
X164106389Y-100680577D01*
X164138543Y-100706964D01*
X164164930Y-100739118D01*
X164184539Y-100775803D01*
X164196615Y-100815614D01*
X164200999Y-100860125D01*
X164200999Y-101480891D01*
X164196615Y-101525402D01*
X164184539Y-101565213D01*
X164164930Y-101601898D01*
X164138543Y-101634052D01*
X164106389Y-101660439D01*
X164069704Y-101680048D01*
X164029893Y-101692124D01*
X163985382Y-101696508D01*
X163439616Y-101696508D01*
X163395105Y-101692124D01*
X163355294Y-101680048D01*
X163318609Y-101660439D01*
X163286455Y-101634052D01*
X163260068Y-101601898D01*
X163240459Y-101565213D01*
X163228383Y-101525402D01*
X163223999Y-101480891D01*
X163223999Y-100860125D01*
X163228383Y-100815614D01*
X163240459Y-100775803D01*
X163260068Y-100739118D01*
X163286455Y-100706964D01*
X163318609Y-100680577D01*
X163355294Y-100660968D01*
X163395105Y-100648892D01*
X163439616Y-100644508D01*
X163985382Y-100644508D01*
X164029893Y-100648892D01*
G37*
G36*
X165604893Y-100648892D02*
G01*
X165644704Y-100660968D01*
X165681389Y-100680577D01*
X165713543Y-100706964D01*
X165739930Y-100739118D01*
X165759539Y-100775803D01*
X165771615Y-100815614D01*
X165775999Y-100860125D01*
X165775999Y-101480891D01*
X165771615Y-101525402D01*
X165759539Y-101565213D01*
X165739930Y-101601898D01*
X165713543Y-101634052D01*
X165681389Y-101660439D01*
X165644704Y-101680048D01*
X165604893Y-101692124D01*
X165560382Y-101696508D01*
X165014616Y-101696508D01*
X164970105Y-101692124D01*
X164930294Y-101680048D01*
X164893609Y-101660439D01*
X164861455Y-101634052D01*
X164835068Y-101601898D01*
X164815459Y-101565213D01*
X164803383Y-101525402D01*
X164798999Y-101480891D01*
X164798999Y-100860125D01*
X164803383Y-100815614D01*
X164815459Y-100775803D01*
X164835068Y-100739118D01*
X164861455Y-100706964D01*
X164893609Y-100680577D01*
X164930294Y-100660968D01*
X164970105Y-100648892D01*
X165014616Y-100644508D01*
X165560382Y-100644508D01*
X165604893Y-100648892D01*
G37*
G36*
X179450999Y-101421508D02*
G01*
X178348999Y-101421508D01*
X178348999Y-99619508D01*
X179450999Y-99619508D01*
X179450999Y-101421508D01*
G37*
G36*
X175650999Y-101421508D02*
G01*
X174548999Y-101421508D01*
X174548999Y-99619508D01*
X175650999Y-99619508D01*
X175650999Y-101421508D01*
G37*
G36*
X157507246Y-100562523D02*
G01*
X157533683Y-100570543D01*
X157558052Y-100583568D01*
X157579410Y-100601097D01*
X157596939Y-100622455D01*
X157609964Y-100646824D01*
X157617984Y-100673261D01*
X157620999Y-100703875D01*
X157620999Y-101107141D01*
X157617984Y-101137755D01*
X157609964Y-101164192D01*
X157596939Y-101188561D01*
X157579410Y-101209919D01*
X157558052Y-101227448D01*
X157533683Y-101240473D01*
X157507246Y-101248493D01*
X157476632Y-101251508D01*
X157023366Y-101251508D01*
X156992752Y-101248493D01*
X156966315Y-101240473D01*
X156941946Y-101227448D01*
X156920588Y-101209919D01*
X156903059Y-101188561D01*
X156890034Y-101164192D01*
X156882014Y-101137755D01*
X156878999Y-101107141D01*
X156878999Y-100703875D01*
X156882014Y-100673261D01*
X156890034Y-100646824D01*
X156903059Y-100622455D01*
X156920588Y-100601097D01*
X156941946Y-100583568D01*
X156966315Y-100570543D01*
X156992752Y-100562523D01*
X157023366Y-100559508D01*
X157476632Y-100559508D01*
X157507246Y-100562523D01*
G37*
G36*
X158757246Y-100562523D02*
G01*
X158783683Y-100570543D01*
X158808052Y-100583568D01*
X158829410Y-100601097D01*
X158846939Y-100622455D01*
X158859964Y-100646824D01*
X158867984Y-100673261D01*
X158870999Y-100703875D01*
X158870999Y-101107141D01*
X158867984Y-101137755D01*
X158859964Y-101164192D01*
X158846939Y-101188561D01*
X158829410Y-101209919D01*
X158808052Y-101227448D01*
X158783683Y-101240473D01*
X158757246Y-101248493D01*
X158726632Y-101251508D01*
X158273366Y-101251508D01*
X158242752Y-101248493D01*
X158216315Y-101240473D01*
X158191946Y-101227448D01*
X158170588Y-101209919D01*
X158153059Y-101188561D01*
X158140034Y-101164192D01*
X158132014Y-101137755D01*
X158128999Y-101107141D01*
X158128999Y-100703875D01*
X158132014Y-100673261D01*
X158140034Y-100646824D01*
X158153059Y-100622455D01*
X158170588Y-100601097D01*
X158191946Y-100583568D01*
X158216315Y-100570543D01*
X158242752Y-100562523D01*
X158273366Y-100559508D01*
X158726632Y-100559508D01*
X158757246Y-100562523D01*
G37*
G36*
X145775999Y-101171508D02*
G01*
X144673999Y-101171508D01*
X144673999Y-99569508D01*
X145775999Y-99569508D01*
X145775999Y-101171508D01*
G37*
G36*
X153507246Y-100312523D02*
G01*
X153533683Y-100320543D01*
X153558052Y-100333568D01*
X153579410Y-100351097D01*
X153596939Y-100372455D01*
X153609964Y-100396824D01*
X153617984Y-100423261D01*
X153620999Y-100453875D01*
X153620999Y-100857141D01*
X153617984Y-100887755D01*
X153609964Y-100914192D01*
X153596939Y-100938561D01*
X153579410Y-100959919D01*
X153558052Y-100977448D01*
X153533683Y-100990473D01*
X153507246Y-100998493D01*
X153476632Y-101001508D01*
X153023366Y-101001508D01*
X152992752Y-100998493D01*
X152966315Y-100990473D01*
X152941946Y-100977448D01*
X152920588Y-100959919D01*
X152903059Y-100938561D01*
X152890034Y-100914192D01*
X152882014Y-100887755D01*
X152878999Y-100857141D01*
X152878999Y-100453875D01*
X152882014Y-100423261D01*
X152890034Y-100396824D01*
X152903059Y-100372455D01*
X152920588Y-100351097D01*
X152941946Y-100333568D01*
X152966315Y-100320543D01*
X152992752Y-100312523D01*
X153023366Y-100309508D01*
X153476632Y-100309508D01*
X153507246Y-100312523D01*
G37*
G36*
X152257246Y-100312523D02*
G01*
X152283683Y-100320543D01*
X152308052Y-100333568D01*
X152329410Y-100351097D01*
X152346939Y-100372455D01*
X152359964Y-100396824D01*
X152367984Y-100423261D01*
X152370999Y-100453875D01*
X152370999Y-100857141D01*
X152367984Y-100887755D01*
X152359964Y-100914192D01*
X152346939Y-100938561D01*
X152329410Y-100959919D01*
X152308052Y-100977448D01*
X152283683Y-100990473D01*
X152257246Y-100998493D01*
X152226632Y-101001508D01*
X151773366Y-101001508D01*
X151742752Y-100998493D01*
X151716315Y-100990473D01*
X151691946Y-100977448D01*
X151670588Y-100959919D01*
X151653059Y-100938561D01*
X151640034Y-100914192D01*
X151632014Y-100887755D01*
X151628999Y-100857141D01*
X151628999Y-100453875D01*
X151632014Y-100423261D01*
X151640034Y-100396824D01*
X151653059Y-100372455D01*
X151670588Y-100351097D01*
X151691946Y-100333568D01*
X151716315Y-100320543D01*
X151742752Y-100312523D01*
X151773366Y-100309508D01*
X152226632Y-100309508D01*
X152257246Y-100312523D01*
G37*
G36*
X154757246Y-100312523D02*
G01*
X154783683Y-100320543D01*
X154808052Y-100333568D01*
X154829410Y-100351097D01*
X154846939Y-100372455D01*
X154859964Y-100396824D01*
X154867984Y-100423261D01*
X154870999Y-100453875D01*
X154870999Y-100857141D01*
X154867984Y-100887755D01*
X154859964Y-100914192D01*
X154846939Y-100938561D01*
X154829410Y-100959919D01*
X154808052Y-100977448D01*
X154783683Y-100990473D01*
X154757246Y-100998493D01*
X154726632Y-101001508D01*
X154273366Y-101001508D01*
X154242752Y-100998493D01*
X154216315Y-100990473D01*
X154191946Y-100977448D01*
X154170588Y-100959919D01*
X154153059Y-100938561D01*
X154140034Y-100914192D01*
X154132014Y-100887755D01*
X154128999Y-100857141D01*
X154128999Y-100453875D01*
X154132014Y-100423261D01*
X154140034Y-100396824D01*
X154153059Y-100372455D01*
X154170588Y-100351097D01*
X154191946Y-100333568D01*
X154216315Y-100320543D01*
X154242752Y-100312523D01*
X154273366Y-100309508D01*
X154726632Y-100309508D01*
X154757246Y-100312523D01*
G37*
G36*
X161494597Y-98425910D02*
G01*
X161504220Y-98433806D01*
X161515198Y-98439674D01*
X161527110Y-98443288D01*
X161539498Y-98444508D01*
X162000999Y-98444508D01*
X162000999Y-100396508D01*
X161539498Y-100396508D01*
X161527110Y-100397728D01*
X161515198Y-100401342D01*
X161504220Y-100407210D01*
X161494597Y-100415106D01*
X161489344Y-100421508D01*
X160510654Y-100421508D01*
X160505401Y-100415106D01*
X160495778Y-100407210D01*
X160484800Y-100401342D01*
X160472888Y-100397728D01*
X160460500Y-100396508D01*
X159998999Y-100396508D01*
X159998999Y-98960007D01*
X160475999Y-98960007D01*
X160475999Y-99881009D01*
X160477219Y-99893397D01*
X160480833Y-99905309D01*
X160486701Y-99916287D01*
X160494597Y-99925910D01*
X160504220Y-99933806D01*
X160515198Y-99939674D01*
X160527110Y-99943288D01*
X160539498Y-99944508D01*
X161460500Y-99944508D01*
X161472888Y-99943288D01*
X161484800Y-99939674D01*
X161495778Y-99933806D01*
X161505401Y-99925910D01*
X161513297Y-99916287D01*
X161519165Y-99905309D01*
X161522779Y-99893397D01*
X161523999Y-99881009D01*
X161523999Y-98960007D01*
X161522779Y-98947619D01*
X161519165Y-98935707D01*
X161513297Y-98924729D01*
X161505401Y-98915106D01*
X161495778Y-98907210D01*
X161484800Y-98901342D01*
X161472888Y-98897728D01*
X161460500Y-98896508D01*
X160539498Y-98896508D01*
X160527110Y-98897728D01*
X160515198Y-98901342D01*
X160504220Y-98907210D01*
X160494597Y-98915106D01*
X160486701Y-98924729D01*
X160480833Y-98935707D01*
X160477219Y-98947619D01*
X160475999Y-98960007D01*
X159998999Y-98960007D01*
X159998999Y-98444508D01*
X160460500Y-98444508D01*
X160472888Y-98443288D01*
X160484800Y-98439674D01*
X160495778Y-98433806D01*
X160505401Y-98425910D01*
X160510654Y-98419508D01*
X161489344Y-98419508D01*
X161494597Y-98425910D01*
G37*
G36*
X157507246Y-99592523D02*
G01*
X157533683Y-99600543D01*
X157558052Y-99613568D01*
X157579410Y-99631097D01*
X157596939Y-99652455D01*
X157609964Y-99676824D01*
X157617984Y-99703261D01*
X157620999Y-99733875D01*
X157620999Y-100137141D01*
X157617984Y-100167755D01*
X157609964Y-100194192D01*
X157596939Y-100218561D01*
X157579410Y-100239919D01*
X157558052Y-100257448D01*
X157533683Y-100270473D01*
X157507246Y-100278493D01*
X157476632Y-100281508D01*
X157023366Y-100281508D01*
X156992752Y-100278493D01*
X156966315Y-100270473D01*
X156941946Y-100257448D01*
X156920588Y-100239919D01*
X156903059Y-100218561D01*
X156890034Y-100194192D01*
X156882014Y-100167755D01*
X156878999Y-100137141D01*
X156878999Y-99733875D01*
X156882014Y-99703261D01*
X156890034Y-99676824D01*
X156903059Y-99652455D01*
X156920588Y-99631097D01*
X156941946Y-99613568D01*
X156966315Y-99600543D01*
X156992752Y-99592523D01*
X157023366Y-99589508D01*
X157476632Y-99589508D01*
X157507246Y-99592523D01*
G37*
G36*
X158757246Y-99592523D02*
G01*
X158783683Y-99600543D01*
X158808052Y-99613568D01*
X158829410Y-99631097D01*
X158846939Y-99652455D01*
X158859964Y-99676824D01*
X158867984Y-99703261D01*
X158870999Y-99733875D01*
X158870999Y-100137141D01*
X158867984Y-100167755D01*
X158859964Y-100194192D01*
X158846939Y-100218561D01*
X158829410Y-100239919D01*
X158808052Y-100257448D01*
X158783683Y-100270473D01*
X158757246Y-100278493D01*
X158726632Y-100281508D01*
X158273366Y-100281508D01*
X158242752Y-100278493D01*
X158216315Y-100270473D01*
X158191946Y-100257448D01*
X158170588Y-100239919D01*
X158153059Y-100218561D01*
X158140034Y-100194192D01*
X158132014Y-100167755D01*
X158128999Y-100137141D01*
X158128999Y-99733875D01*
X158132014Y-99703261D01*
X158140034Y-99676824D01*
X158153059Y-99652455D01*
X158170588Y-99631097D01*
X158191946Y-99613568D01*
X158216315Y-99600543D01*
X158242752Y-99592523D01*
X158273366Y-99589508D01*
X158726632Y-99589508D01*
X158757246Y-99592523D01*
G37*
G36*
X152257246Y-99342523D02*
G01*
X152283683Y-99350543D01*
X152308052Y-99363568D01*
X152329410Y-99381097D01*
X152346939Y-99402455D01*
X152359964Y-99426824D01*
X152367984Y-99453261D01*
X152370999Y-99483875D01*
X152370999Y-99887141D01*
X152367984Y-99917755D01*
X152359964Y-99944192D01*
X152346939Y-99968561D01*
X152329410Y-99989919D01*
X152308052Y-100007448D01*
X152283683Y-100020473D01*
X152257246Y-100028493D01*
X152226632Y-100031508D01*
X151773366Y-100031508D01*
X151742752Y-100028493D01*
X151716315Y-100020473D01*
X151691946Y-100007448D01*
X151670588Y-99989919D01*
X151653059Y-99968561D01*
X151640034Y-99944192D01*
X151632014Y-99917755D01*
X151628999Y-99887141D01*
X151628999Y-99483875D01*
X151632014Y-99453261D01*
X151640034Y-99426824D01*
X151653059Y-99402455D01*
X151670588Y-99381097D01*
X151691946Y-99363568D01*
X151716315Y-99350543D01*
X151742752Y-99342523D01*
X151773366Y-99339508D01*
X152226632Y-99339508D01*
X152257246Y-99342523D01*
G37*
G36*
X154757246Y-99342523D02*
G01*
X154783683Y-99350543D01*
X154808052Y-99363568D01*
X154829410Y-99381097D01*
X154846939Y-99402455D01*
X154859964Y-99426824D01*
X154867984Y-99453261D01*
X154870999Y-99483875D01*
X154870999Y-99887141D01*
X154867984Y-99917755D01*
X154859964Y-99944192D01*
X154846939Y-99968561D01*
X154829410Y-99989919D01*
X154808052Y-100007448D01*
X154783683Y-100020473D01*
X154757246Y-100028493D01*
X154726632Y-100031508D01*
X154273366Y-100031508D01*
X154242752Y-100028493D01*
X154216315Y-100020473D01*
X154191946Y-100007448D01*
X154170588Y-99989919D01*
X154153059Y-99968561D01*
X154140034Y-99944192D01*
X154132014Y-99917755D01*
X154128999Y-99887141D01*
X154128999Y-99483875D01*
X154132014Y-99453261D01*
X154140034Y-99426824D01*
X154153059Y-99402455D01*
X154170588Y-99381097D01*
X154191946Y-99363568D01*
X154216315Y-99350543D01*
X154242752Y-99342523D01*
X154273366Y-99339508D01*
X154726632Y-99339508D01*
X154757246Y-99342523D01*
G37*
G36*
X153507246Y-99342523D02*
G01*
X153533683Y-99350543D01*
X153558052Y-99363568D01*
X153579410Y-99381097D01*
X153596939Y-99402455D01*
X153609964Y-99426824D01*
X153617984Y-99453261D01*
X153620999Y-99483875D01*
X153620999Y-99887141D01*
X153617984Y-99917755D01*
X153609964Y-99944192D01*
X153596939Y-99968561D01*
X153579410Y-99989919D01*
X153558052Y-100007448D01*
X153533683Y-100020473D01*
X153507246Y-100028493D01*
X153476632Y-100031508D01*
X153023366Y-100031508D01*
X152992752Y-100028493D01*
X152966315Y-100020473D01*
X152941946Y-100007448D01*
X152920588Y-99989919D01*
X152903059Y-99968561D01*
X152890034Y-99944192D01*
X152882014Y-99917755D01*
X152878999Y-99887141D01*
X152878999Y-99483875D01*
X152882014Y-99453261D01*
X152890034Y-99426824D01*
X152903059Y-99402455D01*
X152920588Y-99381097D01*
X152941946Y-99363568D01*
X152966315Y-99350543D01*
X152992752Y-99342523D01*
X153023366Y-99339508D01*
X153476632Y-99339508D01*
X153507246Y-99342523D01*
G37*
G36*
X163757246Y-99062523D02*
G01*
X163783683Y-99070543D01*
X163808052Y-99083568D01*
X163829410Y-99101097D01*
X163846939Y-99122455D01*
X163859964Y-99146824D01*
X163867984Y-99173261D01*
X163870999Y-99203875D01*
X163870999Y-99607141D01*
X163867984Y-99637755D01*
X163859964Y-99664192D01*
X163846939Y-99688561D01*
X163829410Y-99709919D01*
X163808052Y-99727448D01*
X163783683Y-99740473D01*
X163757246Y-99748493D01*
X163726632Y-99751508D01*
X163273366Y-99751508D01*
X163242752Y-99748493D01*
X163216315Y-99740473D01*
X163191946Y-99727448D01*
X163170588Y-99709919D01*
X163153059Y-99688561D01*
X163140034Y-99664192D01*
X163132014Y-99637755D01*
X163128999Y-99607141D01*
X163128999Y-99203875D01*
X163132014Y-99173261D01*
X163140034Y-99146824D01*
X163153059Y-99122455D01*
X163170588Y-99101097D01*
X163191946Y-99083568D01*
X163216315Y-99070543D01*
X163242752Y-99062523D01*
X163273366Y-99059508D01*
X163726632Y-99059508D01*
X163757246Y-99062523D01*
G37*
G36*
X169354893Y-98723892D02*
G01*
X169394704Y-98735968D01*
X169431389Y-98755577D01*
X169463543Y-98781964D01*
X169489930Y-98814118D01*
X169509539Y-98850803D01*
X169521615Y-98890614D01*
X169525999Y-98935125D01*
X169525999Y-99480891D01*
X169521615Y-99525402D01*
X169509539Y-99565213D01*
X169489930Y-99601898D01*
X169463543Y-99634052D01*
X169431389Y-99660439D01*
X169394704Y-99680048D01*
X169354893Y-99692124D01*
X169310382Y-99696508D01*
X168689616Y-99696508D01*
X168645105Y-99692124D01*
X168605294Y-99680048D01*
X168568609Y-99660439D01*
X168536455Y-99634052D01*
X168510068Y-99601898D01*
X168490459Y-99565213D01*
X168478383Y-99525402D01*
X168473999Y-99480891D01*
X168473999Y-98935125D01*
X168478383Y-98890614D01*
X168490459Y-98850803D01*
X168510068Y-98814118D01*
X168536455Y-98781964D01*
X168568609Y-98755577D01*
X168605294Y-98735968D01*
X168645105Y-98723892D01*
X168689616Y-98719508D01*
X169310382Y-98719508D01*
X169354893Y-98723892D01*
G37*
G36*
X166717246Y-98802523D02*
G01*
X166743683Y-98810543D01*
X166768052Y-98823568D01*
X166789410Y-98841097D01*
X166806939Y-98862455D01*
X166819964Y-98886824D01*
X166827984Y-98913261D01*
X166830999Y-98943875D01*
X166830999Y-99397141D01*
X166827984Y-99427755D01*
X166819964Y-99454192D01*
X166806939Y-99478561D01*
X166789410Y-99499919D01*
X166768052Y-99517448D01*
X166743683Y-99530473D01*
X166717246Y-99538493D01*
X166686632Y-99541508D01*
X166283366Y-99541508D01*
X166252752Y-99538493D01*
X166226315Y-99530473D01*
X166201946Y-99517448D01*
X166180588Y-99499919D01*
X166163059Y-99478561D01*
X166150034Y-99454192D01*
X166142014Y-99427755D01*
X166138999Y-99397141D01*
X166138999Y-98943875D01*
X166142014Y-98913261D01*
X166150034Y-98886824D01*
X166163059Y-98862455D01*
X166180588Y-98841097D01*
X166201946Y-98823568D01*
X166226315Y-98810543D01*
X166252752Y-98802523D01*
X166283366Y-98799508D01*
X166686632Y-98799508D01*
X166717246Y-98802523D01*
G37*
G36*
X165747246Y-98802523D02*
G01*
X165773683Y-98810543D01*
X165798052Y-98823568D01*
X165819410Y-98841097D01*
X165836939Y-98862455D01*
X165849964Y-98886824D01*
X165857984Y-98913261D01*
X165860999Y-98943875D01*
X165860999Y-99397141D01*
X165857984Y-99427755D01*
X165849964Y-99454192D01*
X165836939Y-99478561D01*
X165819410Y-99499919D01*
X165798052Y-99517448D01*
X165773683Y-99530473D01*
X165747246Y-99538493D01*
X165716632Y-99541508D01*
X165313366Y-99541508D01*
X165282752Y-99538493D01*
X165256315Y-99530473D01*
X165231946Y-99517448D01*
X165210588Y-99499919D01*
X165193059Y-99478561D01*
X165180034Y-99454192D01*
X165172014Y-99427755D01*
X165168999Y-99397141D01*
X165168999Y-98943875D01*
X165172014Y-98913261D01*
X165180034Y-98886824D01*
X165193059Y-98862455D01*
X165210588Y-98841097D01*
X165231946Y-98823568D01*
X165256315Y-98810543D01*
X165282752Y-98802523D01*
X165313366Y-98799508D01*
X165716632Y-98799508D01*
X165747246Y-98802523D01*
G37*
G36*
X158717246Y-98052523D02*
G01*
X158743683Y-98060543D01*
X158768052Y-98073568D01*
X158789410Y-98091097D01*
X158806939Y-98112455D01*
X158819964Y-98136824D01*
X158827984Y-98163261D01*
X158830999Y-98193875D01*
X158830999Y-98647141D01*
X158827984Y-98677755D01*
X158819964Y-98704192D01*
X158806939Y-98728561D01*
X158789410Y-98749919D01*
X158768052Y-98767448D01*
X158743683Y-98780473D01*
X158717246Y-98788493D01*
X158686632Y-98791508D01*
X158283366Y-98791508D01*
X158252752Y-98788493D01*
X158226315Y-98780473D01*
X158201946Y-98767448D01*
X158180588Y-98749919D01*
X158163059Y-98728561D01*
X158150034Y-98704192D01*
X158142014Y-98677755D01*
X158138999Y-98647141D01*
X158138999Y-98193875D01*
X158142014Y-98163261D01*
X158150034Y-98136824D01*
X158163059Y-98112455D01*
X158180588Y-98091097D01*
X158201946Y-98073568D01*
X158226315Y-98060543D01*
X158252752Y-98052523D01*
X158283366Y-98049508D01*
X158686632Y-98049508D01*
X158717246Y-98052523D01*
G37*
G36*
X157747246Y-98052523D02*
G01*
X157773683Y-98060543D01*
X157798052Y-98073568D01*
X157819410Y-98091097D01*
X157836939Y-98112455D01*
X157849964Y-98136824D01*
X157857984Y-98163261D01*
X157860999Y-98193875D01*
X157860999Y-98647141D01*
X157857984Y-98677755D01*
X157849964Y-98704192D01*
X157836939Y-98728561D01*
X157819410Y-98749919D01*
X157798052Y-98767448D01*
X157773683Y-98780473D01*
X157747246Y-98788493D01*
X157716632Y-98791508D01*
X157313366Y-98791508D01*
X157282752Y-98788493D01*
X157256315Y-98780473D01*
X157231946Y-98767448D01*
X157210588Y-98749919D01*
X157193059Y-98728561D01*
X157180034Y-98704192D01*
X157172014Y-98677755D01*
X157168999Y-98647141D01*
X157168999Y-98193875D01*
X157172014Y-98163261D01*
X157180034Y-98136824D01*
X157193059Y-98112455D01*
X157210588Y-98091097D01*
X157231946Y-98073568D01*
X157256315Y-98060543D01*
X157282752Y-98052523D01*
X157313366Y-98049508D01*
X157716632Y-98049508D01*
X157747246Y-98052523D01*
G37*
G36*
X163757246Y-98092523D02*
G01*
X163783683Y-98100543D01*
X163808052Y-98113568D01*
X163829410Y-98131097D01*
X163846939Y-98152455D01*
X163859964Y-98176824D01*
X163867984Y-98203261D01*
X163870999Y-98233875D01*
X163870999Y-98637141D01*
X163867984Y-98667755D01*
X163859964Y-98694192D01*
X163846939Y-98718561D01*
X163829410Y-98739919D01*
X163808052Y-98757448D01*
X163783683Y-98770473D01*
X163757246Y-98778493D01*
X163726632Y-98781508D01*
X163273366Y-98781508D01*
X163242752Y-98778493D01*
X163216315Y-98770473D01*
X163191946Y-98757448D01*
X163170588Y-98739919D01*
X163153059Y-98718561D01*
X163140034Y-98694192D01*
X163132014Y-98667755D01*
X163128999Y-98637141D01*
X163128999Y-98233875D01*
X163132014Y-98203261D01*
X163140034Y-98176824D01*
X163153059Y-98152455D01*
X163170588Y-98131097D01*
X163191946Y-98113568D01*
X163216315Y-98100543D01*
X163242752Y-98092523D01*
X163273366Y-98089508D01*
X163726632Y-98089508D01*
X163757246Y-98092523D01*
G37*
G36*
X166717246Y-97552523D02*
G01*
X166743683Y-97560543D01*
X166768052Y-97573568D01*
X166789410Y-97591097D01*
X166806939Y-97612455D01*
X166819964Y-97636824D01*
X166827984Y-97663261D01*
X166830999Y-97693875D01*
X166830999Y-98147141D01*
X166827984Y-98177755D01*
X166819964Y-98204192D01*
X166806939Y-98228561D01*
X166789410Y-98249919D01*
X166768052Y-98267448D01*
X166743683Y-98280473D01*
X166717246Y-98288493D01*
X166686632Y-98291508D01*
X166283366Y-98291508D01*
X166252752Y-98288493D01*
X166226315Y-98280473D01*
X166201946Y-98267448D01*
X166180588Y-98249919D01*
X166163059Y-98228561D01*
X166150034Y-98204192D01*
X166142014Y-98177755D01*
X166138999Y-98147141D01*
X166138999Y-97693875D01*
X166142014Y-97663261D01*
X166150034Y-97636824D01*
X166163059Y-97612455D01*
X166180588Y-97591097D01*
X166201946Y-97573568D01*
X166226315Y-97560543D01*
X166252752Y-97552523D01*
X166283366Y-97549508D01*
X166686632Y-97549508D01*
X166717246Y-97552523D01*
G37*
G36*
X165747246Y-97552523D02*
G01*
X165773683Y-97560543D01*
X165798052Y-97573568D01*
X165819410Y-97591097D01*
X165836939Y-97612455D01*
X165849964Y-97636824D01*
X165857984Y-97663261D01*
X165860999Y-97693875D01*
X165860999Y-98147141D01*
X165857984Y-98177755D01*
X165849964Y-98204192D01*
X165836939Y-98228561D01*
X165819410Y-98249919D01*
X165798052Y-98267448D01*
X165773683Y-98280473D01*
X165747246Y-98288493D01*
X165716632Y-98291508D01*
X165313366Y-98291508D01*
X165282752Y-98288493D01*
X165256315Y-98280473D01*
X165231946Y-98267448D01*
X165210588Y-98249919D01*
X165193059Y-98228561D01*
X165180034Y-98204192D01*
X165172014Y-98177755D01*
X165168999Y-98147141D01*
X165168999Y-97693875D01*
X165172014Y-97663261D01*
X165180034Y-97636824D01*
X165193059Y-97612455D01*
X165210588Y-97591097D01*
X165231946Y-97573568D01*
X165256315Y-97560543D01*
X165282752Y-97552523D01*
X165313366Y-97549508D01*
X165716632Y-97549508D01*
X165747246Y-97552523D01*
G37*
G36*
X169354893Y-97148892D02*
G01*
X169394704Y-97160968D01*
X169431389Y-97180577D01*
X169463543Y-97206964D01*
X169489930Y-97239118D01*
X169509539Y-97275803D01*
X169521615Y-97315614D01*
X169525999Y-97360125D01*
X169525999Y-97905891D01*
X169521615Y-97950402D01*
X169509539Y-97990213D01*
X169489930Y-98026898D01*
X169463543Y-98059052D01*
X169431389Y-98085439D01*
X169394704Y-98105048D01*
X169354893Y-98117124D01*
X169310382Y-98121508D01*
X168689616Y-98121508D01*
X168645105Y-98117124D01*
X168605294Y-98105048D01*
X168568609Y-98085439D01*
X168536455Y-98059052D01*
X168510068Y-98026898D01*
X168490459Y-97990213D01*
X168478383Y-97950402D01*
X168473999Y-97905891D01*
X168473999Y-97360125D01*
X168478383Y-97315614D01*
X168490459Y-97275803D01*
X168510068Y-97239118D01*
X168536455Y-97206964D01*
X168568609Y-97180577D01*
X168605294Y-97160968D01*
X168645105Y-97148892D01*
X168689616Y-97144508D01*
X169310382Y-97144508D01*
X169354893Y-97148892D01*
G37*
G36*
X163347246Y-96802523D02*
G01*
X163373683Y-96810543D01*
X163398052Y-96823568D01*
X163419410Y-96841097D01*
X163436939Y-96862455D01*
X163449964Y-96886824D01*
X163457984Y-96913261D01*
X163460999Y-96943875D01*
X163460999Y-97397141D01*
X163457984Y-97427755D01*
X163449964Y-97454192D01*
X163436939Y-97478561D01*
X163419410Y-97499919D01*
X163398052Y-97517448D01*
X163373683Y-97530473D01*
X163347246Y-97538493D01*
X163316632Y-97541508D01*
X162913366Y-97541508D01*
X162882752Y-97538493D01*
X162856315Y-97530473D01*
X162831946Y-97517448D01*
X162810588Y-97499919D01*
X162793059Y-97478561D01*
X162780034Y-97454192D01*
X162772014Y-97427755D01*
X162768999Y-97397141D01*
X162768999Y-96943875D01*
X162772014Y-96913261D01*
X162780034Y-96886824D01*
X162793059Y-96862455D01*
X162810588Y-96841097D01*
X162831946Y-96823568D01*
X162856315Y-96810543D01*
X162882752Y-96802523D01*
X162913366Y-96799508D01*
X163316632Y-96799508D01*
X163347246Y-96802523D01*
G37*
G36*
X158717246Y-96802523D02*
G01*
X158743683Y-96810543D01*
X158768052Y-96823568D01*
X158789410Y-96841097D01*
X158806939Y-96862455D01*
X158819964Y-96886824D01*
X158827984Y-96913261D01*
X158830999Y-96943875D01*
X158830999Y-97397141D01*
X158827984Y-97427755D01*
X158819964Y-97454192D01*
X158806939Y-97478561D01*
X158789410Y-97499919D01*
X158768052Y-97517448D01*
X158743683Y-97530473D01*
X158717246Y-97538493D01*
X158686632Y-97541508D01*
X158283366Y-97541508D01*
X158252752Y-97538493D01*
X158226315Y-97530473D01*
X158201946Y-97517448D01*
X158180588Y-97499919D01*
X158163059Y-97478561D01*
X158150034Y-97454192D01*
X158142014Y-97427755D01*
X158138999Y-97397141D01*
X158138999Y-96943875D01*
X158142014Y-96913261D01*
X158150034Y-96886824D01*
X158163059Y-96862455D01*
X158180588Y-96841097D01*
X158201946Y-96823568D01*
X158226315Y-96810543D01*
X158252752Y-96802523D01*
X158283366Y-96799508D01*
X158686632Y-96799508D01*
X158717246Y-96802523D01*
G37*
G36*
X164317246Y-96802523D02*
G01*
X164343683Y-96810543D01*
X164368052Y-96823568D01*
X164389410Y-96841097D01*
X164406939Y-96862455D01*
X164419964Y-96886824D01*
X164427984Y-96913261D01*
X164430999Y-96943875D01*
X164430999Y-97397141D01*
X164427984Y-97427755D01*
X164419964Y-97454192D01*
X164406939Y-97478561D01*
X164389410Y-97499919D01*
X164368052Y-97517448D01*
X164343683Y-97530473D01*
X164317246Y-97538493D01*
X164286632Y-97541508D01*
X163883366Y-97541508D01*
X163852752Y-97538493D01*
X163826315Y-97530473D01*
X163801946Y-97517448D01*
X163780588Y-97499919D01*
X163763059Y-97478561D01*
X163750034Y-97454192D01*
X163742014Y-97427755D01*
X163738999Y-97397141D01*
X163738999Y-96943875D01*
X163742014Y-96913261D01*
X163750034Y-96886824D01*
X163763059Y-96862455D01*
X163780588Y-96841097D01*
X163801946Y-96823568D01*
X163826315Y-96810543D01*
X163852752Y-96802523D01*
X163883366Y-96799508D01*
X164286632Y-96799508D01*
X164317246Y-96802523D01*
G37*
G36*
X157747246Y-96802523D02*
G01*
X157773683Y-96810543D01*
X157798052Y-96823568D01*
X157819410Y-96841097D01*
X157836939Y-96862455D01*
X157849964Y-96886824D01*
X157857984Y-96913261D01*
X157860999Y-96943875D01*
X157860999Y-97397141D01*
X157857984Y-97427755D01*
X157849964Y-97454192D01*
X157836939Y-97478561D01*
X157819410Y-97499919D01*
X157798052Y-97517448D01*
X157773683Y-97530473D01*
X157747246Y-97538493D01*
X157716632Y-97541508D01*
X157313366Y-97541508D01*
X157282752Y-97538493D01*
X157256315Y-97530473D01*
X157231946Y-97517448D01*
X157210588Y-97499919D01*
X157193059Y-97478561D01*
X157180034Y-97454192D01*
X157172014Y-97427755D01*
X157168999Y-97397141D01*
X157168999Y-96943875D01*
X157172014Y-96913261D01*
X157180034Y-96886824D01*
X157193059Y-96862455D01*
X157210588Y-96841097D01*
X157231946Y-96823568D01*
X157256315Y-96810543D01*
X157282752Y-96802523D01*
X157313366Y-96799508D01*
X157716632Y-96799508D01*
X157747246Y-96802523D01*
G37*
G36*
X166717246Y-96302523D02*
G01*
X166743683Y-96310543D01*
X166768052Y-96323568D01*
X166789410Y-96341097D01*
X166806939Y-96362455D01*
X166819964Y-96386824D01*
X166827984Y-96413261D01*
X166830999Y-96443875D01*
X166830999Y-96897141D01*
X166827984Y-96927755D01*
X166819964Y-96954192D01*
X166806939Y-96978561D01*
X166789410Y-96999919D01*
X166768052Y-97017448D01*
X166743683Y-97030473D01*
X166717246Y-97038493D01*
X166686632Y-97041508D01*
X166283366Y-97041508D01*
X166252752Y-97038493D01*
X166226315Y-97030473D01*
X166201946Y-97017448D01*
X166180588Y-96999919D01*
X166163059Y-96978561D01*
X166150034Y-96954192D01*
X166142014Y-96927755D01*
X166138999Y-96897141D01*
X166138999Y-96443875D01*
X166142014Y-96413261D01*
X166150034Y-96386824D01*
X166163059Y-96362455D01*
X166180588Y-96341097D01*
X166201946Y-96323568D01*
X166226315Y-96310543D01*
X166252752Y-96302523D01*
X166283366Y-96299508D01*
X166686632Y-96299508D01*
X166717246Y-96302523D01*
G37*
G36*
X165747246Y-96302523D02*
G01*
X165773683Y-96310543D01*
X165798052Y-96323568D01*
X165819410Y-96341097D01*
X165836939Y-96362455D01*
X165849964Y-96386824D01*
X165857984Y-96413261D01*
X165860999Y-96443875D01*
X165860999Y-96897141D01*
X165857984Y-96927755D01*
X165849964Y-96954192D01*
X165836939Y-96978561D01*
X165819410Y-96999919D01*
X165798052Y-97017448D01*
X165773683Y-97030473D01*
X165747246Y-97038493D01*
X165716632Y-97041508D01*
X165313366Y-97041508D01*
X165282752Y-97038493D01*
X165256315Y-97030473D01*
X165231946Y-97017448D01*
X165210588Y-96999919D01*
X165193059Y-96978561D01*
X165180034Y-96954192D01*
X165172014Y-96927755D01*
X165168999Y-96897141D01*
X165168999Y-96443875D01*
X165172014Y-96413261D01*
X165180034Y-96386824D01*
X165193059Y-96362455D01*
X165210588Y-96341097D01*
X165231946Y-96323568D01*
X165256315Y-96310543D01*
X165282752Y-96302523D01*
X165313366Y-96299508D01*
X165716632Y-96299508D01*
X165747246Y-96302523D01*
G37*
G36*
X160130662Y-91020890D02*
G01*
X160141159Y-91024074D01*
X160150828Y-91029242D01*
X160159306Y-91036201D01*
X160166265Y-91044679D01*
X160171433Y-91054348D01*
X160174617Y-91064845D01*
X160175999Y-91078875D01*
X160175999Y-91912141D01*
X160174617Y-91926171D01*
X160171433Y-91936668D01*
X160166265Y-91946337D01*
X160159306Y-91954816D01*
X160156736Y-91956925D01*
X160147934Y-91965728D01*
X160141019Y-91976078D01*
X160136255Y-91987579D01*
X160133828Y-91999788D01*
X160133828Y-92012236D01*
X160136257Y-92024444D01*
X160141021Y-92035945D01*
X160147937Y-92046294D01*
X160156740Y-92055096D01*
X160167090Y-92062011D01*
X160178591Y-92066775D01*
X160197021Y-92069508D01*
X160302977Y-92069508D01*
X160315365Y-92068288D01*
X160327277Y-92064674D01*
X160338255Y-92058806D01*
X160347878Y-92050910D01*
X160355774Y-92041287D01*
X160361642Y-92030309D01*
X160365256Y-92018397D01*
X160366476Y-92006009D01*
X160365256Y-91993621D01*
X160361642Y-91981709D01*
X160355774Y-91970731D01*
X160343262Y-91956925D01*
X160340692Y-91954816D01*
X160333733Y-91946337D01*
X160328565Y-91936668D01*
X160325381Y-91926171D01*
X160323999Y-91912141D01*
X160323999Y-91078875D01*
X160325381Y-91064845D01*
X160328565Y-91054348D01*
X160333733Y-91044679D01*
X160340692Y-91036201D01*
X160349170Y-91029242D01*
X160358839Y-91024074D01*
X160369336Y-91020890D01*
X160383366Y-91019508D01*
X160616632Y-91019508D01*
X160630662Y-91020890D01*
X160641159Y-91024074D01*
X160650828Y-91029242D01*
X160659306Y-91036201D01*
X160666265Y-91044679D01*
X160671433Y-91054348D01*
X160674617Y-91064845D01*
X160675999Y-91078875D01*
X160675999Y-91912141D01*
X160674617Y-91926171D01*
X160671433Y-91936668D01*
X160666265Y-91946337D01*
X160659306Y-91954816D01*
X160656736Y-91956925D01*
X160647934Y-91965728D01*
X160641019Y-91976078D01*
X160636255Y-91987579D01*
X160633828Y-91999788D01*
X160633828Y-92012236D01*
X160636257Y-92024444D01*
X160641021Y-92035945D01*
X160647937Y-92046294D01*
X160656740Y-92055096D01*
X160667090Y-92062011D01*
X160678591Y-92066775D01*
X160697021Y-92069508D01*
X160802977Y-92069508D01*
X160815365Y-92068288D01*
X160827277Y-92064674D01*
X160838255Y-92058806D01*
X160847878Y-92050910D01*
X160855774Y-92041287D01*
X160861642Y-92030309D01*
X160865256Y-92018397D01*
X160866476Y-92006009D01*
X160865256Y-91993621D01*
X160861642Y-91981709D01*
X160855774Y-91970731D01*
X160843262Y-91956925D01*
X160840692Y-91954816D01*
X160833733Y-91946337D01*
X160828565Y-91936668D01*
X160825381Y-91926171D01*
X160823999Y-91912141D01*
X160823999Y-91078875D01*
X160825381Y-91064845D01*
X160828565Y-91054348D01*
X160833733Y-91044679D01*
X160840692Y-91036201D01*
X160849170Y-91029242D01*
X160858839Y-91024074D01*
X160869336Y-91020890D01*
X160883366Y-91019508D01*
X161116632Y-91019508D01*
X161130662Y-91020890D01*
X161141159Y-91024074D01*
X161150828Y-91029242D01*
X161159306Y-91036201D01*
X161166265Y-91044679D01*
X161171433Y-91054348D01*
X161174617Y-91064845D01*
X161175999Y-91078875D01*
X161175999Y-91912141D01*
X161174617Y-91926171D01*
X161171433Y-91936668D01*
X161166265Y-91946337D01*
X161159306Y-91954816D01*
X161156736Y-91956925D01*
X161147934Y-91965728D01*
X161141019Y-91976078D01*
X161136255Y-91987579D01*
X161133828Y-91999788D01*
X161133828Y-92012236D01*
X161136257Y-92024444D01*
X161141021Y-92035945D01*
X161147937Y-92046294D01*
X161156740Y-92055096D01*
X161167090Y-92062011D01*
X161178591Y-92066775D01*
X161197021Y-92069508D01*
X161302977Y-92069508D01*
X161315365Y-92068288D01*
X161327277Y-92064674D01*
X161338255Y-92058806D01*
X161347878Y-92050910D01*
X161355774Y-92041287D01*
X161361642Y-92030309D01*
X161365256Y-92018397D01*
X161366476Y-92006009D01*
X161365256Y-91993621D01*
X161361642Y-91981709D01*
X161355774Y-91970731D01*
X161343262Y-91956925D01*
X161340692Y-91954816D01*
X161333733Y-91946337D01*
X161328565Y-91936668D01*
X161325381Y-91926171D01*
X161323999Y-91912141D01*
X161323999Y-91078875D01*
X161325381Y-91064845D01*
X161328565Y-91054348D01*
X161333733Y-91044679D01*
X161340692Y-91036201D01*
X161349170Y-91029242D01*
X161358839Y-91024074D01*
X161369336Y-91020890D01*
X161383366Y-91019508D01*
X161616632Y-91019508D01*
X161630662Y-91020890D01*
X161641159Y-91024074D01*
X161650828Y-91029242D01*
X161659306Y-91036201D01*
X161666265Y-91044679D01*
X161671433Y-91054348D01*
X161674617Y-91064845D01*
X161675999Y-91078875D01*
X161675999Y-91912141D01*
X161674617Y-91926171D01*
X161671433Y-91936668D01*
X161666265Y-91946337D01*
X161659306Y-91954816D01*
X161656736Y-91956925D01*
X161647934Y-91965728D01*
X161641019Y-91976078D01*
X161636255Y-91987579D01*
X161633828Y-91999788D01*
X161633828Y-92012236D01*
X161636257Y-92024444D01*
X161641021Y-92035945D01*
X161647937Y-92046294D01*
X161656740Y-92055096D01*
X161667090Y-92062011D01*
X161678591Y-92066775D01*
X161697021Y-92069508D01*
X161802977Y-92069508D01*
X161815365Y-92068288D01*
X161827277Y-92064674D01*
X161838255Y-92058806D01*
X161847878Y-92050910D01*
X161855774Y-92041287D01*
X161861642Y-92030309D01*
X161865256Y-92018397D01*
X161866476Y-92006009D01*
X161865256Y-91993621D01*
X161861642Y-91981709D01*
X161855774Y-91970731D01*
X161843262Y-91956925D01*
X161840692Y-91954816D01*
X161833733Y-91946337D01*
X161828565Y-91936668D01*
X161825381Y-91926171D01*
X161823999Y-91912141D01*
X161823999Y-91078875D01*
X161825381Y-91064845D01*
X161828565Y-91054348D01*
X161833733Y-91044679D01*
X161840692Y-91036201D01*
X161849170Y-91029242D01*
X161858839Y-91024074D01*
X161869336Y-91020890D01*
X161883366Y-91019508D01*
X162116632Y-91019508D01*
X162130662Y-91020890D01*
X162141159Y-91024074D01*
X162150828Y-91029242D01*
X162159306Y-91036201D01*
X162166265Y-91044679D01*
X162171433Y-91054348D01*
X162174617Y-91064845D01*
X162175999Y-91078875D01*
X162175999Y-91912141D01*
X162174617Y-91926171D01*
X162171433Y-91936668D01*
X162166265Y-91946337D01*
X162159307Y-91954814D01*
X162150890Y-91961723D01*
X162142089Y-91970526D01*
X162135174Y-91980876D01*
X162130411Y-91992377D01*
X162127983Y-92004586D01*
X162127984Y-92017034D01*
X162130413Y-92029243D01*
X162135178Y-92040743D01*
X162142094Y-92051093D01*
X162150897Y-92059894D01*
X162161247Y-92066809D01*
X162172748Y-92071572D01*
X162181319Y-92073276D01*
X162222160Y-92085665D01*
X162258158Y-92104906D01*
X162289708Y-92130799D01*
X162315601Y-92162349D01*
X162334842Y-92198347D01*
X162347231Y-92239189D01*
X162348935Y-92247757D01*
X162353697Y-92259258D01*
X162360612Y-92269609D01*
X162369413Y-92278412D01*
X162379763Y-92285328D01*
X162391263Y-92290093D01*
X162403471Y-92292523D01*
X162415919Y-92292524D01*
X162428128Y-92290096D01*
X162439629Y-92285334D01*
X162449980Y-92278419D01*
X162458784Y-92269617D01*
X162465693Y-92261200D01*
X162474170Y-92254242D01*
X162483839Y-92249074D01*
X162494336Y-92245890D01*
X162508366Y-92244508D01*
X163341632Y-92244508D01*
X163355662Y-92245890D01*
X163366159Y-92249074D01*
X163375828Y-92254242D01*
X163384306Y-92261201D01*
X163391265Y-92269679D01*
X163396433Y-92279348D01*
X163399617Y-92289845D01*
X163400999Y-92303875D01*
X163400999Y-92537141D01*
X163399617Y-92551171D01*
X163396433Y-92561668D01*
X163391265Y-92571337D01*
X163384306Y-92579815D01*
X163375828Y-92586774D01*
X163366159Y-92591942D01*
X163355662Y-92595126D01*
X163341632Y-92596508D01*
X162508366Y-92596508D01*
X162494336Y-92595126D01*
X162483839Y-92591942D01*
X162474170Y-92586774D01*
X162465691Y-92579815D01*
X162463582Y-92577245D01*
X162454779Y-92568443D01*
X162444429Y-92561528D01*
X162432928Y-92556764D01*
X162420719Y-92554337D01*
X162408271Y-92554337D01*
X162396063Y-92556766D01*
X162384562Y-92561530D01*
X162374213Y-92568446D01*
X162365411Y-92577249D01*
X162358496Y-92587599D01*
X162353732Y-92599100D01*
X162350999Y-92617530D01*
X162350999Y-92723486D01*
X162352219Y-92735874D01*
X162355833Y-92747786D01*
X162361701Y-92758764D01*
X162369597Y-92768387D01*
X162379220Y-92776283D01*
X162390198Y-92782151D01*
X162402110Y-92785765D01*
X162414498Y-92786985D01*
X162426886Y-92785765D01*
X162438798Y-92782151D01*
X162449776Y-92776283D01*
X162463582Y-92763771D01*
X162465691Y-92761201D01*
X162474170Y-92754242D01*
X162483839Y-92749074D01*
X162494336Y-92745890D01*
X162508366Y-92744508D01*
X163341632Y-92744508D01*
X163355662Y-92745890D01*
X163366159Y-92749074D01*
X163375828Y-92754242D01*
X163384306Y-92761201D01*
X163391265Y-92769679D01*
X163396433Y-92779348D01*
X163399617Y-92789845D01*
X163400999Y-92803875D01*
X163400999Y-93037141D01*
X163399617Y-93051171D01*
X163396433Y-93061668D01*
X163391265Y-93071337D01*
X163384306Y-93079815D01*
X163375828Y-93086774D01*
X163366159Y-93091942D01*
X163355662Y-93095126D01*
X163341632Y-93096508D01*
X162508366Y-93096508D01*
X162494336Y-93095126D01*
X162483839Y-93091942D01*
X162474170Y-93086774D01*
X162465691Y-93079815D01*
X162463582Y-93077245D01*
X162454779Y-93068443D01*
X162444429Y-93061528D01*
X162432928Y-93056764D01*
X162420719Y-93054337D01*
X162408271Y-93054337D01*
X162396063Y-93056766D01*
X162384562Y-93061530D01*
X162374213Y-93068446D01*
X162365411Y-93077249D01*
X162358496Y-93087599D01*
X162353732Y-93099100D01*
X162350999Y-93117530D01*
X162350999Y-93223486D01*
X162352219Y-93235874D01*
X162355833Y-93247786D01*
X162361701Y-93258764D01*
X162369597Y-93268387D01*
X162379220Y-93276283D01*
X162390198Y-93282151D01*
X162402110Y-93285765D01*
X162414498Y-93286985D01*
X162426886Y-93285765D01*
X162438798Y-93282151D01*
X162449776Y-93276283D01*
X162463582Y-93263771D01*
X162465691Y-93261201D01*
X162474170Y-93254242D01*
X162483839Y-93249074D01*
X162494336Y-93245890D01*
X162508366Y-93244508D01*
X163341632Y-93244508D01*
X163355662Y-93245890D01*
X163366159Y-93249074D01*
X163375828Y-93254242D01*
X163384306Y-93261201D01*
X163391265Y-93269679D01*
X163396433Y-93279348D01*
X163399617Y-93289845D01*
X163400999Y-93303875D01*
X163400999Y-93537141D01*
X163399617Y-93551171D01*
X163396433Y-93561668D01*
X163391265Y-93571337D01*
X163384306Y-93579815D01*
X163375828Y-93586774D01*
X163366159Y-93591942D01*
X163355662Y-93595126D01*
X163341632Y-93596508D01*
X162508366Y-93596508D01*
X162494336Y-93595126D01*
X162483839Y-93591942D01*
X162474170Y-93586774D01*
X162465691Y-93579815D01*
X162463582Y-93577245D01*
X162454779Y-93568443D01*
X162444429Y-93561528D01*
X162432928Y-93556764D01*
X162420719Y-93554337D01*
X162408271Y-93554337D01*
X162396063Y-93556766D01*
X162384562Y-93561530D01*
X162374213Y-93568446D01*
X162365411Y-93577249D01*
X162358496Y-93587599D01*
X162353732Y-93599100D01*
X162350999Y-93617530D01*
X162350999Y-93723486D01*
X162352219Y-93735874D01*
X162355833Y-93747786D01*
X162361701Y-93758764D01*
X162369597Y-93768387D01*
X162379220Y-93776283D01*
X162390198Y-93782151D01*
X162402110Y-93785765D01*
X162414498Y-93786985D01*
X162426886Y-93785765D01*
X162438798Y-93782151D01*
X162449776Y-93776283D01*
X162463582Y-93763771D01*
X162465691Y-93761201D01*
X162474170Y-93754242D01*
X162483839Y-93749074D01*
X162494336Y-93745890D01*
X162508366Y-93744508D01*
X163341632Y-93744508D01*
X163355662Y-93745890D01*
X163366159Y-93749074D01*
X163375828Y-93754242D01*
X163384306Y-93761201D01*
X163391265Y-93769679D01*
X163396433Y-93779348D01*
X163399617Y-93789845D01*
X163400999Y-93803875D01*
X163400999Y-94037141D01*
X163399617Y-94051171D01*
X163396433Y-94061668D01*
X163391265Y-94071337D01*
X163384306Y-94079815D01*
X163375828Y-94086774D01*
X163366159Y-94091942D01*
X163355662Y-94095126D01*
X163341632Y-94096508D01*
X162508366Y-94096508D01*
X162494336Y-94095126D01*
X162483839Y-94091942D01*
X162474170Y-94086774D01*
X162465691Y-94079815D01*
X162463582Y-94077245D01*
X162454779Y-94068443D01*
X162444429Y-94061528D01*
X162432928Y-94056764D01*
X162420719Y-94054337D01*
X162408271Y-94054337D01*
X162396063Y-94056766D01*
X162384562Y-94061530D01*
X162374213Y-94068446D01*
X162365411Y-94077249D01*
X162358496Y-94087599D01*
X162353732Y-94099100D01*
X162350999Y-94117530D01*
X162350999Y-94223486D01*
X162352219Y-94235874D01*
X162355833Y-94247786D01*
X162361701Y-94258764D01*
X162369597Y-94268387D01*
X162379220Y-94276283D01*
X162390198Y-94282151D01*
X162402110Y-94285765D01*
X162414498Y-94286985D01*
X162426886Y-94285765D01*
X162438798Y-94282151D01*
X162449776Y-94276283D01*
X162463582Y-94263771D01*
X162465691Y-94261201D01*
X162474170Y-94254242D01*
X162483839Y-94249074D01*
X162494336Y-94245890D01*
X162508366Y-94244508D01*
X163341632Y-94244508D01*
X163355662Y-94245890D01*
X163366159Y-94249074D01*
X163375828Y-94254242D01*
X163384306Y-94261201D01*
X163391265Y-94269679D01*
X163396433Y-94279348D01*
X163399617Y-94289845D01*
X163400999Y-94303875D01*
X163400999Y-94537141D01*
X163399617Y-94551171D01*
X163396433Y-94561668D01*
X163391265Y-94571337D01*
X163384306Y-94579815D01*
X163375828Y-94586774D01*
X163366159Y-94591942D01*
X163355662Y-94595126D01*
X163341632Y-94596508D01*
X162508366Y-94596508D01*
X162494336Y-94595126D01*
X162483839Y-94591942D01*
X162474170Y-94586774D01*
X162465693Y-94579816D01*
X162458784Y-94571399D01*
X162449981Y-94562598D01*
X162439631Y-94555683D01*
X162428130Y-94550920D01*
X162415921Y-94548492D01*
X162403473Y-94548493D01*
X162391264Y-94550922D01*
X162379764Y-94555687D01*
X162369414Y-94562603D01*
X162360613Y-94571406D01*
X162353698Y-94581756D01*
X162348935Y-94593257D01*
X162347231Y-94601828D01*
X162334842Y-94642669D01*
X162315601Y-94678667D01*
X162289708Y-94710217D01*
X162258158Y-94736110D01*
X162222160Y-94755351D01*
X162181318Y-94767740D01*
X162172750Y-94769444D01*
X162161249Y-94774206D01*
X162150898Y-94781121D01*
X162142095Y-94789922D01*
X162135179Y-94800272D01*
X162130414Y-94811772D01*
X162127984Y-94823980D01*
X162127983Y-94836428D01*
X162130411Y-94848637D01*
X162135173Y-94860138D01*
X162142088Y-94870489D01*
X162150890Y-94879293D01*
X162159307Y-94886202D01*
X162166265Y-94894679D01*
X162171433Y-94904348D01*
X162174617Y-94914845D01*
X162175999Y-94928875D01*
X162175999Y-95762141D01*
X162174617Y-95776171D01*
X162171433Y-95786668D01*
X162166265Y-95796337D01*
X162159306Y-95804815D01*
X162150828Y-95811774D01*
X162141159Y-95816942D01*
X162130662Y-95820126D01*
X162116632Y-95821508D01*
X161883366Y-95821508D01*
X161869336Y-95820126D01*
X161858839Y-95816942D01*
X161849170Y-95811774D01*
X161840692Y-95804815D01*
X161833733Y-95796337D01*
X161828565Y-95786668D01*
X161825381Y-95776171D01*
X161823999Y-95762141D01*
X161823999Y-94928875D01*
X161825381Y-94914845D01*
X161828565Y-94904348D01*
X161833733Y-94894679D01*
X161840692Y-94886200D01*
X161843262Y-94884091D01*
X161852064Y-94875288D01*
X161858979Y-94864938D01*
X161863743Y-94853437D01*
X161866170Y-94841228D01*
X161866170Y-94828780D01*
X161863741Y-94816572D01*
X161858977Y-94805071D01*
X161852061Y-94794722D01*
X161843258Y-94785920D01*
X161832908Y-94779005D01*
X161821407Y-94774241D01*
X161802977Y-94771508D01*
X161697021Y-94771508D01*
X161684633Y-94772728D01*
X161672721Y-94776342D01*
X161661743Y-94782210D01*
X161652120Y-94790106D01*
X161644224Y-94799729D01*
X161638356Y-94810707D01*
X161634742Y-94822619D01*
X161633522Y-94835007D01*
X161634742Y-94847395D01*
X161638356Y-94859307D01*
X161644224Y-94870285D01*
X161656736Y-94884091D01*
X161659306Y-94886200D01*
X161666265Y-94894679D01*
X161671433Y-94904348D01*
X161674617Y-94914845D01*
X161675999Y-94928875D01*
X161675999Y-95762141D01*
X161674617Y-95776171D01*
X161671433Y-95786668D01*
X161666265Y-95796337D01*
X161659306Y-95804815D01*
X161650828Y-95811774D01*
X161641159Y-95816942D01*
X161630662Y-95820126D01*
X161616632Y-95821508D01*
X161383366Y-95821508D01*
X161369336Y-95820126D01*
X161358839Y-95816942D01*
X161349170Y-95811774D01*
X161340692Y-95804815D01*
X161333733Y-95796337D01*
X161328565Y-95786668D01*
X161325381Y-95776171D01*
X161323999Y-95762141D01*
X161323999Y-94928875D01*
X161325381Y-94914845D01*
X161328565Y-94904348D01*
X161333733Y-94894679D01*
X161340692Y-94886200D01*
X161343262Y-94884091D01*
X161352064Y-94875288D01*
X161358979Y-94864938D01*
X161363743Y-94853437D01*
X161366170Y-94841228D01*
X161366170Y-94828780D01*
X161363741Y-94816572D01*
X161358977Y-94805071D01*
X161352061Y-94794722D01*
X161343258Y-94785920D01*
X161332908Y-94779005D01*
X161321407Y-94774241D01*
X161302977Y-94771508D01*
X161197021Y-94771508D01*
X161184633Y-94772728D01*
X161172721Y-94776342D01*
X161161743Y-94782210D01*
X161152120Y-94790106D01*
X161144224Y-94799729D01*
X161138356Y-94810707D01*
X161134742Y-94822619D01*
X161133522Y-94835007D01*
X161134742Y-94847395D01*
X161138356Y-94859307D01*
X161144224Y-94870285D01*
X161156736Y-94884091D01*
X161159306Y-94886200D01*
X161166265Y-94894679D01*
X161171433Y-94904348D01*
X161174617Y-94914845D01*
X161175999Y-94928875D01*
X161175999Y-95762141D01*
X161174617Y-95776171D01*
X161171433Y-95786668D01*
X161166265Y-95796337D01*
X161159306Y-95804815D01*
X161150828Y-95811774D01*
X161141159Y-95816942D01*
X161130662Y-95820126D01*
X161116632Y-95821508D01*
X160883366Y-95821508D01*
X160869336Y-95820126D01*
X160858839Y-95816942D01*
X160849170Y-95811774D01*
X160840692Y-95804815D01*
X160833733Y-95796337D01*
X160828565Y-95786668D01*
X160825381Y-95776171D01*
X160823999Y-95762141D01*
X160823999Y-94928875D01*
X160825381Y-94914845D01*
X160828565Y-94904348D01*
X160833733Y-94894679D01*
X160840692Y-94886200D01*
X160843262Y-94884091D01*
X160852064Y-94875288D01*
X160858979Y-94864938D01*
X160863743Y-94853437D01*
X160866170Y-94841228D01*
X160866170Y-94828780D01*
X160863741Y-94816572D01*
X160858977Y-94805071D01*
X160852061Y-94794722D01*
X160843258Y-94785920D01*
X160832908Y-94779005D01*
X160821407Y-94774241D01*
X160802977Y-94771508D01*
X160697021Y-94771508D01*
X160684633Y-94772728D01*
X160672721Y-94776342D01*
X160661743Y-94782210D01*
X160652120Y-94790106D01*
X160644224Y-94799729D01*
X160638356Y-94810707D01*
X160634742Y-94822619D01*
X160633522Y-94835007D01*
X160634742Y-94847395D01*
X160638356Y-94859307D01*
X160644224Y-94870285D01*
X160656736Y-94884091D01*
X160659306Y-94886200D01*
X160666265Y-94894679D01*
X160671433Y-94904348D01*
X160674617Y-94914845D01*
X160675999Y-94928875D01*
X160675999Y-95762141D01*
X160674617Y-95776171D01*
X160671433Y-95786668D01*
X160666265Y-95796337D01*
X160659306Y-95804815D01*
X160650828Y-95811774D01*
X160641159Y-95816942D01*
X160630662Y-95820126D01*
X160616632Y-95821508D01*
X160383366Y-95821508D01*
X160369336Y-95820126D01*
X160358839Y-95816942D01*
X160349170Y-95811774D01*
X160340692Y-95804815D01*
X160333733Y-95796337D01*
X160328565Y-95786668D01*
X160325381Y-95776171D01*
X160323999Y-95762141D01*
X160323999Y-94928875D01*
X160325381Y-94914845D01*
X160328565Y-94904348D01*
X160333733Y-94894679D01*
X160340692Y-94886200D01*
X160343262Y-94884091D01*
X160352064Y-94875288D01*
X160358979Y-94864938D01*
X160363743Y-94853437D01*
X160366170Y-94841228D01*
X160366170Y-94828780D01*
X160363741Y-94816572D01*
X160358977Y-94805071D01*
X160352061Y-94794722D01*
X160343258Y-94785920D01*
X160332908Y-94779005D01*
X160321407Y-94774241D01*
X160302977Y-94771508D01*
X160197021Y-94771508D01*
X160184633Y-94772728D01*
X160172721Y-94776342D01*
X160161743Y-94782210D01*
X160152120Y-94790106D01*
X160144224Y-94799729D01*
X160138356Y-94810707D01*
X160134742Y-94822619D01*
X160133522Y-94835007D01*
X160134742Y-94847395D01*
X160138356Y-94859307D01*
X160144224Y-94870285D01*
X160156736Y-94884091D01*
X160159306Y-94886200D01*
X160166265Y-94894679D01*
X160171433Y-94904348D01*
X160174617Y-94914845D01*
X160175999Y-94928875D01*
X160175999Y-95762141D01*
X160174617Y-95776171D01*
X160171433Y-95786668D01*
X160166265Y-95796337D01*
X160159306Y-95804815D01*
X160150828Y-95811774D01*
X160141159Y-95816942D01*
X160130662Y-95820126D01*
X160116632Y-95821508D01*
X159883366Y-95821508D01*
X159869336Y-95820126D01*
X159858839Y-95816942D01*
X159849170Y-95811774D01*
X159840692Y-95804815D01*
X159833733Y-95796337D01*
X159828565Y-95786668D01*
X159825381Y-95776171D01*
X159823999Y-95762141D01*
X159823999Y-94928875D01*
X159825381Y-94914845D01*
X159828565Y-94904348D01*
X159833733Y-94894679D01*
X159840691Y-94886202D01*
X159849108Y-94879293D01*
X159857909Y-94870490D01*
X159864824Y-94860140D01*
X159869587Y-94848639D01*
X159872015Y-94836430D01*
X159872014Y-94823982D01*
X159869585Y-94811773D01*
X159864820Y-94800273D01*
X159857904Y-94789923D01*
X159849101Y-94781122D01*
X159838751Y-94774207D01*
X159827250Y-94769444D01*
X159818679Y-94767740D01*
X159777838Y-94755351D01*
X159741840Y-94736110D01*
X159710290Y-94710217D01*
X159684397Y-94678667D01*
X159665156Y-94642669D01*
X159652767Y-94601827D01*
X159651063Y-94593259D01*
X159646301Y-94581758D01*
X159639386Y-94571407D01*
X159630585Y-94562604D01*
X159620235Y-94555688D01*
X159608735Y-94550923D01*
X159596527Y-94548493D01*
X159584079Y-94548492D01*
X159571870Y-94550920D01*
X159560369Y-94555682D01*
X159550018Y-94562597D01*
X159541214Y-94571399D01*
X159534305Y-94579816D01*
X159525828Y-94586774D01*
X159516159Y-94591942D01*
X159505662Y-94595126D01*
X159491632Y-94596508D01*
X158658366Y-94596508D01*
X158644336Y-94595126D01*
X158633839Y-94591942D01*
X158624170Y-94586774D01*
X158615692Y-94579815D01*
X158608733Y-94571337D01*
X158603565Y-94561668D01*
X158600381Y-94551171D01*
X158598999Y-94537141D01*
X158598999Y-94303875D01*
X158600381Y-94289845D01*
X158603565Y-94279348D01*
X158608733Y-94269679D01*
X158615692Y-94261201D01*
X158624170Y-94254242D01*
X158633839Y-94249074D01*
X158644336Y-94245890D01*
X158658366Y-94244508D01*
X159491632Y-94244508D01*
X159505662Y-94245890D01*
X159516159Y-94249074D01*
X159525828Y-94254242D01*
X159534307Y-94261201D01*
X159536416Y-94263771D01*
X159545219Y-94272573D01*
X159555569Y-94279488D01*
X159567070Y-94284252D01*
X159579279Y-94286679D01*
X159591727Y-94286679D01*
X159603935Y-94284250D01*
X159615436Y-94279486D01*
X159625785Y-94272570D01*
X159634587Y-94263767D01*
X159641502Y-94253417D01*
X159646266Y-94241916D01*
X159648999Y-94223486D01*
X159648999Y-94117530D01*
X159647779Y-94105142D01*
X159644165Y-94093230D01*
X159638297Y-94082252D01*
X159630401Y-94072629D01*
X159620778Y-94064733D01*
X159609800Y-94058865D01*
X159597888Y-94055251D01*
X159585500Y-94054031D01*
X159573112Y-94055251D01*
X159561200Y-94058865D01*
X159550222Y-94064733D01*
X159536416Y-94077245D01*
X159534307Y-94079815D01*
X159525828Y-94086774D01*
X159516159Y-94091942D01*
X159505662Y-94095126D01*
X159491632Y-94096508D01*
X158658366Y-94096508D01*
X158644336Y-94095126D01*
X158633839Y-94091942D01*
X158624170Y-94086774D01*
X158615692Y-94079815D01*
X158608733Y-94071337D01*
X158603565Y-94061668D01*
X158600381Y-94051171D01*
X158598999Y-94037141D01*
X158598999Y-93803875D01*
X158600381Y-93789845D01*
X158603565Y-93779348D01*
X158608733Y-93769679D01*
X158615692Y-93761201D01*
X158624170Y-93754242D01*
X158633839Y-93749074D01*
X158644336Y-93745890D01*
X158658366Y-93744508D01*
X159491632Y-93744508D01*
X159505662Y-93745890D01*
X159516159Y-93749074D01*
X159525828Y-93754242D01*
X159534307Y-93761201D01*
X159536416Y-93763771D01*
X159545219Y-93772573D01*
X159555569Y-93779488D01*
X159567070Y-93784252D01*
X159579279Y-93786679D01*
X159591727Y-93786679D01*
X159603935Y-93784250D01*
X159615436Y-93779486D01*
X159625785Y-93772570D01*
X159634587Y-93763767D01*
X159641502Y-93753417D01*
X159646266Y-93741916D01*
X159648999Y-93723486D01*
X159648999Y-93617530D01*
X159647779Y-93605142D01*
X159644165Y-93593230D01*
X159638297Y-93582252D01*
X159630401Y-93572629D01*
X159620778Y-93564733D01*
X159609800Y-93558865D01*
X159597888Y-93555251D01*
X159585500Y-93554031D01*
X159573112Y-93555251D01*
X159561200Y-93558865D01*
X159550222Y-93564733D01*
X159536416Y-93577245D01*
X159534307Y-93579815D01*
X159525828Y-93586774D01*
X159516159Y-93591942D01*
X159505662Y-93595126D01*
X159491632Y-93596508D01*
X158658366Y-93596508D01*
X158644336Y-93595126D01*
X158633839Y-93591942D01*
X158624170Y-93586774D01*
X158615692Y-93579815D01*
X158608733Y-93571337D01*
X158603565Y-93561668D01*
X158600381Y-93551171D01*
X158598999Y-93537141D01*
X158598999Y-93303875D01*
X158600381Y-93289845D01*
X158603565Y-93279348D01*
X158608733Y-93269679D01*
X158615692Y-93261201D01*
X158624170Y-93254242D01*
X158633839Y-93249074D01*
X158644336Y-93245890D01*
X158658366Y-93244508D01*
X159491632Y-93244508D01*
X159505662Y-93245890D01*
X159516159Y-93249074D01*
X159525828Y-93254242D01*
X159534307Y-93261201D01*
X159536416Y-93263771D01*
X159545219Y-93272573D01*
X159555569Y-93279488D01*
X159567070Y-93284252D01*
X159579279Y-93286679D01*
X159591727Y-93286679D01*
X159603935Y-93284250D01*
X159615436Y-93279486D01*
X159625785Y-93272570D01*
X159634587Y-93263767D01*
X159641502Y-93253417D01*
X159646266Y-93241916D01*
X159648999Y-93223486D01*
X159648999Y-93117530D01*
X159647779Y-93105142D01*
X159644165Y-93093230D01*
X159638297Y-93082252D01*
X159630401Y-93072629D01*
X159620778Y-93064733D01*
X159609800Y-93058865D01*
X159597888Y-93055251D01*
X159585500Y-93054031D01*
X159573112Y-93055251D01*
X159561200Y-93058865D01*
X159550222Y-93064733D01*
X159536416Y-93077245D01*
X159534307Y-93079815D01*
X159525828Y-93086774D01*
X159516159Y-93091942D01*
X159505662Y-93095126D01*
X159491632Y-93096508D01*
X158658366Y-93096508D01*
X158644336Y-93095126D01*
X158633839Y-93091942D01*
X158624170Y-93086774D01*
X158615692Y-93079815D01*
X158608733Y-93071337D01*
X158603565Y-93061668D01*
X158600381Y-93051171D01*
X158598999Y-93037141D01*
X158598999Y-92803875D01*
X158600381Y-92789845D01*
X158603565Y-92779348D01*
X158608733Y-92769679D01*
X158615692Y-92761201D01*
X158624170Y-92754242D01*
X158633839Y-92749074D01*
X158644336Y-92745890D01*
X158658366Y-92744508D01*
X159491632Y-92744508D01*
X159505662Y-92745890D01*
X159516159Y-92749074D01*
X159525828Y-92754242D01*
X159534307Y-92761201D01*
X159536416Y-92763771D01*
X159545219Y-92772573D01*
X159555569Y-92779488D01*
X159567070Y-92784252D01*
X159579279Y-92786679D01*
X159591727Y-92786679D01*
X159603935Y-92784250D01*
X159615436Y-92779486D01*
X159625785Y-92772570D01*
X159634587Y-92763767D01*
X159641502Y-92753417D01*
X159646266Y-92741916D01*
X159648999Y-92723486D01*
X159648999Y-92617530D01*
X159647779Y-92605142D01*
X159644165Y-92593230D01*
X159638297Y-92582252D01*
X159630401Y-92572629D01*
X159620778Y-92564733D01*
X159609800Y-92558865D01*
X159597888Y-92555251D01*
X159585500Y-92554031D01*
X159573112Y-92555251D01*
X159561200Y-92558865D01*
X159550222Y-92564733D01*
X159536416Y-92577245D01*
X159534307Y-92579815D01*
X159525828Y-92586774D01*
X159516159Y-92591942D01*
X159505662Y-92595126D01*
X159491632Y-92596508D01*
X158658366Y-92596508D01*
X158644336Y-92595126D01*
X158633839Y-92591942D01*
X158624170Y-92586774D01*
X158615692Y-92579815D01*
X158608733Y-92571337D01*
X158603565Y-92561668D01*
X158600381Y-92551171D01*
X158598999Y-92537141D01*
X158598999Y-92303875D01*
X158600381Y-92289845D01*
X158603565Y-92279348D01*
X158608733Y-92269679D01*
X158615692Y-92261201D01*
X158624170Y-92254242D01*
X158633839Y-92249074D01*
X158644336Y-92245890D01*
X158658366Y-92244508D01*
X159491632Y-92244508D01*
X159505662Y-92245890D01*
X159516159Y-92249074D01*
X159525828Y-92254242D01*
X159534305Y-92261200D01*
X159541214Y-92269617D01*
X159550017Y-92278418D01*
X159560367Y-92285333D01*
X159571868Y-92290096D01*
X159584077Y-92292524D01*
X159596525Y-92292523D01*
X159608734Y-92290094D01*
X159620234Y-92285329D01*
X159630584Y-92278413D01*
X159639385Y-92269610D01*
X159646300Y-92259260D01*
X159651063Y-92247759D01*
X159652767Y-92239188D01*
X159665156Y-92198347D01*
X159684397Y-92162349D01*
X159710290Y-92130799D01*
X159741840Y-92104906D01*
X159777838Y-92085665D01*
X159818680Y-92073276D01*
X159827248Y-92071572D01*
X159838749Y-92066810D01*
X159849100Y-92059895D01*
X159857903Y-92051094D01*
X159864819Y-92040744D01*
X159869584Y-92029244D01*
X159872014Y-92017036D01*
X159872015Y-92004588D01*
X159869587Y-91992379D01*
X159864825Y-91980878D01*
X159857910Y-91970527D01*
X159849108Y-91961723D01*
X159840691Y-91954814D01*
X159833733Y-91946337D01*
X159828565Y-91936668D01*
X159825381Y-91926171D01*
X159823999Y-91912141D01*
X159823999Y-91078875D01*
X159825381Y-91064845D01*
X159828565Y-91054348D01*
X159833733Y-91044679D01*
X159840692Y-91036201D01*
X159849170Y-91029242D01*
X159858839Y-91024074D01*
X159869336Y-91020890D01*
X159883366Y-91019508D01*
X160116632Y-91019508D01*
X160130662Y-91020890D01*
G37*
G36*
X157157246Y-95112523D02*
G01*
X157183683Y-95120543D01*
X157208052Y-95133568D01*
X157229410Y-95151097D01*
X157246939Y-95172455D01*
X157259964Y-95196824D01*
X157267984Y-95223261D01*
X157270999Y-95253875D01*
X157270999Y-95657141D01*
X157267984Y-95687755D01*
X157259964Y-95714192D01*
X157246939Y-95738561D01*
X157229410Y-95759919D01*
X157208052Y-95777448D01*
X157183683Y-95790473D01*
X157157246Y-95798493D01*
X157126632Y-95801508D01*
X156673366Y-95801508D01*
X156642752Y-95798493D01*
X156616315Y-95790473D01*
X156591946Y-95777448D01*
X156570588Y-95759919D01*
X156553059Y-95738561D01*
X156540034Y-95714192D01*
X156532014Y-95687755D01*
X156528999Y-95657141D01*
X156528999Y-95253875D01*
X156532014Y-95223261D01*
X156540034Y-95196824D01*
X156553059Y-95172455D01*
X156570588Y-95151097D01*
X156591946Y-95133568D01*
X156616315Y-95120543D01*
X156642752Y-95112523D01*
X156673366Y-95109508D01*
X157126632Y-95109508D01*
X157157246Y-95112523D01*
G37*
G36*
X155857246Y-95112523D02*
G01*
X155883683Y-95120543D01*
X155908052Y-95133568D01*
X155929410Y-95151097D01*
X155946939Y-95172455D01*
X155959964Y-95196824D01*
X155967984Y-95223261D01*
X155970999Y-95253875D01*
X155970999Y-95657141D01*
X155967984Y-95687755D01*
X155959964Y-95714192D01*
X155946939Y-95738561D01*
X155929410Y-95759919D01*
X155908052Y-95777448D01*
X155883683Y-95790473D01*
X155857246Y-95798493D01*
X155826632Y-95801508D01*
X155373366Y-95801508D01*
X155342752Y-95798493D01*
X155316315Y-95790473D01*
X155291946Y-95777448D01*
X155270588Y-95759919D01*
X155253059Y-95738561D01*
X155240034Y-95714192D01*
X155232014Y-95687755D01*
X155228999Y-95657141D01*
X155228999Y-95253875D01*
X155232014Y-95223261D01*
X155240034Y-95196824D01*
X155253059Y-95172455D01*
X155270588Y-95151097D01*
X155291946Y-95133568D01*
X155316315Y-95120543D01*
X155342752Y-95112523D01*
X155373366Y-95109508D01*
X155826632Y-95109508D01*
X155857246Y-95112523D01*
G37*
G36*
X154557246Y-95112523D02*
G01*
X154583683Y-95120543D01*
X154608052Y-95133568D01*
X154629410Y-95151097D01*
X154646939Y-95172455D01*
X154659964Y-95196824D01*
X154667984Y-95223261D01*
X154670999Y-95253875D01*
X154670999Y-95657141D01*
X154667984Y-95687755D01*
X154659964Y-95714192D01*
X154646939Y-95738561D01*
X154629410Y-95759919D01*
X154608052Y-95777448D01*
X154583683Y-95790473D01*
X154557246Y-95798493D01*
X154526632Y-95801508D01*
X154073366Y-95801508D01*
X154042752Y-95798493D01*
X154016315Y-95790473D01*
X153991946Y-95777448D01*
X153970588Y-95759919D01*
X153953059Y-95738561D01*
X153940034Y-95714192D01*
X153932014Y-95687755D01*
X153928999Y-95657141D01*
X153928999Y-95253875D01*
X153932014Y-95223261D01*
X153940034Y-95196824D01*
X153953059Y-95172455D01*
X153970588Y-95151097D01*
X153991946Y-95133568D01*
X154016315Y-95120543D01*
X154042752Y-95112523D01*
X154073366Y-95109508D01*
X154526632Y-95109508D01*
X154557246Y-95112523D01*
G37*
G36*
X165747246Y-95052523D02*
G01*
X165773683Y-95060543D01*
X165798052Y-95073568D01*
X165819410Y-95091097D01*
X165836939Y-95112455D01*
X165849964Y-95136824D01*
X165857984Y-95163261D01*
X165860999Y-95193875D01*
X165860999Y-95647141D01*
X165857984Y-95677755D01*
X165849964Y-95704192D01*
X165836939Y-95728561D01*
X165819410Y-95749919D01*
X165798052Y-95767448D01*
X165773683Y-95780473D01*
X165747246Y-95788493D01*
X165716632Y-95791508D01*
X165313366Y-95791508D01*
X165282752Y-95788493D01*
X165256315Y-95780473D01*
X165231946Y-95767448D01*
X165210588Y-95749919D01*
X165193059Y-95728561D01*
X165180034Y-95704192D01*
X165172014Y-95677755D01*
X165168999Y-95647141D01*
X165168999Y-95193875D01*
X165172014Y-95163261D01*
X165180034Y-95136824D01*
X165193059Y-95112455D01*
X165210588Y-95091097D01*
X165231946Y-95073568D01*
X165256315Y-95060543D01*
X165282752Y-95052523D01*
X165313366Y-95049508D01*
X165716632Y-95049508D01*
X165747246Y-95052523D01*
G37*
G36*
X166717246Y-95052523D02*
G01*
X166743683Y-95060543D01*
X166768052Y-95073568D01*
X166789410Y-95091097D01*
X166806939Y-95112455D01*
X166819964Y-95136824D01*
X166827984Y-95163261D01*
X166830999Y-95193875D01*
X166830999Y-95647141D01*
X166827984Y-95677755D01*
X166819964Y-95704192D01*
X166806939Y-95728561D01*
X166789410Y-95749919D01*
X166768052Y-95767448D01*
X166743683Y-95780473D01*
X166717246Y-95788493D01*
X166686632Y-95791508D01*
X166283366Y-95791508D01*
X166252752Y-95788493D01*
X166226315Y-95780473D01*
X166201946Y-95767448D01*
X166180588Y-95749919D01*
X166163059Y-95728561D01*
X166150034Y-95704192D01*
X166142014Y-95677755D01*
X166138999Y-95647141D01*
X166138999Y-95193875D01*
X166142014Y-95163261D01*
X166150034Y-95136824D01*
X166163059Y-95112455D01*
X166180588Y-95091097D01*
X166201946Y-95073568D01*
X166226315Y-95060543D01*
X166252752Y-95052523D01*
X166283366Y-95049508D01*
X166686632Y-95049508D01*
X166717246Y-95052523D01*
G37*
G36*
X154557246Y-94142523D02*
G01*
X154583683Y-94150543D01*
X154608052Y-94163568D01*
X154629410Y-94181097D01*
X154646939Y-94202455D01*
X154659964Y-94226824D01*
X154667984Y-94253261D01*
X154670999Y-94283875D01*
X154670999Y-94687141D01*
X154667984Y-94717755D01*
X154659964Y-94744192D01*
X154646939Y-94768561D01*
X154629410Y-94789919D01*
X154608052Y-94807448D01*
X154583683Y-94820473D01*
X154557246Y-94828493D01*
X154526632Y-94831508D01*
X154073366Y-94831508D01*
X154042752Y-94828493D01*
X154016315Y-94820473D01*
X153991946Y-94807448D01*
X153970588Y-94789919D01*
X153953059Y-94768561D01*
X153940034Y-94744192D01*
X153932014Y-94717755D01*
X153928999Y-94687141D01*
X153928999Y-94283875D01*
X153932014Y-94253261D01*
X153940034Y-94226824D01*
X153953059Y-94202455D01*
X153970588Y-94181097D01*
X153991946Y-94163568D01*
X154016315Y-94150543D01*
X154042752Y-94142523D01*
X154073366Y-94139508D01*
X154526632Y-94139508D01*
X154557246Y-94142523D01*
G37*
G36*
X155857246Y-94142523D02*
G01*
X155883683Y-94150543D01*
X155908052Y-94163568D01*
X155929410Y-94181097D01*
X155946939Y-94202455D01*
X155959964Y-94226824D01*
X155967984Y-94253261D01*
X155970999Y-94283875D01*
X155970999Y-94687141D01*
X155967984Y-94717755D01*
X155959964Y-94744192D01*
X155946939Y-94768561D01*
X155929410Y-94789919D01*
X155908052Y-94807448D01*
X155883683Y-94820473D01*
X155857246Y-94828493D01*
X155826632Y-94831508D01*
X155373366Y-94831508D01*
X155342752Y-94828493D01*
X155316315Y-94820473D01*
X155291946Y-94807448D01*
X155270588Y-94789919D01*
X155253059Y-94768561D01*
X155240034Y-94744192D01*
X155232014Y-94717755D01*
X155228999Y-94687141D01*
X155228999Y-94283875D01*
X155232014Y-94253261D01*
X155240034Y-94226824D01*
X155253059Y-94202455D01*
X155270588Y-94181097D01*
X155291946Y-94163568D01*
X155316315Y-94150543D01*
X155342752Y-94142523D01*
X155373366Y-94139508D01*
X155826632Y-94139508D01*
X155857246Y-94142523D01*
G37*
G36*
X157157246Y-94142523D02*
G01*
X157183683Y-94150543D01*
X157208052Y-94163568D01*
X157229410Y-94181097D01*
X157246939Y-94202455D01*
X157259964Y-94226824D01*
X157267984Y-94253261D01*
X157270999Y-94283875D01*
X157270999Y-94687141D01*
X157267984Y-94717755D01*
X157259964Y-94744192D01*
X157246939Y-94768561D01*
X157229410Y-94789919D01*
X157208052Y-94807448D01*
X157183683Y-94820473D01*
X157157246Y-94828493D01*
X157126632Y-94831508D01*
X156673366Y-94831508D01*
X156642752Y-94828493D01*
X156616315Y-94820473D01*
X156591946Y-94807448D01*
X156570588Y-94789919D01*
X156553059Y-94768561D01*
X156540034Y-94744192D01*
X156532014Y-94717755D01*
X156528999Y-94687141D01*
X156528999Y-94283875D01*
X156532014Y-94253261D01*
X156540034Y-94226824D01*
X156553059Y-94202455D01*
X156570588Y-94181097D01*
X156591946Y-94163568D01*
X156616315Y-94150543D01*
X156642752Y-94142523D01*
X156673366Y-94139508D01*
X157126632Y-94139508D01*
X157157246Y-94142523D01*
G37*
G36*
X166717246Y-93352523D02*
G01*
X166743683Y-93360543D01*
X166768052Y-93373568D01*
X166789410Y-93391097D01*
X166806939Y-93412455D01*
X166819964Y-93436824D01*
X166827984Y-93463261D01*
X166830999Y-93493875D01*
X166830999Y-93947141D01*
X166827984Y-93977755D01*
X166819964Y-94004192D01*
X166806939Y-94028561D01*
X166789410Y-94049919D01*
X166768052Y-94067448D01*
X166743683Y-94080473D01*
X166717246Y-94088493D01*
X166686632Y-94091508D01*
X166283366Y-94091508D01*
X166252752Y-94088493D01*
X166226315Y-94080473D01*
X166201946Y-94067448D01*
X166180588Y-94049919D01*
X166163059Y-94028561D01*
X166150034Y-94004192D01*
X166142014Y-93977755D01*
X166138999Y-93947141D01*
X166138999Y-93493875D01*
X166142014Y-93463261D01*
X166150034Y-93436824D01*
X166163059Y-93412455D01*
X166180588Y-93391097D01*
X166201946Y-93373568D01*
X166226315Y-93360543D01*
X166252752Y-93352523D01*
X166283366Y-93349508D01*
X166686632Y-93349508D01*
X166717246Y-93352523D01*
G37*
G36*
X165747246Y-93352523D02*
G01*
X165773683Y-93360543D01*
X165798052Y-93373568D01*
X165819410Y-93391097D01*
X165836939Y-93412455D01*
X165849964Y-93436824D01*
X165857984Y-93463261D01*
X165860999Y-93493875D01*
X165860999Y-93947141D01*
X165857984Y-93977755D01*
X165849964Y-94004192D01*
X165836939Y-94028561D01*
X165819410Y-94049919D01*
X165798052Y-94067448D01*
X165773683Y-94080473D01*
X165747246Y-94088493D01*
X165716632Y-94091508D01*
X165313366Y-94091508D01*
X165282752Y-94088493D01*
X165256315Y-94080473D01*
X165231946Y-94067448D01*
X165210588Y-94049919D01*
X165193059Y-94028561D01*
X165180034Y-94004192D01*
X165172014Y-93977755D01*
X165168999Y-93947141D01*
X165168999Y-93493875D01*
X165172014Y-93463261D01*
X165180034Y-93436824D01*
X165193059Y-93412455D01*
X165210588Y-93391097D01*
X165231946Y-93373568D01*
X165256315Y-93360543D01*
X165282752Y-93352523D01*
X165313366Y-93349508D01*
X165716632Y-93349508D01*
X165747246Y-93352523D01*
G37*
G36*
X166717246Y-92052523D02*
G01*
X166743683Y-92060543D01*
X166768052Y-92073568D01*
X166789410Y-92091097D01*
X166806939Y-92112455D01*
X166819964Y-92136824D01*
X166827984Y-92163261D01*
X166830999Y-92193875D01*
X166830999Y-92647141D01*
X166827984Y-92677755D01*
X166819964Y-92704192D01*
X166806939Y-92728561D01*
X166789410Y-92749919D01*
X166768052Y-92767448D01*
X166743683Y-92780473D01*
X166717246Y-92788493D01*
X166686632Y-92791508D01*
X166283366Y-92791508D01*
X166252752Y-92788493D01*
X166226315Y-92780473D01*
X166201946Y-92767448D01*
X166180588Y-92749919D01*
X166163059Y-92728561D01*
X166150034Y-92704192D01*
X166142014Y-92677755D01*
X166138999Y-92647141D01*
X166138999Y-92193875D01*
X166142014Y-92163261D01*
X166150034Y-92136824D01*
X166163059Y-92112455D01*
X166180588Y-92091097D01*
X166201946Y-92073568D01*
X166226315Y-92060543D01*
X166252752Y-92052523D01*
X166283366Y-92049508D01*
X166686632Y-92049508D01*
X166717246Y-92052523D01*
G37*
G36*
X165747246Y-92052523D02*
G01*
X165773683Y-92060543D01*
X165798052Y-92073568D01*
X165819410Y-92091097D01*
X165836939Y-92112455D01*
X165849964Y-92136824D01*
X165857984Y-92163261D01*
X165860999Y-92193875D01*
X165860999Y-92647141D01*
X165857984Y-92677755D01*
X165849964Y-92704192D01*
X165836939Y-92728561D01*
X165819410Y-92749919D01*
X165798052Y-92767448D01*
X165773683Y-92780473D01*
X165747246Y-92788493D01*
X165716632Y-92791508D01*
X165313366Y-92791508D01*
X165282752Y-92788493D01*
X165256315Y-92780473D01*
X165231946Y-92767448D01*
X165210588Y-92749919D01*
X165193059Y-92728561D01*
X165180034Y-92704192D01*
X165172014Y-92677755D01*
X165168999Y-92647141D01*
X165168999Y-92193875D01*
X165172014Y-92163261D01*
X165180034Y-92136824D01*
X165193059Y-92112455D01*
X165210588Y-92091097D01*
X165231946Y-92073568D01*
X165256315Y-92060543D01*
X165282752Y-92052523D01*
X165313366Y-92049508D01*
X165716632Y-92049508D01*
X165747246Y-92052523D01*
G37*
G36*
X166717246Y-90802523D02*
G01*
X166743683Y-90810543D01*
X166768052Y-90823568D01*
X166789410Y-90841097D01*
X166806939Y-90862455D01*
X166819964Y-90886824D01*
X166827984Y-90913261D01*
X166830999Y-90943875D01*
X166830999Y-91397141D01*
X166827984Y-91427755D01*
X166819964Y-91454192D01*
X166806939Y-91478561D01*
X166789410Y-91499919D01*
X166768052Y-91517448D01*
X166743683Y-91530473D01*
X166717246Y-91538493D01*
X166686632Y-91541508D01*
X166283366Y-91541508D01*
X166252752Y-91538493D01*
X166226315Y-91530473D01*
X166201946Y-91517448D01*
X166180588Y-91499919D01*
X166163059Y-91478561D01*
X166150034Y-91454192D01*
X166142014Y-91427755D01*
X166138999Y-91397141D01*
X166138999Y-90943875D01*
X166142014Y-90913261D01*
X166150034Y-90886824D01*
X166163059Y-90862455D01*
X166180588Y-90841097D01*
X166201946Y-90823568D01*
X166226315Y-90810543D01*
X166252752Y-90802523D01*
X166283366Y-90799508D01*
X166686632Y-90799508D01*
X166717246Y-90802523D01*
G37*
G36*
X165747246Y-90802523D02*
G01*
X165773683Y-90810543D01*
X165798052Y-90823568D01*
X165819410Y-90841097D01*
X165836939Y-90862455D01*
X165849964Y-90886824D01*
X165857984Y-90913261D01*
X165860999Y-90943875D01*
X165860999Y-91397141D01*
X165857984Y-91427755D01*
X165849964Y-91454192D01*
X165836939Y-91478561D01*
X165819410Y-91499919D01*
X165798052Y-91517448D01*
X165773683Y-91530473D01*
X165747246Y-91538493D01*
X165716632Y-91541508D01*
X165313366Y-91541508D01*
X165282752Y-91538493D01*
X165256315Y-91530473D01*
X165231946Y-91517448D01*
X165210588Y-91499919D01*
X165193059Y-91478561D01*
X165180034Y-91454192D01*
X165172014Y-91427755D01*
X165168999Y-91397141D01*
X165168999Y-90943875D01*
X165172014Y-90913261D01*
X165180034Y-90886824D01*
X165193059Y-90862455D01*
X165210588Y-90841097D01*
X165231946Y-90823568D01*
X165256315Y-90810543D01*
X165282752Y-90802523D01*
X165313366Y-90799508D01*
X165716632Y-90799508D01*
X165747246Y-90802523D01*
G37*
G36*
X161967246Y-89302523D02*
G01*
X161993683Y-89310543D01*
X162018052Y-89323568D01*
X162039410Y-89341097D01*
X162056939Y-89362455D01*
X162069964Y-89386824D01*
X162077984Y-89413261D01*
X162080999Y-89443875D01*
X162080999Y-89897141D01*
X162077984Y-89927755D01*
X162069964Y-89954192D01*
X162056939Y-89978561D01*
X162039410Y-89999919D01*
X162018052Y-90017448D01*
X161993683Y-90030473D01*
X161967246Y-90038493D01*
X161936632Y-90041508D01*
X161533366Y-90041508D01*
X161502752Y-90038493D01*
X161476315Y-90030473D01*
X161451946Y-90017448D01*
X161430588Y-89999919D01*
X161413059Y-89978561D01*
X161400034Y-89954192D01*
X161392014Y-89927755D01*
X161388999Y-89897141D01*
X161388999Y-89443875D01*
X161392014Y-89413261D01*
X161400034Y-89386824D01*
X161413059Y-89362455D01*
X161430588Y-89341097D01*
X161451946Y-89323568D01*
X161476315Y-89310543D01*
X161502752Y-89302523D01*
X161533366Y-89299508D01*
X161936632Y-89299508D01*
X161967246Y-89302523D01*
G37*
G36*
X160997246Y-89302523D02*
G01*
X161023683Y-89310543D01*
X161048052Y-89323568D01*
X161069410Y-89341097D01*
X161086939Y-89362455D01*
X161099964Y-89386824D01*
X161107984Y-89413261D01*
X161110999Y-89443875D01*
X161110999Y-89897141D01*
X161107984Y-89927755D01*
X161099964Y-89954192D01*
X161086939Y-89978561D01*
X161069410Y-89999919D01*
X161048052Y-90017448D01*
X161023683Y-90030473D01*
X160997246Y-90038493D01*
X160966632Y-90041508D01*
X160563366Y-90041508D01*
X160532752Y-90038493D01*
X160506315Y-90030473D01*
X160481946Y-90017448D01*
X160460588Y-89999919D01*
X160443059Y-89978561D01*
X160430034Y-89954192D01*
X160422014Y-89927755D01*
X160418999Y-89897141D01*
X160418999Y-89443875D01*
X160422014Y-89413261D01*
X160430034Y-89386824D01*
X160443059Y-89362455D01*
X160460588Y-89341097D01*
X160481946Y-89323568D01*
X160506315Y-89310543D01*
X160532752Y-89302523D01*
X160563366Y-89299508D01*
X160966632Y-89299508D01*
X160997246Y-89302523D01*
G37*
G36*
X158975999Y-89921508D02*
G01*
X158223999Y-89921508D01*
X158223999Y-89419508D01*
X158975999Y-89419508D01*
X158975999Y-89921508D01*
G37*
G36*
X157075999Y-89921508D02*
G01*
X156323999Y-89921508D01*
X156323999Y-89419508D01*
X157075999Y-89419508D01*
X157075999Y-89921508D01*
G37*
G36*
X155507246Y-89062523D02*
G01*
X155533683Y-89070543D01*
X155558052Y-89083568D01*
X155579410Y-89101097D01*
X155596939Y-89122455D01*
X155609964Y-89146824D01*
X155617984Y-89173261D01*
X155620999Y-89203875D01*
X155620999Y-89607141D01*
X155617984Y-89637755D01*
X155609964Y-89664192D01*
X155596939Y-89688561D01*
X155579410Y-89709919D01*
X155558052Y-89727448D01*
X155533683Y-89740473D01*
X155507246Y-89748493D01*
X155476632Y-89751508D01*
X155023366Y-89751508D01*
X154992752Y-89748493D01*
X154966315Y-89740473D01*
X154941946Y-89727448D01*
X154920588Y-89709919D01*
X154903059Y-89688561D01*
X154890034Y-89664192D01*
X154882014Y-89637755D01*
X154878999Y-89607141D01*
X154878999Y-89203875D01*
X154882014Y-89173261D01*
X154890034Y-89146824D01*
X154903059Y-89122455D01*
X154920588Y-89101097D01*
X154941946Y-89083568D01*
X154966315Y-89070543D01*
X154992752Y-89062523D01*
X155023366Y-89059508D01*
X155476632Y-89059508D01*
X155507246Y-89062523D01*
G37*
G36*
X158975999Y-89271508D02*
G01*
X158223999Y-89271508D01*
X158223999Y-88769508D01*
X158975999Y-88769508D01*
X158975999Y-89271508D01*
G37*
G36*
X164980999Y-89246508D02*
G01*
X163818999Y-89246508D01*
X163818999Y-88494508D01*
X164980999Y-88494508D01*
X164980999Y-89246508D01*
G37*
G36*
X167180999Y-89246508D02*
G01*
X166018999Y-89246508D01*
X166018999Y-88494508D01*
X167180999Y-88494508D01*
X167180999Y-89246508D01*
G37*
G36*
X155507246Y-88092523D02*
G01*
X155533683Y-88100543D01*
X155558052Y-88113568D01*
X155579410Y-88131097D01*
X155596939Y-88152455D01*
X155609964Y-88176824D01*
X155617984Y-88203261D01*
X155620999Y-88233875D01*
X155620999Y-88637141D01*
X155617984Y-88667755D01*
X155609964Y-88694192D01*
X155596939Y-88718561D01*
X155579410Y-88739919D01*
X155558052Y-88757448D01*
X155533683Y-88770473D01*
X155507246Y-88778493D01*
X155476632Y-88781508D01*
X155023366Y-88781508D01*
X154992752Y-88778493D01*
X154966315Y-88770473D01*
X154941946Y-88757448D01*
X154920588Y-88739919D01*
X154903059Y-88718561D01*
X154890034Y-88694192D01*
X154882014Y-88667755D01*
X154878999Y-88637141D01*
X154878999Y-88233875D01*
X154882014Y-88203261D01*
X154890034Y-88176824D01*
X154903059Y-88152455D01*
X154920588Y-88131097D01*
X154941946Y-88113568D01*
X154966315Y-88100543D01*
X154992752Y-88092523D01*
X155023366Y-88089508D01*
X155476632Y-88089508D01*
X155507246Y-88092523D01*
G37*
G36*
X158975999Y-88621508D02*
G01*
X158223999Y-88621508D01*
X158223999Y-88119508D01*
X158975999Y-88119508D01*
X158975999Y-88621508D01*
G37*
G36*
X157075999Y-88621508D02*
G01*
X156323999Y-88621508D01*
X156323999Y-88119508D01*
X157075999Y-88119508D01*
X157075999Y-88621508D01*
G37*
G36*
X164980999Y-88296508D02*
G01*
X163818999Y-88296508D01*
X163818999Y-87544508D01*
X164980999Y-87544508D01*
X164980999Y-88296508D01*
G37*
G36*
X167180999Y-88296508D02*
G01*
X166018999Y-88296508D01*
X166018999Y-87544508D01*
X167180999Y-87544508D01*
X167180999Y-88296508D01*
G37*
G36*
X167180999Y-87346508D02*
G01*
X166018999Y-87346508D01*
X166018999Y-86594508D01*
X167180999Y-86594508D01*
X167180999Y-87346508D01*
G37*
G36*
X164980999Y-87346508D02*
G01*
X163818999Y-87346508D01*
X163818999Y-86594508D01*
X164980999Y-86594508D01*
X164980999Y-87346508D01*
G37*
G36*
X155507246Y-86062523D02*
G01*
X155533683Y-86070543D01*
X155558052Y-86083568D01*
X155579410Y-86101097D01*
X155596939Y-86122455D01*
X155609964Y-86146824D01*
X155617984Y-86173261D01*
X155620999Y-86203875D01*
X155620999Y-86607141D01*
X155617984Y-86637755D01*
X155609964Y-86664192D01*
X155596939Y-86688561D01*
X155579410Y-86709919D01*
X155558052Y-86727448D01*
X155533683Y-86740473D01*
X155507246Y-86748493D01*
X155476632Y-86751508D01*
X155023366Y-86751508D01*
X154992752Y-86748493D01*
X154966315Y-86740473D01*
X154941946Y-86727448D01*
X154920588Y-86709919D01*
X154903059Y-86688561D01*
X154890034Y-86664192D01*
X154882014Y-86637755D01*
X154878999Y-86607141D01*
X154878999Y-86203875D01*
X154882014Y-86173261D01*
X154890034Y-86146824D01*
X154903059Y-86122455D01*
X154920588Y-86101097D01*
X154941946Y-86083568D01*
X154966315Y-86070543D01*
X154992752Y-86062523D01*
X155023366Y-86059508D01*
X155476632Y-86059508D01*
X155507246Y-86062523D01*
G37*
G36*
X161747246Y-85802523D02*
G01*
X161773683Y-85810543D01*
X161798052Y-85823568D01*
X161819410Y-85841097D01*
X161836939Y-85862455D01*
X161849964Y-85886824D01*
X161857984Y-85913261D01*
X161860999Y-85943875D01*
X161860999Y-86397141D01*
X161857984Y-86427755D01*
X161849964Y-86454192D01*
X161836939Y-86478561D01*
X161819410Y-86499919D01*
X161798052Y-86517448D01*
X161773683Y-86530473D01*
X161747246Y-86538493D01*
X161716632Y-86541508D01*
X161313366Y-86541508D01*
X161282752Y-86538493D01*
X161256315Y-86530473D01*
X161231946Y-86517448D01*
X161210588Y-86499919D01*
X161193059Y-86478561D01*
X161180034Y-86454192D01*
X161172014Y-86427755D01*
X161168999Y-86397141D01*
X161168999Y-85943875D01*
X161172014Y-85913261D01*
X161180034Y-85886824D01*
X161193059Y-85862455D01*
X161210588Y-85841097D01*
X161231946Y-85823568D01*
X161256315Y-85810543D01*
X161282752Y-85802523D01*
X161313366Y-85799508D01*
X161716632Y-85799508D01*
X161747246Y-85802523D01*
G37*
G36*
X162717246Y-85802523D02*
G01*
X162743683Y-85810543D01*
X162768052Y-85823568D01*
X162789410Y-85841097D01*
X162806939Y-85862455D01*
X162819964Y-85886824D01*
X162827984Y-85913261D01*
X162830999Y-85943875D01*
X162830999Y-86397141D01*
X162827984Y-86427755D01*
X162819964Y-86454192D01*
X162806939Y-86478561D01*
X162789410Y-86499919D01*
X162768052Y-86517448D01*
X162743683Y-86530473D01*
X162717246Y-86538493D01*
X162686632Y-86541508D01*
X162283366Y-86541508D01*
X162252752Y-86538493D01*
X162226315Y-86530473D01*
X162201946Y-86517448D01*
X162180588Y-86499919D01*
X162163059Y-86478561D01*
X162150034Y-86454192D01*
X162142014Y-86427755D01*
X162138999Y-86397141D01*
X162138999Y-85943875D01*
X162142014Y-85913261D01*
X162150034Y-85886824D01*
X162163059Y-85862455D01*
X162180588Y-85841097D01*
X162201946Y-85823568D01*
X162226315Y-85810543D01*
X162252752Y-85802523D01*
X162283366Y-85799508D01*
X162686632Y-85799508D01*
X162717246Y-85802523D01*
G37*
G36*
X155507246Y-85092523D02*
G01*
X155533683Y-85100543D01*
X155558052Y-85113568D01*
X155579410Y-85131097D01*
X155596939Y-85152455D01*
X155609964Y-85176824D01*
X155617984Y-85203261D01*
X155620999Y-85233875D01*
X155620999Y-85637141D01*
X155617984Y-85667755D01*
X155609964Y-85694192D01*
X155596939Y-85718561D01*
X155579410Y-85739919D01*
X155558052Y-85757448D01*
X155533683Y-85770473D01*
X155507246Y-85778493D01*
X155476632Y-85781508D01*
X155023366Y-85781508D01*
X154992752Y-85778493D01*
X154966315Y-85770473D01*
X154941946Y-85757448D01*
X154920588Y-85739919D01*
X154903059Y-85718561D01*
X154890034Y-85694192D01*
X154882014Y-85667755D01*
X154878999Y-85637141D01*
X154878999Y-85233875D01*
X154882014Y-85203261D01*
X154890034Y-85176824D01*
X154903059Y-85152455D01*
X154920588Y-85131097D01*
X154941946Y-85113568D01*
X154966315Y-85100543D01*
X154992752Y-85092523D01*
X155023366Y-85089508D01*
X155476632Y-85089508D01*
X155507246Y-85092523D01*
G37*
G36*
X166854893Y-84473892D02*
G01*
X166894704Y-84485968D01*
X166931389Y-84505577D01*
X166963543Y-84531964D01*
X166989930Y-84564118D01*
X167009539Y-84600803D01*
X167021615Y-84640614D01*
X167025999Y-84685125D01*
X167025999Y-85230891D01*
X167021615Y-85275402D01*
X167009539Y-85315213D01*
X166989930Y-85351898D01*
X166963543Y-85384052D01*
X166931389Y-85410439D01*
X166894704Y-85430048D01*
X166854893Y-85442124D01*
X166810382Y-85446508D01*
X166189616Y-85446508D01*
X166145105Y-85442124D01*
X166105294Y-85430048D01*
X166068609Y-85410439D01*
X166036455Y-85384052D01*
X166010068Y-85351898D01*
X165990459Y-85315213D01*
X165978383Y-85275402D01*
X165973999Y-85230891D01*
X165973999Y-84685125D01*
X165978383Y-84640614D01*
X165990459Y-84600803D01*
X166010068Y-84564118D01*
X166036455Y-84531964D01*
X166068609Y-84505577D01*
X166105294Y-84485968D01*
X166145105Y-84473892D01*
X166189616Y-84469508D01*
X166810382Y-84469508D01*
X166854893Y-84473892D01*
G37*
G36*
X166854893Y-82898892D02*
G01*
X166894704Y-82910968D01*
X166931389Y-82930577D01*
X166963543Y-82956964D01*
X166989930Y-82989118D01*
X167009539Y-83025803D01*
X167021615Y-83065614D01*
X167025999Y-83110125D01*
X167025999Y-83655891D01*
X167021615Y-83700402D01*
X167009539Y-83740213D01*
X166989930Y-83776898D01*
X166963543Y-83809052D01*
X166931389Y-83835439D01*
X166894704Y-83855048D01*
X166854893Y-83867124D01*
X166810382Y-83871508D01*
X166189616Y-83871508D01*
X166145105Y-83867124D01*
X166105294Y-83855048D01*
X166068609Y-83835439D01*
X166036455Y-83809052D01*
X166010068Y-83776898D01*
X165990459Y-83740213D01*
X165978383Y-83700402D01*
X165973999Y-83655891D01*
X165973999Y-83110125D01*
X165978383Y-83065614D01*
X165990459Y-83025803D01*
X166010068Y-82989118D01*
X166036455Y-82956964D01*
X166068609Y-82930577D01*
X166105294Y-82910968D01*
X166145105Y-82898892D01*
X166189616Y-82894508D01*
X166810382Y-82894508D01*
X166854893Y-82898892D01*
G37*
G36*
X161550999Y-83821508D02*
G01*
X160448999Y-83821508D01*
X160448999Y-80569508D01*
X161550999Y-80569508D01*
X161550999Y-83821508D01*
G37*
G36*
X164090999Y-83821508D02*
G01*
X162988999Y-83821508D01*
X162988999Y-80569508D01*
X164090999Y-80569508D01*
X164090999Y-83821508D01*
G37*
G36*
X159010999Y-83821508D02*
G01*
X157908999Y-83821508D01*
X157908999Y-80569508D01*
X159010999Y-80569508D01*
X159010999Y-83821508D01*
G37*
G36*
X168342143Y-77124793D02*
G01*
X168390752Y-77139538D01*
X168435542Y-77163479D01*
X168474805Y-77195702D01*
X168507028Y-77234965D01*
X168530969Y-77279755D01*
X168545714Y-77328364D01*
X168550999Y-77382025D01*
X168550999Y-81958991D01*
X168545714Y-82012652D01*
X168530969Y-82061261D01*
X168507028Y-82106051D01*
X168474805Y-82145314D01*
X168435542Y-82177537D01*
X168390752Y-82201478D01*
X168342143Y-82216223D01*
X168288482Y-82221508D01*
X165711516Y-82221508D01*
X165657855Y-82216223D01*
X165609246Y-82201478D01*
X165564456Y-82177537D01*
X165525193Y-82145314D01*
X165492970Y-82106051D01*
X165469029Y-82061261D01*
X165454284Y-82012652D01*
X165448999Y-81958991D01*
X165448999Y-77382025D01*
X165454284Y-77328364D01*
X165469029Y-77279755D01*
X165492970Y-77234965D01*
X165525193Y-77195702D01*
X165564456Y-77163479D01*
X165609246Y-77139538D01*
X165657855Y-77124793D01*
X165711516Y-77119508D01*
X168288482Y-77119508D01*
X168342143Y-77124793D01*
G37*
G36*
X156342143Y-77124793D02*
G01*
X156390752Y-77139538D01*
X156435542Y-77163479D01*
X156474805Y-77195702D01*
X156507028Y-77234965D01*
X156530969Y-77279755D01*
X156545714Y-77328364D01*
X156550999Y-77382025D01*
X156550999Y-81958991D01*
X156545714Y-82012652D01*
X156530969Y-82061261D01*
X156507028Y-82106051D01*
X156474805Y-82145314D01*
X156435542Y-82177537D01*
X156390752Y-82201478D01*
X156342143Y-82216223D01*
X156288482Y-82221508D01*
X153711516Y-82221508D01*
X153657855Y-82216223D01*
X153609246Y-82201478D01*
X153564456Y-82177537D01*
X153525193Y-82145314D01*
X153492970Y-82106051D01*
X153469029Y-82061261D01*
X153454284Y-82012652D01*
X153448999Y-81958991D01*
X153448999Y-77382025D01*
X153454284Y-77328364D01*
X153469029Y-77279755D01*
X153492970Y-77234965D01*
X153525193Y-77195702D01*
X153564456Y-77163479D01*
X153609246Y-77139538D01*
X153657855Y-77124793D01*
X153711516Y-77119508D01*
X156288482Y-77119508D01*
X156342143Y-77124793D01*
G37*
G36*
X164090999Y-78771508D02*
G01*
X162988999Y-78771508D01*
X162988999Y-75519508D01*
X164090999Y-75519508D01*
X164090999Y-78771508D01*
G37*
G36*
X161550999Y-78771508D02*
G01*
X160448999Y-78771508D01*
X160448999Y-75519508D01*
X161550999Y-75519508D01*
X161550999Y-78771508D01*
G37*
G36*
X159010999Y-78771508D02*
G01*
X157908999Y-78771508D01*
X157908999Y-75519508D01*
X159010999Y-75519508D01*
X159010999Y-78771508D01*
G37*
M02*
