G04 #@! TF.GenerationSoftware,KiCad,Pcbnew,(5.1.5-0-10_14)*
G04 #@! TF.CreationDate,2020-04-03T00:26:55-07:00*
G04 #@! TF.ProjectId,bike-light-board,62696b65-2d6c-4696-9768-742d626f6172,rev?*
G04 #@! TF.SameCoordinates,Original*
G04 #@! TF.FileFunction,Profile,NP*
%FSLAX46Y46*%
G04 Gerber Fmt 4.6, Leading zero omitted, Abs format (unit mm)*
G04 Created by KiCad (PCBNEW (5.1.5-0-10_14)) date 2020-04-03 00:26:55*
%MOMM*%
%LPD*%
G04 APERTURE LIST*
%ADD10C,0.050000*%
G04 APERTURE END LIST*
D10*
X144505786Y-93000000D02*
G75*
G02X145212893Y-93292893I0J-1000000D01*
G01*
X145522651Y-93602653D02*
G75*
G02X145519556Y-95019947I-707106J-707106D01*
G01*
X145522651Y-93602652D02*
X145212893Y-93292893D01*
X141920000Y-114341014D02*
G75*
G02X140920000Y-113341014I0J1000000D01*
G01*
X141920000Y-114341014D02*
X144505786Y-114341014D01*
X170999999Y-133170507D02*
X170999999Y-115341014D01*
X145212893Y-114048121D02*
G75*
G02X144505786Y-114341014I-707107J707107D01*
G01*
X170999998Y-115341013D02*
G75*
G02X171999999Y-114341014I1000000J-1D01*
G01*
X145212893Y-114048121D02*
X145522651Y-113738362D01*
X172999999Y-113341014D02*
G75*
G02X171999999Y-114341014I-1000000J0D01*
G01*
X145519557Y-112321067D02*
G75*
G02X145522651Y-113738362I-704012J-710188D01*
G01*
X172999999Y-113341014D02*
X172999999Y-110870506D01*
X145519557Y-112321066D02*
G75*
G02X149000000Y-110870506I1437943J1450560D01*
G01*
X176787105Y-93292893D02*
X176477347Y-93602652D01*
X148999999Y-96470507D02*
G75*
G02X145519556Y-95019947I-2042500J0D01*
G01*
X140920000Y-94000000D02*
X140920000Y-113341014D01*
X140920000Y-94000000D02*
G75*
G02X141920000Y-93000000I1000000J0D01*
G01*
X144505786Y-93000000D02*
X141920000Y-93000000D01*
X176787105Y-93292893D02*
G75*
G02X177494212Y-93000000I707107J-707107D01*
G01*
X180079998Y-93000000D02*
X177494212Y-93000000D01*
X180079998Y-93000000D02*
G75*
G02X181079998Y-94000000I0J-1000000D01*
G01*
X170999999Y-133170507D02*
G75*
G02X165999999Y-138170507I-5000000J0D01*
G01*
X181079998Y-113341014D02*
X181079998Y-94000000D01*
X155999999Y-138170507D02*
X165999999Y-138170507D01*
X181079998Y-113341014D02*
G75*
G02X180079998Y-114341014I-1000000J0D01*
G01*
X155999999Y-138170507D02*
G75*
G02X150999999Y-133170507I0J5000000D01*
G01*
X177494212Y-114341014D02*
X180079998Y-114341014D01*
X150999999Y-115341014D02*
X150999999Y-133170507D01*
X177494212Y-114341014D02*
G75*
G02X176787105Y-114048121I0J1000000D01*
G01*
X149999999Y-114341014D02*
G75*
G02X150999999Y-115341014I0J-1000000D01*
G01*
X176477347Y-113738362D02*
X176787105Y-114048121D01*
X150000000Y-114341014D02*
G75*
G02X149000000Y-113341014I0J1000000D01*
G01*
X176480441Y-95019947D02*
G75*
G02X176477347Y-93602652I704012J710188D01*
G01*
X176480442Y-95019947D02*
G75*
G02X172999999Y-96470507I-1437943J-1450560D01*
G01*
X150999999Y-74170508D02*
G75*
G02X155999999Y-69170508I5000000J0D01*
G01*
X150999999Y-74170508D02*
X150999999Y-92000000D01*
X149000000Y-94000000D02*
X149000000Y-96470507D01*
X165999998Y-69170507D02*
G75*
G02X170999999Y-74170508I0J-5000001D01*
G01*
X165999998Y-69170508D02*
X155999999Y-69170508D01*
X151000000Y-92000000D02*
G75*
G02X150000000Y-93000000I-1000000J0D01*
G01*
X176477347Y-113738361D02*
G75*
G02X176480442Y-112321067I707106J707106D01*
G01*
X149000000Y-110870506D02*
X149000000Y-113341014D01*
X172999999Y-110870505D02*
G75*
G02X176480442Y-112321067I2042500J-1D01*
G01*
X172999999Y-96470507D02*
X172999999Y-94000000D01*
X171999998Y-93000000D02*
G75*
G02X172999998Y-94000000I0J-1000000D01*
G01*
X171999999Y-93000000D02*
G75*
G02X170999999Y-92000000I0J1000000D01*
G01*
X170999999Y-92000000D02*
X170999999Y-74170507D01*
X149000000Y-94000000D02*
G75*
G02X150000000Y-93000000I1000000J0D01*
G01*
M02*
