G04 #@! TF.GenerationSoftware,KiCad,Pcbnew,(5.1.5-0-10_14)*
G04 #@! TF.CreationDate,2020-04-03T00:26:54-07:00*
G04 #@! TF.ProjectId,bike-light-board,62696b65-2d6c-4696-9768-742d626f6172,rev?*
G04 #@! TF.SameCoordinates,Original*
G04 #@! TF.FileFunction,Legend,Bot*
G04 #@! TF.FilePolarity,Positive*
%FSLAX46Y46*%
G04 Gerber Fmt 4.6, Leading zero omitted, Abs format (unit mm)*
G04 Created by KiCad (PCBNEW (5.1.5-0-10_14)) date 2020-04-03 00:26:54*
%MOMM*%
%LPD*%
G04 APERTURE LIST*
%ADD10C,0.150000*%
%ADD11C,0.010000*%
%ADD12C,0.120000*%
%ADD13C,0.100000*%
%ADD14C,0.254000*%
G04 APERTURE END LIST*
D10*
X164609522Y-133020508D02*
X164685713Y-132982412D01*
X164799999Y-132982412D01*
X164914284Y-133020508D01*
X164990475Y-133096698D01*
X165028570Y-133172888D01*
X165066665Y-133325269D01*
X165066665Y-133439555D01*
X165028570Y-133591936D01*
X164990475Y-133668127D01*
X164914284Y-133744317D01*
X164799999Y-133782412D01*
X164723808Y-133782412D01*
X164609522Y-133744317D01*
X164571427Y-133706222D01*
X164571427Y-133439555D01*
X164723808Y-133439555D01*
X164228570Y-133782412D02*
X164228570Y-132982412D01*
X163771427Y-133782412D01*
X163771427Y-132982412D01*
X163390475Y-133782412D02*
X163390475Y-132982412D01*
X163199999Y-132982412D01*
X163085713Y-133020508D01*
X163009522Y-133096698D01*
X162971427Y-133172888D01*
X162933332Y-133325269D01*
X162933332Y-133439555D01*
X162971427Y-133591936D01*
X163009522Y-133668127D01*
X163085713Y-133744317D01*
X163199999Y-133782412D01*
X163390475Y-133782412D01*
X159495237Y-133363365D02*
X159380951Y-133401460D01*
X159342856Y-133439555D01*
X159304760Y-133515746D01*
X159304760Y-133630031D01*
X159342856Y-133706222D01*
X159380951Y-133744317D01*
X159457141Y-133782412D01*
X159761903Y-133782412D01*
X159761903Y-132982412D01*
X159495237Y-132982412D01*
X159419046Y-133020508D01*
X159380951Y-133058603D01*
X159342856Y-133134793D01*
X159342856Y-133210984D01*
X159380951Y-133287174D01*
X159419046Y-133325269D01*
X159495237Y-133363365D01*
X159761903Y-133363365D01*
X158999999Y-133553841D02*
X158619046Y-133553841D01*
X159076189Y-133782412D02*
X158809522Y-132982412D01*
X158542856Y-133782412D01*
X158390475Y-132982412D02*
X157933332Y-132982412D01*
X158161903Y-133782412D02*
X158161903Y-132982412D01*
X157780951Y-132982412D02*
X157323808Y-132982412D01*
X157552379Y-133782412D02*
X157552379Y-132982412D01*
X156447618Y-133477650D02*
X155838094Y-133477650D01*
X156142856Y-133782412D02*
X156142856Y-133172888D01*
X167609522Y-76020508D02*
X167685713Y-75982412D01*
X167799999Y-75982412D01*
X167914284Y-76020508D01*
X167990475Y-76096698D01*
X168028570Y-76172888D01*
X168066665Y-76325269D01*
X168066665Y-76439555D01*
X168028570Y-76591936D01*
X167990475Y-76668127D01*
X167914284Y-76744317D01*
X167799999Y-76782412D01*
X167723808Y-76782412D01*
X167609522Y-76744317D01*
X167571427Y-76706222D01*
X167571427Y-76439555D01*
X167723808Y-76439555D01*
X167228570Y-76782412D02*
X167228570Y-75982412D01*
X166771427Y-76782412D01*
X166771427Y-75982412D01*
X166390475Y-76782412D02*
X166390475Y-75982412D01*
X166199999Y-75982412D01*
X166085713Y-76020508D01*
X166009522Y-76096698D01*
X165971427Y-76172888D01*
X165933332Y-76325269D01*
X165933332Y-76439555D01*
X165971427Y-76591936D01*
X166009522Y-76668127D01*
X166085713Y-76744317D01*
X166199999Y-76782412D01*
X166390475Y-76782412D01*
X156016665Y-75932412D02*
X156397618Y-75932412D01*
X156435713Y-76313365D01*
X156397618Y-76275269D01*
X156321427Y-76237174D01*
X156130951Y-76237174D01*
X156054760Y-76275269D01*
X156016665Y-76313365D01*
X155978570Y-76389555D01*
X155978570Y-76580031D01*
X156016665Y-76656222D01*
X156054760Y-76694317D01*
X156130951Y-76732412D01*
X156321427Y-76732412D01*
X156397618Y-76694317D01*
X156435713Y-76656222D01*
X155749999Y-75932412D02*
X155483332Y-76732412D01*
X155216665Y-75932412D01*
X154340475Y-76732412D02*
X154340475Y-75932412D01*
X153959522Y-76732412D02*
X153959522Y-75932412D01*
X153502379Y-76732412D01*
X153502379Y-75932412D01*
X158111903Y-74949079D02*
X158111903Y-74491936D01*
X158111903Y-74720508D02*
X157311903Y-74720508D01*
X157426189Y-74644317D01*
X157502379Y-74568127D01*
X157540475Y-74491936D01*
D11*
G36*
X167310415Y-125860943D02*
G01*
X167322326Y-125889941D01*
X167357086Y-125937937D01*
X167404738Y-125966232D01*
X167468561Y-125976651D01*
X167478303Y-125976788D01*
X167552442Y-125965820D01*
X167613433Y-125933363D01*
X167660153Y-125880087D01*
X167670001Y-125862561D01*
X167688354Y-125806697D01*
X167695616Y-125739765D01*
X167691653Y-125672491D01*
X167676329Y-125615596D01*
X167673194Y-125608920D01*
X167635821Y-125560085D01*
X167585332Y-125529210D01*
X167526787Y-125516514D01*
X167465248Y-125522213D01*
X167405774Y-125546525D01*
X167353425Y-125589669D01*
X167348833Y-125594961D01*
X167317122Y-125650171D01*
X167299645Y-125718506D01*
X167297158Y-125791564D01*
X167310415Y-125860943D01*
G37*
X167310415Y-125860943D02*
X167322326Y-125889941D01*
X167357086Y-125937937D01*
X167404738Y-125966232D01*
X167468561Y-125976651D01*
X167478303Y-125976788D01*
X167552442Y-125965820D01*
X167613433Y-125933363D01*
X167660153Y-125880087D01*
X167670001Y-125862561D01*
X167688354Y-125806697D01*
X167695616Y-125739765D01*
X167691653Y-125672491D01*
X167676329Y-125615596D01*
X167673194Y-125608920D01*
X167635821Y-125560085D01*
X167585332Y-125529210D01*
X167526787Y-125516514D01*
X167465248Y-125522213D01*
X167405774Y-125546525D01*
X167353425Y-125589669D01*
X167348833Y-125594961D01*
X167317122Y-125650171D01*
X167299645Y-125718506D01*
X167297158Y-125791564D01*
X167310415Y-125860943D01*
G36*
X167306040Y-122799025D02*
G01*
X167331465Y-122862130D01*
X167372527Y-122907409D01*
X167427708Y-122933186D01*
X167495028Y-122937820D01*
X167565414Y-122919931D01*
X167624488Y-122881382D01*
X167667516Y-122825356D01*
X167670227Y-122820003D01*
X167687030Y-122766876D01*
X167694423Y-122702319D01*
X167692256Y-122636733D01*
X167680375Y-122580518D01*
X167673946Y-122565085D01*
X167638019Y-122519732D01*
X167585813Y-122488227D01*
X167524220Y-122474018D01*
X167492641Y-122474419D01*
X167422729Y-122492507D01*
X167366803Y-122530793D01*
X167326411Y-122587329D01*
X167303099Y-122660167D01*
X167297772Y-122719775D01*
X167306040Y-122799025D01*
G37*
X167306040Y-122799025D02*
X167331465Y-122862130D01*
X167372527Y-122907409D01*
X167427708Y-122933186D01*
X167495028Y-122937820D01*
X167565414Y-122919931D01*
X167624488Y-122881382D01*
X167667516Y-122825356D01*
X167670227Y-122820003D01*
X167687030Y-122766876D01*
X167694423Y-122702319D01*
X167692256Y-122636733D01*
X167680375Y-122580518D01*
X167673946Y-122565085D01*
X167638019Y-122519732D01*
X167585813Y-122488227D01*
X167524220Y-122474018D01*
X167492641Y-122474419D01*
X167422729Y-122492507D01*
X167366803Y-122530793D01*
X167326411Y-122587329D01*
X167303099Y-122660167D01*
X167297772Y-122719775D01*
X167306040Y-122799025D01*
G36*
X166654795Y-123807843D02*
G01*
X166694799Y-123867010D01*
X166758190Y-123916866D01*
X166792309Y-123935458D01*
X166828586Y-123952492D01*
X166860015Y-123964151D01*
X166893192Y-123971666D01*
X166934706Y-123976269D01*
X166991152Y-123979194D01*
X167033954Y-123980625D01*
X167167273Y-123979421D01*
X167297560Y-123966753D01*
X167429582Y-123941556D01*
X167568100Y-123902771D01*
X167717879Y-123849333D01*
X167831605Y-123802799D01*
X168048029Y-123700677D01*
X168270007Y-123577174D01*
X168473330Y-123448165D01*
X168528232Y-123412026D01*
X168576470Y-123381676D01*
X168613771Y-123359698D01*
X168635859Y-123348679D01*
X168639112Y-123347887D01*
X168669282Y-123355261D01*
X168708959Y-123373934D01*
X168749560Y-123398732D01*
X168782501Y-123424480D01*
X168798371Y-123443891D01*
X168810720Y-123494179D01*
X168810713Y-123555973D01*
X168798930Y-123618915D01*
X168786715Y-123652338D01*
X168763272Y-123690243D01*
X168722402Y-123740758D01*
X168666674Y-123800832D01*
X168634594Y-123832959D01*
X168587345Y-123880913D01*
X168548499Y-123923543D01*
X168521228Y-123957143D01*
X168508701Y-123978010D01*
X168508239Y-123980565D01*
X168519423Y-124014417D01*
X168549690Y-124038834D01*
X168594112Y-124052665D01*
X168647761Y-124054758D01*
X168705709Y-124043963D01*
X168734612Y-124033435D01*
X168788222Y-124001888D01*
X168848231Y-123952673D01*
X168909853Y-123890926D01*
X168968302Y-123821781D01*
X169018792Y-123750375D01*
X169050585Y-123694371D01*
X169073260Y-123646944D01*
X169087366Y-123610385D01*
X169094862Y-123575615D01*
X169097710Y-123533560D01*
X169097874Y-123475528D01*
X169093999Y-123389722D01*
X169083859Y-123328439D01*
X169076883Y-123308015D01*
X169044887Y-123253770D01*
X168998803Y-123199057D01*
X168947042Y-123152934D01*
X168912330Y-123130810D01*
X168882638Y-123114119D01*
X168865505Y-123101501D01*
X168863839Y-123098752D01*
X168871851Y-123086711D01*
X168893245Y-123060838D01*
X168924051Y-123025854D01*
X168938149Y-123010335D01*
X168980018Y-122960468D01*
X169021105Y-122904629D01*
X169053156Y-122854107D01*
X169055624Y-122849638D01*
X169078048Y-122805548D01*
X169091041Y-122769443D01*
X169097111Y-122730793D01*
X169098766Y-122679069D01*
X169098789Y-122668438D01*
X169097575Y-122613109D01*
X169092575Y-122573812D01*
X169081753Y-122541237D01*
X169063370Y-122506583D01*
X169036751Y-122468584D01*
X169007901Y-122438101D01*
X168993520Y-122427673D01*
X168957778Y-122407692D01*
X168939442Y-122391985D01*
X168937925Y-122374344D01*
X168952638Y-122348561D01*
X168982321Y-122309304D01*
X169016349Y-122260314D01*
X169047600Y-122207250D01*
X169067787Y-122165096D01*
X169087199Y-122096019D01*
X169098249Y-122014345D01*
X169099991Y-121931767D01*
X169092163Y-121863123D01*
X169062617Y-121783358D01*
X169009991Y-121712408D01*
X168935273Y-121650966D01*
X168839449Y-121599726D01*
X168723506Y-121559380D01*
X168628889Y-121537612D01*
X168581594Y-121529750D01*
X168533681Y-121524389D01*
X168479930Y-121521321D01*
X168415120Y-121520340D01*
X168334033Y-121521238D01*
X168260589Y-121522987D01*
X168260589Y-121834409D01*
X168190739Y-121875823D01*
X168153899Y-121896351D01*
X168100329Y-121924503D01*
X168036273Y-121957074D01*
X167967976Y-121990858D01*
X167943089Y-122002925D01*
X167752316Y-122088020D01*
X167574078Y-122153081D01*
X167406132Y-122198729D01*
X167246236Y-122225590D01*
X167111239Y-122234169D01*
X167027732Y-122232623D01*
X166966800Y-122224997D01*
X166926201Y-122210624D01*
X166903691Y-122188834D01*
X166897716Y-122170501D01*
X166906196Y-122143028D01*
X166937541Y-122113536D01*
X166989354Y-122082675D01*
X167059241Y-122051095D01*
X167144807Y-122019448D01*
X167243656Y-121988382D01*
X167353394Y-121958550D01*
X167471625Y-121930600D01*
X167595954Y-121905184D01*
X167723986Y-121882953D01*
X167853325Y-121864556D01*
X167981577Y-121850643D01*
X168106347Y-121841867D01*
X168108189Y-121841777D01*
X168260589Y-121834409D01*
X168260589Y-121522987D01*
X167984427Y-121539721D01*
X167724759Y-121574649D01*
X167479994Y-121628126D01*
X167248543Y-121700508D01*
X167028818Y-121792151D01*
X167003289Y-121804399D01*
X166886475Y-121867182D01*
X166793781Y-121930670D01*
X166723937Y-121996308D01*
X166675671Y-122065545D01*
X166647716Y-122139828D01*
X166638799Y-122219746D01*
X166646973Y-122291550D01*
X166673111Y-122349180D01*
X166719635Y-122396175D01*
X166785694Y-122434559D01*
X166890861Y-122470635D01*
X167011657Y-122488594D01*
X167146418Y-122488918D01*
X167293474Y-122472088D01*
X167451161Y-122438588D01*
X167617809Y-122388900D01*
X167791753Y-122323505D01*
X167971326Y-122242886D01*
X168154859Y-122147526D01*
X168340688Y-122037907D01*
X168486757Y-121942404D01*
X168624025Y-121848709D01*
X168676490Y-121862836D01*
X168719346Y-121881386D01*
X168761325Y-121910139D01*
X168770996Y-121919005D01*
X168796251Y-121947500D01*
X168808761Y-121974402D01*
X168812819Y-122011013D01*
X168813039Y-122029674D01*
X168800435Y-122112752D01*
X168762966Y-122193746D01*
X168701148Y-122271599D01*
X168689623Y-122283119D01*
X168628889Y-122342151D01*
X168457734Y-122363529D01*
X168365142Y-122376896D01*
X168270972Y-122393706D01*
X168179796Y-122412858D01*
X168096187Y-122433248D01*
X168024719Y-122453772D01*
X167969964Y-122473326D01*
X167939733Y-122488524D01*
X167906668Y-122523364D01*
X167884594Y-122572155D01*
X167874259Y-122627580D01*
X167876410Y-122682320D01*
X167891796Y-122729058D01*
X167912541Y-122754515D01*
X167926096Y-122763650D01*
X167942528Y-122769582D01*
X167964896Y-122772005D01*
X167996260Y-122770620D01*
X168039677Y-122765122D01*
X168098209Y-122755209D01*
X168174913Y-122740580D01*
X168272849Y-122720931D01*
X168292339Y-122716966D01*
X168422306Y-122692894D01*
X168535331Y-122676928D01*
X168629971Y-122669140D01*
X168704783Y-122669601D01*
X168758325Y-122678382D01*
X168786246Y-122692631D01*
X168809377Y-122723680D01*
X168813640Y-122759640D01*
X168798288Y-122802278D01*
X168762574Y-122853357D01*
X168705753Y-122914644D01*
X168683116Y-122936581D01*
X168589293Y-123025704D01*
X168488441Y-123015512D01*
X168387955Y-123010308D01*
X168268291Y-123012300D01*
X168194039Y-123017038D01*
X168194039Y-123337042D01*
X168225186Y-123339227D01*
X168235990Y-123343985D01*
X168235189Y-123345453D01*
X168219769Y-123355970D01*
X168186215Y-123375529D01*
X168139010Y-123401616D01*
X168082637Y-123431716D01*
X168063739Y-123441606D01*
X167860505Y-123540259D01*
X167669808Y-123617858D01*
X167490501Y-123674747D01*
X167321440Y-123711271D01*
X167161476Y-123727775D01*
X167109428Y-123728888D01*
X167022527Y-123725361D01*
X166957533Y-123715029D01*
X166915058Y-123698260D01*
X166895718Y-123675424D01*
X166900127Y-123646889D01*
X166924042Y-123617450D01*
X166966665Y-123587732D01*
X167031769Y-123556322D01*
X167116557Y-123524017D01*
X167218231Y-123491616D01*
X167333994Y-123459913D01*
X167461050Y-123429707D01*
X167596601Y-123401794D01*
X167737850Y-123376972D01*
X167803389Y-123366896D01*
X167872807Y-123357797D01*
X167945820Y-123350083D01*
X168018440Y-123343952D01*
X168086676Y-123339603D01*
X168146539Y-123337234D01*
X168194039Y-123337042D01*
X168194039Y-123017038D01*
X168134430Y-123020843D01*
X167991354Y-123035291D01*
X167844043Y-123054998D01*
X167697480Y-123079319D01*
X167556644Y-123107609D01*
X167426518Y-123139222D01*
X167340227Y-123164318D01*
X167269816Y-123188393D01*
X167189446Y-123218748D01*
X167106000Y-123252514D01*
X167026364Y-123286822D01*
X166957423Y-123318802D01*
X166908039Y-123344451D01*
X166811929Y-123409008D01*
X166735016Y-123481454D01*
X166679233Y-123559506D01*
X166646516Y-123640877D01*
X166642848Y-123657679D01*
X166637652Y-123738390D01*
X166654795Y-123807843D01*
G37*
X166654795Y-123807843D02*
X166694799Y-123867010D01*
X166758190Y-123916866D01*
X166792309Y-123935458D01*
X166828586Y-123952492D01*
X166860015Y-123964151D01*
X166893192Y-123971666D01*
X166934706Y-123976269D01*
X166991152Y-123979194D01*
X167033954Y-123980625D01*
X167167273Y-123979421D01*
X167297560Y-123966753D01*
X167429582Y-123941556D01*
X167568100Y-123902771D01*
X167717879Y-123849333D01*
X167831605Y-123802799D01*
X168048029Y-123700677D01*
X168270007Y-123577174D01*
X168473330Y-123448165D01*
X168528232Y-123412026D01*
X168576470Y-123381676D01*
X168613771Y-123359698D01*
X168635859Y-123348679D01*
X168639112Y-123347887D01*
X168669282Y-123355261D01*
X168708959Y-123373934D01*
X168749560Y-123398732D01*
X168782501Y-123424480D01*
X168798371Y-123443891D01*
X168810720Y-123494179D01*
X168810713Y-123555973D01*
X168798930Y-123618915D01*
X168786715Y-123652338D01*
X168763272Y-123690243D01*
X168722402Y-123740758D01*
X168666674Y-123800832D01*
X168634594Y-123832959D01*
X168587345Y-123880913D01*
X168548499Y-123923543D01*
X168521228Y-123957143D01*
X168508701Y-123978010D01*
X168508239Y-123980565D01*
X168519423Y-124014417D01*
X168549690Y-124038834D01*
X168594112Y-124052665D01*
X168647761Y-124054758D01*
X168705709Y-124043963D01*
X168734612Y-124033435D01*
X168788222Y-124001888D01*
X168848231Y-123952673D01*
X168909853Y-123890926D01*
X168968302Y-123821781D01*
X169018792Y-123750375D01*
X169050585Y-123694371D01*
X169073260Y-123646944D01*
X169087366Y-123610385D01*
X169094862Y-123575615D01*
X169097710Y-123533560D01*
X169097874Y-123475528D01*
X169093999Y-123389722D01*
X169083859Y-123328439D01*
X169076883Y-123308015D01*
X169044887Y-123253770D01*
X168998803Y-123199057D01*
X168947042Y-123152934D01*
X168912330Y-123130810D01*
X168882638Y-123114119D01*
X168865505Y-123101501D01*
X168863839Y-123098752D01*
X168871851Y-123086711D01*
X168893245Y-123060838D01*
X168924051Y-123025854D01*
X168938149Y-123010335D01*
X168980018Y-122960468D01*
X169021105Y-122904629D01*
X169053156Y-122854107D01*
X169055624Y-122849638D01*
X169078048Y-122805548D01*
X169091041Y-122769443D01*
X169097111Y-122730793D01*
X169098766Y-122679069D01*
X169098789Y-122668438D01*
X169097575Y-122613109D01*
X169092575Y-122573812D01*
X169081753Y-122541237D01*
X169063370Y-122506583D01*
X169036751Y-122468584D01*
X169007901Y-122438101D01*
X168993520Y-122427673D01*
X168957778Y-122407692D01*
X168939442Y-122391985D01*
X168937925Y-122374344D01*
X168952638Y-122348561D01*
X168982321Y-122309304D01*
X169016349Y-122260314D01*
X169047600Y-122207250D01*
X169067787Y-122165096D01*
X169087199Y-122096019D01*
X169098249Y-122014345D01*
X169099991Y-121931767D01*
X169092163Y-121863123D01*
X169062617Y-121783358D01*
X169009991Y-121712408D01*
X168935273Y-121650966D01*
X168839449Y-121599726D01*
X168723506Y-121559380D01*
X168628889Y-121537612D01*
X168581594Y-121529750D01*
X168533681Y-121524389D01*
X168479930Y-121521321D01*
X168415120Y-121520340D01*
X168334033Y-121521238D01*
X168260589Y-121522987D01*
X168260589Y-121834409D01*
X168190739Y-121875823D01*
X168153899Y-121896351D01*
X168100329Y-121924503D01*
X168036273Y-121957074D01*
X167967976Y-121990858D01*
X167943089Y-122002925D01*
X167752316Y-122088020D01*
X167574078Y-122153081D01*
X167406132Y-122198729D01*
X167246236Y-122225590D01*
X167111239Y-122234169D01*
X167027732Y-122232623D01*
X166966800Y-122224997D01*
X166926201Y-122210624D01*
X166903691Y-122188834D01*
X166897716Y-122170501D01*
X166906196Y-122143028D01*
X166937541Y-122113536D01*
X166989354Y-122082675D01*
X167059241Y-122051095D01*
X167144807Y-122019448D01*
X167243656Y-121988382D01*
X167353394Y-121958550D01*
X167471625Y-121930600D01*
X167595954Y-121905184D01*
X167723986Y-121882953D01*
X167853325Y-121864556D01*
X167981577Y-121850643D01*
X168106347Y-121841867D01*
X168108189Y-121841777D01*
X168260589Y-121834409D01*
X168260589Y-121522987D01*
X167984427Y-121539721D01*
X167724759Y-121574649D01*
X167479994Y-121628126D01*
X167248543Y-121700508D01*
X167028818Y-121792151D01*
X167003289Y-121804399D01*
X166886475Y-121867182D01*
X166793781Y-121930670D01*
X166723937Y-121996308D01*
X166675671Y-122065545D01*
X166647716Y-122139828D01*
X166638799Y-122219746D01*
X166646973Y-122291550D01*
X166673111Y-122349180D01*
X166719635Y-122396175D01*
X166785694Y-122434559D01*
X166890861Y-122470635D01*
X167011657Y-122488594D01*
X167146418Y-122488918D01*
X167293474Y-122472088D01*
X167451161Y-122438588D01*
X167617809Y-122388900D01*
X167791753Y-122323505D01*
X167971326Y-122242886D01*
X168154859Y-122147526D01*
X168340688Y-122037907D01*
X168486757Y-121942404D01*
X168624025Y-121848709D01*
X168676490Y-121862836D01*
X168719346Y-121881386D01*
X168761325Y-121910139D01*
X168770996Y-121919005D01*
X168796251Y-121947500D01*
X168808761Y-121974402D01*
X168812819Y-122011013D01*
X168813039Y-122029674D01*
X168800435Y-122112752D01*
X168762966Y-122193746D01*
X168701148Y-122271599D01*
X168689623Y-122283119D01*
X168628889Y-122342151D01*
X168457734Y-122363529D01*
X168365142Y-122376896D01*
X168270972Y-122393706D01*
X168179796Y-122412858D01*
X168096187Y-122433248D01*
X168024719Y-122453772D01*
X167969964Y-122473326D01*
X167939733Y-122488524D01*
X167906668Y-122523364D01*
X167884594Y-122572155D01*
X167874259Y-122627580D01*
X167876410Y-122682320D01*
X167891796Y-122729058D01*
X167912541Y-122754515D01*
X167926096Y-122763650D01*
X167942528Y-122769582D01*
X167964896Y-122772005D01*
X167996260Y-122770620D01*
X168039677Y-122765122D01*
X168098209Y-122755209D01*
X168174913Y-122740580D01*
X168272849Y-122720931D01*
X168292339Y-122716966D01*
X168422306Y-122692894D01*
X168535331Y-122676928D01*
X168629971Y-122669140D01*
X168704783Y-122669601D01*
X168758325Y-122678382D01*
X168786246Y-122692631D01*
X168809377Y-122723680D01*
X168813640Y-122759640D01*
X168798288Y-122802278D01*
X168762574Y-122853357D01*
X168705753Y-122914644D01*
X168683116Y-122936581D01*
X168589293Y-123025704D01*
X168488441Y-123015512D01*
X168387955Y-123010308D01*
X168268291Y-123012300D01*
X168194039Y-123017038D01*
X168194039Y-123337042D01*
X168225186Y-123339227D01*
X168235990Y-123343985D01*
X168235189Y-123345453D01*
X168219769Y-123355970D01*
X168186215Y-123375529D01*
X168139010Y-123401616D01*
X168082637Y-123431716D01*
X168063739Y-123441606D01*
X167860505Y-123540259D01*
X167669808Y-123617858D01*
X167490501Y-123674747D01*
X167321440Y-123711271D01*
X167161476Y-123727775D01*
X167109428Y-123728888D01*
X167022527Y-123725361D01*
X166957533Y-123715029D01*
X166915058Y-123698260D01*
X166895718Y-123675424D01*
X166900127Y-123646889D01*
X166924042Y-123617450D01*
X166966665Y-123587732D01*
X167031769Y-123556322D01*
X167116557Y-123524017D01*
X167218231Y-123491616D01*
X167333994Y-123459913D01*
X167461050Y-123429707D01*
X167596601Y-123401794D01*
X167737850Y-123376972D01*
X167803389Y-123366896D01*
X167872807Y-123357797D01*
X167945820Y-123350083D01*
X168018440Y-123343952D01*
X168086676Y-123339603D01*
X168146539Y-123337234D01*
X168194039Y-123337042D01*
X168194039Y-123017038D01*
X168134430Y-123020843D01*
X167991354Y-123035291D01*
X167844043Y-123054998D01*
X167697480Y-123079319D01*
X167556644Y-123107609D01*
X167426518Y-123139222D01*
X167340227Y-123164318D01*
X167269816Y-123188393D01*
X167189446Y-123218748D01*
X167106000Y-123252514D01*
X167026364Y-123286822D01*
X166957423Y-123318802D01*
X166908039Y-123344451D01*
X166811929Y-123409008D01*
X166735016Y-123481454D01*
X166679233Y-123559506D01*
X166646516Y-123640877D01*
X166642848Y-123657679D01*
X166637652Y-123738390D01*
X166654795Y-123807843D01*
G36*
X166647428Y-128084830D02*
G01*
X166677971Y-128149553D01*
X166730676Y-128204011D01*
X166806605Y-128249688D01*
X166812789Y-128252582D01*
X166844280Y-128265638D01*
X166875154Y-128274043D01*
X166912085Y-128278677D01*
X166961747Y-128280423D01*
X167022339Y-128280259D01*
X167099385Y-128278059D01*
X167161144Y-128272453D01*
X167217646Y-128262077D01*
X167278921Y-128245571D01*
X167279918Y-128245273D01*
X167413739Y-128195867D01*
X167557050Y-128125504D01*
X167707471Y-128035683D01*
X167862624Y-127927903D01*
X168020131Y-127803665D01*
X168125644Y-127712098D01*
X168219300Y-127627788D01*
X168347894Y-127628790D01*
X168399085Y-127629820D01*
X168436832Y-127631821D01*
X168456801Y-127634477D01*
X168457439Y-127636734D01*
X168419885Y-127652873D01*
X168367867Y-127678378D01*
X168308607Y-127709390D01*
X168249328Y-127742052D01*
X168197252Y-127772507D01*
X168166365Y-127792190D01*
X168108621Y-127836771D01*
X168049029Y-127891861D01*
X167993241Y-127951400D01*
X167946909Y-128009330D01*
X167915685Y-128059590D01*
X167914346Y-128062377D01*
X167886956Y-128139259D01*
X167877521Y-128211964D01*
X167885652Y-128276501D01*
X167910963Y-128328883D01*
X167943218Y-128359290D01*
X167975864Y-128372566D01*
X168023643Y-128378716D01*
X168088201Y-128377602D01*
X168171181Y-128369086D01*
X168274230Y-128353028D01*
X168398993Y-128329291D01*
X168466762Y-128315195D01*
X168571663Y-128294602D01*
X168654634Y-128282567D01*
X168717744Y-128279338D01*
X168763066Y-128285161D01*
X168792671Y-128300284D01*
X168808629Y-128324955D01*
X168813039Y-128356504D01*
X168803647Y-128398237D01*
X168774829Y-128447515D01*
X168725621Y-128505606D01*
X168655062Y-128573781D01*
X168633762Y-128592733D01*
X168592483Y-128629664D01*
X168558200Y-128661644D01*
X168535662Y-128684176D01*
X168529832Y-128691158D01*
X168517973Y-128697856D01*
X168490370Y-128702599D01*
X168444354Y-128705596D01*
X168377257Y-128707059D01*
X168325098Y-128707288D01*
X168130520Y-128707288D01*
X168122070Y-128621563D01*
X168115943Y-128568805D01*
X168108466Y-128535083D01*
X168096960Y-128514067D01*
X168078744Y-128499427D01*
X168067748Y-128493289D01*
X168025130Y-128480779D01*
X167975894Y-128480698D01*
X167927983Y-128491329D01*
X167889339Y-128510954D01*
X167868428Y-128536406D01*
X167864511Y-128558838D01*
X167861687Y-128598327D01*
X167860541Y-128646534D01*
X167860539Y-128648997D01*
X167860538Y-128741029D01*
X167764118Y-128760354D01*
X167764118Y-129064918D01*
X167788277Y-129065448D01*
X167795271Y-129072902D01*
X167787020Y-129087696D01*
X167765446Y-129110244D01*
X167736895Y-129136893D01*
X167689177Y-129177973D01*
X167637476Y-129218153D01*
X167592294Y-129249311D01*
X167588745Y-129251493D01*
X167469534Y-129311620D01*
X167348829Y-129347598D01*
X167222746Y-129360565D01*
X167216484Y-129360628D01*
X167156641Y-129359962D01*
X167116907Y-129356589D01*
X167092065Y-129349747D01*
X167078654Y-129340529D01*
X167064277Y-129312668D01*
X167074213Y-129283093D01*
X167107467Y-129252288D01*
X167163047Y-129220738D01*
X167239961Y-129188928D01*
X167337215Y-129157344D01*
X167453817Y-129126470D01*
X167569443Y-129100726D01*
X167656622Y-129082972D01*
X167720873Y-129070898D01*
X167764118Y-129064918D01*
X167764118Y-128760354D01*
X167717663Y-128769666D01*
X167544239Y-128810484D01*
X167385773Y-128860024D01*
X167243626Y-128917425D01*
X167119159Y-128981820D01*
X167013731Y-129052346D01*
X166928705Y-129128140D01*
X166865439Y-129208337D01*
X166825295Y-129292074D01*
X166812771Y-129344329D01*
X166813823Y-129407911D01*
X166833186Y-129469786D01*
X166867470Y-129521357D01*
X166890563Y-129541594D01*
X166975659Y-129586257D01*
X167074116Y-129610391D01*
X167186800Y-129614161D01*
X167244818Y-129608959D01*
X167389669Y-129580211D01*
X167522912Y-129530682D01*
X167647627Y-129458901D01*
X167766891Y-129363396D01*
X167775986Y-129354970D01*
X167860539Y-129275875D01*
X167860539Y-129448335D01*
X167860763Y-129517745D01*
X167861856Y-129566083D01*
X167864447Y-129597674D01*
X167869167Y-129616845D01*
X167876645Y-129627921D01*
X167887510Y-129635228D01*
X167887769Y-129635367D01*
X167925666Y-129644383D01*
X167972971Y-129641295D01*
X168017784Y-129627818D01*
X168041168Y-129613239D01*
X168066421Y-129586252D01*
X168085856Y-129553320D01*
X168100344Y-129510734D01*
X168110757Y-129454789D01*
X168117967Y-129381778D01*
X168122845Y-129287995D01*
X168123766Y-129261964D01*
X168127430Y-129175260D01*
X168131996Y-129107569D01*
X168137282Y-129060821D01*
X168143108Y-129036948D01*
X168144977Y-129034507D01*
X168165530Y-129029588D01*
X168205840Y-129026536D01*
X168260337Y-129025295D01*
X168323451Y-129025806D01*
X168389612Y-129028013D01*
X168453251Y-129031858D01*
X168508797Y-129037283D01*
X168516845Y-129038333D01*
X168616367Y-129057687D01*
X168693451Y-129086311D01*
X168749803Y-129125581D01*
X168787127Y-129176872D01*
X168807128Y-129241560D01*
X168810944Y-129275624D01*
X168811580Y-129333916D01*
X168803782Y-129384580D01*
X168785162Y-129432399D01*
X168753334Y-129482157D01*
X168705907Y-129538637D01*
X168650937Y-129596120D01*
X168592959Y-129655293D01*
X168551541Y-129699886D01*
X168525000Y-129732996D01*
X168511657Y-129757720D01*
X168509828Y-129777155D01*
X168517834Y-129794396D01*
X168533639Y-129812188D01*
X168557910Y-129828531D01*
X168593329Y-129836215D01*
X168629394Y-129837588D01*
X168698151Y-129829210D01*
X168764514Y-129802975D01*
X168830907Y-129757233D01*
X168899755Y-129690334D01*
X168969184Y-129606282D01*
X169037178Y-129502501D01*
X169081042Y-129399329D01*
X169101702Y-129293217D01*
X169100085Y-129180616D01*
X169093169Y-129131583D01*
X169064069Y-129026795D01*
X169015691Y-128938342D01*
X168947214Y-128865109D01*
X168857816Y-128805982D01*
X168850640Y-128802285D01*
X168785729Y-128769392D01*
X168869230Y-128684365D01*
X168946419Y-128601297D01*
X169004719Y-128527775D01*
X169046810Y-128459933D01*
X169075374Y-128393903D01*
X169079541Y-128381088D01*
X169101713Y-128280024D01*
X169102836Y-128189820D01*
X169083099Y-128111774D01*
X169042693Y-128047181D01*
X169028599Y-128032535D01*
X168984517Y-127998794D01*
X168932441Y-127975738D01*
X168869489Y-127963152D01*
X168792779Y-127960818D01*
X168699428Y-127968523D01*
X168586553Y-127986049D01*
X168535778Y-127995666D01*
X168473180Y-128006793D01*
X168412427Y-128015513D01*
X168362453Y-128020635D01*
X168342205Y-128021488D01*
X168304328Y-128020039D01*
X168285583Y-128014086D01*
X168279789Y-128001217D01*
X168279639Y-127997077D01*
X168291442Y-127967376D01*
X168325003Y-127932513D01*
X168377547Y-127893914D01*
X168446300Y-127853001D01*
X168528487Y-127811198D01*
X168621335Y-127769929D01*
X168722069Y-127730618D01*
X168827915Y-127694688D01*
X168922565Y-127667137D01*
X168962989Y-127650024D01*
X169007153Y-127622181D01*
X169027732Y-127605532D01*
X169062151Y-127569869D01*
X169082385Y-127533603D01*
X169095089Y-127486645D01*
X169103026Y-127426202D01*
X169097142Y-127380646D01*
X169075015Y-127347471D01*
X169034224Y-127324173D01*
X168972348Y-127308245D01*
X168914848Y-127300100D01*
X168836906Y-127291238D01*
X168980547Y-127082420D01*
X169124189Y-126873603D01*
X169257799Y-126845810D01*
X169457530Y-126799561D01*
X169637030Y-126748251D01*
X169795570Y-126692240D01*
X169932422Y-126631885D01*
X170046859Y-126567543D01*
X170138151Y-126499572D01*
X170205571Y-126428330D01*
X170245780Y-126360456D01*
X170263967Y-126306367D01*
X170276397Y-126246271D01*
X170281567Y-126190004D01*
X170278188Y-126148238D01*
X170253141Y-126069334D01*
X170220449Y-126010168D01*
X170176348Y-125965374D01*
X170129066Y-125935623D01*
X170090091Y-125919479D01*
X170045674Y-125911055D01*
X169986331Y-125908617D01*
X169981439Y-125908625D01*
X169922210Y-125914248D01*
X169922210Y-126163125D01*
X169963145Y-126164098D01*
X169988897Y-126172846D01*
X170008229Y-126191283D01*
X170025311Y-126225471D01*
X170019672Y-126260328D01*
X169990589Y-126298659D01*
X169977304Y-126311149D01*
X169925948Y-126348579D01*
X169856605Y-126387134D01*
X169776245Y-126423208D01*
X169721089Y-126443724D01*
X169661770Y-126462959D01*
X169598204Y-126481933D01*
X169535251Y-126499394D01*
X169477774Y-126514091D01*
X169430635Y-126524772D01*
X169398697Y-126530187D01*
X169387100Y-126529682D01*
X169391916Y-126517779D01*
X169412478Y-126492901D01*
X169445152Y-126458495D01*
X169486304Y-126418005D01*
X169532301Y-126374876D01*
X169579507Y-126332552D01*
X169624288Y-126294479D01*
X169663012Y-126264102D01*
X169679442Y-126252560D01*
X169765953Y-126202946D01*
X169846109Y-126173775D01*
X169922210Y-126163125D01*
X169922210Y-125914248D01*
X169881029Y-125918158D01*
X169780055Y-125946558D01*
X169677292Y-125994651D01*
X169571514Y-126063259D01*
X169461493Y-126153205D01*
X169346005Y-126265314D01*
X169223823Y-126400408D01*
X169190414Y-126439870D01*
X169144695Y-126493111D01*
X169102699Y-126539379D01*
X169067880Y-126575063D01*
X169043691Y-126596555D01*
X169036239Y-126600997D01*
X169002153Y-126609350D01*
X168989896Y-126605089D01*
X168998580Y-126586818D01*
X169014685Y-126567166D01*
X169057233Y-126513262D01*
X169082833Y-126463956D01*
X169095254Y-126409232D01*
X169098284Y-126345088D01*
X169093948Y-126272376D01*
X169078406Y-126215032D01*
X169047862Y-126164284D01*
X168998517Y-126111358D01*
X168996123Y-126109095D01*
X168941092Y-126057252D01*
X168993184Y-125988445D01*
X169024879Y-125943127D01*
X169053600Y-125896240D01*
X169069458Y-125865650D01*
X169095079Y-125785011D01*
X169102327Y-125703267D01*
X169092296Y-125625077D01*
X169066081Y-125555103D01*
X169024778Y-125498005D01*
X168974307Y-125460809D01*
X168946108Y-125445996D01*
X168929668Y-125436468D01*
X168928733Y-125435759D01*
X168933348Y-125424316D01*
X168950115Y-125398210D01*
X168975557Y-125362803D01*
X168979060Y-125358141D01*
X169037192Y-125270467D01*
X169074739Y-125186213D01*
X169094240Y-125098288D01*
X169098553Y-125024288D01*
X169094299Y-124937837D01*
X169079371Y-124868725D01*
X169051159Y-124810203D01*
X169007053Y-124755523D01*
X168986877Y-124735570D01*
X168916125Y-124682387D01*
X168825149Y-124635963D01*
X168718700Y-124598426D01*
X168635239Y-124578115D01*
X168577983Y-124570328D01*
X168500922Y-124565219D01*
X168409505Y-124562733D01*
X168309178Y-124562813D01*
X168226725Y-124564871D01*
X168226725Y-124874799D01*
X168250747Y-124875615D01*
X168254239Y-124877225D01*
X168243852Y-124885412D01*
X168215670Y-124903112D01*
X168174163Y-124927607D01*
X168130414Y-124952486D01*
X167992476Y-125024791D01*
X167847430Y-125091896D01*
X167701466Y-125151338D01*
X167560778Y-125200653D01*
X167431559Y-125237380D01*
X167390639Y-125246710D01*
X167319196Y-125259049D01*
X167238417Y-125268623D01*
X167155973Y-125274919D01*
X167079537Y-125277422D01*
X167016782Y-125275621D01*
X166994563Y-125273197D01*
X166940304Y-125260893D01*
X166908854Y-125242673D01*
X166897950Y-125216702D01*
X166900324Y-125196651D01*
X166919119Y-125169084D01*
X166960672Y-125139381D01*
X167022503Y-125108281D01*
X167102134Y-125076521D01*
X167197086Y-125044839D01*
X167304879Y-125013973D01*
X167423035Y-124984660D01*
X167549073Y-124957638D01*
X167680516Y-124933644D01*
X167814884Y-124913417D01*
X167879589Y-124905275D01*
X167967563Y-124895450D01*
X168049781Y-124887227D01*
X168122725Y-124880868D01*
X168182879Y-124876638D01*
X168226725Y-124874799D01*
X168226725Y-124564871D01*
X168205390Y-124565404D01*
X168103587Y-124570449D01*
X168009219Y-124577894D01*
X167945339Y-124585187D01*
X167733761Y-124618002D01*
X167542540Y-124657232D01*
X167367163Y-124704128D01*
X167203116Y-124759940D01*
X167045889Y-124825921D01*
X167001650Y-124846784D01*
X166886142Y-124908703D01*
X166794632Y-124971628D01*
X166725718Y-125036739D01*
X166678000Y-125105216D01*
X166666589Y-125128930D01*
X166644978Y-125199501D01*
X166638448Y-125270915D01*
X166647289Y-125334983D01*
X166658309Y-125363167D01*
X166695547Y-125413074D01*
X166750623Y-125459019D01*
X166816046Y-125495141D01*
X166837786Y-125503613D01*
X166888367Y-125515259D01*
X166957843Y-125522902D01*
X167040026Y-125526552D01*
X167128730Y-125526216D01*
X167217768Y-125521904D01*
X167300953Y-125513623D01*
X167365239Y-125502883D01*
X167528744Y-125460184D01*
X167703997Y-125399725D01*
X167886755Y-125323482D01*
X168072776Y-125233430D01*
X168257817Y-125131544D01*
X168437637Y-125019800D01*
X168514251Y-124967851D01*
X168567049Y-124932160D01*
X168605590Y-124910281D01*
X168635793Y-124900598D01*
X168663582Y-124901497D01*
X168694876Y-124911363D01*
X168705506Y-124915693D01*
X168762027Y-124948014D01*
X168796521Y-124990373D01*
X168811588Y-125046606D01*
X168812760Y-125073767D01*
X168806346Y-125138923D01*
X168785764Y-125198559D01*
X168748184Y-125258639D01*
X168696037Y-125319563D01*
X168659427Y-125357003D01*
X168632722Y-125378995D01*
X168609461Y-125389514D01*
X168583181Y-125392535D01*
X168577328Y-125392590D01*
X168524924Y-125395581D01*
X168456916Y-125403861D01*
X168378153Y-125416391D01*
X168293484Y-125432137D01*
X168207757Y-125450061D01*
X168125823Y-125469128D01*
X168052529Y-125488300D01*
X167992725Y-125506542D01*
X167951260Y-125522816D01*
X167940720Y-125528657D01*
X167907885Y-125562657D01*
X167885571Y-125610387D01*
X167874394Y-125664925D01*
X167874968Y-125719347D01*
X167887911Y-125766732D01*
X167913837Y-125800155D01*
X167916415Y-125801968D01*
X167942353Y-125809701D01*
X167987396Y-125810373D01*
X168052799Y-125803854D01*
X168139819Y-125790014D01*
X168249710Y-125768724D01*
X168260589Y-125766475D01*
X168373933Y-125744926D01*
X168479776Y-125728648D01*
X168574941Y-125717893D01*
X168656253Y-125712915D01*
X168720539Y-125713965D01*
X168764622Y-125721297D01*
X168774939Y-125725525D01*
X168803654Y-125752939D01*
X168812185Y-125791541D01*
X168801361Y-125838250D01*
X168772010Y-125889985D01*
X168724961Y-125943665D01*
X168713309Y-125954536D01*
X168681331Y-125980058D01*
X168655779Y-125992164D01*
X168655779Y-126332388D01*
X168723722Y-126335496D01*
X168772074Y-126345848D01*
X168805997Y-126364986D01*
X168822160Y-126382087D01*
X168836178Y-126419057D01*
X168834257Y-126465930D01*
X168816956Y-126513298D01*
X168814065Y-126518253D01*
X168792355Y-126545820D01*
X168761413Y-126570149D01*
X168718516Y-126592244D01*
X168660945Y-126613107D01*
X168585978Y-126633742D01*
X168490895Y-126655153D01*
X168387182Y-126675667D01*
X168308580Y-126690239D01*
X168238742Y-126702618D01*
X168181394Y-126712189D01*
X168140259Y-126718339D01*
X168119065Y-126720454D01*
X168117063Y-126720145D01*
X168113933Y-126701272D01*
X168121054Y-126667432D01*
X168136148Y-126625755D01*
X168156942Y-126583371D01*
X168165000Y-126569917D01*
X168222569Y-126500731D01*
X168299661Y-126440218D01*
X168391169Y-126390852D01*
X168491986Y-126355104D01*
X168597004Y-126335446D01*
X168655779Y-126332388D01*
X168655779Y-125992164D01*
X168649637Y-125995075D01*
X168607811Y-126003725D01*
X168581932Y-126006744D01*
X168444374Y-126033486D01*
X168312258Y-126084564D01*
X168187198Y-126159204D01*
X168080068Y-126247722D01*
X167998354Y-126338398D01*
X167935774Y-126435771D01*
X167894344Y-126536074D01*
X167876594Y-126628267D01*
X167873634Y-126692557D01*
X167877866Y-126736878D01*
X167890684Y-126765992D01*
X167913485Y-126784659D01*
X167923877Y-126789521D01*
X167943479Y-126798750D01*
X167954895Y-126810421D01*
X167960336Y-126830867D01*
X167962016Y-126866425D01*
X167962138Y-126899078D01*
X167963332Y-126950582D01*
X167967978Y-126983891D01*
X167977676Y-127006145D01*
X167989176Y-127019825D01*
X167998913Y-127028667D01*
X168010079Y-127035274D01*
X168025272Y-127039436D01*
X168047089Y-127040942D01*
X168078127Y-127039581D01*
X168120983Y-127035141D01*
X168178255Y-127027412D01*
X168252540Y-127016181D01*
X168346435Y-127001239D01*
X168462538Y-126982374D01*
X168475143Y-126980317D01*
X168561527Y-126966455D01*
X168639339Y-126954425D01*
X168705163Y-126944717D01*
X168755585Y-126937821D01*
X168787193Y-126934229D01*
X168796687Y-126934103D01*
X168791673Y-126945745D01*
X168774078Y-126973592D01*
X168746615Y-127013570D01*
X168712000Y-127061608D01*
X168709133Y-127065501D01*
X168668624Y-127120731D01*
X168629493Y-127174624D01*
X168596535Y-127220548D01*
X168576567Y-127248923D01*
X168536946Y-127306337D01*
X168316217Y-127314317D01*
X168118658Y-127326196D01*
X167923775Y-127347042D01*
X167847518Y-127358744D01*
X167847518Y-127666170D01*
X167879589Y-127666452D01*
X167847839Y-127692436D01*
X167824082Y-127710325D01*
X167785207Y-127737950D01*
X167737285Y-127771044D01*
X167701789Y-127795058D01*
X167609295Y-127854545D01*
X167526855Y-127901267D01*
X167445778Y-127939603D01*
X167357376Y-127973931D01*
X167323614Y-127985635D01*
X167259811Y-128005689D01*
X167206208Y-128017900D01*
X167151238Y-128024192D01*
X167083333Y-128026489D01*
X167077708Y-128026551D01*
X167016824Y-128026491D01*
X166975715Y-128024313D01*
X166948785Y-128019192D01*
X166930442Y-128010305D01*
X166922133Y-128003644D01*
X166900020Y-127975110D01*
X166898933Y-127947206D01*
X166919786Y-127918934D01*
X166963493Y-127889293D01*
X167030969Y-127857285D01*
X167070717Y-127841309D01*
X167133955Y-127819353D01*
X167213274Y-127795568D01*
X167303959Y-127771017D01*
X167401294Y-127746762D01*
X167500565Y-127723867D01*
X167597057Y-127703394D01*
X167686055Y-127686407D01*
X167762845Y-127673969D01*
X167822711Y-127667142D01*
X167847518Y-127666170D01*
X167847518Y-127358744D01*
X167734116Y-127376147D01*
X167552228Y-127412802D01*
X167380658Y-127456301D01*
X167221955Y-127505933D01*
X167078665Y-127560992D01*
X166953337Y-127620769D01*
X166848517Y-127684556D01*
X166776431Y-127742348D01*
X166710727Y-127812249D01*
X166667271Y-127879681D01*
X166643829Y-127948938D01*
X166637986Y-128008360D01*
X166647428Y-128084830D01*
G37*
X166647428Y-128084830D02*
X166677971Y-128149553D01*
X166730676Y-128204011D01*
X166806605Y-128249688D01*
X166812789Y-128252582D01*
X166844280Y-128265638D01*
X166875154Y-128274043D01*
X166912085Y-128278677D01*
X166961747Y-128280423D01*
X167022339Y-128280259D01*
X167099385Y-128278059D01*
X167161144Y-128272453D01*
X167217646Y-128262077D01*
X167278921Y-128245571D01*
X167279918Y-128245273D01*
X167413739Y-128195867D01*
X167557050Y-128125504D01*
X167707471Y-128035683D01*
X167862624Y-127927903D01*
X168020131Y-127803665D01*
X168125644Y-127712098D01*
X168219300Y-127627788D01*
X168347894Y-127628790D01*
X168399085Y-127629820D01*
X168436832Y-127631821D01*
X168456801Y-127634477D01*
X168457439Y-127636734D01*
X168419885Y-127652873D01*
X168367867Y-127678378D01*
X168308607Y-127709390D01*
X168249328Y-127742052D01*
X168197252Y-127772507D01*
X168166365Y-127792190D01*
X168108621Y-127836771D01*
X168049029Y-127891861D01*
X167993241Y-127951400D01*
X167946909Y-128009330D01*
X167915685Y-128059590D01*
X167914346Y-128062377D01*
X167886956Y-128139259D01*
X167877521Y-128211964D01*
X167885652Y-128276501D01*
X167910963Y-128328883D01*
X167943218Y-128359290D01*
X167975864Y-128372566D01*
X168023643Y-128378716D01*
X168088201Y-128377602D01*
X168171181Y-128369086D01*
X168274230Y-128353028D01*
X168398993Y-128329291D01*
X168466762Y-128315195D01*
X168571663Y-128294602D01*
X168654634Y-128282567D01*
X168717744Y-128279338D01*
X168763066Y-128285161D01*
X168792671Y-128300284D01*
X168808629Y-128324955D01*
X168813039Y-128356504D01*
X168803647Y-128398237D01*
X168774829Y-128447515D01*
X168725621Y-128505606D01*
X168655062Y-128573781D01*
X168633762Y-128592733D01*
X168592483Y-128629664D01*
X168558200Y-128661644D01*
X168535662Y-128684176D01*
X168529832Y-128691158D01*
X168517973Y-128697856D01*
X168490370Y-128702599D01*
X168444354Y-128705596D01*
X168377257Y-128707059D01*
X168325098Y-128707288D01*
X168130520Y-128707288D01*
X168122070Y-128621563D01*
X168115943Y-128568805D01*
X168108466Y-128535083D01*
X168096960Y-128514067D01*
X168078744Y-128499427D01*
X168067748Y-128493289D01*
X168025130Y-128480779D01*
X167975894Y-128480698D01*
X167927983Y-128491329D01*
X167889339Y-128510954D01*
X167868428Y-128536406D01*
X167864511Y-128558838D01*
X167861687Y-128598327D01*
X167860541Y-128646534D01*
X167860539Y-128648997D01*
X167860538Y-128741029D01*
X167764118Y-128760354D01*
X167764118Y-129064918D01*
X167788277Y-129065448D01*
X167795271Y-129072902D01*
X167787020Y-129087696D01*
X167765446Y-129110244D01*
X167736895Y-129136893D01*
X167689177Y-129177973D01*
X167637476Y-129218153D01*
X167592294Y-129249311D01*
X167588745Y-129251493D01*
X167469534Y-129311620D01*
X167348829Y-129347598D01*
X167222746Y-129360565D01*
X167216484Y-129360628D01*
X167156641Y-129359962D01*
X167116907Y-129356589D01*
X167092065Y-129349747D01*
X167078654Y-129340529D01*
X167064277Y-129312668D01*
X167074213Y-129283093D01*
X167107467Y-129252288D01*
X167163047Y-129220738D01*
X167239961Y-129188928D01*
X167337215Y-129157344D01*
X167453817Y-129126470D01*
X167569443Y-129100726D01*
X167656622Y-129082972D01*
X167720873Y-129070898D01*
X167764118Y-129064918D01*
X167764118Y-128760354D01*
X167717663Y-128769666D01*
X167544239Y-128810484D01*
X167385773Y-128860024D01*
X167243626Y-128917425D01*
X167119159Y-128981820D01*
X167013731Y-129052346D01*
X166928705Y-129128140D01*
X166865439Y-129208337D01*
X166825295Y-129292074D01*
X166812771Y-129344329D01*
X166813823Y-129407911D01*
X166833186Y-129469786D01*
X166867470Y-129521357D01*
X166890563Y-129541594D01*
X166975659Y-129586257D01*
X167074116Y-129610391D01*
X167186800Y-129614161D01*
X167244818Y-129608959D01*
X167389669Y-129580211D01*
X167522912Y-129530682D01*
X167647627Y-129458901D01*
X167766891Y-129363396D01*
X167775986Y-129354970D01*
X167860539Y-129275875D01*
X167860539Y-129448335D01*
X167860763Y-129517745D01*
X167861856Y-129566083D01*
X167864447Y-129597674D01*
X167869167Y-129616845D01*
X167876645Y-129627921D01*
X167887510Y-129635228D01*
X167887769Y-129635367D01*
X167925666Y-129644383D01*
X167972971Y-129641295D01*
X168017784Y-129627818D01*
X168041168Y-129613239D01*
X168066421Y-129586252D01*
X168085856Y-129553320D01*
X168100344Y-129510734D01*
X168110757Y-129454789D01*
X168117967Y-129381778D01*
X168122845Y-129287995D01*
X168123766Y-129261964D01*
X168127430Y-129175260D01*
X168131996Y-129107569D01*
X168137282Y-129060821D01*
X168143108Y-129036948D01*
X168144977Y-129034507D01*
X168165530Y-129029588D01*
X168205840Y-129026536D01*
X168260337Y-129025295D01*
X168323451Y-129025806D01*
X168389612Y-129028013D01*
X168453251Y-129031858D01*
X168508797Y-129037283D01*
X168516845Y-129038333D01*
X168616367Y-129057687D01*
X168693451Y-129086311D01*
X168749803Y-129125581D01*
X168787127Y-129176872D01*
X168807128Y-129241560D01*
X168810944Y-129275624D01*
X168811580Y-129333916D01*
X168803782Y-129384580D01*
X168785162Y-129432399D01*
X168753334Y-129482157D01*
X168705907Y-129538637D01*
X168650937Y-129596120D01*
X168592959Y-129655293D01*
X168551541Y-129699886D01*
X168525000Y-129732996D01*
X168511657Y-129757720D01*
X168509828Y-129777155D01*
X168517834Y-129794396D01*
X168533639Y-129812188D01*
X168557910Y-129828531D01*
X168593329Y-129836215D01*
X168629394Y-129837588D01*
X168698151Y-129829210D01*
X168764514Y-129802975D01*
X168830907Y-129757233D01*
X168899755Y-129690334D01*
X168969184Y-129606282D01*
X169037178Y-129502501D01*
X169081042Y-129399329D01*
X169101702Y-129293217D01*
X169100085Y-129180616D01*
X169093169Y-129131583D01*
X169064069Y-129026795D01*
X169015691Y-128938342D01*
X168947214Y-128865109D01*
X168857816Y-128805982D01*
X168850640Y-128802285D01*
X168785729Y-128769392D01*
X168869230Y-128684365D01*
X168946419Y-128601297D01*
X169004719Y-128527775D01*
X169046810Y-128459933D01*
X169075374Y-128393903D01*
X169079541Y-128381088D01*
X169101713Y-128280024D01*
X169102836Y-128189820D01*
X169083099Y-128111774D01*
X169042693Y-128047181D01*
X169028599Y-128032535D01*
X168984517Y-127998794D01*
X168932441Y-127975738D01*
X168869489Y-127963152D01*
X168792779Y-127960818D01*
X168699428Y-127968523D01*
X168586553Y-127986049D01*
X168535778Y-127995666D01*
X168473180Y-128006793D01*
X168412427Y-128015513D01*
X168362453Y-128020635D01*
X168342205Y-128021488D01*
X168304328Y-128020039D01*
X168285583Y-128014086D01*
X168279789Y-128001217D01*
X168279639Y-127997077D01*
X168291442Y-127967376D01*
X168325003Y-127932513D01*
X168377547Y-127893914D01*
X168446300Y-127853001D01*
X168528487Y-127811198D01*
X168621335Y-127769929D01*
X168722069Y-127730618D01*
X168827915Y-127694688D01*
X168922565Y-127667137D01*
X168962989Y-127650024D01*
X169007153Y-127622181D01*
X169027732Y-127605532D01*
X169062151Y-127569869D01*
X169082385Y-127533603D01*
X169095089Y-127486645D01*
X169103026Y-127426202D01*
X169097142Y-127380646D01*
X169075015Y-127347471D01*
X169034224Y-127324173D01*
X168972348Y-127308245D01*
X168914848Y-127300100D01*
X168836906Y-127291238D01*
X168980547Y-127082420D01*
X169124189Y-126873603D01*
X169257799Y-126845810D01*
X169457530Y-126799561D01*
X169637030Y-126748251D01*
X169795570Y-126692240D01*
X169932422Y-126631885D01*
X170046859Y-126567543D01*
X170138151Y-126499572D01*
X170205571Y-126428330D01*
X170245780Y-126360456D01*
X170263967Y-126306367D01*
X170276397Y-126246271D01*
X170281567Y-126190004D01*
X170278188Y-126148238D01*
X170253141Y-126069334D01*
X170220449Y-126010168D01*
X170176348Y-125965374D01*
X170129066Y-125935623D01*
X170090091Y-125919479D01*
X170045674Y-125911055D01*
X169986331Y-125908617D01*
X169981439Y-125908625D01*
X169922210Y-125914248D01*
X169922210Y-126163125D01*
X169963145Y-126164098D01*
X169988897Y-126172846D01*
X170008229Y-126191283D01*
X170025311Y-126225471D01*
X170019672Y-126260328D01*
X169990589Y-126298659D01*
X169977304Y-126311149D01*
X169925948Y-126348579D01*
X169856605Y-126387134D01*
X169776245Y-126423208D01*
X169721089Y-126443724D01*
X169661770Y-126462959D01*
X169598204Y-126481933D01*
X169535251Y-126499394D01*
X169477774Y-126514091D01*
X169430635Y-126524772D01*
X169398697Y-126530187D01*
X169387100Y-126529682D01*
X169391916Y-126517779D01*
X169412478Y-126492901D01*
X169445152Y-126458495D01*
X169486304Y-126418005D01*
X169532301Y-126374876D01*
X169579507Y-126332552D01*
X169624288Y-126294479D01*
X169663012Y-126264102D01*
X169679442Y-126252560D01*
X169765953Y-126202946D01*
X169846109Y-126173775D01*
X169922210Y-126163125D01*
X169922210Y-125914248D01*
X169881029Y-125918158D01*
X169780055Y-125946558D01*
X169677292Y-125994651D01*
X169571514Y-126063259D01*
X169461493Y-126153205D01*
X169346005Y-126265314D01*
X169223823Y-126400408D01*
X169190414Y-126439870D01*
X169144695Y-126493111D01*
X169102699Y-126539379D01*
X169067880Y-126575063D01*
X169043691Y-126596555D01*
X169036239Y-126600997D01*
X169002153Y-126609350D01*
X168989896Y-126605089D01*
X168998580Y-126586818D01*
X169014685Y-126567166D01*
X169057233Y-126513262D01*
X169082833Y-126463956D01*
X169095254Y-126409232D01*
X169098284Y-126345088D01*
X169093948Y-126272376D01*
X169078406Y-126215032D01*
X169047862Y-126164284D01*
X168998517Y-126111358D01*
X168996123Y-126109095D01*
X168941092Y-126057252D01*
X168993184Y-125988445D01*
X169024879Y-125943127D01*
X169053600Y-125896240D01*
X169069458Y-125865650D01*
X169095079Y-125785011D01*
X169102327Y-125703267D01*
X169092296Y-125625077D01*
X169066081Y-125555103D01*
X169024778Y-125498005D01*
X168974307Y-125460809D01*
X168946108Y-125445996D01*
X168929668Y-125436468D01*
X168928733Y-125435759D01*
X168933348Y-125424316D01*
X168950115Y-125398210D01*
X168975557Y-125362803D01*
X168979060Y-125358141D01*
X169037192Y-125270467D01*
X169074739Y-125186213D01*
X169094240Y-125098288D01*
X169098553Y-125024288D01*
X169094299Y-124937837D01*
X169079371Y-124868725D01*
X169051159Y-124810203D01*
X169007053Y-124755523D01*
X168986877Y-124735570D01*
X168916125Y-124682387D01*
X168825149Y-124635963D01*
X168718700Y-124598426D01*
X168635239Y-124578115D01*
X168577983Y-124570328D01*
X168500922Y-124565219D01*
X168409505Y-124562733D01*
X168309178Y-124562813D01*
X168226725Y-124564871D01*
X168226725Y-124874799D01*
X168250747Y-124875615D01*
X168254239Y-124877225D01*
X168243852Y-124885412D01*
X168215670Y-124903112D01*
X168174163Y-124927607D01*
X168130414Y-124952486D01*
X167992476Y-125024791D01*
X167847430Y-125091896D01*
X167701466Y-125151338D01*
X167560778Y-125200653D01*
X167431559Y-125237380D01*
X167390639Y-125246710D01*
X167319196Y-125259049D01*
X167238417Y-125268623D01*
X167155973Y-125274919D01*
X167079537Y-125277422D01*
X167016782Y-125275621D01*
X166994563Y-125273197D01*
X166940304Y-125260893D01*
X166908854Y-125242673D01*
X166897950Y-125216702D01*
X166900324Y-125196651D01*
X166919119Y-125169084D01*
X166960672Y-125139381D01*
X167022503Y-125108281D01*
X167102134Y-125076521D01*
X167197086Y-125044839D01*
X167304879Y-125013973D01*
X167423035Y-124984660D01*
X167549073Y-124957638D01*
X167680516Y-124933644D01*
X167814884Y-124913417D01*
X167879589Y-124905275D01*
X167967563Y-124895450D01*
X168049781Y-124887227D01*
X168122725Y-124880868D01*
X168182879Y-124876638D01*
X168226725Y-124874799D01*
X168226725Y-124564871D01*
X168205390Y-124565404D01*
X168103587Y-124570449D01*
X168009219Y-124577894D01*
X167945339Y-124585187D01*
X167733761Y-124618002D01*
X167542540Y-124657232D01*
X167367163Y-124704128D01*
X167203116Y-124759940D01*
X167045889Y-124825921D01*
X167001650Y-124846784D01*
X166886142Y-124908703D01*
X166794632Y-124971628D01*
X166725718Y-125036739D01*
X166678000Y-125105216D01*
X166666589Y-125128930D01*
X166644978Y-125199501D01*
X166638448Y-125270915D01*
X166647289Y-125334983D01*
X166658309Y-125363167D01*
X166695547Y-125413074D01*
X166750623Y-125459019D01*
X166816046Y-125495141D01*
X166837786Y-125503613D01*
X166888367Y-125515259D01*
X166957843Y-125522902D01*
X167040026Y-125526552D01*
X167128730Y-125526216D01*
X167217768Y-125521904D01*
X167300953Y-125513623D01*
X167365239Y-125502883D01*
X167528744Y-125460184D01*
X167703997Y-125399725D01*
X167886755Y-125323482D01*
X168072776Y-125233430D01*
X168257817Y-125131544D01*
X168437637Y-125019800D01*
X168514251Y-124967851D01*
X168567049Y-124932160D01*
X168605590Y-124910281D01*
X168635793Y-124900598D01*
X168663582Y-124901497D01*
X168694876Y-124911363D01*
X168705506Y-124915693D01*
X168762027Y-124948014D01*
X168796521Y-124990373D01*
X168811588Y-125046606D01*
X168812760Y-125073767D01*
X168806346Y-125138923D01*
X168785764Y-125198559D01*
X168748184Y-125258639D01*
X168696037Y-125319563D01*
X168659427Y-125357003D01*
X168632722Y-125378995D01*
X168609461Y-125389514D01*
X168583181Y-125392535D01*
X168577328Y-125392590D01*
X168524924Y-125395581D01*
X168456916Y-125403861D01*
X168378153Y-125416391D01*
X168293484Y-125432137D01*
X168207757Y-125450061D01*
X168125823Y-125469128D01*
X168052529Y-125488300D01*
X167992725Y-125506542D01*
X167951260Y-125522816D01*
X167940720Y-125528657D01*
X167907885Y-125562657D01*
X167885571Y-125610387D01*
X167874394Y-125664925D01*
X167874968Y-125719347D01*
X167887911Y-125766732D01*
X167913837Y-125800155D01*
X167916415Y-125801968D01*
X167942353Y-125809701D01*
X167987396Y-125810373D01*
X168052799Y-125803854D01*
X168139819Y-125790014D01*
X168249710Y-125768724D01*
X168260589Y-125766475D01*
X168373933Y-125744926D01*
X168479776Y-125728648D01*
X168574941Y-125717893D01*
X168656253Y-125712915D01*
X168720539Y-125713965D01*
X168764622Y-125721297D01*
X168774939Y-125725525D01*
X168803654Y-125752939D01*
X168812185Y-125791541D01*
X168801361Y-125838250D01*
X168772010Y-125889985D01*
X168724961Y-125943665D01*
X168713309Y-125954536D01*
X168681331Y-125980058D01*
X168655779Y-125992164D01*
X168655779Y-126332388D01*
X168723722Y-126335496D01*
X168772074Y-126345848D01*
X168805997Y-126364986D01*
X168822160Y-126382087D01*
X168836178Y-126419057D01*
X168834257Y-126465930D01*
X168816956Y-126513298D01*
X168814065Y-126518253D01*
X168792355Y-126545820D01*
X168761413Y-126570149D01*
X168718516Y-126592244D01*
X168660945Y-126613107D01*
X168585978Y-126633742D01*
X168490895Y-126655153D01*
X168387182Y-126675667D01*
X168308580Y-126690239D01*
X168238742Y-126702618D01*
X168181394Y-126712189D01*
X168140259Y-126718339D01*
X168119065Y-126720454D01*
X168117063Y-126720145D01*
X168113933Y-126701272D01*
X168121054Y-126667432D01*
X168136148Y-126625755D01*
X168156942Y-126583371D01*
X168165000Y-126569917D01*
X168222569Y-126500731D01*
X168299661Y-126440218D01*
X168391169Y-126390852D01*
X168491986Y-126355104D01*
X168597004Y-126335446D01*
X168655779Y-126332388D01*
X168655779Y-125992164D01*
X168649637Y-125995075D01*
X168607811Y-126003725D01*
X168581932Y-126006744D01*
X168444374Y-126033486D01*
X168312258Y-126084564D01*
X168187198Y-126159204D01*
X168080068Y-126247722D01*
X167998354Y-126338398D01*
X167935774Y-126435771D01*
X167894344Y-126536074D01*
X167876594Y-126628267D01*
X167873634Y-126692557D01*
X167877866Y-126736878D01*
X167890684Y-126765992D01*
X167913485Y-126784659D01*
X167923877Y-126789521D01*
X167943479Y-126798750D01*
X167954895Y-126810421D01*
X167960336Y-126830867D01*
X167962016Y-126866425D01*
X167962138Y-126899078D01*
X167963332Y-126950582D01*
X167967978Y-126983891D01*
X167977676Y-127006145D01*
X167989176Y-127019825D01*
X167998913Y-127028667D01*
X168010079Y-127035274D01*
X168025272Y-127039436D01*
X168047089Y-127040942D01*
X168078127Y-127039581D01*
X168120983Y-127035141D01*
X168178255Y-127027412D01*
X168252540Y-127016181D01*
X168346435Y-127001239D01*
X168462538Y-126982374D01*
X168475143Y-126980317D01*
X168561527Y-126966455D01*
X168639339Y-126954425D01*
X168705163Y-126944717D01*
X168755585Y-126937821D01*
X168787193Y-126934229D01*
X168796687Y-126934103D01*
X168791673Y-126945745D01*
X168774078Y-126973592D01*
X168746615Y-127013570D01*
X168712000Y-127061608D01*
X168709133Y-127065501D01*
X168668624Y-127120731D01*
X168629493Y-127174624D01*
X168596535Y-127220548D01*
X168576567Y-127248923D01*
X168536946Y-127306337D01*
X168316217Y-127314317D01*
X168118658Y-127326196D01*
X167923775Y-127347042D01*
X167847518Y-127358744D01*
X167847518Y-127666170D01*
X167879589Y-127666452D01*
X167847839Y-127692436D01*
X167824082Y-127710325D01*
X167785207Y-127737950D01*
X167737285Y-127771044D01*
X167701789Y-127795058D01*
X167609295Y-127854545D01*
X167526855Y-127901267D01*
X167445778Y-127939603D01*
X167357376Y-127973931D01*
X167323614Y-127985635D01*
X167259811Y-128005689D01*
X167206208Y-128017900D01*
X167151238Y-128024192D01*
X167083333Y-128026489D01*
X167077708Y-128026551D01*
X167016824Y-128026491D01*
X166975715Y-128024313D01*
X166948785Y-128019192D01*
X166930442Y-128010305D01*
X166922133Y-128003644D01*
X166900020Y-127975110D01*
X166898933Y-127947206D01*
X166919786Y-127918934D01*
X166963493Y-127889293D01*
X167030969Y-127857285D01*
X167070717Y-127841309D01*
X167133955Y-127819353D01*
X167213274Y-127795568D01*
X167303959Y-127771017D01*
X167401294Y-127746762D01*
X167500565Y-127723867D01*
X167597057Y-127703394D01*
X167686055Y-127686407D01*
X167762845Y-127673969D01*
X167822711Y-127667142D01*
X167847518Y-127666170D01*
X167847518Y-127358744D01*
X167734116Y-127376147D01*
X167552228Y-127412802D01*
X167380658Y-127456301D01*
X167221955Y-127505933D01*
X167078665Y-127560992D01*
X166953337Y-127620769D01*
X166848517Y-127684556D01*
X166776431Y-127742348D01*
X166710727Y-127812249D01*
X166667271Y-127879681D01*
X166643829Y-127948938D01*
X166637986Y-128008360D01*
X166647428Y-128084830D01*
D12*
X161759999Y-82270508D02*
X162779999Y-82270508D01*
X161759999Y-77070508D02*
X162779999Y-77070508D01*
X159219999Y-82270508D02*
X160239999Y-82270508D01*
X159219999Y-77070508D02*
X160239999Y-77070508D01*
X164299999Y-82270508D02*
X164869999Y-82270508D01*
X164299999Y-77070508D02*
X164869999Y-77070508D01*
X157129999Y-82270508D02*
X157699999Y-82270508D01*
X157129999Y-77070508D02*
X157699999Y-77070508D01*
X157699999Y-75630508D02*
X157699999Y-77070508D01*
X164869999Y-77070508D02*
X164869999Y-82270508D01*
X157129999Y-77070508D02*
X157129999Y-82270508D01*
X159614999Y-95530508D02*
X158889999Y-95530508D01*
X163109999Y-91310508D02*
X163109999Y-92035508D01*
X162384999Y-91310508D02*
X163109999Y-91310508D01*
X158889999Y-91310508D02*
X158889999Y-92035508D01*
X159614999Y-91310508D02*
X158889999Y-91310508D01*
X163109999Y-95530508D02*
X163109999Y-94805508D01*
X162384999Y-95530508D02*
X163109999Y-95530508D01*
X168489999Y-107833287D02*
X168489999Y-107507729D01*
X169509999Y-107833287D02*
X169509999Y-107507729D01*
X161349999Y-110060508D02*
X163799999Y-110060508D01*
X163149999Y-113280508D02*
X161349999Y-113280508D01*
X154159999Y-103470508D02*
X154159999Y-104870508D01*
X151839999Y-104870508D02*
X151839999Y-102970508D01*
X165989999Y-84333287D02*
X165989999Y-84007729D01*
X167009999Y-84333287D02*
X167009999Y-84007729D01*
X164337220Y-100660508D02*
X164662778Y-100660508D01*
X164337220Y-101680508D02*
X164662778Y-101680508D01*
X168489999Y-98583287D02*
X168489999Y-98257729D01*
X169509999Y-98583287D02*
X169509999Y-98257729D01*
D13*
X156849999Y-125020508D02*
X156849999Y-124520508D01*
X156849999Y-125020508D02*
X157349999Y-125020508D01*
X165149999Y-125020508D02*
X164649999Y-125020508D01*
X165149999Y-125020508D02*
X165149999Y-124520508D01*
X165049999Y-116220508D02*
X164549999Y-116220508D01*
X165049999Y-116220508D02*
X165049999Y-116720508D01*
X156949999Y-116220508D02*
X157449999Y-116220508D01*
X156949999Y-116220508D02*
X156949999Y-116720508D01*
D12*
X174249999Y-102420508D02*
X174249999Y-104920508D01*
X175999999Y-100920508D02*
X177999999Y-100920508D01*
X179749999Y-102420508D02*
X179749999Y-104920508D01*
X175999999Y-106420508D02*
X177999999Y-106420508D01*
X174699999Y-101970508D02*
X174249999Y-102420508D01*
X174699999Y-105370508D02*
X174249999Y-104920508D01*
X179299999Y-105370508D02*
X179749999Y-104920508D01*
X179299999Y-101970508D02*
X179749999Y-102420508D01*
X156087220Y-107910508D02*
X156412778Y-107910508D01*
X156087220Y-108930508D02*
X156412778Y-108930508D01*
X153989999Y-112333287D02*
X153989999Y-112007729D01*
X155009999Y-112333287D02*
X155009999Y-112007729D01*
X162899999Y-103020508D02*
X157499999Y-103020508D01*
X162899999Y-106320508D02*
X157499999Y-106320508D01*
X162899999Y-103020508D02*
X162899999Y-106320508D01*
X153162778Y-107430508D02*
X152837220Y-107430508D01*
X153162778Y-106410508D02*
X152837220Y-106410508D01*
D14*
X140840999Y-99970508D02*
X144499999Y-99987508D01*
X140832999Y-99978508D02*
X140840999Y-99970508D01*
X140832999Y-107370508D02*
X140832999Y-99978508D01*
X144499999Y-107353508D02*
X140832999Y-107370508D01*
X145824999Y-101963508D02*
X145824999Y-101445508D01*
X145824999Y-105985508D02*
X145824999Y-105370508D01*
D12*
X167649999Y-113280508D02*
X165199999Y-113280508D01*
X165849999Y-110060508D02*
X167649999Y-110060508D01*
X166399999Y-89530508D02*
X163949999Y-89530508D01*
X164599999Y-86310508D02*
X166399999Y-86310508D01*
X159359999Y-110770508D02*
X159359999Y-113220508D01*
X156139999Y-112570508D02*
X156139999Y-110770508D01*
X167829999Y-105430508D02*
X167829999Y-103970508D01*
X164669999Y-105430508D02*
X164669999Y-103270508D01*
X164669999Y-105430508D02*
X165599999Y-105430508D01*
X167829999Y-105430508D02*
X166899999Y-105430508D01*
X162099999Y-98320508D02*
X162099999Y-98320508D01*
X161599999Y-98320508D02*
X162099999Y-98320508D01*
X162099999Y-100020508D02*
X162099999Y-100020508D01*
X162099999Y-100520508D02*
X162099999Y-100020508D01*
X161599999Y-100520508D02*
X162099999Y-100520508D01*
X160399999Y-100520508D02*
X160399999Y-100520508D01*
X159899999Y-100520508D02*
X160399999Y-100520508D01*
X159899999Y-100020508D02*
X159899999Y-100520508D01*
X159899999Y-98820508D02*
X159899999Y-98820508D01*
X159899999Y-98320508D02*
X159899999Y-98820508D01*
X160399999Y-98320508D02*
X159899999Y-98320508D01*
X158349999Y-90180508D02*
X156949999Y-90180508D01*
X156949999Y-87860508D02*
X158849999Y-87860508D01*
D10*
X154441903Y-85406222D02*
X154060951Y-85139555D01*
X154441903Y-84949079D02*
X153641903Y-84949079D01*
X153641903Y-85253841D01*
X153679999Y-85330031D01*
X153718094Y-85368127D01*
X153794284Y-85406222D01*
X153908570Y-85406222D01*
X153984760Y-85368127D01*
X154022856Y-85330031D01*
X154060951Y-85253841D01*
X154060951Y-84949079D01*
X153718094Y-85710984D02*
X153679999Y-85749079D01*
X153641903Y-85825269D01*
X153641903Y-86015746D01*
X153679999Y-86091936D01*
X153718094Y-86130031D01*
X153794284Y-86168127D01*
X153870475Y-86168127D01*
X153984760Y-86130031D01*
X154441903Y-85672888D01*
X154441903Y-86168127D01*
X153908570Y-86853841D02*
X154441903Y-86853841D01*
X153603808Y-86663365D02*
X154175237Y-86472888D01*
X154175237Y-86968127D01*
X164909522Y-90132412D02*
X164909522Y-90780031D01*
X164871427Y-90856222D01*
X164833332Y-90894317D01*
X164757141Y-90932412D01*
X164604760Y-90932412D01*
X164528570Y-90894317D01*
X164490475Y-90856222D01*
X164452379Y-90780031D01*
X164452379Y-90132412D01*
X163728570Y-90399079D02*
X163728570Y-90932412D01*
X163919046Y-90094317D02*
X164109522Y-90665746D01*
X163614284Y-90665746D01*
X157361903Y-91956222D02*
X156980951Y-91689555D01*
X157361903Y-91499079D02*
X156561903Y-91499079D01*
X156561903Y-91803841D01*
X156599999Y-91880031D01*
X156638094Y-91918127D01*
X156714284Y-91956222D01*
X156828570Y-91956222D01*
X156904760Y-91918127D01*
X156942856Y-91880031D01*
X156980951Y-91803841D01*
X156980951Y-91499079D01*
X157361903Y-92718127D02*
X157361903Y-92260984D01*
X157361903Y-92489555D02*
X156561903Y-92489555D01*
X156676189Y-92413365D01*
X156752379Y-92337174D01*
X156790475Y-92260984D01*
X157361903Y-93099079D02*
X157361903Y-93251460D01*
X157323808Y-93327650D01*
X157285713Y-93365746D01*
X157171427Y-93441936D01*
X157019046Y-93480031D01*
X156714284Y-93480031D01*
X156638094Y-93441936D01*
X156599999Y-93403841D01*
X156561903Y-93327650D01*
X156561903Y-93175269D01*
X156599999Y-93099079D01*
X156638094Y-93060984D01*
X156714284Y-93022888D01*
X156904760Y-93022888D01*
X156980951Y-93060984D01*
X157019046Y-93099079D01*
X157057141Y-93175269D01*
X157057141Y-93327650D01*
X157019046Y-93403841D01*
X156980951Y-93441936D01*
X156904760Y-93480031D01*
X170715713Y-107156222D02*
X170753808Y-107118127D01*
X170791903Y-107003841D01*
X170791903Y-106927650D01*
X170753808Y-106813365D01*
X170677618Y-106737174D01*
X170601427Y-106699079D01*
X170449046Y-106660984D01*
X170334760Y-106660984D01*
X170182379Y-106699079D01*
X170106189Y-106737174D01*
X170029999Y-106813365D01*
X169991903Y-106927650D01*
X169991903Y-107003841D01*
X170029999Y-107118127D01*
X170068094Y-107156222D01*
X170791903Y-107918127D02*
X170791903Y-107460984D01*
X170791903Y-107689555D02*
X169991903Y-107689555D01*
X170106189Y-107613365D01*
X170182379Y-107537174D01*
X170220475Y-107460984D01*
X170791903Y-108299079D02*
X170791903Y-108451460D01*
X170753808Y-108527650D01*
X170715713Y-108565746D01*
X170601427Y-108641936D01*
X170449046Y-108680031D01*
X170144284Y-108680031D01*
X170068094Y-108641936D01*
X170029999Y-108603841D01*
X169991903Y-108527650D01*
X169991903Y-108375269D01*
X170029999Y-108299079D01*
X170068094Y-108260984D01*
X170144284Y-108222888D01*
X170334760Y-108222888D01*
X170410951Y-108260984D01*
X170449046Y-108299079D01*
X170487141Y-108375269D01*
X170487141Y-108527650D01*
X170449046Y-108603841D01*
X170410951Y-108641936D01*
X170334760Y-108680031D01*
X152941903Y-108656222D02*
X152560951Y-108389555D01*
X152941903Y-108199079D02*
X152141903Y-108199079D01*
X152141903Y-108503841D01*
X152179999Y-108580031D01*
X152218094Y-108618127D01*
X152294284Y-108656222D01*
X152408570Y-108656222D01*
X152484760Y-108618127D01*
X152522856Y-108580031D01*
X152560951Y-108503841D01*
X152560951Y-108199079D01*
X152218094Y-108960984D02*
X152179999Y-108999079D01*
X152141903Y-109075269D01*
X152141903Y-109265746D01*
X152179999Y-109341936D01*
X152218094Y-109380031D01*
X152294284Y-109418127D01*
X152370475Y-109418127D01*
X152484760Y-109380031D01*
X152941903Y-108922888D01*
X152941903Y-109418127D01*
X152141903Y-109684793D02*
X152141903Y-110180031D01*
X152446665Y-109913365D01*
X152446665Y-110027650D01*
X152484760Y-110103841D01*
X152522856Y-110141936D01*
X152599046Y-110180031D01*
X152789522Y-110180031D01*
X152865713Y-110141936D01*
X152903808Y-110103841D01*
X152941903Y-110027650D01*
X152941903Y-109799079D01*
X152903808Y-109722888D01*
X152865713Y-109684793D01*
X155985713Y-91956222D02*
X156023808Y-91918127D01*
X156061903Y-91803841D01*
X156061903Y-91727650D01*
X156023808Y-91613365D01*
X155947618Y-91537174D01*
X155871427Y-91499079D01*
X155719046Y-91460984D01*
X155604760Y-91460984D01*
X155452379Y-91499079D01*
X155376189Y-91537174D01*
X155299999Y-91613365D01*
X155261903Y-91727650D01*
X155261903Y-91803841D01*
X155299999Y-91918127D01*
X155338094Y-91956222D01*
X155338094Y-92260984D02*
X155299999Y-92299079D01*
X155261903Y-92375269D01*
X155261903Y-92565746D01*
X155299999Y-92641936D01*
X155338094Y-92680031D01*
X155414284Y-92718127D01*
X155490475Y-92718127D01*
X155604760Y-92680031D01*
X156061903Y-92222888D01*
X156061903Y-92718127D01*
X155261903Y-93213365D02*
X155261903Y-93289555D01*
X155299999Y-93365746D01*
X155338094Y-93403841D01*
X155414284Y-93441936D01*
X155566665Y-93480031D01*
X155757141Y-93480031D01*
X155909522Y-93441936D01*
X155985713Y-93403841D01*
X156023808Y-93365746D01*
X156061903Y-93289555D01*
X156061903Y-93213365D01*
X156023808Y-93137174D01*
X155985713Y-93099079D01*
X155909522Y-93060984D01*
X155757141Y-93022888D01*
X155566665Y-93022888D01*
X155414284Y-93060984D01*
X155338094Y-93099079D01*
X155299999Y-93137174D01*
X155261903Y-93213365D01*
X164364284Y-109082412D02*
X164630951Y-108701460D01*
X164821427Y-109082412D02*
X164821427Y-108282412D01*
X164516665Y-108282412D01*
X164440475Y-108320508D01*
X164402379Y-108358603D01*
X164364284Y-108434793D01*
X164364284Y-108549079D01*
X164402379Y-108625269D01*
X164440475Y-108663365D01*
X164516665Y-108701460D01*
X164821427Y-108701460D01*
X164059522Y-108358603D02*
X164021427Y-108320508D01*
X163945237Y-108282412D01*
X163754760Y-108282412D01*
X163678570Y-108320508D01*
X163640475Y-108358603D01*
X163602379Y-108434793D01*
X163602379Y-108510984D01*
X163640475Y-108625269D01*
X164097618Y-109082412D01*
X163602379Y-109082412D01*
X163297618Y-108358603D02*
X163259522Y-108320508D01*
X163183332Y-108282412D01*
X162992856Y-108282412D01*
X162916665Y-108320508D01*
X162878570Y-108358603D01*
X162840475Y-108434793D01*
X162840475Y-108510984D01*
X162878570Y-108625269D01*
X163335713Y-109082412D01*
X162840475Y-109082412D01*
X161076189Y-114808603D02*
X161152379Y-114770508D01*
X161228570Y-114694317D01*
X161342856Y-114580031D01*
X161419046Y-114541936D01*
X161495237Y-114541936D01*
X161457141Y-114732412D02*
X161533332Y-114694317D01*
X161609522Y-114618127D01*
X161647618Y-114465746D01*
X161647618Y-114199079D01*
X161609522Y-114046698D01*
X161533332Y-113970508D01*
X161457141Y-113932412D01*
X161304760Y-113932412D01*
X161228570Y-113970508D01*
X161152379Y-114046698D01*
X161114284Y-114199079D01*
X161114284Y-114465746D01*
X161152379Y-114618127D01*
X161228570Y-114694317D01*
X161304760Y-114732412D01*
X161457141Y-114732412D01*
X160352379Y-114732412D02*
X160809522Y-114732412D01*
X160580951Y-114732412D02*
X160580951Y-113932412D01*
X160657141Y-114046698D01*
X160733332Y-114122888D01*
X160809522Y-114160984D01*
X154761903Y-91956222D02*
X154380951Y-91689555D01*
X154761903Y-91499079D02*
X153961903Y-91499079D01*
X153961903Y-91803841D01*
X153999999Y-91880031D01*
X154038094Y-91918127D01*
X154114284Y-91956222D01*
X154228570Y-91956222D01*
X154304760Y-91918127D01*
X154342856Y-91880031D01*
X154380951Y-91803841D01*
X154380951Y-91499079D01*
X154038094Y-92260984D02*
X153999999Y-92299079D01*
X153961903Y-92375269D01*
X153961903Y-92565746D01*
X153999999Y-92641936D01*
X154038094Y-92680031D01*
X154114284Y-92718127D01*
X154190475Y-92718127D01*
X154304760Y-92680031D01*
X154761903Y-92222888D01*
X154761903Y-92718127D01*
X154761903Y-93480031D02*
X154761903Y-93022888D01*
X154761903Y-93251460D02*
X153961903Y-93251460D01*
X154076189Y-93175269D01*
X154152379Y-93099079D01*
X154190475Y-93022888D01*
X171733332Y-99532412D02*
X171999999Y-99151460D01*
X172190475Y-99532412D02*
X172190475Y-98732412D01*
X171885713Y-98732412D01*
X171809522Y-98770508D01*
X171771427Y-98808603D01*
X171733332Y-98884793D01*
X171733332Y-98999079D01*
X171771427Y-99075269D01*
X171809522Y-99113365D01*
X171885713Y-99151460D01*
X172190475Y-99151460D01*
X171466665Y-98732412D02*
X170971427Y-98732412D01*
X171238094Y-99037174D01*
X171123808Y-99037174D01*
X171047618Y-99075269D01*
X171009522Y-99113365D01*
X170971427Y-99189555D01*
X170971427Y-99380031D01*
X171009522Y-99456222D01*
X171047618Y-99494317D01*
X171123808Y-99532412D01*
X171352379Y-99532412D01*
X171428570Y-99494317D01*
X171466665Y-99456222D01*
X151361903Y-103580031D02*
X150561903Y-103580031D01*
X150561903Y-103770508D01*
X150599999Y-103884793D01*
X150676189Y-103960984D01*
X150752379Y-103999079D01*
X150904760Y-104037174D01*
X151019046Y-104037174D01*
X151171427Y-103999079D01*
X151247618Y-103960984D01*
X151323808Y-103884793D01*
X151361903Y-103770508D01*
X151361903Y-103580031D01*
X150904760Y-104494317D02*
X150866665Y-104418127D01*
X150828570Y-104380031D01*
X150752379Y-104341936D01*
X150714284Y-104341936D01*
X150638094Y-104380031D01*
X150599999Y-104418127D01*
X150561903Y-104494317D01*
X150561903Y-104646698D01*
X150599999Y-104722888D01*
X150638094Y-104760984D01*
X150714284Y-104799079D01*
X150752379Y-104799079D01*
X150828570Y-104760984D01*
X150866665Y-104722888D01*
X150904760Y-104646698D01*
X150904760Y-104494317D01*
X150942856Y-104418127D01*
X150980951Y-104380031D01*
X151057141Y-104341936D01*
X151209522Y-104341936D01*
X151285713Y-104380031D01*
X151323808Y-104418127D01*
X151361903Y-104494317D01*
X151361903Y-104646698D01*
X151323808Y-104722888D01*
X151285713Y-104760984D01*
X151209522Y-104799079D01*
X151057141Y-104799079D01*
X150980951Y-104760984D01*
X150942856Y-104722888D01*
X150904760Y-104646698D01*
X168215713Y-83656222D02*
X168253808Y-83618127D01*
X168291903Y-83503841D01*
X168291903Y-83427650D01*
X168253808Y-83313365D01*
X168177618Y-83237174D01*
X168101427Y-83199079D01*
X167949046Y-83160984D01*
X167834760Y-83160984D01*
X167682379Y-83199079D01*
X167606189Y-83237174D01*
X167529999Y-83313365D01*
X167491903Y-83427650D01*
X167491903Y-83503841D01*
X167529999Y-83618127D01*
X167568094Y-83656222D01*
X168291903Y-84418127D02*
X168291903Y-83960984D01*
X168291903Y-84189555D02*
X167491903Y-84189555D01*
X167606189Y-84113365D01*
X167682379Y-84037174D01*
X167720475Y-83960984D01*
X168291903Y-85180031D02*
X168291903Y-84722888D01*
X168291903Y-84951460D02*
X167491903Y-84951460D01*
X167606189Y-84875269D01*
X167682379Y-84799079D01*
X167720475Y-84722888D01*
X167083332Y-101456222D02*
X167121427Y-101494317D01*
X167235713Y-101532412D01*
X167311903Y-101532412D01*
X167426189Y-101494317D01*
X167502379Y-101418127D01*
X167540475Y-101341936D01*
X167578570Y-101189555D01*
X167578570Y-101075269D01*
X167540475Y-100922888D01*
X167502379Y-100846698D01*
X167426189Y-100770508D01*
X167311903Y-100732412D01*
X167235713Y-100732412D01*
X167121427Y-100770508D01*
X167083332Y-100808603D01*
X166626189Y-101075269D02*
X166702379Y-101037174D01*
X166740475Y-100999079D01*
X166778570Y-100922888D01*
X166778570Y-100884793D01*
X166740475Y-100808603D01*
X166702379Y-100770508D01*
X166626189Y-100732412D01*
X166473808Y-100732412D01*
X166397618Y-100770508D01*
X166359522Y-100808603D01*
X166321427Y-100884793D01*
X166321427Y-100922888D01*
X166359522Y-100999079D01*
X166397618Y-101037174D01*
X166473808Y-101075269D01*
X166626189Y-101075269D01*
X166702379Y-101113365D01*
X166740475Y-101151460D01*
X166778570Y-101227650D01*
X166778570Y-101380031D01*
X166740475Y-101456222D01*
X166702379Y-101494317D01*
X166626189Y-101532412D01*
X166473808Y-101532412D01*
X166397618Y-101494317D01*
X166359522Y-101456222D01*
X166321427Y-101380031D01*
X166321427Y-101227650D01*
X166359522Y-101151460D01*
X166397618Y-101113365D01*
X166473808Y-101075269D01*
X167935713Y-98287174D02*
X167973808Y-98249079D01*
X168011903Y-98134793D01*
X168011903Y-98058603D01*
X167973808Y-97944317D01*
X167897618Y-97868127D01*
X167821427Y-97830031D01*
X167669046Y-97791936D01*
X167554760Y-97791936D01*
X167402379Y-97830031D01*
X167326189Y-97868127D01*
X167249999Y-97944317D01*
X167211903Y-98058603D01*
X167211903Y-98134793D01*
X167249999Y-98249079D01*
X167288094Y-98287174D01*
X167288094Y-98591936D02*
X167249999Y-98630031D01*
X167211903Y-98706222D01*
X167211903Y-98896698D01*
X167249999Y-98972888D01*
X167288094Y-99010984D01*
X167364284Y-99049079D01*
X167440475Y-99049079D01*
X167554760Y-99010984D01*
X168011903Y-98553841D01*
X168011903Y-99049079D01*
X161266665Y-125752412D02*
X161266665Y-126323841D01*
X161304760Y-126438127D01*
X161380951Y-126514317D01*
X161495237Y-126552412D01*
X161571427Y-126552412D01*
X160466665Y-126552412D02*
X160923808Y-126552412D01*
X160695237Y-126552412D02*
X160695237Y-125752412D01*
X160771427Y-125866698D01*
X160847618Y-125942888D01*
X160923808Y-125980984D01*
X155133332Y-110136222D02*
X155171427Y-110174317D01*
X155285713Y-110212412D01*
X155361903Y-110212412D01*
X155476189Y-110174317D01*
X155552379Y-110098127D01*
X155590475Y-110021936D01*
X155628570Y-109869555D01*
X155628570Y-109755269D01*
X155590475Y-109602888D01*
X155552379Y-109526698D01*
X155476189Y-109450508D01*
X155361903Y-109412412D01*
X155285713Y-109412412D01*
X155171427Y-109450508D01*
X155133332Y-109488603D01*
X154371427Y-110212412D02*
X154828570Y-110212412D01*
X154599999Y-110212412D02*
X154599999Y-109412412D01*
X154676189Y-109526698D01*
X154752379Y-109602888D01*
X154828570Y-109640984D01*
X153285713Y-112737174D02*
X153323808Y-112699079D01*
X153361903Y-112584793D01*
X153361903Y-112508603D01*
X153323808Y-112394317D01*
X153247618Y-112318127D01*
X153171427Y-112280031D01*
X153019046Y-112241936D01*
X152904760Y-112241936D01*
X152752379Y-112280031D01*
X152676189Y-112318127D01*
X152599999Y-112394317D01*
X152561903Y-112508603D01*
X152561903Y-112584793D01*
X152599999Y-112699079D01*
X152638094Y-112737174D01*
X152561903Y-113003841D02*
X152561903Y-113499079D01*
X152866665Y-113232412D01*
X152866665Y-113346698D01*
X152904760Y-113422888D01*
X152942856Y-113460984D01*
X153019046Y-113499079D01*
X153209522Y-113499079D01*
X153285713Y-113460984D01*
X153323808Y-113422888D01*
X153361903Y-113346698D01*
X153361903Y-113118127D01*
X153323808Y-113041936D01*
X153285713Y-113003841D01*
X157133332Y-102456222D02*
X157171427Y-102494317D01*
X157285713Y-102532412D01*
X157361903Y-102532412D01*
X157476189Y-102494317D01*
X157552379Y-102418127D01*
X157590475Y-102341936D01*
X157628570Y-102189555D01*
X157628570Y-102075269D01*
X157590475Y-101922888D01*
X157552379Y-101846698D01*
X157476189Y-101770508D01*
X157361903Y-101732412D01*
X157285713Y-101732412D01*
X157171427Y-101770508D01*
X157133332Y-101808603D01*
X156447618Y-101999079D02*
X156447618Y-102532412D01*
X156638094Y-101694317D02*
X156828570Y-102265746D01*
X156333332Y-102265746D01*
X172333332Y-107706222D02*
X172371427Y-107744317D01*
X172485713Y-107782412D01*
X172561903Y-107782412D01*
X172676189Y-107744317D01*
X172752379Y-107668127D01*
X172790475Y-107591936D01*
X172828570Y-107439555D01*
X172828570Y-107325269D01*
X172790475Y-107172888D01*
X172752379Y-107096698D01*
X172676189Y-107020508D01*
X172561903Y-106982412D01*
X172485713Y-106982412D01*
X172371427Y-107020508D01*
X172333332Y-107058603D01*
X171609522Y-106982412D02*
X171990475Y-106982412D01*
X172028570Y-107363365D01*
X171990475Y-107325269D01*
X171914284Y-107287174D01*
X171723808Y-107287174D01*
X171647618Y-107325269D01*
X171609522Y-107363365D01*
X171571427Y-107439555D01*
X171571427Y-107630031D01*
X171609522Y-107706222D01*
X171647618Y-107744317D01*
X171723808Y-107782412D01*
X171914284Y-107782412D01*
X171990475Y-107744317D01*
X172028570Y-107706222D01*
X158933332Y-102456222D02*
X158971427Y-102494317D01*
X159085713Y-102532412D01*
X159161903Y-102532412D01*
X159276189Y-102494317D01*
X159352379Y-102418127D01*
X159390475Y-102341936D01*
X159428570Y-102189555D01*
X159428570Y-102075269D01*
X159390475Y-101922888D01*
X159352379Y-101846698D01*
X159276189Y-101770508D01*
X159161903Y-101732412D01*
X159085713Y-101732412D01*
X158971427Y-101770508D01*
X158933332Y-101808603D01*
X158247618Y-101732412D02*
X158399999Y-101732412D01*
X158476189Y-101770508D01*
X158514284Y-101808603D01*
X158590475Y-101922888D01*
X158628570Y-102075269D01*
X158628570Y-102380031D01*
X158590475Y-102456222D01*
X158552379Y-102494317D01*
X158476189Y-102532412D01*
X158323808Y-102532412D01*
X158247618Y-102494317D01*
X158209522Y-102456222D01*
X158171427Y-102380031D01*
X158171427Y-102189555D01*
X158209522Y-102113365D01*
X158247618Y-102075269D01*
X158323808Y-102037174D01*
X158476189Y-102037174D01*
X158552379Y-102075269D01*
X158590475Y-102113365D01*
X158628570Y-102189555D01*
X170585713Y-104037174D02*
X170623808Y-103999079D01*
X170661903Y-103884793D01*
X170661903Y-103808603D01*
X170623808Y-103694317D01*
X170547618Y-103618127D01*
X170471427Y-103580031D01*
X170319046Y-103541936D01*
X170204760Y-103541936D01*
X170052379Y-103580031D01*
X169976189Y-103618127D01*
X169899999Y-103694317D01*
X169861903Y-103808603D01*
X169861903Y-103884793D01*
X169899999Y-103999079D01*
X169938094Y-104037174D01*
X169861903Y-104303841D02*
X169861903Y-104837174D01*
X170661903Y-104494317D01*
X161433332Y-88856222D02*
X161471427Y-88894317D01*
X161585713Y-88932412D01*
X161661903Y-88932412D01*
X161776189Y-88894317D01*
X161852379Y-88818127D01*
X161890475Y-88741936D01*
X161928570Y-88589555D01*
X161928570Y-88475269D01*
X161890475Y-88322888D01*
X161852379Y-88246698D01*
X161776189Y-88170508D01*
X161661903Y-88132412D01*
X161585713Y-88132412D01*
X161471427Y-88170508D01*
X161433332Y-88208603D01*
X161052379Y-88932412D02*
X160899999Y-88932412D01*
X160823808Y-88894317D01*
X160785713Y-88856222D01*
X160709522Y-88741936D01*
X160671427Y-88589555D01*
X160671427Y-88284793D01*
X160709522Y-88208603D01*
X160747618Y-88170508D01*
X160823808Y-88132412D01*
X160976189Y-88132412D01*
X161052379Y-88170508D01*
X161090475Y-88208603D01*
X161128570Y-88284793D01*
X161128570Y-88475269D01*
X161090475Y-88551460D01*
X161052379Y-88589555D01*
X160976189Y-88627650D01*
X160823808Y-88627650D01*
X160747618Y-88589555D01*
X160709522Y-88551460D01*
X160671427Y-88475269D01*
X169014284Y-95756222D02*
X169052379Y-95794317D01*
X169166665Y-95832412D01*
X169242856Y-95832412D01*
X169357141Y-95794317D01*
X169433332Y-95718127D01*
X169471427Y-95641936D01*
X169509522Y-95489555D01*
X169509522Y-95375269D01*
X169471427Y-95222888D01*
X169433332Y-95146698D01*
X169357141Y-95070508D01*
X169242856Y-95032412D01*
X169166665Y-95032412D01*
X169052379Y-95070508D01*
X169014284Y-95108603D01*
X168252379Y-95832412D02*
X168709522Y-95832412D01*
X168480951Y-95832412D02*
X168480951Y-95032412D01*
X168557141Y-95146698D01*
X168633332Y-95222888D01*
X168709522Y-95260984D01*
X167757141Y-95032412D02*
X167680951Y-95032412D01*
X167604760Y-95070508D01*
X167566665Y-95108603D01*
X167528570Y-95184793D01*
X167490475Y-95337174D01*
X167490475Y-95527650D01*
X167528570Y-95680031D01*
X167566665Y-95756222D01*
X167604760Y-95794317D01*
X167680951Y-95832412D01*
X167757141Y-95832412D01*
X167833332Y-95794317D01*
X167871427Y-95756222D01*
X167909522Y-95680031D01*
X167947618Y-95527650D01*
X167947618Y-95337174D01*
X167909522Y-95184793D01*
X167871427Y-95108603D01*
X167833332Y-95070508D01*
X167757141Y-95032412D01*
X154365713Y-88406222D02*
X154403808Y-88368127D01*
X154441903Y-88253841D01*
X154441903Y-88177650D01*
X154403808Y-88063365D01*
X154327618Y-87987174D01*
X154251427Y-87949079D01*
X154099046Y-87910984D01*
X153984760Y-87910984D01*
X153832379Y-87949079D01*
X153756189Y-87987174D01*
X153679999Y-88063365D01*
X153641903Y-88177650D01*
X153641903Y-88253841D01*
X153679999Y-88368127D01*
X153718094Y-88406222D01*
X154441903Y-89168127D02*
X154441903Y-88710984D01*
X154441903Y-88939555D02*
X153641903Y-88939555D01*
X153756189Y-88863365D01*
X153832379Y-88787174D01*
X153870475Y-88710984D01*
X153718094Y-89472888D02*
X153679999Y-89510984D01*
X153641903Y-89587174D01*
X153641903Y-89777650D01*
X153679999Y-89853841D01*
X153718094Y-89891936D01*
X153794284Y-89930031D01*
X153870475Y-89930031D01*
X153984760Y-89891936D01*
X154441903Y-89434793D01*
X154441903Y-89930031D01*
X156590475Y-107432412D02*
X156590475Y-106632412D01*
X156399999Y-106632412D01*
X156285713Y-106670508D01*
X156209522Y-106746698D01*
X156171427Y-106822888D01*
X156133332Y-106975269D01*
X156133332Y-107089555D01*
X156171427Y-107241936D01*
X156209522Y-107318127D01*
X156285713Y-107394317D01*
X156399999Y-107432412D01*
X156590475Y-107432412D01*
X155866665Y-106632412D02*
X155333332Y-106632412D01*
X155676189Y-107432412D01*
X150766665Y-106913365D02*
X151033332Y-106913365D01*
X151033332Y-107332412D02*
X151033332Y-106532412D01*
X150652379Y-106532412D01*
X149928570Y-107332412D02*
X150385713Y-107332412D01*
X150157141Y-107332412D02*
X150157141Y-106532412D01*
X150233332Y-106646698D01*
X150309522Y-106722888D01*
X150385713Y-106760984D01*
X165376189Y-114808603D02*
X165452379Y-114770508D01*
X165528570Y-114694317D01*
X165642856Y-114580031D01*
X165719046Y-114541936D01*
X165795237Y-114541936D01*
X165757141Y-114732412D02*
X165833332Y-114694317D01*
X165909522Y-114618127D01*
X165947618Y-114465746D01*
X165947618Y-114199079D01*
X165909522Y-114046698D01*
X165833332Y-113970508D01*
X165757141Y-113932412D01*
X165604760Y-113932412D01*
X165528570Y-113970508D01*
X165452379Y-114046698D01*
X165414284Y-114199079D01*
X165414284Y-114465746D01*
X165452379Y-114618127D01*
X165528570Y-114694317D01*
X165604760Y-114732412D01*
X165757141Y-114732412D01*
X165109522Y-114008603D02*
X165071427Y-113970508D01*
X164995237Y-113932412D01*
X164804760Y-113932412D01*
X164728570Y-113970508D01*
X164690475Y-114008603D01*
X164652379Y-114084793D01*
X164652379Y-114160984D01*
X164690475Y-114275269D01*
X165147618Y-114732412D01*
X164652379Y-114732412D01*
X168476189Y-89408603D02*
X168552379Y-89370508D01*
X168628570Y-89294317D01*
X168742856Y-89180031D01*
X168819046Y-89141936D01*
X168895237Y-89141936D01*
X168857141Y-89332412D02*
X168933332Y-89294317D01*
X169009522Y-89218127D01*
X169047618Y-89065746D01*
X169047618Y-88799079D01*
X169009522Y-88646698D01*
X168933332Y-88570508D01*
X168857141Y-88532412D01*
X168704760Y-88532412D01*
X168628570Y-88570508D01*
X168552379Y-88646698D01*
X168514284Y-88799079D01*
X168514284Y-89065746D01*
X168552379Y-89218127D01*
X168628570Y-89294317D01*
X168704760Y-89332412D01*
X168857141Y-89332412D01*
X168247618Y-88532412D02*
X167752379Y-88532412D01*
X168019046Y-88837174D01*
X167904760Y-88837174D01*
X167828570Y-88875269D01*
X167790475Y-88913365D01*
X167752379Y-88989555D01*
X167752379Y-89180031D01*
X167790475Y-89256222D01*
X167828570Y-89294317D01*
X167904760Y-89332412D01*
X168133332Y-89332412D01*
X168209522Y-89294317D01*
X168247618Y-89256222D01*
X159233332Y-107832412D02*
X159499999Y-107451460D01*
X159690475Y-107832412D02*
X159690475Y-107032412D01*
X159385713Y-107032412D01*
X159309522Y-107070508D01*
X159271427Y-107108603D01*
X159233332Y-107184793D01*
X159233332Y-107299079D01*
X159271427Y-107375269D01*
X159309522Y-107413365D01*
X159385713Y-107451460D01*
X159690475Y-107451460D01*
X158471427Y-107832412D02*
X158928570Y-107832412D01*
X158699999Y-107832412D02*
X158699999Y-107032412D01*
X158776189Y-107146698D01*
X158852379Y-107222888D01*
X158928570Y-107260984D01*
X170531903Y-101787174D02*
X170150951Y-101520508D01*
X170531903Y-101330031D02*
X169731903Y-101330031D01*
X169731903Y-101634793D01*
X169769999Y-101710984D01*
X169808094Y-101749079D01*
X169884284Y-101787174D01*
X169998570Y-101787174D01*
X170074760Y-101749079D01*
X170112856Y-101710984D01*
X170150951Y-101634793D01*
X170150951Y-101330031D01*
X169808094Y-102091936D02*
X169769999Y-102130031D01*
X169731903Y-102206222D01*
X169731903Y-102396698D01*
X169769999Y-102472888D01*
X169808094Y-102510984D01*
X169884284Y-102549079D01*
X169960475Y-102549079D01*
X170074760Y-102510984D01*
X170531903Y-102053841D01*
X170531903Y-102549079D01*
X153561903Y-98037174D02*
X153180951Y-97770508D01*
X153561903Y-97580031D02*
X152761903Y-97580031D01*
X152761903Y-97884793D01*
X152799999Y-97960984D01*
X152838094Y-97999079D01*
X152914284Y-98037174D01*
X153028570Y-98037174D01*
X153104760Y-97999079D01*
X153142856Y-97960984D01*
X153180951Y-97884793D01*
X153180951Y-97580031D01*
X153028570Y-98722888D02*
X153561903Y-98722888D01*
X152723808Y-98532412D02*
X153295237Y-98341936D01*
X153295237Y-98837174D01*
X163633332Y-107882412D02*
X163899999Y-107501460D01*
X164090475Y-107882412D02*
X164090475Y-107082412D01*
X163785713Y-107082412D01*
X163709522Y-107120508D01*
X163671427Y-107158603D01*
X163633332Y-107234793D01*
X163633332Y-107349079D01*
X163671427Y-107425269D01*
X163709522Y-107463365D01*
X163785713Y-107501460D01*
X164090475Y-107501460D01*
X162909522Y-107082412D02*
X163290475Y-107082412D01*
X163328570Y-107463365D01*
X163290475Y-107425269D01*
X163214284Y-107387174D01*
X163023808Y-107387174D01*
X162947618Y-107425269D01*
X162909522Y-107463365D01*
X162871427Y-107539555D01*
X162871427Y-107730031D01*
X162909522Y-107806222D01*
X162947618Y-107844317D01*
X163023808Y-107882412D01*
X163214284Y-107882412D01*
X163290475Y-107844317D01*
X163328570Y-107806222D01*
X168433332Y-91632412D02*
X168699999Y-91251460D01*
X168890475Y-91632412D02*
X168890475Y-90832412D01*
X168585713Y-90832412D01*
X168509522Y-90870508D01*
X168471427Y-90908603D01*
X168433332Y-90984793D01*
X168433332Y-91099079D01*
X168471427Y-91175269D01*
X168509522Y-91213365D01*
X168585713Y-91251460D01*
X168890475Y-91251460D01*
X167747618Y-90832412D02*
X167899999Y-90832412D01*
X167976189Y-90870508D01*
X168014284Y-90908603D01*
X168090475Y-91022888D01*
X168128570Y-91175269D01*
X168128570Y-91480031D01*
X168090475Y-91556222D01*
X168052379Y-91594317D01*
X167976189Y-91632412D01*
X167823808Y-91632412D01*
X167747618Y-91594317D01*
X167709522Y-91556222D01*
X167671427Y-91480031D01*
X167671427Y-91289555D01*
X167709522Y-91213365D01*
X167747618Y-91175269D01*
X167823808Y-91137174D01*
X167976189Y-91137174D01*
X168052379Y-91175269D01*
X168090475Y-91213365D01*
X168128570Y-91289555D01*
X172383332Y-109082412D02*
X172649999Y-108701460D01*
X172840475Y-109082412D02*
X172840475Y-108282412D01*
X172535713Y-108282412D01*
X172459522Y-108320508D01*
X172421427Y-108358603D01*
X172383332Y-108434793D01*
X172383332Y-108549079D01*
X172421427Y-108625269D01*
X172459522Y-108663365D01*
X172535713Y-108701460D01*
X172840475Y-108701460D01*
X172116665Y-108282412D02*
X171583332Y-108282412D01*
X171926189Y-109082412D01*
X167383332Y-116132412D02*
X167649999Y-115751460D01*
X167840475Y-116132412D02*
X167840475Y-115332412D01*
X167535713Y-115332412D01*
X167459522Y-115370508D01*
X167421427Y-115408603D01*
X167383332Y-115484793D01*
X167383332Y-115599079D01*
X167421427Y-115675269D01*
X167459522Y-115713365D01*
X167535713Y-115751460D01*
X167840475Y-115751460D01*
X166926189Y-115675269D02*
X167002379Y-115637174D01*
X167040475Y-115599079D01*
X167078570Y-115522888D01*
X167078570Y-115484793D01*
X167040475Y-115408603D01*
X167002379Y-115370508D01*
X166926189Y-115332412D01*
X166773808Y-115332412D01*
X166697618Y-115370508D01*
X166659522Y-115408603D01*
X166621427Y-115484793D01*
X166621427Y-115522888D01*
X166659522Y-115599079D01*
X166697618Y-115637174D01*
X166773808Y-115675269D01*
X166926189Y-115675269D01*
X167002379Y-115713365D01*
X167040475Y-115751460D01*
X167078570Y-115827650D01*
X167078570Y-115980031D01*
X167040475Y-116056222D01*
X167002379Y-116094317D01*
X166926189Y-116132412D01*
X166773808Y-116132412D01*
X166697618Y-116094317D01*
X166659522Y-116056222D01*
X166621427Y-115980031D01*
X166621427Y-115827650D01*
X166659522Y-115751460D01*
X166697618Y-115713365D01*
X166773808Y-115675269D01*
X162133332Y-87702412D02*
X162399999Y-87321460D01*
X162590475Y-87702412D02*
X162590475Y-86902412D01*
X162285713Y-86902412D01*
X162209522Y-86940508D01*
X162171427Y-86978603D01*
X162133332Y-87054793D01*
X162133332Y-87169079D01*
X162171427Y-87245269D01*
X162209522Y-87283365D01*
X162285713Y-87321460D01*
X162590475Y-87321460D01*
X161752379Y-87702412D02*
X161599999Y-87702412D01*
X161523808Y-87664317D01*
X161485713Y-87626222D01*
X161409522Y-87511936D01*
X161371427Y-87359555D01*
X161371427Y-87054793D01*
X161409522Y-86978603D01*
X161447618Y-86940508D01*
X161523808Y-86902412D01*
X161676189Y-86902412D01*
X161752379Y-86940508D01*
X161790475Y-86978603D01*
X161828570Y-87054793D01*
X161828570Y-87245269D01*
X161790475Y-87321460D01*
X161752379Y-87359555D01*
X161676189Y-87397650D01*
X161523808Y-87397650D01*
X161447618Y-87359555D01*
X161409522Y-87321460D01*
X161371427Y-87245269D01*
X169114284Y-92832412D02*
X169380951Y-92451460D01*
X169571427Y-92832412D02*
X169571427Y-92032412D01*
X169266665Y-92032412D01*
X169190475Y-92070508D01*
X169152379Y-92108603D01*
X169114284Y-92184793D01*
X169114284Y-92299079D01*
X169152379Y-92375269D01*
X169190475Y-92413365D01*
X169266665Y-92451460D01*
X169571427Y-92451460D01*
X168352379Y-92832412D02*
X168809522Y-92832412D01*
X168580951Y-92832412D02*
X168580951Y-92032412D01*
X168657141Y-92146698D01*
X168733332Y-92222888D01*
X168809522Y-92260984D01*
X167857141Y-92032412D02*
X167780951Y-92032412D01*
X167704760Y-92070508D01*
X167666665Y-92108603D01*
X167628570Y-92184793D01*
X167590475Y-92337174D01*
X167590475Y-92527650D01*
X167628570Y-92680031D01*
X167666665Y-92756222D01*
X167704760Y-92794317D01*
X167780951Y-92832412D01*
X167857141Y-92832412D01*
X167933332Y-92794317D01*
X167971427Y-92756222D01*
X168009522Y-92680031D01*
X168047618Y-92527650D01*
X168047618Y-92337174D01*
X168009522Y-92184793D01*
X167971427Y-92108603D01*
X167933332Y-92070508D01*
X167857141Y-92032412D01*
X171714284Y-98232412D02*
X171980951Y-97851460D01*
X172171427Y-98232412D02*
X172171427Y-97432412D01*
X171866665Y-97432412D01*
X171790475Y-97470508D01*
X171752379Y-97508603D01*
X171714284Y-97584793D01*
X171714284Y-97699079D01*
X171752379Y-97775269D01*
X171790475Y-97813365D01*
X171866665Y-97851460D01*
X172171427Y-97851460D01*
X170952379Y-98232412D02*
X171409522Y-98232412D01*
X171180951Y-98232412D02*
X171180951Y-97432412D01*
X171257141Y-97546698D01*
X171333332Y-97622888D01*
X171409522Y-97660984D01*
X170190475Y-98232412D02*
X170647618Y-98232412D01*
X170419046Y-98232412D02*
X170419046Y-97432412D01*
X170495237Y-97546698D01*
X170571427Y-97622888D01*
X170647618Y-97660984D01*
X171714284Y-97032412D02*
X171980951Y-96651460D01*
X172171427Y-97032412D02*
X172171427Y-96232412D01*
X171866665Y-96232412D01*
X171790475Y-96270508D01*
X171752379Y-96308603D01*
X171714284Y-96384793D01*
X171714284Y-96499079D01*
X171752379Y-96575269D01*
X171790475Y-96613365D01*
X171866665Y-96651460D01*
X172171427Y-96651460D01*
X170952379Y-97032412D02*
X171409522Y-97032412D01*
X171180951Y-97032412D02*
X171180951Y-96232412D01*
X171257141Y-96346698D01*
X171333332Y-96422888D01*
X171409522Y-96460984D01*
X170647618Y-96308603D02*
X170609522Y-96270508D01*
X170533332Y-96232412D01*
X170342856Y-96232412D01*
X170266665Y-96270508D01*
X170228570Y-96308603D01*
X170190475Y-96384793D01*
X170190475Y-96460984D01*
X170228570Y-96575269D01*
X170685713Y-97032412D01*
X170190475Y-97032412D01*
X156014284Y-97532412D02*
X156280951Y-97151460D01*
X156471427Y-97532412D02*
X156471427Y-96732412D01*
X156166665Y-96732412D01*
X156090475Y-96770508D01*
X156052379Y-96808603D01*
X156014284Y-96884793D01*
X156014284Y-96999079D01*
X156052379Y-97075269D01*
X156090475Y-97113365D01*
X156166665Y-97151460D01*
X156471427Y-97151460D01*
X155252379Y-97532412D02*
X155709522Y-97532412D01*
X155480951Y-97532412D02*
X155480951Y-96732412D01*
X155557141Y-96846698D01*
X155633332Y-96922888D01*
X155709522Y-96960984D01*
X154985713Y-96732412D02*
X154490475Y-96732412D01*
X154757141Y-97037174D01*
X154642856Y-97037174D01*
X154566665Y-97075269D01*
X154528570Y-97113365D01*
X154490475Y-97189555D01*
X154490475Y-97380031D01*
X154528570Y-97456222D01*
X154566665Y-97494317D01*
X154642856Y-97532412D01*
X154871427Y-97532412D01*
X154947618Y-97494317D01*
X154985713Y-97456222D01*
X156014284Y-98832412D02*
X156280951Y-98451460D01*
X156471427Y-98832412D02*
X156471427Y-98032412D01*
X156166665Y-98032412D01*
X156090475Y-98070508D01*
X156052379Y-98108603D01*
X156014284Y-98184793D01*
X156014284Y-98299079D01*
X156052379Y-98375269D01*
X156090475Y-98413365D01*
X156166665Y-98451460D01*
X156471427Y-98451460D01*
X155252379Y-98832412D02*
X155709522Y-98832412D01*
X155480951Y-98832412D02*
X155480951Y-98032412D01*
X155557141Y-98146698D01*
X155633332Y-98222888D01*
X155709522Y-98260984D01*
X154566665Y-98299079D02*
X154566665Y-98832412D01*
X154757141Y-97994317D02*
X154947618Y-98565746D01*
X154452379Y-98565746D01*
X161814284Y-97532412D02*
X162080951Y-97151460D01*
X162271427Y-97532412D02*
X162271427Y-96732412D01*
X161966665Y-96732412D01*
X161890475Y-96770508D01*
X161852379Y-96808603D01*
X161814284Y-96884793D01*
X161814284Y-96999079D01*
X161852379Y-97075269D01*
X161890475Y-97113365D01*
X161966665Y-97151460D01*
X162271427Y-97151460D01*
X161052379Y-97532412D02*
X161509522Y-97532412D01*
X161280951Y-97532412D02*
X161280951Y-96732412D01*
X161357141Y-96846698D01*
X161433332Y-96922888D01*
X161509522Y-96960984D01*
X160328570Y-96732412D02*
X160709522Y-96732412D01*
X160747618Y-97113365D01*
X160709522Y-97075269D01*
X160633332Y-97037174D01*
X160442856Y-97037174D01*
X160366665Y-97075269D01*
X160328570Y-97113365D01*
X160290475Y-97189555D01*
X160290475Y-97380031D01*
X160328570Y-97456222D01*
X160366665Y-97494317D01*
X160442856Y-97532412D01*
X160633332Y-97532412D01*
X160709522Y-97494317D01*
X160747618Y-97456222D01*
X152361903Y-97256222D02*
X151980951Y-96989555D01*
X152361903Y-96799079D02*
X151561903Y-96799079D01*
X151561903Y-97103841D01*
X151599999Y-97180031D01*
X151638094Y-97218127D01*
X151714284Y-97256222D01*
X151828570Y-97256222D01*
X151904760Y-97218127D01*
X151942856Y-97180031D01*
X151980951Y-97103841D01*
X151980951Y-96799079D01*
X152361903Y-98018127D02*
X152361903Y-97560984D01*
X152361903Y-97789555D02*
X151561903Y-97789555D01*
X151676189Y-97713365D01*
X151752379Y-97637174D01*
X151790475Y-97560984D01*
X151561903Y-98703841D02*
X151561903Y-98551460D01*
X151599999Y-98475269D01*
X151638094Y-98437174D01*
X151752379Y-98360984D01*
X151904760Y-98322888D01*
X152209522Y-98322888D01*
X152285713Y-98360984D01*
X152323808Y-98399079D01*
X152361903Y-98475269D01*
X152361903Y-98627650D01*
X152323808Y-98703841D01*
X152285713Y-98741936D01*
X152209522Y-98780031D01*
X152019046Y-98780031D01*
X151942856Y-98741936D01*
X151904760Y-98703841D01*
X151866665Y-98627650D01*
X151866665Y-98475269D01*
X151904760Y-98399079D01*
X151942856Y-98360984D01*
X152019046Y-98322888D01*
X155014284Y-102232412D02*
X155280951Y-101851460D01*
X155471427Y-102232412D02*
X155471427Y-101432412D01*
X155166665Y-101432412D01*
X155090475Y-101470508D01*
X155052379Y-101508603D01*
X155014284Y-101584793D01*
X155014284Y-101699079D01*
X155052379Y-101775269D01*
X155090475Y-101813365D01*
X155166665Y-101851460D01*
X155471427Y-101851460D01*
X154252379Y-102232412D02*
X154709522Y-102232412D01*
X154480951Y-102232412D02*
X154480951Y-101432412D01*
X154557141Y-101546698D01*
X154633332Y-101622888D01*
X154709522Y-101660984D01*
X153985713Y-101432412D02*
X153452379Y-101432412D01*
X153795237Y-102232412D01*
X164961903Y-98556222D02*
X164580951Y-98289555D01*
X164961903Y-98099079D02*
X164161903Y-98099079D01*
X164161903Y-98403841D01*
X164199999Y-98480031D01*
X164238094Y-98518127D01*
X164314284Y-98556222D01*
X164428570Y-98556222D01*
X164504760Y-98518127D01*
X164542856Y-98480031D01*
X164580951Y-98403841D01*
X164580951Y-98099079D01*
X164961903Y-99318127D02*
X164961903Y-98860984D01*
X164961903Y-99089555D02*
X164161903Y-99089555D01*
X164276189Y-99013365D01*
X164352379Y-98937174D01*
X164390475Y-98860984D01*
X164504760Y-99775269D02*
X164466665Y-99699079D01*
X164428570Y-99660984D01*
X164352379Y-99622888D01*
X164314284Y-99622888D01*
X164238094Y-99660984D01*
X164199999Y-99699079D01*
X164161903Y-99775269D01*
X164161903Y-99927650D01*
X164199999Y-100003841D01*
X164238094Y-100041936D01*
X164314284Y-100080031D01*
X164352379Y-100080031D01*
X164428570Y-100041936D01*
X164466665Y-100003841D01*
X164504760Y-99927650D01*
X164504760Y-99775269D01*
X164542856Y-99699079D01*
X164580951Y-99660984D01*
X164657141Y-99622888D01*
X164809522Y-99622888D01*
X164885713Y-99660984D01*
X164923808Y-99699079D01*
X164961903Y-99775269D01*
X164961903Y-99927650D01*
X164923808Y-100003841D01*
X164885713Y-100041936D01*
X164809522Y-100080031D01*
X164657141Y-100080031D01*
X164580951Y-100041936D01*
X164542856Y-100003841D01*
X164504760Y-99927650D01*
X169014284Y-94132412D02*
X169280951Y-93751460D01*
X169471427Y-94132412D02*
X169471427Y-93332412D01*
X169166665Y-93332412D01*
X169090475Y-93370508D01*
X169052379Y-93408603D01*
X169014284Y-93484793D01*
X169014284Y-93599079D01*
X169052379Y-93675269D01*
X169090475Y-93713365D01*
X169166665Y-93751460D01*
X169471427Y-93751460D01*
X168709522Y-93408603D02*
X168671427Y-93370508D01*
X168595237Y-93332412D01*
X168404760Y-93332412D01*
X168328570Y-93370508D01*
X168290475Y-93408603D01*
X168252379Y-93484793D01*
X168252379Y-93560984D01*
X168290475Y-93675269D01*
X168747618Y-94132412D01*
X168252379Y-94132412D01*
X167757141Y-93332412D02*
X167680951Y-93332412D01*
X167604760Y-93370508D01*
X167566665Y-93408603D01*
X167528570Y-93484793D01*
X167490475Y-93637174D01*
X167490475Y-93827650D01*
X167528570Y-93980031D01*
X167566665Y-94056222D01*
X167604760Y-94094317D01*
X167680951Y-94132412D01*
X167757141Y-94132412D01*
X167833332Y-94094317D01*
X167871427Y-94056222D01*
X167909522Y-93980031D01*
X167947618Y-93827650D01*
X167947618Y-93637174D01*
X167909522Y-93484793D01*
X167871427Y-93408603D01*
X167833332Y-93370508D01*
X167757141Y-93332412D01*
X157109522Y-113932412D02*
X157109522Y-114580031D01*
X157071427Y-114656222D01*
X157033332Y-114694317D01*
X156957141Y-114732412D01*
X156804760Y-114732412D01*
X156728570Y-114694317D01*
X156690475Y-114656222D01*
X156652379Y-114580031D01*
X156652379Y-113932412D01*
X155852379Y-114732412D02*
X156309522Y-114732412D01*
X156080951Y-114732412D02*
X156080951Y-113932412D01*
X156157141Y-114046698D01*
X156233332Y-114122888D01*
X156309522Y-114160984D01*
X167959522Y-101882412D02*
X167959522Y-102530031D01*
X167921427Y-102606222D01*
X167883332Y-102644317D01*
X167807141Y-102682412D01*
X167654760Y-102682412D01*
X167578570Y-102644317D01*
X167540475Y-102606222D01*
X167502379Y-102530031D01*
X167502379Y-101882412D01*
X167159522Y-101958603D02*
X167121427Y-101920508D01*
X167045237Y-101882412D01*
X166854760Y-101882412D01*
X166778570Y-101920508D01*
X166740475Y-101958603D01*
X166702379Y-102034793D01*
X166702379Y-102110984D01*
X166740475Y-102225269D01*
X167197618Y-102682412D01*
X166702379Y-102682412D01*
X162209522Y-100982412D02*
X162209522Y-101630031D01*
X162171427Y-101706222D01*
X162133332Y-101744317D01*
X162057141Y-101782412D01*
X161904760Y-101782412D01*
X161828570Y-101744317D01*
X161790475Y-101706222D01*
X161752379Y-101630031D01*
X161752379Y-100982412D01*
X161447618Y-100982412D02*
X160952379Y-100982412D01*
X161219046Y-101287174D01*
X161104760Y-101287174D01*
X161028570Y-101325269D01*
X160990475Y-101363365D01*
X160952379Y-101439555D01*
X160952379Y-101630031D01*
X160990475Y-101706222D01*
X161028570Y-101744317D01*
X161104760Y-101782412D01*
X161333332Y-101782412D01*
X161409522Y-101744317D01*
X161447618Y-101706222D01*
X158259522Y-86582412D02*
X158259522Y-87230031D01*
X158221427Y-87306222D01*
X158183332Y-87344317D01*
X158107141Y-87382412D01*
X157954760Y-87382412D01*
X157878570Y-87344317D01*
X157840475Y-87306222D01*
X157802379Y-87230031D01*
X157802379Y-86582412D01*
X157040475Y-86582412D02*
X157421427Y-86582412D01*
X157459522Y-86963365D01*
X157421427Y-86925269D01*
X157345237Y-86887174D01*
X157154760Y-86887174D01*
X157078570Y-86925269D01*
X157040475Y-86963365D01*
X157002379Y-87039555D01*
X157002379Y-87230031D01*
X157040475Y-87306222D01*
X157078570Y-87344317D01*
X157154760Y-87382412D01*
X157345237Y-87382412D01*
X157421427Y-87344317D01*
X157459522Y-87306222D01*
M02*
