M48
INCH,TZ
T1C0.0118
T2C0.0236
%
G90
G05
T1
X57795Y-39831
X58228Y-39831
X58228Y-40264
X58976Y-40225
X58976Y-41996
X59055Y-37508
X59449Y-40225
X59449Y-41996
X60000Y-43177
X60236Y-40126
X60236Y-43847
X60276Y-35540
X60591Y-35815
X60669Y-33610
X60748Y-36760
X60748Y-38729
X61220Y-37941
X61260Y-36760
X61339Y-34398
X61417Y-38748
X61417Y-39201
X61417Y-39949
X61496Y-40343
X61516Y-38256
X61535Y-33610
X61811Y-34004
X61969Y-40343
X62087Y-35855
X62087Y-43020
X62402Y-31484
X62559Y-35855
X62913Y-44122
X62953Y-40146
X62992Y-41878
X62992Y-43276
X63031Y-38099
X63071Y-33256
X63071Y-34831
X63189Y-33925
X63465Y-38059
X63465Y-45382
X63504Y-47626
X63504Y-51406
X63681Y-34831
X63740Y-38374
X63740Y-39910
X63819Y-33492
X64272Y-44949
X64488Y-41051
X64685Y-36406
X64685Y-37075
X64685Y-45264
X64724Y-35973
X64724Y-45855
X64961Y-32705
X64961Y-47036
X65118Y-29555
X65472Y-39437
X65591Y-50461
X65630Y-51366
X65709Y-30028
X65787Y-35421
X65984Y-36209
X65984Y-36898
X66024Y-37587
X66024Y-41642
X66063Y-33453
X66102Y-39634
X66102Y-43138
X66142Y-32705
X66142Y-35776
X66220Y-33847
X66575Y-43965
X66575Y-44437
X66890Y-37784
X66929Y-33847
X67047Y-38453
X67087Y-41209
X67087Y-42075
X67126Y-37114
X67441Y-38847
X67441Y-40303
X67559Y-42823
X68110Y-39949
X70433Y-38886
T2
G00X56526Y-39703
M15
G01X56053Y-39703
M16
G05
G00X56526Y-41927
M15
G01X56053Y-41927
M16
G05
T0
M30
