G04 #@! TF.GenerationSoftware,KiCad,Pcbnew,5.1.4+dfsg1-1*
G04 #@! TF.CreationDate,2021-01-09T21:35:19+00:00*
G04 #@! TF.ProjectId,bike-light-board,62696b65-2d6c-4696-9768-742d626f6172,rev?*
G04 #@! TF.SameCoordinates,Original*
G04 #@! TF.FileFunction,Paste,Top*
G04 #@! TF.FilePolarity,Positive*
%FSLAX46Y46*%
G04 Gerber Fmt 4.6, Leading zero omitted, Abs format (unit mm)*
G04 Created by KiCad (PCBNEW 5.1.4+dfsg1-1) date 2021-01-09 21:35:19*
%MOMM*%
%LPD*%
G04 APERTURE LIST*
%ADD10C,0.350000*%
%ADD11C,0.975000*%
%ADD12R,1.500000X1.000000*%
G04 APERTURE END LIST*
D10*
G04 #@! TO.C,Q4*
G36*
X1205142Y948826D02*
G01*
X1228803Y945316D01*
X1252007Y939504D01*
X1274529Y931446D01*
X1296153Y921218D01*
X1316670Y908921D01*
X1335883Y894671D01*
X1353607Y878607D01*
X1369671Y860883D01*
X1383921Y841670D01*
X1396218Y821153D01*
X1406446Y799529D01*
X1414504Y777007D01*
X1420316Y753803D01*
X1423826Y730142D01*
X1425000Y706250D01*
X1425000Y-206250D01*
X1423826Y-230142D01*
X1420316Y-253803D01*
X1414504Y-277007D01*
X1406446Y-299529D01*
X1396218Y-321153D01*
X1383921Y-341670D01*
X1369671Y-360883D01*
X1353607Y-378607D01*
X1335883Y-394671D01*
X1316670Y-408921D01*
X1296153Y-421218D01*
X1274529Y-431446D01*
X1252007Y-439504D01*
X1228803Y-445316D01*
X1205142Y-448826D01*
X1181250Y-450000D01*
X693750Y-450000D01*
X669858Y-448826D01*
X646197Y-445316D01*
X622993Y-439504D01*
X600471Y-431446D01*
X578847Y-421218D01*
X558330Y-408921D01*
X539117Y-394671D01*
X521393Y-378607D01*
X505329Y-360883D01*
X491079Y-341670D01*
X478782Y-321153D01*
X468554Y-299529D01*
X460496Y-277007D01*
X454684Y-253803D01*
X451174Y-230142D01*
X450000Y-206250D01*
X450000Y706250D01*
X451174Y730142D01*
X454684Y753803D01*
X460496Y777007D01*
X468554Y799529D01*
X478782Y821153D01*
X491079Y841670D01*
X505329Y860883D01*
X521393Y878607D01*
X539117Y894671D01*
X558330Y908921D01*
X578847Y921218D01*
X600471Y931446D01*
X622993Y939504D01*
X646197Y945316D01*
X669858Y948826D01*
X693750Y950000D01*
X1181250Y950000D01*
X1205142Y948826D01*
X1205142Y948826D01*
G37*
D11*
X937500Y250000D03*
D10*
G36*
X-669858Y948826D02*
G01*
X-646197Y945316D01*
X-622993Y939504D01*
X-600471Y931446D01*
X-578847Y921218D01*
X-558330Y908921D01*
X-539117Y894671D01*
X-521393Y878607D01*
X-505329Y860883D01*
X-491079Y841670D01*
X-478782Y821153D01*
X-468554Y799529D01*
X-460496Y777007D01*
X-454684Y753803D01*
X-451174Y730142D01*
X-450000Y706250D01*
X-450000Y-206250D01*
X-451174Y-230142D01*
X-454684Y-253803D01*
X-460496Y-277007D01*
X-468554Y-299529D01*
X-478782Y-321153D01*
X-491079Y-341670D01*
X-505329Y-360883D01*
X-521393Y-378607D01*
X-539117Y-394671D01*
X-558330Y-408921D01*
X-578847Y-421218D01*
X-600471Y-431446D01*
X-622993Y-439504D01*
X-646197Y-445316D01*
X-669858Y-448826D01*
X-693750Y-450000D01*
X-1181250Y-450000D01*
X-1205142Y-448826D01*
X-1228803Y-445316D01*
X-1252007Y-439504D01*
X-1274529Y-431446D01*
X-1296153Y-421218D01*
X-1316670Y-408921D01*
X-1335883Y-394671D01*
X-1353607Y-378607D01*
X-1369671Y-360883D01*
X-1383921Y-341670D01*
X-1396218Y-321153D01*
X-1406446Y-299529D01*
X-1414504Y-277007D01*
X-1420316Y-253803D01*
X-1423826Y-230142D01*
X-1425000Y-206250D01*
X-1425000Y706250D01*
X-1423826Y730142D01*
X-1420316Y753803D01*
X-1414504Y777007D01*
X-1406446Y799529D01*
X-1396218Y821153D01*
X-1383921Y841670D01*
X-1369671Y860883D01*
X-1353607Y878607D01*
X-1335883Y894671D01*
X-1316670Y908921D01*
X-1296153Y921218D01*
X-1274529Y931446D01*
X-1252007Y939504D01*
X-1228803Y945316D01*
X-1205142Y948826D01*
X-1181250Y950000D01*
X-693750Y950000D01*
X-669858Y948826D01*
X-669858Y948826D01*
G37*
D11*
X-937500Y250000D03*
G04 #@! TD*
D12*
G04 #@! TO.C,D8*
X-2450000Y-24900000D03*
X-2450000Y-28100000D03*
X2450000Y-24900000D03*
X2450000Y-28100000D03*
G04 #@! TD*
G04 #@! TO.C,D7*
X-2450000Y-14300000D03*
X-2450000Y-17500000D03*
X2450000Y-14300000D03*
X2450000Y-17500000D03*
G04 #@! TD*
G04 #@! TO.C,D6*
X-2450000Y-3700000D03*
X-2450000Y-6900000D03*
X2450000Y-3700000D03*
X2450000Y-6900000D03*
G04 #@! TD*
G04 #@! TO.C,D5*
X-2450000Y6900000D03*
X-2450000Y3700000D03*
X2450000Y6900000D03*
X2450000Y3700000D03*
G04 #@! TD*
G04 #@! TO.C,D4*
X-2450000Y17500000D03*
X-2450000Y14300000D03*
X2450000Y17500000D03*
X2450000Y14300000D03*
G04 #@! TD*
G04 #@! TO.C,D3*
X-2450000Y28100000D03*
X-2450000Y24900000D03*
X2450000Y28100000D03*
X2450000Y24900000D03*
G04 #@! TD*
M02*
