G04 #@! TF.GenerationSoftware,KiCad,Pcbnew,5.1.4+dfsg1-1*
G04 #@! TF.CreationDate,2021-01-09T21:35:19+00:00*
G04 #@! TF.ProjectId,bike-light-board,62696b65-2d6c-4696-9768-742d626f6172,rev?*
G04 #@! TF.SameCoordinates,Original*
G04 #@! TF.FileFunction,Soldermask,Bot*
G04 #@! TF.FilePolarity,Negative*
%FSLAX46Y46*%
G04 Gerber Fmt 4.6, Leading zero omitted, Abs format (unit mm)*
G04 Created by KiCad (PCBNEW 5.1.4+dfsg1-1) date 2021-01-09 21:35:19*
%MOMM*%
%LPD*%
G04 APERTURE LIST*
%ADD10C,0.350000*%
G04 APERTURE END LIST*
D10*
G36*
X4342144Y-23454285D02*
G01*
X4390753Y-23469030D01*
X4435543Y-23492971D01*
X4474806Y-23525194D01*
X4507029Y-23564457D01*
X4530970Y-23609247D01*
X4545715Y-23657856D01*
X4551000Y-23711517D01*
X4551000Y-28288483D01*
X4545715Y-28342144D01*
X4530970Y-28390753D01*
X4507029Y-28435543D01*
X4474806Y-28474806D01*
X4435543Y-28507029D01*
X4390753Y-28530970D01*
X4342144Y-28545715D01*
X4288483Y-28551000D01*
X1711517Y-28551000D01*
X1657856Y-28545715D01*
X1609247Y-28530970D01*
X1564457Y-28507029D01*
X1525194Y-28474806D01*
X1492971Y-28435543D01*
X1469030Y-28390753D01*
X1454285Y-28342144D01*
X1449000Y-28288483D01*
X1449000Y-23711517D01*
X1454285Y-23657856D01*
X1469030Y-23609247D01*
X1492971Y-23564457D01*
X1525194Y-23525194D01*
X1564457Y-23492971D01*
X1609247Y-23469030D01*
X1657856Y-23454285D01*
X1711517Y-23449000D01*
X4288483Y-23449000D01*
X4342144Y-23454285D01*
X4342144Y-23454285D01*
G37*
G36*
X-1657856Y-23454285D02*
G01*
X-1609247Y-23469030D01*
X-1564457Y-23492971D01*
X-1525194Y-23525194D01*
X-1492971Y-23564457D01*
X-1469030Y-23609247D01*
X-1454285Y-23657856D01*
X-1449000Y-23711517D01*
X-1449000Y-28288483D01*
X-1454285Y-28342144D01*
X-1469030Y-28390753D01*
X-1492971Y-28435543D01*
X-1525194Y-28474806D01*
X-1564457Y-28507029D01*
X-1609247Y-28530970D01*
X-1657856Y-28545715D01*
X-1711517Y-28551000D01*
X-4288483Y-28551000D01*
X-4342144Y-28545715D01*
X-4390753Y-28530970D01*
X-4435543Y-28507029D01*
X-4474806Y-28474806D01*
X-4507029Y-28435543D01*
X-4530970Y-28390753D01*
X-4545715Y-28342144D01*
X-4551000Y-28288483D01*
X-4551000Y-23711517D01*
X-4545715Y-23657856D01*
X-4530970Y-23609247D01*
X-4507029Y-23564457D01*
X-4474806Y-23525194D01*
X-4435543Y-23492971D01*
X-4390753Y-23469030D01*
X-4342144Y-23454285D01*
X-4288483Y-23449000D01*
X-1711517Y-23449000D01*
X-1657856Y-23454285D01*
X-1657856Y-23454285D01*
G37*
G36*
X4151000Y-21301000D02*
G01*
X2549000Y-21301000D01*
X2549000Y-17799000D01*
X4151000Y-17799000D01*
X4151000Y-21301000D01*
X4151000Y-21301000D01*
G37*
G36*
X-2549000Y-21301000D02*
G01*
X-4151000Y-21301000D01*
X-4151000Y-17799000D01*
X-2549000Y-17799000D01*
X-2549000Y-21301000D01*
X-2549000Y-21301000D01*
G37*
G36*
X-449000Y-15801000D02*
G01*
X-1551000Y-15801000D01*
X-1551000Y-12199000D01*
X-449000Y-12199000D01*
X-449000Y-15801000D01*
X-449000Y-15801000D01*
G37*
G36*
X1551000Y-15801000D02*
G01*
X449000Y-15801000D01*
X449000Y-12199000D01*
X1551000Y-12199000D01*
X1551000Y-15801000D01*
X1551000Y-15801000D01*
G37*
G36*
X6967247Y-10382015D02*
G01*
X6993684Y-10390035D01*
X7018053Y-10403060D01*
X7039411Y-10420589D01*
X7056940Y-10441947D01*
X7069965Y-10466316D01*
X7077985Y-10492753D01*
X7081000Y-10523367D01*
X7081000Y-10976633D01*
X7077985Y-11007247D01*
X7069965Y-11033684D01*
X7056940Y-11058053D01*
X7039411Y-11079411D01*
X7018053Y-11096940D01*
X6993684Y-11109965D01*
X6967247Y-11117985D01*
X6936633Y-11121000D01*
X6533367Y-11121000D01*
X6502753Y-11117985D01*
X6476316Y-11109965D01*
X6451947Y-11096940D01*
X6430589Y-11079411D01*
X6413060Y-11058053D01*
X6400035Y-11033684D01*
X6392015Y-11007247D01*
X6389000Y-10976633D01*
X6389000Y-10523367D01*
X6392015Y-10492753D01*
X6400035Y-10466316D01*
X6413060Y-10441947D01*
X6430589Y-10420589D01*
X6451947Y-10403060D01*
X6476316Y-10390035D01*
X6502753Y-10382015D01*
X6533367Y-10379000D01*
X6936633Y-10379000D01*
X6967247Y-10382015D01*
X6967247Y-10382015D01*
G37*
G36*
X5997247Y-10382015D02*
G01*
X6023684Y-10390035D01*
X6048053Y-10403060D01*
X6069411Y-10420589D01*
X6086940Y-10441947D01*
X6099965Y-10466316D01*
X6107985Y-10492753D01*
X6111000Y-10523367D01*
X6111000Y-10976633D01*
X6107985Y-11007247D01*
X6099965Y-11033684D01*
X6086940Y-11058053D01*
X6069411Y-11079411D01*
X6048053Y-11096940D01*
X6023684Y-11109965D01*
X5997247Y-11117985D01*
X5966633Y-11121000D01*
X5563367Y-11121000D01*
X5532753Y-11117985D01*
X5506316Y-11109965D01*
X5481947Y-11096940D01*
X5460589Y-11079411D01*
X5443060Y-11058053D01*
X5430035Y-11033684D01*
X5422015Y-11007247D01*
X5419000Y-10976633D01*
X5419000Y-10523367D01*
X5422015Y-10492753D01*
X5430035Y-10466316D01*
X5443060Y-10441947D01*
X5460589Y-10420589D01*
X5481947Y-10403060D01*
X5506316Y-10390035D01*
X5532753Y-10382015D01*
X5563367Y-10379000D01*
X5966633Y-10379000D01*
X5997247Y-10382015D01*
X5997247Y-10382015D01*
G37*
G36*
X-6145106Y-8803384D02*
G01*
X-6105295Y-8815460D01*
X-6068610Y-8835069D01*
X-6036456Y-8861456D01*
X-6010069Y-8893610D01*
X-5990460Y-8930295D01*
X-5978384Y-8970106D01*
X-5974000Y-9014617D01*
X-5974000Y-9560383D01*
X-5978384Y-9604894D01*
X-5990460Y-9644705D01*
X-6010069Y-9681390D01*
X-6036456Y-9713544D01*
X-6068610Y-9739931D01*
X-6105295Y-9759540D01*
X-6145106Y-9771616D01*
X-6189617Y-9776000D01*
X-6810383Y-9776000D01*
X-6854894Y-9771616D01*
X-6894705Y-9759540D01*
X-6931390Y-9739931D01*
X-6963544Y-9713544D01*
X-6989931Y-9681390D01*
X-7009540Y-9644705D01*
X-7021616Y-9604894D01*
X-7026000Y-9560383D01*
X-7026000Y-9014617D01*
X-7021616Y-8970106D01*
X-7009540Y-8930295D01*
X-6989931Y-8893610D01*
X-6963544Y-8861456D01*
X-6931390Y-8835069D01*
X-6894705Y-8815460D01*
X-6854894Y-8803384D01*
X-6810383Y-8799000D01*
X-6189617Y-8799000D01*
X-6145106Y-8803384D01*
X-6145106Y-8803384D01*
G37*
G36*
X-3824000Y-9681000D02*
G01*
X-4576000Y-9681000D01*
X-4576000Y-8519000D01*
X-3824000Y-8519000D01*
X-3824000Y-9681000D01*
X-3824000Y-9681000D01*
G37*
G36*
X-2874000Y-9681000D02*
G01*
X-3626000Y-9681000D01*
X-3626000Y-8519000D01*
X-2874000Y-8519000D01*
X-2874000Y-9681000D01*
X-2874000Y-9681000D01*
G37*
G36*
X-1924000Y-9681000D02*
G01*
X-2676000Y-9681000D01*
X-2676000Y-8519000D01*
X-1924000Y-8519000D01*
X-1924000Y-9681000D01*
X-1924000Y-9681000D01*
G37*
G36*
X731000Y-9326000D02*
G01*
X-431000Y-9326000D01*
X-431000Y-8574000D01*
X731000Y-8574000D01*
X731000Y-9326000D01*
X731000Y-9326000D01*
G37*
G36*
X2931000Y-9326000D02*
G01*
X1769000Y-9326000D01*
X1769000Y-8574000D01*
X2931000Y-8574000D01*
X2931000Y-9326000D01*
X2931000Y-9326000D01*
G37*
G36*
X7431000Y-9326000D02*
G01*
X6269000Y-9326000D01*
X6269000Y-8574000D01*
X7431000Y-8574000D01*
X7431000Y-9326000D01*
X7431000Y-9326000D01*
G37*
G36*
X5231000Y-9326000D02*
G01*
X4069000Y-9326000D01*
X4069000Y-8574000D01*
X5231000Y-8574000D01*
X5231000Y-9326000D01*
X5231000Y-9326000D01*
G37*
G36*
X731000Y-8376000D02*
G01*
X-431000Y-8376000D01*
X-431000Y-7624000D01*
X731000Y-7624000D01*
X731000Y-8376000D01*
X731000Y-8376000D01*
G37*
G36*
X2931000Y-8376000D02*
G01*
X1769000Y-8376000D01*
X1769000Y-7624000D01*
X2931000Y-7624000D01*
X2931000Y-8376000D01*
X2931000Y-8376000D01*
G37*
G36*
X7431000Y-8376000D02*
G01*
X6269000Y-8376000D01*
X6269000Y-7624000D01*
X7431000Y-7624000D01*
X7431000Y-8376000D01*
X7431000Y-8376000D01*
G37*
G36*
X5231000Y-8376000D02*
G01*
X4069000Y-8376000D01*
X4069000Y-7624000D01*
X5231000Y-7624000D01*
X5231000Y-8376000D01*
X5231000Y-8376000D01*
G37*
G36*
X-6145106Y-7228384D02*
G01*
X-6105295Y-7240460D01*
X-6068610Y-7260069D01*
X-6036456Y-7286456D01*
X-6010069Y-7318610D01*
X-5990460Y-7355295D01*
X-5978384Y-7395106D01*
X-5974000Y-7439617D01*
X-5974000Y-7985383D01*
X-5978384Y-8029894D01*
X-5990460Y-8069705D01*
X-6010069Y-8106390D01*
X-6036456Y-8138544D01*
X-6068610Y-8164931D01*
X-6105295Y-8184540D01*
X-6145106Y-8196616D01*
X-6189617Y-8201000D01*
X-6810383Y-8201000D01*
X-6854894Y-8196616D01*
X-6894705Y-8184540D01*
X-6931390Y-8164931D01*
X-6963544Y-8138544D01*
X-6989931Y-8106390D01*
X-7009540Y-8069705D01*
X-7021616Y-8029894D01*
X-7026000Y-7985383D01*
X-7026000Y-7439617D01*
X-7021616Y-7395106D01*
X-7009540Y-7355295D01*
X-6989931Y-7318610D01*
X-6963544Y-7286456D01*
X-6931390Y-7260069D01*
X-6894705Y-7240460D01*
X-6854894Y-7228384D01*
X-6810383Y-7224000D01*
X-6189617Y-7224000D01*
X-6145106Y-7228384D01*
X-6145106Y-7228384D01*
G37*
G36*
X-3824000Y-7481000D02*
G01*
X-4576000Y-7481000D01*
X-4576000Y-6319000D01*
X-3824000Y-6319000D01*
X-3824000Y-7481000D01*
X-3824000Y-7481000D01*
G37*
G36*
X-1924000Y-7481000D02*
G01*
X-2676000Y-7481000D01*
X-2676000Y-6319000D01*
X-1924000Y-6319000D01*
X-1924000Y-7481000D01*
X-1924000Y-7481000D01*
G37*
G36*
X5231000Y-7426000D02*
G01*
X4069000Y-7426000D01*
X4069000Y-6674000D01*
X5231000Y-6674000D01*
X5231000Y-7426000D01*
X5231000Y-7426000D01*
G37*
G36*
X2931000Y-7426000D02*
G01*
X1769000Y-7426000D01*
X1769000Y-6674000D01*
X2931000Y-6674000D01*
X2931000Y-7426000D01*
X2931000Y-7426000D01*
G37*
G36*
X731000Y-7426000D02*
G01*
X-431000Y-7426000D01*
X-431000Y-6674000D01*
X731000Y-6674000D01*
X731000Y-7426000D01*
X731000Y-7426000D01*
G37*
G36*
X7431000Y-7426000D02*
G01*
X6269000Y-7426000D01*
X6269000Y-6674000D01*
X7431000Y-6674000D01*
X7431000Y-7426000D01*
X7431000Y-7426000D01*
G37*
G36*
X-6992753Y-5642015D02*
G01*
X-6966316Y-5650035D01*
X-6941947Y-5663060D01*
X-6920589Y-5680589D01*
X-6903060Y-5701947D01*
X-6890035Y-5726316D01*
X-6882015Y-5752753D01*
X-6879000Y-5783367D01*
X-6879000Y-6186633D01*
X-6882015Y-6217247D01*
X-6890035Y-6243684D01*
X-6903060Y-6268053D01*
X-6920589Y-6289411D01*
X-6941947Y-6306940D01*
X-6966316Y-6319965D01*
X-6992753Y-6327985D01*
X-7023367Y-6331000D01*
X-7476633Y-6331000D01*
X-7507247Y-6327985D01*
X-7533684Y-6319965D01*
X-7558053Y-6306940D01*
X-7579411Y-6289411D01*
X-7596940Y-6268053D01*
X-7609965Y-6243684D01*
X-7617985Y-6217247D01*
X-7621000Y-6186633D01*
X-7621000Y-5783367D01*
X-7617985Y-5752753D01*
X-7609965Y-5726316D01*
X-7596940Y-5701947D01*
X-7579411Y-5680589D01*
X-7558053Y-5663060D01*
X-7533684Y-5650035D01*
X-7507247Y-5642015D01*
X-7476633Y-5639000D01*
X-7023367Y-5639000D01*
X-6992753Y-5642015D01*
X-6992753Y-5642015D01*
G37*
G36*
X5967247Y-4632015D02*
G01*
X5993684Y-4640035D01*
X6018053Y-4653060D01*
X6039411Y-4670589D01*
X6056940Y-4691947D01*
X6069965Y-4716316D01*
X6077985Y-4742753D01*
X6081000Y-4773367D01*
X6081000Y-5226633D01*
X6077985Y-5257247D01*
X6069965Y-5283684D01*
X6056940Y-5308053D01*
X6039411Y-5329411D01*
X6018053Y-5346940D01*
X5993684Y-5359965D01*
X5967247Y-5367985D01*
X5936633Y-5371000D01*
X5533367Y-5371000D01*
X5502753Y-5367985D01*
X5476316Y-5359965D01*
X5451947Y-5346940D01*
X5430589Y-5329411D01*
X5413060Y-5308053D01*
X5400035Y-5283684D01*
X5392015Y-5257247D01*
X5389000Y-5226633D01*
X5389000Y-4773367D01*
X5392015Y-4742753D01*
X5400035Y-4716316D01*
X5413060Y-4691947D01*
X5430589Y-4670589D01*
X5451947Y-4653060D01*
X5476316Y-4640035D01*
X5502753Y-4632015D01*
X5533367Y-4629000D01*
X5936633Y-4629000D01*
X5967247Y-4632015D01*
X5967247Y-4632015D01*
G37*
G36*
X4997247Y-4632015D02*
G01*
X5023684Y-4640035D01*
X5048053Y-4653060D01*
X5069411Y-4670589D01*
X5086940Y-4691947D01*
X5099965Y-4716316D01*
X5107985Y-4742753D01*
X5111000Y-4773367D01*
X5111000Y-5226633D01*
X5107985Y-5257247D01*
X5099965Y-5283684D01*
X5086940Y-5308053D01*
X5069411Y-5329411D01*
X5048053Y-5346940D01*
X5023684Y-5359965D01*
X4997247Y-5367985D01*
X4966633Y-5371000D01*
X4563367Y-5371000D01*
X4532753Y-5367985D01*
X4506316Y-5359965D01*
X4481947Y-5346940D01*
X4460589Y-5329411D01*
X4443060Y-5308053D01*
X4430035Y-5283684D01*
X4422015Y-5257247D01*
X4419000Y-5226633D01*
X4419000Y-4773367D01*
X4422015Y-4742753D01*
X4430035Y-4716316D01*
X4443060Y-4691947D01*
X4460589Y-4670589D01*
X4481947Y-4653060D01*
X4506316Y-4640035D01*
X4532753Y-4632015D01*
X4563367Y-4629000D01*
X4966633Y-4629000D01*
X4997247Y-4632015D01*
X4997247Y-4632015D01*
G37*
G36*
X-2002753Y-4632015D02*
G01*
X-1976316Y-4640035D01*
X-1951947Y-4653060D01*
X-1930589Y-4670589D01*
X-1913060Y-4691947D01*
X-1900035Y-4716316D01*
X-1892015Y-4742753D01*
X-1889000Y-4773367D01*
X-1889000Y-5226633D01*
X-1892015Y-5257247D01*
X-1900035Y-5283684D01*
X-1913060Y-5308053D01*
X-1930589Y-5329411D01*
X-1951947Y-5346940D01*
X-1976316Y-5359965D01*
X-2002753Y-5367985D01*
X-2033367Y-5371000D01*
X-2436633Y-5371000D01*
X-2467247Y-5367985D01*
X-2493684Y-5359965D01*
X-2518053Y-5346940D01*
X-2539411Y-5329411D01*
X-2556940Y-5308053D01*
X-2569965Y-5283684D01*
X-2577985Y-5257247D01*
X-2581000Y-5226633D01*
X-2581000Y-4773367D01*
X-2577985Y-4742753D01*
X-2569965Y-4716316D01*
X-2556940Y-4691947D01*
X-2539411Y-4670589D01*
X-2518053Y-4653060D01*
X-2493684Y-4640035D01*
X-2467247Y-4632015D01*
X-2436633Y-4629000D01*
X-2033367Y-4629000D01*
X-2002753Y-4632015D01*
X-2002753Y-4632015D01*
G37*
G36*
X-1032753Y-4632015D02*
G01*
X-1006316Y-4640035D01*
X-981947Y-4653060D01*
X-960589Y-4670589D01*
X-943060Y-4691947D01*
X-930035Y-4716316D01*
X-922015Y-4742753D01*
X-919000Y-4773367D01*
X-919000Y-5226633D01*
X-922015Y-5257247D01*
X-930035Y-5283684D01*
X-943060Y-5308053D01*
X-960589Y-5329411D01*
X-981947Y-5346940D01*
X-1006316Y-5359965D01*
X-1032753Y-5367985D01*
X-1063367Y-5371000D01*
X-1466633Y-5371000D01*
X-1497247Y-5367985D01*
X-1523684Y-5359965D01*
X-1548053Y-5346940D01*
X-1569411Y-5329411D01*
X-1586940Y-5308053D01*
X-1599965Y-5283684D01*
X-1607985Y-5257247D01*
X-1611000Y-5226633D01*
X-1611000Y-4773367D01*
X-1607985Y-4742753D01*
X-1599965Y-4716316D01*
X-1586940Y-4691947D01*
X-1569411Y-4670589D01*
X-1548053Y-4653060D01*
X-1523684Y-4640035D01*
X-1497247Y-4632015D01*
X-1466633Y-4629000D01*
X-1063367Y-4629000D01*
X-1032753Y-4632015D01*
X-1032753Y-4632015D01*
G37*
G36*
X1217247Y-4632015D02*
G01*
X1243684Y-4640035D01*
X1268053Y-4653060D01*
X1289411Y-4670589D01*
X1306940Y-4691947D01*
X1319965Y-4716316D01*
X1327985Y-4742753D01*
X1331000Y-4773367D01*
X1331000Y-5226633D01*
X1327985Y-5257247D01*
X1319965Y-5283684D01*
X1306940Y-5308053D01*
X1289411Y-5329411D01*
X1268053Y-5346940D01*
X1243684Y-5359965D01*
X1217247Y-5367985D01*
X1186633Y-5371000D01*
X783367Y-5371000D01*
X752753Y-5367985D01*
X726316Y-5359965D01*
X701947Y-5346940D01*
X680589Y-5329411D01*
X663060Y-5308053D01*
X650035Y-5283684D01*
X642015Y-5257247D01*
X639000Y-5226633D01*
X639000Y-4773367D01*
X642015Y-4742753D01*
X650035Y-4716316D01*
X663060Y-4691947D01*
X680589Y-4670589D01*
X701947Y-4653060D01*
X726316Y-4640035D01*
X752753Y-4632015D01*
X783367Y-4629000D01*
X1186633Y-4629000D01*
X1217247Y-4632015D01*
X1217247Y-4632015D01*
G37*
G36*
X247247Y-4632015D02*
G01*
X273684Y-4640035D01*
X298053Y-4653060D01*
X319411Y-4670589D01*
X336940Y-4691947D01*
X349965Y-4716316D01*
X357985Y-4742753D01*
X361000Y-4773367D01*
X361000Y-5226633D01*
X357985Y-5257247D01*
X349965Y-5283684D01*
X336940Y-5308053D01*
X319411Y-5329411D01*
X298053Y-5346940D01*
X273684Y-5359965D01*
X247247Y-5367985D01*
X216633Y-5371000D01*
X-186633Y-5371000D01*
X-217247Y-5367985D01*
X-243684Y-5359965D01*
X-268053Y-5346940D01*
X-289411Y-5329411D01*
X-306940Y-5308053D01*
X-319965Y-5283684D01*
X-327985Y-5257247D01*
X-331000Y-5226633D01*
X-331000Y-4773367D01*
X-327985Y-4742753D01*
X-319965Y-4716316D01*
X-306940Y-4691947D01*
X-289411Y-4670589D01*
X-268053Y-4653060D01*
X-243684Y-4640035D01*
X-217247Y-4632015D01*
X-186633Y-4629000D01*
X216633Y-4629000D01*
X247247Y-4632015D01*
X247247Y-4632015D01*
G37*
G36*
X-6992753Y-4672015D02*
G01*
X-6966316Y-4680035D01*
X-6941947Y-4693060D01*
X-6920589Y-4710589D01*
X-6903060Y-4731947D01*
X-6890035Y-4756316D01*
X-6882015Y-4782753D01*
X-6879000Y-4813367D01*
X-6879000Y-5216633D01*
X-6882015Y-5247247D01*
X-6890035Y-5273684D01*
X-6903060Y-5298053D01*
X-6920589Y-5319411D01*
X-6941947Y-5336940D01*
X-6966316Y-5349965D01*
X-6992753Y-5357985D01*
X-7023367Y-5361000D01*
X-7476633Y-5361000D01*
X-7507247Y-5357985D01*
X-7533684Y-5349965D01*
X-7558053Y-5336940D01*
X-7579411Y-5319411D01*
X-7596940Y-5298053D01*
X-7609965Y-5273684D01*
X-7617985Y-5247247D01*
X-7621000Y-5216633D01*
X-7621000Y-4813367D01*
X-7617985Y-4782753D01*
X-7609965Y-4756316D01*
X-7596940Y-4731947D01*
X-7579411Y-4710589D01*
X-7558053Y-4693060D01*
X-7533684Y-4680035D01*
X-7507247Y-4672015D01*
X-7476633Y-4669000D01*
X-7023367Y-4669000D01*
X-6992753Y-4672015D01*
X-6992753Y-4672015D01*
G37*
G36*
X-5220106Y-4228384D02*
G01*
X-5180295Y-4240460D01*
X-5143610Y-4260069D01*
X-5111456Y-4286456D01*
X-5085069Y-4318610D01*
X-5065460Y-4355295D01*
X-5053384Y-4395106D01*
X-5049000Y-4439617D01*
X-5049000Y-5060383D01*
X-5053384Y-5104894D01*
X-5065460Y-5144705D01*
X-5085069Y-5181390D01*
X-5111456Y-5213544D01*
X-5143610Y-5239931D01*
X-5180295Y-5259540D01*
X-5220106Y-5271616D01*
X-5264617Y-5276000D01*
X-5810383Y-5276000D01*
X-5854894Y-5271616D01*
X-5894705Y-5259540D01*
X-5931390Y-5239931D01*
X-5963544Y-5213544D01*
X-5989931Y-5181390D01*
X-6009540Y-5144705D01*
X-6021616Y-5104894D01*
X-6026000Y-5060383D01*
X-6026000Y-4439617D01*
X-6021616Y-4395106D01*
X-6009540Y-4355295D01*
X-5989931Y-4318610D01*
X-5963544Y-4286456D01*
X-5931390Y-4260069D01*
X-5894705Y-4240460D01*
X-5854894Y-4228384D01*
X-5810383Y-4224000D01*
X-5264617Y-4224000D01*
X-5220106Y-4228384D01*
X-5220106Y-4228384D01*
G37*
G36*
X8354894Y-4303384D02*
G01*
X8394705Y-4315460D01*
X8431390Y-4335069D01*
X8463544Y-4361456D01*
X8489931Y-4393610D01*
X8509540Y-4430295D01*
X8521616Y-4470106D01*
X8526000Y-4514617D01*
X8526000Y-5060383D01*
X8521616Y-5104894D01*
X8509540Y-5144705D01*
X8489931Y-5181390D01*
X8463544Y-5213544D01*
X8431390Y-5239931D01*
X8394705Y-5259540D01*
X8354894Y-5271616D01*
X8310383Y-5276000D01*
X7689617Y-5276000D01*
X7645106Y-5271616D01*
X7605295Y-5259540D01*
X7568610Y-5239931D01*
X7536456Y-5213544D01*
X7510069Y-5181390D01*
X7490460Y-5144705D01*
X7478384Y-5104894D01*
X7474000Y-5060383D01*
X7474000Y-4514617D01*
X7478384Y-4470106D01*
X7490460Y-4430295D01*
X7510069Y-4393610D01*
X7536456Y-4361456D01*
X7568610Y-4335069D01*
X7605295Y-4315460D01*
X7645106Y-4303384D01*
X7689617Y-4299000D01*
X8310383Y-4299000D01*
X8354894Y-4303384D01*
X8354894Y-4303384D01*
G37*
G36*
X-3645106Y-4228384D02*
G01*
X-3605295Y-4240460D01*
X-3568610Y-4260069D01*
X-3536456Y-4286456D01*
X-3510069Y-4318610D01*
X-3490460Y-4355295D01*
X-3478384Y-4395106D01*
X-3474000Y-4439617D01*
X-3474000Y-5060383D01*
X-3478384Y-5104894D01*
X-3490460Y-5144705D01*
X-3510069Y-5181390D01*
X-3536456Y-5213544D01*
X-3568610Y-5239931D01*
X-3605295Y-5259540D01*
X-3645106Y-5271616D01*
X-3689617Y-5276000D01*
X-4235383Y-5276000D01*
X-4279894Y-5271616D01*
X-4319705Y-5259540D01*
X-4356390Y-5239931D01*
X-4388544Y-5213544D01*
X-4414931Y-5181390D01*
X-4434540Y-5144705D01*
X-4446616Y-5104894D01*
X-4451000Y-5060383D01*
X-4451000Y-4439617D01*
X-4446616Y-4395106D01*
X-4434540Y-4355295D01*
X-4414931Y-4318610D01*
X-4388544Y-4286456D01*
X-4356390Y-4260069D01*
X-4319705Y-4240460D01*
X-4279894Y-4228384D01*
X-4235383Y-4224000D01*
X-3689617Y-4224000D01*
X-3645106Y-4228384D01*
X-3645106Y-4228384D01*
G37*
G36*
X-14852977Y-2785590D02*
G01*
X-14701988Y-2831392D01*
X-14701985Y-2831393D01*
X-14562834Y-2905771D01*
X-14440867Y-3005867D01*
X-14340771Y-3127834D01*
X-14266393Y-3266985D01*
X-14266392Y-3266988D01*
X-14220590Y-3417977D01*
X-14205125Y-3575000D01*
X-14220590Y-3732023D01*
X-14266392Y-3883012D01*
X-14266393Y-3883015D01*
X-14340771Y-4022166D01*
X-14440867Y-4144133D01*
X-14562834Y-4244229D01*
X-14701985Y-4318607D01*
X-14701988Y-4318608D01*
X-14852977Y-4364410D01*
X-14970655Y-4376000D01*
X-15849345Y-4376000D01*
X-15967023Y-4364410D01*
X-16118012Y-4318608D01*
X-16118015Y-4318607D01*
X-16257166Y-4244229D01*
X-16379133Y-4144133D01*
X-16479229Y-4022166D01*
X-16553607Y-3883015D01*
X-16553608Y-3883012D01*
X-16599410Y-3732023D01*
X-16614875Y-3575000D01*
X-16599410Y-3417977D01*
X-16553608Y-3266988D01*
X-16553607Y-3266985D01*
X-16479229Y-3127834D01*
X-16379133Y-3005867D01*
X-16257166Y-2905771D01*
X-16118015Y-2831393D01*
X-16118012Y-2831392D01*
X-15967023Y-2785590D01*
X-15849345Y-2774000D01*
X-14970655Y-2774000D01*
X-14852977Y-2785590D01*
X-14852977Y-2785590D01*
G37*
G36*
X-18592977Y-2785590D02*
G01*
X-18441988Y-2831392D01*
X-18441985Y-2831393D01*
X-18302834Y-2905771D01*
X-18180867Y-3005867D01*
X-18080771Y-3127834D01*
X-18006393Y-3266985D01*
X-18006392Y-3266988D01*
X-17960590Y-3417977D01*
X-17945125Y-3575000D01*
X-17960590Y-3732023D01*
X-18006392Y-3883012D01*
X-18006393Y-3883015D01*
X-18080771Y-4022166D01*
X-18180867Y-4144133D01*
X-18302834Y-4244229D01*
X-18441985Y-4318607D01*
X-18441988Y-4318608D01*
X-18592977Y-4364410D01*
X-18710655Y-4376000D01*
X-18989345Y-4376000D01*
X-19107023Y-4364410D01*
X-19258012Y-4318608D01*
X-19258015Y-4318607D01*
X-19397166Y-4244229D01*
X-19519133Y-4144133D01*
X-19619229Y-4022166D01*
X-19693607Y-3883015D01*
X-19693608Y-3883012D01*
X-19739410Y-3732023D01*
X-19754875Y-3575000D01*
X-19739410Y-3417977D01*
X-19693608Y-3266988D01*
X-19693607Y-3266985D01*
X-19619229Y-3127834D01*
X-19519133Y-3005867D01*
X-19397166Y-2905771D01*
X-19258015Y-2831393D01*
X-19258012Y-2831392D01*
X-19107023Y-2785590D01*
X-18989345Y-2774000D01*
X-18710655Y-2774000D01*
X-18592977Y-2785590D01*
X-18592977Y-2785590D01*
G37*
G36*
X247247Y-3382015D02*
G01*
X273684Y-3390035D01*
X298053Y-3403060D01*
X319411Y-3420589D01*
X336940Y-3441947D01*
X349965Y-3466316D01*
X357985Y-3492753D01*
X361000Y-3523367D01*
X361000Y-3976633D01*
X357985Y-4007247D01*
X349965Y-4033684D01*
X336940Y-4058053D01*
X319411Y-4079411D01*
X298053Y-4096940D01*
X273684Y-4109965D01*
X247247Y-4117985D01*
X216633Y-4121000D01*
X-186633Y-4121000D01*
X-217247Y-4117985D01*
X-243684Y-4109965D01*
X-268053Y-4096940D01*
X-289411Y-4079411D01*
X-306940Y-4058053D01*
X-319965Y-4033684D01*
X-327985Y-4007247D01*
X-331000Y-3976633D01*
X-331000Y-3523367D01*
X-327985Y-3492753D01*
X-319965Y-3466316D01*
X-306940Y-3441947D01*
X-289411Y-3420589D01*
X-268053Y-3403060D01*
X-243684Y-3390035D01*
X-217247Y-3382015D01*
X-186633Y-3379000D01*
X216633Y-3379000D01*
X247247Y-3382015D01*
X247247Y-3382015D01*
G37*
G36*
X4997247Y-3382015D02*
G01*
X5023684Y-3390035D01*
X5048053Y-3403060D01*
X5069411Y-3420589D01*
X5086940Y-3441947D01*
X5099965Y-3466316D01*
X5107985Y-3492753D01*
X5111000Y-3523367D01*
X5111000Y-3976633D01*
X5107985Y-4007247D01*
X5099965Y-4033684D01*
X5086940Y-4058053D01*
X5069411Y-4079411D01*
X5048053Y-4096940D01*
X5023684Y-4109965D01*
X4997247Y-4117985D01*
X4966633Y-4121000D01*
X4563367Y-4121000D01*
X4532753Y-4117985D01*
X4506316Y-4109965D01*
X4481947Y-4096940D01*
X4460589Y-4079411D01*
X4443060Y-4058053D01*
X4430035Y-4033684D01*
X4422015Y-4007247D01*
X4419000Y-3976633D01*
X4419000Y-3523367D01*
X4422015Y-3492753D01*
X4430035Y-3466316D01*
X4443060Y-3441947D01*
X4460589Y-3420589D01*
X4481947Y-3403060D01*
X4506316Y-3390035D01*
X4532753Y-3382015D01*
X4563367Y-3379000D01*
X4966633Y-3379000D01*
X4997247Y-3382015D01*
X4997247Y-3382015D01*
G37*
G36*
X5967247Y-3382015D02*
G01*
X5993684Y-3390035D01*
X6018053Y-3403060D01*
X6039411Y-3420589D01*
X6056940Y-3441947D01*
X6069965Y-3466316D01*
X6077985Y-3492753D01*
X6081000Y-3523367D01*
X6081000Y-3976633D01*
X6077985Y-4007247D01*
X6069965Y-4033684D01*
X6056940Y-4058053D01*
X6039411Y-4079411D01*
X6018053Y-4096940D01*
X5993684Y-4109965D01*
X5967247Y-4117985D01*
X5936633Y-4121000D01*
X5533367Y-4121000D01*
X5502753Y-4117985D01*
X5476316Y-4109965D01*
X5451947Y-4096940D01*
X5430589Y-4079411D01*
X5413060Y-4058053D01*
X5400035Y-4033684D01*
X5392015Y-4007247D01*
X5389000Y-3976633D01*
X5389000Y-3523367D01*
X5392015Y-3492753D01*
X5400035Y-3466316D01*
X5413060Y-3441947D01*
X5430589Y-3420589D01*
X5451947Y-3403060D01*
X5476316Y-3390035D01*
X5502753Y-3382015D01*
X5533367Y-3379000D01*
X5936633Y-3379000D01*
X5967247Y-3382015D01*
X5967247Y-3382015D01*
G37*
G36*
X1217247Y-3382015D02*
G01*
X1243684Y-3390035D01*
X1268053Y-3403060D01*
X1289411Y-3420589D01*
X1306940Y-3441947D01*
X1319965Y-3466316D01*
X1327985Y-3492753D01*
X1331000Y-3523367D01*
X1331000Y-3976633D01*
X1327985Y-4007247D01*
X1319965Y-4033684D01*
X1306940Y-4058053D01*
X1289411Y-4079411D01*
X1268053Y-4096940D01*
X1243684Y-4109965D01*
X1217247Y-4117985D01*
X1186633Y-4121000D01*
X783367Y-4121000D01*
X752753Y-4117985D01*
X726316Y-4109965D01*
X701947Y-4096940D01*
X680589Y-4079411D01*
X663060Y-4058053D01*
X650035Y-4033684D01*
X642015Y-4007247D01*
X639000Y-3976633D01*
X639000Y-3523367D01*
X642015Y-3492753D01*
X650035Y-3466316D01*
X663060Y-3441947D01*
X680589Y-3420589D01*
X701947Y-3403060D01*
X726316Y-3390035D01*
X752753Y-3382015D01*
X783367Y-3379000D01*
X1186633Y-3379000D01*
X1217247Y-3382015D01*
X1217247Y-3382015D01*
G37*
G36*
X18451000Y-4051000D02*
G01*
X17349000Y-4051000D01*
X17349000Y-2249000D01*
X18451000Y-2249000D01*
X18451000Y-4051000D01*
X18451000Y-4051000D01*
G37*
G36*
X14651000Y-4051000D02*
G01*
X13549000Y-4051000D01*
X13549000Y-2249000D01*
X14651000Y-2249000D01*
X14651000Y-4051000D01*
X14651000Y-4051000D01*
G37*
G36*
X-8470106Y-2728384D02*
G01*
X-8430295Y-2740460D01*
X-8393610Y-2760069D01*
X-8361456Y-2786456D01*
X-8335069Y-2818610D01*
X-8315460Y-2855295D01*
X-8303384Y-2895106D01*
X-8299000Y-2939617D01*
X-8299000Y-3560383D01*
X-8303384Y-3604894D01*
X-8315460Y-3644705D01*
X-8335069Y-3681390D01*
X-8361456Y-3713544D01*
X-8393610Y-3739931D01*
X-8430295Y-3759540D01*
X-8470106Y-3771616D01*
X-8514617Y-3776000D01*
X-9060383Y-3776000D01*
X-9104894Y-3771616D01*
X-9144705Y-3759540D01*
X-9181390Y-3739931D01*
X-9213544Y-3713544D01*
X-9239931Y-3681390D01*
X-9259540Y-3644705D01*
X-9271616Y-3604894D01*
X-9276000Y-3560383D01*
X-9276000Y-2939617D01*
X-9271616Y-2895106D01*
X-9259540Y-2855295D01*
X-9239931Y-2818610D01*
X-9213544Y-2786456D01*
X-9181390Y-2760069D01*
X-9144705Y-2740460D01*
X-9104894Y-2728384D01*
X-9060383Y-2724000D01*
X-8514617Y-2724000D01*
X-8470106Y-2728384D01*
X-8470106Y-2728384D01*
G37*
G36*
X-6895106Y-2728384D02*
G01*
X-6855295Y-2740460D01*
X-6818610Y-2760069D01*
X-6786456Y-2786456D01*
X-6760069Y-2818610D01*
X-6740460Y-2855295D01*
X-6728384Y-2895106D01*
X-6724000Y-2939617D01*
X-6724000Y-3560383D01*
X-6728384Y-3604894D01*
X-6740460Y-3644705D01*
X-6760069Y-3681390D01*
X-6786456Y-3713544D01*
X-6818610Y-3739931D01*
X-6855295Y-3759540D01*
X-6895106Y-3771616D01*
X-6939617Y-3776000D01*
X-7485383Y-3776000D01*
X-7529894Y-3771616D01*
X-7569705Y-3759540D01*
X-7606390Y-3739931D01*
X-7638544Y-3713544D01*
X-7664931Y-3681390D01*
X-7684540Y-3644705D01*
X-7696616Y-3604894D01*
X-7701000Y-3560383D01*
X-7701000Y-2939617D01*
X-7696616Y-2895106D01*
X-7684540Y-2855295D01*
X-7664931Y-2818610D01*
X-7638544Y-2786456D01*
X-7606390Y-2760069D01*
X-7569705Y-2740460D01*
X-7529894Y-2728384D01*
X-7485383Y-2724000D01*
X-6939617Y-2724000D01*
X-6895106Y-2728384D01*
X-6895106Y-2728384D01*
G37*
G36*
X8354894Y-2728384D02*
G01*
X8394705Y-2740460D01*
X8431390Y-2760069D01*
X8463544Y-2786456D01*
X8489931Y-2818610D01*
X8509540Y-2855295D01*
X8521616Y-2895106D01*
X8526000Y-2939617D01*
X8526000Y-3485383D01*
X8521616Y-3529894D01*
X8509540Y-3569705D01*
X8489931Y-3606390D01*
X8463544Y-3638544D01*
X8431390Y-3664931D01*
X8394705Y-3684540D01*
X8354894Y-3696616D01*
X8310383Y-3701000D01*
X7689617Y-3701000D01*
X7645106Y-3696616D01*
X7605295Y-3684540D01*
X7568610Y-3664931D01*
X7536456Y-3638544D01*
X7510069Y-3606390D01*
X7490460Y-3569705D01*
X7478384Y-3529894D01*
X7474000Y-3485383D01*
X7474000Y-2939617D01*
X7478384Y-2895106D01*
X7490460Y-2855295D01*
X7510069Y-2818610D01*
X7536456Y-2786456D01*
X7568610Y-2760069D01*
X7605295Y-2740460D01*
X7645106Y-2728384D01*
X7689617Y-2724000D01*
X8310383Y-2724000D01*
X8354894Y-2728384D01*
X8354894Y-2728384D01*
G37*
G36*
X5701000Y-2501000D02*
G01*
X4799000Y-2501000D01*
X4799000Y-1499000D01*
X5701000Y-1499000D01*
X5701000Y-2501000D01*
X5701000Y-2501000D01*
G37*
G36*
X-15149000Y-1551000D02*
G01*
X-16513889Y-1551000D01*
X-16526277Y-1552220D01*
X-16538189Y-1555834D01*
X-16549167Y-1561702D01*
X-16558790Y-1569598D01*
X-16566686Y-1579221D01*
X-16572554Y-1590199D01*
X-16576168Y-1602111D01*
X-16577388Y-1614499D01*
X-16576168Y-1626887D01*
X-16572554Y-1638799D01*
X-16566686Y-1649777D01*
X-16558790Y-1659400D01*
X-16549167Y-1667296D01*
X-16543822Y-1670500D01*
X-16515096Y-1685854D01*
X-16457842Y-1732842D01*
X-16410854Y-1790096D01*
X-16375942Y-1855412D01*
X-16375941Y-1855415D01*
X-16354441Y-1926291D01*
X-16347181Y-2000000D01*
X-16354441Y-2073709D01*
X-16375941Y-2144585D01*
X-16375942Y-2144588D01*
X-16410854Y-2209904D01*
X-16457842Y-2267158D01*
X-16515096Y-2314146D01*
X-16580412Y-2349058D01*
X-16580415Y-2349059D01*
X-16651291Y-2370559D01*
X-16706532Y-2376000D01*
X-16743468Y-2376000D01*
X-16798709Y-2370559D01*
X-16869585Y-2349059D01*
X-16869588Y-2349058D01*
X-16934904Y-2314146D01*
X-16992158Y-2267158D01*
X-17039146Y-2209904D01*
X-17074058Y-2144588D01*
X-17074059Y-2144585D01*
X-17095559Y-2073709D01*
X-17102819Y-2000000D01*
X-17095559Y-1926291D01*
X-17074059Y-1855415D01*
X-17074058Y-1855412D01*
X-17039146Y-1790096D01*
X-16992158Y-1732842D01*
X-16934904Y-1685854D01*
X-16869588Y-1650942D01*
X-16869585Y-1650941D01*
X-16798709Y-1629441D01*
X-16743468Y-1624000D01*
X-16714499Y-1624000D01*
X-16702111Y-1622780D01*
X-16690199Y-1619166D01*
X-16679221Y-1613298D01*
X-16669598Y-1605402D01*
X-16661702Y-1595779D01*
X-16655834Y-1584801D01*
X-16652220Y-1572889D01*
X-16651000Y-1560501D01*
X-16651000Y-1049000D01*
X-15149000Y-1049000D01*
X-15149000Y-1551000D01*
X-15149000Y-1551000D01*
G37*
G36*
X-2199000Y-1951000D02*
G01*
X-4801000Y-1951000D01*
X-4801000Y-49000D01*
X-2199000Y-49000D01*
X-2199000Y-1951000D01*
X-2199000Y-1951000D01*
G37*
G36*
X1801000Y-1951000D02*
G01*
X-801000Y-1951000D01*
X-801000Y-49000D01*
X1801000Y-49000D01*
X1801000Y-1951000D01*
X1801000Y-1951000D01*
G37*
G36*
X-8399000Y-1826000D02*
G01*
X-8901000Y-1826000D01*
X-8901000Y-1074000D01*
X-8399000Y-1074000D01*
X-8399000Y-1826000D01*
X-8399000Y-1826000D01*
G37*
G36*
X-7099000Y-1826000D02*
G01*
X-7601000Y-1826000D01*
X-7601000Y-1074000D01*
X-7099000Y-1074000D01*
X-7099000Y-1826000D01*
X-7099000Y-1826000D01*
G37*
G36*
X8257247Y-642015D02*
G01*
X8283684Y-650035D01*
X8308053Y-663060D01*
X8329411Y-680589D01*
X8346940Y-701947D01*
X8359965Y-726316D01*
X8367985Y-752753D01*
X8371000Y-783367D01*
X8371000Y-1186633D01*
X8367985Y-1217247D01*
X8359965Y-1243684D01*
X8346940Y-1268053D01*
X8329411Y-1289411D01*
X8308053Y-1306940D01*
X8283684Y-1319965D01*
X8257247Y-1327985D01*
X8226633Y-1331000D01*
X7773367Y-1331000D01*
X7742753Y-1327985D01*
X7716316Y-1319965D01*
X7691947Y-1306940D01*
X7670589Y-1289411D01*
X7653060Y-1268053D01*
X7640035Y-1243684D01*
X7632015Y-1217247D01*
X7629000Y-1186633D01*
X7629000Y-783367D01*
X7632015Y-752753D01*
X7640035Y-726316D01*
X7653060Y-701947D01*
X7670589Y-680589D01*
X7691947Y-663060D01*
X7716316Y-650035D01*
X7742753Y-642015D01*
X7773367Y-639000D01*
X8226633Y-639000D01*
X8257247Y-642015D01*
X8257247Y-642015D01*
G37*
G36*
X-15149000Y-901000D02*
G01*
X-16651000Y-901000D01*
X-16651000Y-399000D01*
X-15149000Y-399000D01*
X-15149000Y-901000D01*
X-15149000Y-901000D01*
G37*
G36*
X6651000Y-501000D02*
G01*
X5749000Y-501000D01*
X5749000Y501000D01*
X6651000Y501000D01*
X6651000Y-501000D01*
X6651000Y-501000D01*
G37*
G36*
X4751000Y-501000D02*
G01*
X3849000Y-501000D01*
X3849000Y501000D01*
X4751000Y501000D01*
X4751000Y-501000D01*
X4751000Y-501000D01*
G37*
G36*
X8257247Y327985D02*
G01*
X8283684Y319965D01*
X8308053Y306940D01*
X8329411Y289411D01*
X8346940Y268053D01*
X8359965Y243684D01*
X8367985Y217247D01*
X8371000Y186633D01*
X8371000Y-216633D01*
X8367985Y-247247D01*
X8359965Y-273684D01*
X8346940Y-298053D01*
X8329411Y-319411D01*
X8308053Y-336940D01*
X8283684Y-349965D01*
X8257247Y-357985D01*
X8226633Y-361000D01*
X7773367Y-361000D01*
X7742753Y-357985D01*
X7716316Y-349965D01*
X7691947Y-336940D01*
X7670589Y-319411D01*
X7653060Y-298053D01*
X7640035Y-273684D01*
X7632015Y-247247D01*
X7629000Y-216633D01*
X7629000Y186633D01*
X7632015Y217247D01*
X7640035Y243684D01*
X7653060Y268053D01*
X7670589Y289411D01*
X7691947Y306940D01*
X7716316Y319965D01*
X7742753Y327985D01*
X7773367Y331000D01*
X8226633Y331000D01*
X8257247Y327985D01*
X8257247Y327985D01*
G37*
G36*
X-15149000Y-251000D02*
G01*
X-16651000Y-251000D01*
X-16651000Y251000D01*
X-15149000Y251000D01*
X-15149000Y-251000D01*
X-15149000Y-251000D01*
G37*
G36*
X-8399000Y74000D02*
G01*
X-8901000Y74000D01*
X-8901000Y826000D01*
X-8399000Y826000D01*
X-8399000Y74000D01*
X-8399000Y74000D01*
G37*
G36*
X-7749000Y74000D02*
G01*
X-8251000Y74000D01*
X-8251000Y826000D01*
X-7749000Y826000D01*
X-7749000Y74000D01*
X-7749000Y74000D01*
G37*
G36*
X-7099000Y74000D02*
G01*
X-7601000Y74000D01*
X-7601000Y826000D01*
X-7099000Y826000D01*
X-7099000Y74000D01*
X-7099000Y74000D01*
G37*
G36*
X-15149000Y399000D02*
G01*
X-16651000Y399000D01*
X-16651000Y901000D01*
X-15149000Y901000D01*
X-15149000Y399000D01*
X-15149000Y399000D01*
G37*
G36*
X8257247Y1607985D02*
G01*
X8283684Y1599965D01*
X8308053Y1586940D01*
X8329411Y1569411D01*
X8346940Y1548053D01*
X8359965Y1523684D01*
X8367985Y1497247D01*
X8371000Y1466633D01*
X8371000Y1063367D01*
X8367985Y1032753D01*
X8359965Y1006316D01*
X8346940Y981947D01*
X8329411Y960589D01*
X8308053Y943060D01*
X8283684Y930035D01*
X8257247Y922015D01*
X8226633Y919000D01*
X7773367Y919000D01*
X7742753Y922015D01*
X7716316Y930035D01*
X7691947Y943060D01*
X7670589Y960589D01*
X7653060Y981947D01*
X7640035Y1006316D01*
X7632015Y1032753D01*
X7629000Y1063367D01*
X7629000Y1466633D01*
X7632015Y1497247D01*
X7640035Y1523684D01*
X7653060Y1548053D01*
X7670589Y1569411D01*
X7691947Y1586940D01*
X7716316Y1599965D01*
X7742753Y1607985D01*
X7773367Y1611000D01*
X8226633Y1611000D01*
X8257247Y1607985D01*
X8257247Y1607985D01*
G37*
G36*
X-16651291Y2370559D02*
G01*
X-16580415Y2349059D01*
X-16580412Y2349058D01*
X-16515096Y2314146D01*
X-16457842Y2267158D01*
X-16410854Y2209904D01*
X-16375942Y2144588D01*
X-16375941Y2144585D01*
X-16354441Y2073709D01*
X-16347181Y2000000D01*
X-16354441Y1926291D01*
X-16375941Y1855415D01*
X-16375942Y1855412D01*
X-16410854Y1790096D01*
X-16457842Y1732842D01*
X-16515096Y1685854D01*
X-16543822Y1670500D01*
X-16554172Y1663585D01*
X-16562974Y1654783D01*
X-16569890Y1644433D01*
X-16574654Y1632932D01*
X-16577082Y1620723D01*
X-16577082Y1608275D01*
X-16574654Y1596067D01*
X-16569890Y1584566D01*
X-16562975Y1574216D01*
X-16554173Y1565414D01*
X-16543823Y1558498D01*
X-16532322Y1553734D01*
X-16520113Y1551306D01*
X-16513889Y1551000D01*
X-15149000Y1551000D01*
X-15149000Y1049000D01*
X-16651000Y1049000D01*
X-16651000Y1560501D01*
X-16652220Y1572889D01*
X-16655834Y1584801D01*
X-16661702Y1595779D01*
X-16669598Y1605402D01*
X-16679221Y1613298D01*
X-16690199Y1619166D01*
X-16702111Y1622780D01*
X-16714499Y1624000D01*
X-16743468Y1624000D01*
X-16798709Y1629441D01*
X-16869585Y1650941D01*
X-16869588Y1650942D01*
X-16934904Y1685854D01*
X-16992158Y1732842D01*
X-17039146Y1790096D01*
X-17074058Y1855412D01*
X-17074059Y1855415D01*
X-17095559Y1926291D01*
X-17102819Y2000000D01*
X-17095559Y2073709D01*
X-17074059Y2144585D01*
X-17074058Y2144588D01*
X-17039146Y2209904D01*
X-16992158Y2267158D01*
X-16934904Y2314146D01*
X-16869588Y2349058D01*
X-16869585Y2349059D01*
X-16798709Y2370559D01*
X-16743468Y2376000D01*
X-16706532Y2376000D01*
X-16651291Y2370559D01*
X-16651291Y2370559D01*
G37*
G36*
X8257247Y2577985D02*
G01*
X8283684Y2569965D01*
X8308053Y2556940D01*
X8329411Y2539411D01*
X8346940Y2518053D01*
X8359965Y2493684D01*
X8367985Y2467247D01*
X8371000Y2436633D01*
X8371000Y2033367D01*
X8367985Y2002753D01*
X8359965Y1976316D01*
X8346940Y1951947D01*
X8329411Y1930589D01*
X8308053Y1913060D01*
X8283684Y1900035D01*
X8257247Y1892015D01*
X8226633Y1889000D01*
X7773367Y1889000D01*
X7742753Y1892015D01*
X7716316Y1900035D01*
X7691947Y1913060D01*
X7670589Y1930589D01*
X7653060Y1951947D01*
X7640035Y1976316D01*
X7632015Y2002753D01*
X7629000Y2033367D01*
X7629000Y2436633D01*
X7632015Y2467247D01*
X7640035Y2493684D01*
X7653060Y2518053D01*
X7670589Y2539411D01*
X7691947Y2556940D01*
X7716316Y2569965D01*
X7742753Y2577985D01*
X7773367Y2581000D01*
X8226633Y2581000D01*
X8257247Y2577985D01*
X8257247Y2577985D01*
G37*
G36*
X4604894Y3021616D02*
G01*
X4644705Y3009540D01*
X4681390Y2989931D01*
X4713544Y2963544D01*
X4739931Y2931390D01*
X4759540Y2894705D01*
X4771616Y2854894D01*
X4776000Y2810383D01*
X4776000Y2189617D01*
X4771616Y2145106D01*
X4759540Y2105295D01*
X4739931Y2068610D01*
X4713544Y2036456D01*
X4681390Y2010069D01*
X4644705Y1990460D01*
X4604894Y1978384D01*
X4560383Y1974000D01*
X4014617Y1974000D01*
X3970106Y1978384D01*
X3930295Y1990460D01*
X3893610Y2010069D01*
X3861456Y2036456D01*
X3835069Y2068610D01*
X3815460Y2105295D01*
X3803384Y2145106D01*
X3799000Y2189617D01*
X3799000Y2810383D01*
X3803384Y2854894D01*
X3815460Y2894705D01*
X3835069Y2931390D01*
X3861456Y2963544D01*
X3893610Y2989931D01*
X3930295Y3009540D01*
X3970106Y3021616D01*
X4014617Y3026000D01*
X4560383Y3026000D01*
X4604894Y3021616D01*
X4604894Y3021616D01*
G37*
G36*
X3029894Y3021616D02*
G01*
X3069705Y3009540D01*
X3106390Y2989931D01*
X3138544Y2963544D01*
X3164931Y2931390D01*
X3184540Y2894705D01*
X3196616Y2854894D01*
X3201000Y2810383D01*
X3201000Y2189617D01*
X3196616Y2145106D01*
X3184540Y2105295D01*
X3164931Y2068610D01*
X3138544Y2036456D01*
X3106390Y2010069D01*
X3069705Y1990460D01*
X3029894Y1978384D01*
X2985383Y1974000D01*
X2439617Y1974000D01*
X2395106Y1978384D01*
X2355295Y1990460D01*
X2318610Y2010069D01*
X2286456Y2036456D01*
X2260069Y2068610D01*
X2240460Y2105295D01*
X2228384Y2145106D01*
X2224000Y2189617D01*
X2224000Y2810383D01*
X2228384Y2854894D01*
X2240460Y2894705D01*
X2260069Y2931390D01*
X2286456Y2963544D01*
X2318610Y2989931D01*
X2355295Y3009540D01*
X2395106Y3021616D01*
X2439617Y3026000D01*
X2985383Y3026000D01*
X3029894Y3021616D01*
X3029894Y3021616D01*
G37*
G36*
X14651000Y2249000D02*
G01*
X13549000Y2249000D01*
X13549000Y4051000D01*
X14651000Y4051000D01*
X14651000Y2249000D01*
X14651000Y2249000D01*
G37*
G36*
X18451000Y2249000D02*
G01*
X17349000Y2249000D01*
X17349000Y4051000D01*
X18451000Y4051000D01*
X18451000Y2249000D01*
X18451000Y2249000D01*
G37*
G36*
X-3492753Y3107985D02*
G01*
X-3466316Y3099965D01*
X-3441947Y3086940D01*
X-3420589Y3069411D01*
X-3403060Y3048053D01*
X-3390035Y3023684D01*
X-3382015Y2997247D01*
X-3379000Y2966633D01*
X-3379000Y2563367D01*
X-3382015Y2532753D01*
X-3390035Y2506316D01*
X-3403060Y2481947D01*
X-3420589Y2460589D01*
X-3441947Y2443060D01*
X-3466316Y2430035D01*
X-3492753Y2422015D01*
X-3523367Y2419000D01*
X-3976633Y2419000D01*
X-4007247Y2422015D01*
X-4033684Y2430035D01*
X-4058053Y2443060D01*
X-4079411Y2460589D01*
X-4096940Y2481947D01*
X-4109965Y2506316D01*
X-4117985Y2532753D01*
X-4121000Y2563367D01*
X-4121000Y2966633D01*
X-4117985Y2997247D01*
X-4109965Y3023684D01*
X-4096940Y3048053D01*
X-4079411Y3069411D01*
X-4058053Y3086940D01*
X-4033684Y3099965D01*
X-4007247Y3107985D01*
X-3976633Y3111000D01*
X-3523367Y3111000D01*
X-3492753Y3107985D01*
X-3492753Y3107985D01*
G37*
G36*
X-2242753Y3107985D02*
G01*
X-2216316Y3099965D01*
X-2191947Y3086940D01*
X-2170589Y3069411D01*
X-2153060Y3048053D01*
X-2140035Y3023684D01*
X-2132015Y2997247D01*
X-2129000Y2966633D01*
X-2129000Y2563367D01*
X-2132015Y2532753D01*
X-2140035Y2506316D01*
X-2153060Y2481947D01*
X-2170589Y2460589D01*
X-2191947Y2443060D01*
X-2216316Y2430035D01*
X-2242753Y2422015D01*
X-2273367Y2419000D01*
X-2726633Y2419000D01*
X-2757247Y2422015D01*
X-2783684Y2430035D01*
X-2808053Y2443060D01*
X-2829411Y2460589D01*
X-2846940Y2481947D01*
X-2859965Y2506316D01*
X-2867985Y2532753D01*
X-2871000Y2563367D01*
X-2871000Y2966633D01*
X-2867985Y2997247D01*
X-2859965Y3023684D01*
X-2846940Y3048053D01*
X-2829411Y3069411D01*
X-2808053Y3086940D01*
X-2783684Y3099965D01*
X-2757247Y3107985D01*
X-2726633Y3111000D01*
X-2273367Y3111000D01*
X-2242753Y3107985D01*
X-2242753Y3107985D01*
G37*
G36*
X-7492753Y3357985D02*
G01*
X-7466316Y3349965D01*
X-7441947Y3336940D01*
X-7420589Y3319411D01*
X-7403060Y3298053D01*
X-7390035Y3273684D01*
X-7382015Y3247247D01*
X-7379000Y3216633D01*
X-7379000Y2813367D01*
X-7382015Y2782753D01*
X-7390035Y2756316D01*
X-7403060Y2731947D01*
X-7420589Y2710589D01*
X-7441947Y2693060D01*
X-7466316Y2680035D01*
X-7492753Y2672015D01*
X-7523367Y2669000D01*
X-7976633Y2669000D01*
X-8007247Y2672015D01*
X-8033684Y2680035D01*
X-8058053Y2693060D01*
X-8079411Y2710589D01*
X-8096940Y2731947D01*
X-8109965Y2756316D01*
X-8117985Y2782753D01*
X-8121000Y2813367D01*
X-8121000Y3216633D01*
X-8117985Y3247247D01*
X-8109965Y3273684D01*
X-8096940Y3298053D01*
X-8079411Y3319411D01*
X-8058053Y3336940D01*
X-8033684Y3349965D01*
X-8007247Y3357985D01*
X-7976633Y3361000D01*
X-7523367Y3361000D01*
X-7492753Y3357985D01*
X-7492753Y3357985D01*
G37*
G36*
X-6242753Y3357985D02*
G01*
X-6216316Y3349965D01*
X-6191947Y3336940D01*
X-6170589Y3319411D01*
X-6153060Y3298053D01*
X-6140035Y3273684D01*
X-6132015Y3247247D01*
X-6129000Y3216633D01*
X-6129000Y2813367D01*
X-6132015Y2782753D01*
X-6140035Y2756316D01*
X-6153060Y2731947D01*
X-6170589Y2710589D01*
X-6191947Y2693060D01*
X-6216316Y2680035D01*
X-6242753Y2672015D01*
X-6273367Y2669000D01*
X-6726633Y2669000D01*
X-6757247Y2672015D01*
X-6783684Y2680035D01*
X-6808053Y2693060D01*
X-6829411Y2710589D01*
X-6846940Y2731947D01*
X-6859965Y2756316D01*
X-6867985Y2782753D01*
X-6871000Y2813367D01*
X-6871000Y3216633D01*
X-6867985Y3247247D01*
X-6859965Y3273684D01*
X-6846940Y3298053D01*
X-6829411Y3319411D01*
X-6808053Y3336940D01*
X-6783684Y3349965D01*
X-6757247Y3357985D01*
X-6726633Y3361000D01*
X-6273367Y3361000D01*
X-6242753Y3357985D01*
X-6242753Y3357985D01*
G37*
G36*
X-8742753Y3357985D02*
G01*
X-8716316Y3349965D01*
X-8691947Y3336940D01*
X-8670589Y3319411D01*
X-8653060Y3298053D01*
X-8640035Y3273684D01*
X-8632015Y3247247D01*
X-8629000Y3216633D01*
X-8629000Y2813367D01*
X-8632015Y2782753D01*
X-8640035Y2756316D01*
X-8653060Y2731947D01*
X-8670589Y2710589D01*
X-8691947Y2693060D01*
X-8716316Y2680035D01*
X-8742753Y2672015D01*
X-8773367Y2669000D01*
X-9226633Y2669000D01*
X-9257247Y2672015D01*
X-9283684Y2680035D01*
X-9308053Y2693060D01*
X-9329411Y2710589D01*
X-9346940Y2731947D01*
X-9359965Y2756316D01*
X-9367985Y2782753D01*
X-9371000Y2813367D01*
X-9371000Y3216633D01*
X-9367985Y3247247D01*
X-9359965Y3273684D01*
X-9346940Y3298053D01*
X-9329411Y3319411D01*
X-9308053Y3336940D01*
X-9283684Y3349965D01*
X-9257247Y3357985D01*
X-9226633Y3361000D01*
X-8773367Y3361000D01*
X-8742753Y3357985D01*
X-8742753Y3357985D01*
G37*
G36*
X-18592977Y4364410D02*
G01*
X-18441988Y4318608D01*
X-18441985Y4318607D01*
X-18302834Y4244229D01*
X-18180867Y4144133D01*
X-18080771Y4022166D01*
X-18006393Y3883015D01*
X-18006392Y3883012D01*
X-17960590Y3732023D01*
X-17945125Y3575000D01*
X-17960590Y3417977D01*
X-17990490Y3319411D01*
X-18006393Y3266985D01*
X-18080771Y3127834D01*
X-18180867Y3005867D01*
X-18302834Y2905771D01*
X-18441985Y2831393D01*
X-18441988Y2831392D01*
X-18592977Y2785590D01*
X-18710655Y2774000D01*
X-18989345Y2774000D01*
X-19107023Y2785590D01*
X-19258012Y2831392D01*
X-19258015Y2831393D01*
X-19397166Y2905771D01*
X-19519133Y3005867D01*
X-19619229Y3127834D01*
X-19693607Y3266985D01*
X-19709510Y3319411D01*
X-19739410Y3417977D01*
X-19754875Y3575000D01*
X-19739410Y3732023D01*
X-19693608Y3883012D01*
X-19693607Y3883015D01*
X-19619229Y4022166D01*
X-19519133Y4144133D01*
X-19397166Y4244229D01*
X-19258015Y4318607D01*
X-19258012Y4318608D01*
X-19107023Y4364410D01*
X-18989345Y4376000D01*
X-18710655Y4376000D01*
X-18592977Y4364410D01*
X-18592977Y4364410D01*
G37*
G36*
X-14852977Y4364410D02*
G01*
X-14701988Y4318608D01*
X-14701985Y4318607D01*
X-14562834Y4244229D01*
X-14440867Y4144133D01*
X-14340771Y4022166D01*
X-14266393Y3883015D01*
X-14266392Y3883012D01*
X-14220590Y3732023D01*
X-14205125Y3575000D01*
X-14220590Y3417977D01*
X-14250490Y3319411D01*
X-14266393Y3266985D01*
X-14340771Y3127834D01*
X-14440867Y3005867D01*
X-14562834Y2905771D01*
X-14701985Y2831393D01*
X-14701988Y2831392D01*
X-14852977Y2785590D01*
X-14970655Y2774000D01*
X-15849345Y2774000D01*
X-15967023Y2785590D01*
X-16118012Y2831392D01*
X-16118015Y2831393D01*
X-16257166Y2905771D01*
X-16379133Y3005867D01*
X-16479229Y3127834D01*
X-16553607Y3266985D01*
X-16569510Y3319411D01*
X-16599410Y3417977D01*
X-16614875Y3575000D01*
X-16599410Y3732023D01*
X-16553608Y3883012D01*
X-16553607Y3883015D01*
X-16479229Y4022166D01*
X-16379133Y4144133D01*
X-16257166Y4244229D01*
X-16118015Y4318607D01*
X-16118012Y4318608D01*
X-15967023Y4364410D01*
X-15849345Y4376000D01*
X-14970655Y4376000D01*
X-14852977Y4364410D01*
X-14852977Y4364410D01*
G37*
G36*
X494598Y5244598D02*
G01*
X504221Y5236702D01*
X515199Y5230834D01*
X527111Y5227220D01*
X539499Y5226000D01*
X1001000Y5226000D01*
X1001000Y3274000D01*
X539499Y3274000D01*
X527111Y3272780D01*
X515199Y3269166D01*
X504221Y3263298D01*
X494598Y3255402D01*
X489345Y3249000D01*
X-489345Y3249000D01*
X-494598Y3255402D01*
X-504221Y3263298D01*
X-515199Y3269166D01*
X-527111Y3272780D01*
X-539499Y3274000D01*
X-1001000Y3274000D01*
X-1001000Y4710501D01*
X-524000Y4710501D01*
X-524000Y3789499D01*
X-522780Y3777111D01*
X-519166Y3765199D01*
X-513298Y3754221D01*
X-505402Y3744598D01*
X-495779Y3736702D01*
X-484801Y3730834D01*
X-472889Y3727220D01*
X-460501Y3726000D01*
X460501Y3726000D01*
X472889Y3727220D01*
X484801Y3730834D01*
X495779Y3736702D01*
X505402Y3744598D01*
X513298Y3754221D01*
X519166Y3765199D01*
X522780Y3777111D01*
X524000Y3789499D01*
X524000Y4710501D01*
X522780Y4722889D01*
X519166Y4734801D01*
X513298Y4745779D01*
X505402Y4755402D01*
X495779Y4763298D01*
X484801Y4769166D01*
X472889Y4772780D01*
X460501Y4774000D01*
X-460501Y4774000D01*
X-472889Y4772780D01*
X-484801Y4769166D01*
X-495779Y4763298D01*
X-505402Y4755402D01*
X-513298Y4745779D01*
X-519166Y4734801D01*
X-522780Y4722889D01*
X-524000Y4710501D01*
X-1001000Y4710501D01*
X-1001000Y5226000D01*
X-539499Y5226000D01*
X-527111Y5227220D01*
X-515199Y5230834D01*
X-504221Y5236702D01*
X-494598Y5244598D01*
X-489345Y5251000D01*
X489345Y5251000D01*
X494598Y5244598D01*
X494598Y5244598D01*
G37*
G36*
X-2242753Y4077985D02*
G01*
X-2216316Y4069965D01*
X-2191947Y4056940D01*
X-2170589Y4039411D01*
X-2153060Y4018053D01*
X-2140035Y3993684D01*
X-2132015Y3967247D01*
X-2129000Y3936633D01*
X-2129000Y3533367D01*
X-2132015Y3502753D01*
X-2140035Y3476316D01*
X-2153060Y3451947D01*
X-2170589Y3430589D01*
X-2191947Y3413060D01*
X-2216316Y3400035D01*
X-2242753Y3392015D01*
X-2273367Y3389000D01*
X-2726633Y3389000D01*
X-2757247Y3392015D01*
X-2783684Y3400035D01*
X-2808053Y3413060D01*
X-2829411Y3430589D01*
X-2846940Y3451947D01*
X-2859965Y3476316D01*
X-2867985Y3502753D01*
X-2871000Y3533367D01*
X-2871000Y3936633D01*
X-2867985Y3967247D01*
X-2859965Y3993684D01*
X-2846940Y4018053D01*
X-2829411Y4039411D01*
X-2808053Y4056940D01*
X-2783684Y4069965D01*
X-2757247Y4077985D01*
X-2726633Y4081000D01*
X-2273367Y4081000D01*
X-2242753Y4077985D01*
X-2242753Y4077985D01*
G37*
G36*
X-3492753Y4077985D02*
G01*
X-3466316Y4069965D01*
X-3441947Y4056940D01*
X-3420589Y4039411D01*
X-3403060Y4018053D01*
X-3390035Y3993684D01*
X-3382015Y3967247D01*
X-3379000Y3936633D01*
X-3379000Y3533367D01*
X-3382015Y3502753D01*
X-3390035Y3476316D01*
X-3403060Y3451947D01*
X-3420589Y3430589D01*
X-3441947Y3413060D01*
X-3466316Y3400035D01*
X-3492753Y3392015D01*
X-3523367Y3389000D01*
X-3976633Y3389000D01*
X-4007247Y3392015D01*
X-4033684Y3400035D01*
X-4058053Y3413060D01*
X-4079411Y3430589D01*
X-4096940Y3451947D01*
X-4109965Y3476316D01*
X-4117985Y3502753D01*
X-4121000Y3533367D01*
X-4121000Y3936633D01*
X-4117985Y3967247D01*
X-4109965Y3993684D01*
X-4096940Y4018053D01*
X-4079411Y4039411D01*
X-4058053Y4056940D01*
X-4033684Y4069965D01*
X-4007247Y4077985D01*
X-3976633Y4081000D01*
X-3523367Y4081000D01*
X-3492753Y4077985D01*
X-3492753Y4077985D01*
G37*
G36*
X-6242753Y4327985D02*
G01*
X-6216316Y4319965D01*
X-6191947Y4306940D01*
X-6170589Y4289411D01*
X-6153060Y4268053D01*
X-6140035Y4243684D01*
X-6132015Y4217247D01*
X-6129000Y4186633D01*
X-6129000Y3783367D01*
X-6132015Y3752753D01*
X-6140035Y3726316D01*
X-6153060Y3701947D01*
X-6170589Y3680589D01*
X-6191947Y3663060D01*
X-6216316Y3650035D01*
X-6242753Y3642015D01*
X-6273367Y3639000D01*
X-6726633Y3639000D01*
X-6757247Y3642015D01*
X-6783684Y3650035D01*
X-6808053Y3663060D01*
X-6829411Y3680589D01*
X-6846940Y3701947D01*
X-6859965Y3726316D01*
X-6867985Y3752753D01*
X-6871000Y3783367D01*
X-6871000Y4186633D01*
X-6867985Y4217247D01*
X-6859965Y4243684D01*
X-6846940Y4268053D01*
X-6829411Y4289411D01*
X-6808053Y4306940D01*
X-6783684Y4319965D01*
X-6757247Y4327985D01*
X-6726633Y4331000D01*
X-6273367Y4331000D01*
X-6242753Y4327985D01*
X-6242753Y4327985D01*
G37*
G36*
X-7492753Y4327985D02*
G01*
X-7466316Y4319965D01*
X-7441947Y4306940D01*
X-7420589Y4289411D01*
X-7403060Y4268053D01*
X-7390035Y4243684D01*
X-7382015Y4217247D01*
X-7379000Y4186633D01*
X-7379000Y3783367D01*
X-7382015Y3752753D01*
X-7390035Y3726316D01*
X-7403060Y3701947D01*
X-7420589Y3680589D01*
X-7441947Y3663060D01*
X-7466316Y3650035D01*
X-7492753Y3642015D01*
X-7523367Y3639000D01*
X-7976633Y3639000D01*
X-8007247Y3642015D01*
X-8033684Y3650035D01*
X-8058053Y3663060D01*
X-8079411Y3680589D01*
X-8096940Y3701947D01*
X-8109965Y3726316D01*
X-8117985Y3752753D01*
X-8121000Y3783367D01*
X-8121000Y4186633D01*
X-8117985Y4217247D01*
X-8109965Y4243684D01*
X-8096940Y4268053D01*
X-8079411Y4289411D01*
X-8058053Y4306940D01*
X-8033684Y4319965D01*
X-8007247Y4327985D01*
X-7976633Y4331000D01*
X-7523367Y4331000D01*
X-7492753Y4327985D01*
X-7492753Y4327985D01*
G37*
G36*
X-8742753Y4327985D02*
G01*
X-8716316Y4319965D01*
X-8691947Y4306940D01*
X-8670589Y4289411D01*
X-8653060Y4268053D01*
X-8640035Y4243684D01*
X-8632015Y4217247D01*
X-8629000Y4186633D01*
X-8629000Y3783367D01*
X-8632015Y3752753D01*
X-8640035Y3726316D01*
X-8653060Y3701947D01*
X-8670589Y3680589D01*
X-8691947Y3663060D01*
X-8716316Y3650035D01*
X-8742753Y3642015D01*
X-8773367Y3639000D01*
X-9226633Y3639000D01*
X-9257247Y3642015D01*
X-9283684Y3650035D01*
X-9308053Y3663060D01*
X-9329411Y3680589D01*
X-9346940Y3701947D01*
X-9359965Y3726316D01*
X-9367985Y3752753D01*
X-9371000Y3783367D01*
X-9371000Y4186633D01*
X-9367985Y4217247D01*
X-9359965Y4243684D01*
X-9346940Y4268053D01*
X-9329411Y4289411D01*
X-9308053Y4306940D01*
X-9283684Y4319965D01*
X-9257247Y4327985D01*
X-9226633Y4331000D01*
X-8773367Y4331000D01*
X-8742753Y4327985D01*
X-8742753Y4327985D01*
G37*
G36*
X2757247Y4607985D02*
G01*
X2783684Y4599965D01*
X2808053Y4586940D01*
X2829411Y4569411D01*
X2846940Y4548053D01*
X2859965Y4523684D01*
X2867985Y4497247D01*
X2871000Y4466633D01*
X2871000Y4063367D01*
X2867985Y4032753D01*
X2859965Y4006316D01*
X2846940Y3981947D01*
X2829411Y3960589D01*
X2808053Y3943060D01*
X2783684Y3930035D01*
X2757247Y3922015D01*
X2726633Y3919000D01*
X2273367Y3919000D01*
X2242753Y3922015D01*
X2216316Y3930035D01*
X2191947Y3943060D01*
X2170589Y3960589D01*
X2153060Y3981947D01*
X2140035Y4006316D01*
X2132015Y4032753D01*
X2129000Y4063367D01*
X2129000Y4466633D01*
X2132015Y4497247D01*
X2140035Y4523684D01*
X2153060Y4548053D01*
X2170589Y4569411D01*
X2191947Y4586940D01*
X2216316Y4599965D01*
X2242753Y4607985D01*
X2273367Y4611000D01*
X2726633Y4611000D01*
X2757247Y4607985D01*
X2757247Y4607985D01*
G37*
G36*
X8354894Y4946616D02*
G01*
X8394705Y4934540D01*
X8431390Y4914931D01*
X8463544Y4888544D01*
X8489931Y4856390D01*
X8509540Y4819705D01*
X8521616Y4779894D01*
X8526000Y4735383D01*
X8526000Y4189617D01*
X8521616Y4145106D01*
X8509540Y4105295D01*
X8489931Y4068610D01*
X8463544Y4036456D01*
X8431390Y4010069D01*
X8394705Y3990460D01*
X8354894Y3978384D01*
X8310383Y3974000D01*
X7689617Y3974000D01*
X7645106Y3978384D01*
X7605295Y3990460D01*
X7568610Y4010069D01*
X7536456Y4036456D01*
X7510069Y4068610D01*
X7490460Y4105295D01*
X7478384Y4145106D01*
X7474000Y4189617D01*
X7474000Y4735383D01*
X7478384Y4779894D01*
X7490460Y4819705D01*
X7510069Y4856390D01*
X7536456Y4888544D01*
X7568610Y4914931D01*
X7605295Y4934540D01*
X7645106Y4946616D01*
X7689617Y4951000D01*
X8310383Y4951000D01*
X8354894Y4946616D01*
X8354894Y4946616D01*
G37*
G36*
X4747247Y4867985D02*
G01*
X4773684Y4859965D01*
X4798053Y4846940D01*
X4819411Y4829411D01*
X4836940Y4808053D01*
X4849965Y4783684D01*
X4857985Y4757247D01*
X4861000Y4726633D01*
X4861000Y4273367D01*
X4857985Y4242753D01*
X4849965Y4216316D01*
X4836940Y4191947D01*
X4819411Y4170589D01*
X4798053Y4153060D01*
X4773684Y4140035D01*
X4747247Y4132015D01*
X4716633Y4129000D01*
X4313367Y4129000D01*
X4282753Y4132015D01*
X4256316Y4140035D01*
X4231947Y4153060D01*
X4210589Y4170589D01*
X4193060Y4191947D01*
X4180035Y4216316D01*
X4172015Y4242753D01*
X4169000Y4273367D01*
X4169000Y4726633D01*
X4172015Y4757247D01*
X4180035Y4783684D01*
X4193060Y4808053D01*
X4210589Y4829411D01*
X4231947Y4846940D01*
X4256316Y4859965D01*
X4282753Y4867985D01*
X4313367Y4871000D01*
X4716633Y4871000D01*
X4747247Y4867985D01*
X4747247Y4867985D01*
G37*
G36*
X5717247Y4867985D02*
G01*
X5743684Y4859965D01*
X5768053Y4846940D01*
X5789411Y4829411D01*
X5806940Y4808053D01*
X5819965Y4783684D01*
X5827985Y4757247D01*
X5831000Y4726633D01*
X5831000Y4273367D01*
X5827985Y4242753D01*
X5819965Y4216316D01*
X5806940Y4191947D01*
X5789411Y4170589D01*
X5768053Y4153060D01*
X5743684Y4140035D01*
X5717247Y4132015D01*
X5686633Y4129000D01*
X5283367Y4129000D01*
X5252753Y4132015D01*
X5226316Y4140035D01*
X5201947Y4153060D01*
X5180589Y4170589D01*
X5163060Y4191947D01*
X5150035Y4216316D01*
X5142015Y4242753D01*
X5139000Y4273367D01*
X5139000Y4726633D01*
X5142015Y4757247D01*
X5150035Y4783684D01*
X5163060Y4808053D01*
X5180589Y4829411D01*
X5201947Y4846940D01*
X5226316Y4859965D01*
X5252753Y4867985D01*
X5283367Y4871000D01*
X5686633Y4871000D01*
X5717247Y4867985D01*
X5717247Y4867985D01*
G37*
G36*
X-2282753Y5617985D02*
G01*
X-2256316Y5609965D01*
X-2231947Y5596940D01*
X-2210589Y5579411D01*
X-2193060Y5558053D01*
X-2180035Y5533684D01*
X-2172015Y5507247D01*
X-2169000Y5476633D01*
X-2169000Y5023367D01*
X-2172015Y4992753D01*
X-2180035Y4966316D01*
X-2193060Y4941947D01*
X-2210589Y4920589D01*
X-2231947Y4903060D01*
X-2256316Y4890035D01*
X-2282753Y4882015D01*
X-2313367Y4879000D01*
X-2716633Y4879000D01*
X-2747247Y4882015D01*
X-2773684Y4890035D01*
X-2798053Y4903060D01*
X-2819411Y4920589D01*
X-2836940Y4941947D01*
X-2849965Y4966316D01*
X-2857985Y4992753D01*
X-2861000Y5023367D01*
X-2861000Y5476633D01*
X-2857985Y5507247D01*
X-2849965Y5533684D01*
X-2836940Y5558053D01*
X-2819411Y5579411D01*
X-2798053Y5596940D01*
X-2773684Y5609965D01*
X-2747247Y5617985D01*
X-2716633Y5621000D01*
X-2313367Y5621000D01*
X-2282753Y5617985D01*
X-2282753Y5617985D01*
G37*
G36*
X-3252753Y5617985D02*
G01*
X-3226316Y5609965D01*
X-3201947Y5596940D01*
X-3180589Y5579411D01*
X-3163060Y5558053D01*
X-3150035Y5533684D01*
X-3142015Y5507247D01*
X-3139000Y5476633D01*
X-3139000Y5023367D01*
X-3142015Y4992753D01*
X-3150035Y4966316D01*
X-3163060Y4941947D01*
X-3180589Y4920589D01*
X-3201947Y4903060D01*
X-3226316Y4890035D01*
X-3252753Y4882015D01*
X-3283367Y4879000D01*
X-3686633Y4879000D01*
X-3717247Y4882015D01*
X-3743684Y4890035D01*
X-3768053Y4903060D01*
X-3789411Y4920589D01*
X-3806940Y4941947D01*
X-3819965Y4966316D01*
X-3827985Y4992753D01*
X-3831000Y5023367D01*
X-3831000Y5476633D01*
X-3827985Y5507247D01*
X-3819965Y5533684D01*
X-3806940Y5558053D01*
X-3789411Y5579411D01*
X-3768053Y5596940D01*
X-3743684Y5609965D01*
X-3717247Y5617985D01*
X-3686633Y5621000D01*
X-3283367Y5621000D01*
X-3252753Y5617985D01*
X-3252753Y5617985D01*
G37*
G36*
X2757247Y5577985D02*
G01*
X2783684Y5569965D01*
X2808053Y5556940D01*
X2829411Y5539411D01*
X2846940Y5518053D01*
X2859965Y5493684D01*
X2867985Y5467247D01*
X2871000Y5436633D01*
X2871000Y5033367D01*
X2867985Y5002753D01*
X2859965Y4976316D01*
X2846940Y4951947D01*
X2829411Y4930589D01*
X2808053Y4913060D01*
X2783684Y4900035D01*
X2757247Y4892015D01*
X2726633Y4889000D01*
X2273367Y4889000D01*
X2242753Y4892015D01*
X2216316Y4900035D01*
X2191947Y4913060D01*
X2170589Y4930589D01*
X2153060Y4951947D01*
X2140035Y4976316D01*
X2132015Y5002753D01*
X2129000Y5033367D01*
X2129000Y5436633D01*
X2132015Y5467247D01*
X2140035Y5493684D01*
X2153060Y5518053D01*
X2170589Y5539411D01*
X2191947Y5556940D01*
X2216316Y5569965D01*
X2242753Y5577985D01*
X2273367Y5581000D01*
X2726633Y5581000D01*
X2757247Y5577985D01*
X2757247Y5577985D01*
G37*
G36*
X5717247Y6117985D02*
G01*
X5743684Y6109965D01*
X5768053Y6096940D01*
X5789411Y6079411D01*
X5806940Y6058053D01*
X5819965Y6033684D01*
X5827985Y6007247D01*
X5831000Y5976633D01*
X5831000Y5523367D01*
X5827985Y5492753D01*
X5819965Y5466316D01*
X5806940Y5441947D01*
X5789411Y5420589D01*
X5768053Y5403060D01*
X5743684Y5390035D01*
X5717247Y5382015D01*
X5686633Y5379000D01*
X5283367Y5379000D01*
X5252753Y5382015D01*
X5226316Y5390035D01*
X5201947Y5403060D01*
X5180589Y5420589D01*
X5163060Y5441947D01*
X5150035Y5466316D01*
X5142015Y5492753D01*
X5139000Y5523367D01*
X5139000Y5976633D01*
X5142015Y6007247D01*
X5150035Y6033684D01*
X5163060Y6058053D01*
X5180589Y6079411D01*
X5201947Y6096940D01*
X5226316Y6109965D01*
X5252753Y6117985D01*
X5283367Y6121000D01*
X5686633Y6121000D01*
X5717247Y6117985D01*
X5717247Y6117985D01*
G37*
G36*
X4747247Y6117985D02*
G01*
X4773684Y6109965D01*
X4798053Y6096940D01*
X4819411Y6079411D01*
X4836940Y6058053D01*
X4849965Y6033684D01*
X4857985Y6007247D01*
X4861000Y5976633D01*
X4861000Y5523367D01*
X4857985Y5492753D01*
X4849965Y5466316D01*
X4836940Y5441947D01*
X4819411Y5420589D01*
X4798053Y5403060D01*
X4773684Y5390035D01*
X4747247Y5382015D01*
X4716633Y5379000D01*
X4313367Y5379000D01*
X4282753Y5382015D01*
X4256316Y5390035D01*
X4231947Y5403060D01*
X4210589Y5420589D01*
X4193060Y5441947D01*
X4180035Y5466316D01*
X4172015Y5492753D01*
X4169000Y5523367D01*
X4169000Y5976633D01*
X4172015Y6007247D01*
X4180035Y6033684D01*
X4193060Y6058053D01*
X4210589Y6079411D01*
X4231947Y6096940D01*
X4256316Y6109965D01*
X4282753Y6117985D01*
X4313367Y6121000D01*
X4716633Y6121000D01*
X4747247Y6117985D01*
X4747247Y6117985D01*
G37*
G36*
X8354894Y6521616D02*
G01*
X8394705Y6509540D01*
X8431390Y6489931D01*
X8463544Y6463544D01*
X8489931Y6431390D01*
X8509540Y6394705D01*
X8521616Y6354894D01*
X8526000Y6310383D01*
X8526000Y5764617D01*
X8521616Y5720106D01*
X8509540Y5680295D01*
X8489931Y5643610D01*
X8463544Y5611456D01*
X8431390Y5585069D01*
X8394705Y5565460D01*
X8354894Y5553384D01*
X8310383Y5549000D01*
X7689617Y5549000D01*
X7645106Y5553384D01*
X7605295Y5565460D01*
X7568610Y5585069D01*
X7536456Y5611456D01*
X7510069Y5643610D01*
X7490460Y5680295D01*
X7478384Y5720106D01*
X7474000Y5764617D01*
X7474000Y6310383D01*
X7478384Y6354894D01*
X7490460Y6394705D01*
X7510069Y6431390D01*
X7536456Y6463544D01*
X7568610Y6489931D01*
X7605295Y6509540D01*
X7645106Y6521616D01*
X7689617Y6526000D01*
X8310383Y6526000D01*
X8354894Y6521616D01*
X8354894Y6521616D01*
G37*
G36*
X-2282753Y6867985D02*
G01*
X-2256316Y6859965D01*
X-2231947Y6846940D01*
X-2210589Y6829411D01*
X-2193060Y6808053D01*
X-2180035Y6783684D01*
X-2172015Y6757247D01*
X-2169000Y6726633D01*
X-2169000Y6273367D01*
X-2172015Y6242753D01*
X-2180035Y6216316D01*
X-2193060Y6191947D01*
X-2210589Y6170589D01*
X-2231947Y6153060D01*
X-2256316Y6140035D01*
X-2282753Y6132015D01*
X-2313367Y6129000D01*
X-2716633Y6129000D01*
X-2747247Y6132015D01*
X-2773684Y6140035D01*
X-2798053Y6153060D01*
X-2819411Y6170589D01*
X-2836940Y6191947D01*
X-2849965Y6216316D01*
X-2857985Y6242753D01*
X-2861000Y6273367D01*
X-2861000Y6726633D01*
X-2857985Y6757247D01*
X-2849965Y6783684D01*
X-2836940Y6808053D01*
X-2819411Y6829411D01*
X-2798053Y6846940D01*
X-2773684Y6859965D01*
X-2747247Y6867985D01*
X-2716633Y6871000D01*
X-2313367Y6871000D01*
X-2282753Y6867985D01*
X-2282753Y6867985D01*
G37*
G36*
X-3252753Y6867985D02*
G01*
X-3226316Y6859965D01*
X-3201947Y6846940D01*
X-3180589Y6829411D01*
X-3163060Y6808053D01*
X-3150035Y6783684D01*
X-3142015Y6757247D01*
X-3139000Y6726633D01*
X-3139000Y6273367D01*
X-3142015Y6242753D01*
X-3150035Y6216316D01*
X-3163060Y6191947D01*
X-3180589Y6170589D01*
X-3201947Y6153060D01*
X-3226316Y6140035D01*
X-3252753Y6132015D01*
X-3283367Y6129000D01*
X-3686633Y6129000D01*
X-3717247Y6132015D01*
X-3743684Y6140035D01*
X-3768053Y6153060D01*
X-3789411Y6170589D01*
X-3806940Y6191947D01*
X-3819965Y6216316D01*
X-3827985Y6242753D01*
X-3831000Y6273367D01*
X-3831000Y6726633D01*
X-3827985Y6757247D01*
X-3819965Y6783684D01*
X-3806940Y6808053D01*
X-3789411Y6829411D01*
X-3768053Y6846940D01*
X-3743684Y6859965D01*
X-3717247Y6867985D01*
X-3686633Y6871000D01*
X-3283367Y6871000D01*
X-3252753Y6867985D01*
X-3252753Y6867985D01*
G37*
G36*
X3317247Y6867985D02*
G01*
X3343684Y6859965D01*
X3368053Y6846940D01*
X3389411Y6829411D01*
X3406940Y6808053D01*
X3419965Y6783684D01*
X3427985Y6757247D01*
X3431000Y6726633D01*
X3431000Y6273367D01*
X3427985Y6242753D01*
X3419965Y6216316D01*
X3406940Y6191947D01*
X3389411Y6170589D01*
X3368053Y6153060D01*
X3343684Y6140035D01*
X3317247Y6132015D01*
X3286633Y6129000D01*
X2883367Y6129000D01*
X2852753Y6132015D01*
X2826316Y6140035D01*
X2801947Y6153060D01*
X2780589Y6170589D01*
X2763060Y6191947D01*
X2750035Y6216316D01*
X2742015Y6242753D01*
X2739000Y6273367D01*
X2739000Y6726633D01*
X2742015Y6757247D01*
X2750035Y6783684D01*
X2763060Y6808053D01*
X2780589Y6829411D01*
X2801947Y6846940D01*
X2826316Y6859965D01*
X2852753Y6867985D01*
X2883367Y6871000D01*
X3286633Y6871000D01*
X3317247Y6867985D01*
X3317247Y6867985D01*
G37*
G36*
X2347247Y6867985D02*
G01*
X2373684Y6859965D01*
X2398053Y6846940D01*
X2419411Y6829411D01*
X2436940Y6808053D01*
X2449965Y6783684D01*
X2457985Y6757247D01*
X2461000Y6726633D01*
X2461000Y6273367D01*
X2457985Y6242753D01*
X2449965Y6216316D01*
X2436940Y6191947D01*
X2419411Y6170589D01*
X2398053Y6153060D01*
X2373684Y6140035D01*
X2347247Y6132015D01*
X2316633Y6129000D01*
X1913367Y6129000D01*
X1882753Y6132015D01*
X1856316Y6140035D01*
X1831947Y6153060D01*
X1810589Y6170589D01*
X1793060Y6191947D01*
X1780035Y6216316D01*
X1772015Y6242753D01*
X1769000Y6273367D01*
X1769000Y6726633D01*
X1772015Y6757247D01*
X1780035Y6783684D01*
X1793060Y6808053D01*
X1810589Y6829411D01*
X1831947Y6846940D01*
X1856316Y6859965D01*
X1882753Y6867985D01*
X1913367Y6871000D01*
X2316633Y6871000D01*
X2347247Y6867985D01*
X2347247Y6867985D01*
G37*
G36*
X4747247Y7367985D02*
G01*
X4773684Y7359965D01*
X4798053Y7346940D01*
X4819411Y7329411D01*
X4836940Y7308053D01*
X4849965Y7283684D01*
X4857985Y7257247D01*
X4861000Y7226633D01*
X4861000Y6773367D01*
X4857985Y6742753D01*
X4849965Y6716316D01*
X4836940Y6691947D01*
X4819411Y6670589D01*
X4798053Y6653060D01*
X4773684Y6640035D01*
X4747247Y6632015D01*
X4716633Y6629000D01*
X4313367Y6629000D01*
X4282753Y6632015D01*
X4256316Y6640035D01*
X4231947Y6653060D01*
X4210589Y6670589D01*
X4193060Y6691947D01*
X4180035Y6716316D01*
X4172015Y6742753D01*
X4169000Y6773367D01*
X4169000Y7226633D01*
X4172015Y7257247D01*
X4180035Y7283684D01*
X4193060Y7308053D01*
X4210589Y7329411D01*
X4231947Y7346940D01*
X4256316Y7359965D01*
X4282753Y7367985D01*
X4313367Y7371000D01*
X4716633Y7371000D01*
X4747247Y7367985D01*
X4747247Y7367985D01*
G37*
G36*
X5717247Y7367985D02*
G01*
X5743684Y7359965D01*
X5768053Y7346940D01*
X5789411Y7329411D01*
X5806940Y7308053D01*
X5819965Y7283684D01*
X5827985Y7257247D01*
X5831000Y7226633D01*
X5831000Y6773367D01*
X5827985Y6742753D01*
X5819965Y6716316D01*
X5806940Y6691947D01*
X5789411Y6670589D01*
X5768053Y6653060D01*
X5743684Y6640035D01*
X5717247Y6632015D01*
X5686633Y6629000D01*
X5283367Y6629000D01*
X5252753Y6632015D01*
X5226316Y6640035D01*
X5201947Y6653060D01*
X5180589Y6670589D01*
X5163060Y6691947D01*
X5150035Y6716316D01*
X5142015Y6742753D01*
X5139000Y6773367D01*
X5139000Y7226633D01*
X5142015Y7257247D01*
X5150035Y7283684D01*
X5163060Y7308053D01*
X5180589Y7329411D01*
X5201947Y7346940D01*
X5226316Y7359965D01*
X5252753Y7367985D01*
X5283367Y7371000D01*
X5686633Y7371000D01*
X5717247Y7367985D01*
X5717247Y7367985D01*
G37*
G36*
X-869337Y12649618D02*
G01*
X-858840Y12646434D01*
X-849171Y12641266D01*
X-840693Y12634307D01*
X-833734Y12625829D01*
X-828566Y12616160D01*
X-825382Y12605663D01*
X-824000Y12591633D01*
X-824000Y11758367D01*
X-825382Y11744337D01*
X-828566Y11733840D01*
X-833734Y11724171D01*
X-840693Y11715692D01*
X-843263Y11713583D01*
X-852065Y11704780D01*
X-858980Y11694430D01*
X-863744Y11682929D01*
X-866171Y11670720D01*
X-866171Y11658272D01*
X-863742Y11646064D01*
X-858978Y11634563D01*
X-852062Y11624214D01*
X-843259Y11615412D01*
X-832909Y11608497D01*
X-821408Y11603733D01*
X-802978Y11601000D01*
X-697022Y11601000D01*
X-684634Y11602220D01*
X-672722Y11605834D01*
X-661744Y11611702D01*
X-652121Y11619598D01*
X-644225Y11629221D01*
X-638357Y11640199D01*
X-634743Y11652111D01*
X-633523Y11664499D01*
X-634743Y11676887D01*
X-638357Y11688799D01*
X-644225Y11699777D01*
X-656737Y11713583D01*
X-659307Y11715692D01*
X-666266Y11724171D01*
X-671434Y11733840D01*
X-674618Y11744337D01*
X-676000Y11758367D01*
X-676000Y12591633D01*
X-674618Y12605663D01*
X-671434Y12616160D01*
X-666266Y12625829D01*
X-659307Y12634307D01*
X-650829Y12641266D01*
X-641160Y12646434D01*
X-630663Y12649618D01*
X-616633Y12651000D01*
X-383367Y12651000D01*
X-369337Y12649618D01*
X-358840Y12646434D01*
X-349171Y12641266D01*
X-340693Y12634307D01*
X-333734Y12625829D01*
X-328566Y12616160D01*
X-325382Y12605663D01*
X-324000Y12591633D01*
X-324000Y11758367D01*
X-325382Y11744337D01*
X-328566Y11733840D01*
X-333734Y11724171D01*
X-340693Y11715692D01*
X-343263Y11713583D01*
X-352065Y11704780D01*
X-358980Y11694430D01*
X-363744Y11682929D01*
X-366171Y11670720D01*
X-366171Y11658272D01*
X-363742Y11646064D01*
X-358978Y11634563D01*
X-352062Y11624214D01*
X-343259Y11615412D01*
X-332909Y11608497D01*
X-321408Y11603733D01*
X-302978Y11601000D01*
X-197022Y11601000D01*
X-184634Y11602220D01*
X-172722Y11605834D01*
X-161744Y11611702D01*
X-152121Y11619598D01*
X-144225Y11629221D01*
X-138357Y11640199D01*
X-134743Y11652111D01*
X-133523Y11664499D01*
X-134743Y11676887D01*
X-138357Y11688799D01*
X-144225Y11699777D01*
X-156737Y11713583D01*
X-159307Y11715692D01*
X-166266Y11724171D01*
X-171434Y11733840D01*
X-174618Y11744337D01*
X-176000Y11758367D01*
X-176000Y12591633D01*
X-174618Y12605663D01*
X-171434Y12616160D01*
X-166266Y12625829D01*
X-159307Y12634307D01*
X-150829Y12641266D01*
X-141160Y12646434D01*
X-130663Y12649618D01*
X-116633Y12651000D01*
X116633Y12651000D01*
X130663Y12649618D01*
X141160Y12646434D01*
X150829Y12641266D01*
X159307Y12634307D01*
X166266Y12625829D01*
X171434Y12616160D01*
X174618Y12605663D01*
X176000Y12591633D01*
X176000Y11758367D01*
X174618Y11744337D01*
X171434Y11733840D01*
X166266Y11724171D01*
X159307Y11715692D01*
X156737Y11713583D01*
X147935Y11704780D01*
X141020Y11694430D01*
X136256Y11682929D01*
X133829Y11670720D01*
X133829Y11658272D01*
X136258Y11646064D01*
X141022Y11634563D01*
X147938Y11624214D01*
X156741Y11615412D01*
X167091Y11608497D01*
X178592Y11603733D01*
X197022Y11601000D01*
X302978Y11601000D01*
X315366Y11602220D01*
X327278Y11605834D01*
X338256Y11611702D01*
X347879Y11619598D01*
X355775Y11629221D01*
X361643Y11640199D01*
X365257Y11652111D01*
X366477Y11664499D01*
X365257Y11676887D01*
X361643Y11688799D01*
X355775Y11699777D01*
X343263Y11713583D01*
X340693Y11715692D01*
X333734Y11724171D01*
X328566Y11733840D01*
X325382Y11744337D01*
X324000Y11758367D01*
X324000Y12591633D01*
X325382Y12605663D01*
X328566Y12616160D01*
X333734Y12625829D01*
X340693Y12634307D01*
X349171Y12641266D01*
X358840Y12646434D01*
X369337Y12649618D01*
X383367Y12651000D01*
X616633Y12651000D01*
X630663Y12649618D01*
X641160Y12646434D01*
X650829Y12641266D01*
X659307Y12634307D01*
X666266Y12625829D01*
X671434Y12616160D01*
X674618Y12605663D01*
X676000Y12591633D01*
X676000Y11758367D01*
X674618Y11744337D01*
X671434Y11733840D01*
X666266Y11724171D01*
X659307Y11715692D01*
X656737Y11713583D01*
X647935Y11704780D01*
X641020Y11694430D01*
X636256Y11682929D01*
X633829Y11670720D01*
X633829Y11658272D01*
X636258Y11646064D01*
X641022Y11634563D01*
X647938Y11624214D01*
X656741Y11615412D01*
X667091Y11608497D01*
X678592Y11603733D01*
X697022Y11601000D01*
X802978Y11601000D01*
X815366Y11602220D01*
X827278Y11605834D01*
X838256Y11611702D01*
X847879Y11619598D01*
X855775Y11629221D01*
X861643Y11640199D01*
X865257Y11652111D01*
X866477Y11664499D01*
X865257Y11676887D01*
X861643Y11688799D01*
X855775Y11699777D01*
X843263Y11713583D01*
X840693Y11715692D01*
X833734Y11724171D01*
X828566Y11733840D01*
X825382Y11744337D01*
X824000Y11758367D01*
X824000Y12591633D01*
X825382Y12605663D01*
X828566Y12616160D01*
X833734Y12625829D01*
X840693Y12634307D01*
X849171Y12641266D01*
X858840Y12646434D01*
X869337Y12649618D01*
X883367Y12651000D01*
X1116633Y12651000D01*
X1130663Y12649618D01*
X1141160Y12646434D01*
X1150829Y12641266D01*
X1159307Y12634307D01*
X1166266Y12625829D01*
X1171434Y12616160D01*
X1174618Y12605663D01*
X1176000Y12591633D01*
X1176000Y11758367D01*
X1174618Y11744337D01*
X1171434Y11733840D01*
X1166266Y11724171D01*
X1159308Y11715694D01*
X1150891Y11708785D01*
X1142090Y11699982D01*
X1135175Y11689632D01*
X1130412Y11678131D01*
X1127984Y11665922D01*
X1127985Y11653474D01*
X1130414Y11641265D01*
X1135179Y11629765D01*
X1142095Y11619415D01*
X1150898Y11610614D01*
X1161248Y11603699D01*
X1172749Y11598936D01*
X1181320Y11597232D01*
X1222161Y11584843D01*
X1258159Y11565602D01*
X1289709Y11539709D01*
X1315602Y11508159D01*
X1334843Y11472161D01*
X1347232Y11431319D01*
X1348936Y11422751D01*
X1353698Y11411250D01*
X1360613Y11400899D01*
X1369414Y11392096D01*
X1379764Y11385180D01*
X1391264Y11380415D01*
X1403472Y11377985D01*
X1415920Y11377984D01*
X1428129Y11380412D01*
X1439630Y11385174D01*
X1449981Y11392089D01*
X1458785Y11400891D01*
X1465694Y11409308D01*
X1474171Y11416266D01*
X1483840Y11421434D01*
X1494337Y11424618D01*
X1508367Y11426000D01*
X2341633Y11426000D01*
X2355663Y11424618D01*
X2366160Y11421434D01*
X2375829Y11416266D01*
X2384307Y11409307D01*
X2391266Y11400829D01*
X2396434Y11391160D01*
X2399618Y11380663D01*
X2401000Y11366633D01*
X2401000Y11133367D01*
X2399618Y11119337D01*
X2396434Y11108840D01*
X2391266Y11099171D01*
X2384307Y11090693D01*
X2375829Y11083734D01*
X2366160Y11078566D01*
X2355663Y11075382D01*
X2341633Y11074000D01*
X1508367Y11074000D01*
X1494337Y11075382D01*
X1483840Y11078566D01*
X1474171Y11083734D01*
X1465692Y11090693D01*
X1463583Y11093263D01*
X1454780Y11102065D01*
X1444430Y11108980D01*
X1432929Y11113744D01*
X1420720Y11116171D01*
X1408272Y11116171D01*
X1396064Y11113742D01*
X1384563Y11108978D01*
X1374214Y11102062D01*
X1365412Y11093259D01*
X1358497Y11082909D01*
X1353733Y11071408D01*
X1351000Y11052978D01*
X1351000Y10947022D01*
X1352220Y10934634D01*
X1355834Y10922722D01*
X1361702Y10911744D01*
X1369598Y10902121D01*
X1379221Y10894225D01*
X1390199Y10888357D01*
X1402111Y10884743D01*
X1414499Y10883523D01*
X1426887Y10884743D01*
X1438799Y10888357D01*
X1449777Y10894225D01*
X1463583Y10906737D01*
X1465692Y10909307D01*
X1474171Y10916266D01*
X1483840Y10921434D01*
X1494337Y10924618D01*
X1508367Y10926000D01*
X2341633Y10926000D01*
X2355663Y10924618D01*
X2366160Y10921434D01*
X2375829Y10916266D01*
X2384307Y10909307D01*
X2391266Y10900829D01*
X2396434Y10891160D01*
X2399618Y10880663D01*
X2401000Y10866633D01*
X2401000Y10633367D01*
X2399618Y10619337D01*
X2396434Y10608840D01*
X2391266Y10599171D01*
X2384307Y10590693D01*
X2375829Y10583734D01*
X2366160Y10578566D01*
X2355663Y10575382D01*
X2341633Y10574000D01*
X1508367Y10574000D01*
X1494337Y10575382D01*
X1483840Y10578566D01*
X1474171Y10583734D01*
X1465692Y10590693D01*
X1463583Y10593263D01*
X1454780Y10602065D01*
X1444430Y10608980D01*
X1432929Y10613744D01*
X1420720Y10616171D01*
X1408272Y10616171D01*
X1396064Y10613742D01*
X1384563Y10608978D01*
X1374214Y10602062D01*
X1365412Y10593259D01*
X1358497Y10582909D01*
X1353733Y10571408D01*
X1351000Y10552978D01*
X1351000Y10447022D01*
X1352220Y10434634D01*
X1355834Y10422722D01*
X1361702Y10411744D01*
X1369598Y10402121D01*
X1379221Y10394225D01*
X1390199Y10388357D01*
X1402111Y10384743D01*
X1414499Y10383523D01*
X1426887Y10384743D01*
X1438799Y10388357D01*
X1449777Y10394225D01*
X1463583Y10406737D01*
X1465692Y10409307D01*
X1474171Y10416266D01*
X1483840Y10421434D01*
X1494337Y10424618D01*
X1508367Y10426000D01*
X2341633Y10426000D01*
X2355663Y10424618D01*
X2366160Y10421434D01*
X2375829Y10416266D01*
X2384307Y10409307D01*
X2391266Y10400829D01*
X2396434Y10391160D01*
X2399618Y10380663D01*
X2401000Y10366633D01*
X2401000Y10133367D01*
X2399618Y10119337D01*
X2396434Y10108840D01*
X2391266Y10099171D01*
X2384307Y10090693D01*
X2375829Y10083734D01*
X2366160Y10078566D01*
X2355663Y10075382D01*
X2341633Y10074000D01*
X1508367Y10074000D01*
X1494337Y10075382D01*
X1483840Y10078566D01*
X1474171Y10083734D01*
X1465692Y10090693D01*
X1463583Y10093263D01*
X1454780Y10102065D01*
X1444430Y10108980D01*
X1432929Y10113744D01*
X1420720Y10116171D01*
X1408272Y10116171D01*
X1396064Y10113742D01*
X1384563Y10108978D01*
X1374214Y10102062D01*
X1365412Y10093259D01*
X1358497Y10082909D01*
X1353733Y10071408D01*
X1351000Y10052978D01*
X1351000Y9947022D01*
X1352220Y9934634D01*
X1355834Y9922722D01*
X1361702Y9911744D01*
X1369598Y9902121D01*
X1379221Y9894225D01*
X1390199Y9888357D01*
X1402111Y9884743D01*
X1414499Y9883523D01*
X1426887Y9884743D01*
X1438799Y9888357D01*
X1449777Y9894225D01*
X1463583Y9906737D01*
X1465692Y9909307D01*
X1474171Y9916266D01*
X1483840Y9921434D01*
X1494337Y9924618D01*
X1508367Y9926000D01*
X2341633Y9926000D01*
X2355663Y9924618D01*
X2366160Y9921434D01*
X2375829Y9916266D01*
X2384307Y9909307D01*
X2391266Y9900829D01*
X2396434Y9891160D01*
X2399618Y9880663D01*
X2401000Y9866633D01*
X2401000Y9633367D01*
X2399618Y9619337D01*
X2396434Y9608840D01*
X2391266Y9599171D01*
X2384307Y9590693D01*
X2375829Y9583734D01*
X2366160Y9578566D01*
X2355663Y9575382D01*
X2341633Y9574000D01*
X1508367Y9574000D01*
X1494337Y9575382D01*
X1483840Y9578566D01*
X1474171Y9583734D01*
X1465692Y9590693D01*
X1463583Y9593263D01*
X1454780Y9602065D01*
X1444430Y9608980D01*
X1432929Y9613744D01*
X1420720Y9616171D01*
X1408272Y9616171D01*
X1396064Y9613742D01*
X1384563Y9608978D01*
X1374214Y9602062D01*
X1365412Y9593259D01*
X1358497Y9582909D01*
X1353733Y9571408D01*
X1351000Y9552978D01*
X1351000Y9447022D01*
X1352220Y9434634D01*
X1355834Y9422722D01*
X1361702Y9411744D01*
X1369598Y9402121D01*
X1379221Y9394225D01*
X1390199Y9388357D01*
X1402111Y9384743D01*
X1414499Y9383523D01*
X1426887Y9384743D01*
X1438799Y9388357D01*
X1449777Y9394225D01*
X1463583Y9406737D01*
X1465692Y9409307D01*
X1474171Y9416266D01*
X1483840Y9421434D01*
X1494337Y9424618D01*
X1508367Y9426000D01*
X2341633Y9426000D01*
X2355663Y9424618D01*
X2366160Y9421434D01*
X2375829Y9416266D01*
X2384307Y9409307D01*
X2391266Y9400829D01*
X2396434Y9391160D01*
X2399618Y9380663D01*
X2401000Y9366633D01*
X2401000Y9133367D01*
X2399618Y9119337D01*
X2396434Y9108840D01*
X2391266Y9099171D01*
X2384307Y9090693D01*
X2375829Y9083734D01*
X2366160Y9078566D01*
X2355663Y9075382D01*
X2341633Y9074000D01*
X1508367Y9074000D01*
X1494337Y9075382D01*
X1483840Y9078566D01*
X1474171Y9083734D01*
X1465694Y9090692D01*
X1458785Y9099109D01*
X1449982Y9107910D01*
X1439632Y9114825D01*
X1428131Y9119588D01*
X1415922Y9122016D01*
X1403474Y9122015D01*
X1391265Y9119586D01*
X1379765Y9114821D01*
X1369415Y9107905D01*
X1360614Y9099102D01*
X1353699Y9088752D01*
X1348936Y9077251D01*
X1347232Y9068680D01*
X1334843Y9027839D01*
X1315602Y8991841D01*
X1289709Y8960291D01*
X1258159Y8934398D01*
X1222161Y8915157D01*
X1181319Y8902768D01*
X1172751Y8901064D01*
X1161250Y8896302D01*
X1150899Y8889387D01*
X1142096Y8880586D01*
X1135180Y8870236D01*
X1130415Y8858736D01*
X1127985Y8846528D01*
X1127984Y8834080D01*
X1130412Y8821871D01*
X1135174Y8810370D01*
X1142089Y8800019D01*
X1150891Y8791215D01*
X1159308Y8784306D01*
X1166266Y8775829D01*
X1171434Y8766160D01*
X1174618Y8755663D01*
X1176000Y8741633D01*
X1176000Y7908367D01*
X1174618Y7894337D01*
X1171434Y7883840D01*
X1166266Y7874171D01*
X1159307Y7865693D01*
X1150829Y7858734D01*
X1141160Y7853566D01*
X1130663Y7850382D01*
X1116633Y7849000D01*
X883367Y7849000D01*
X869337Y7850382D01*
X858840Y7853566D01*
X849171Y7858734D01*
X840693Y7865693D01*
X833734Y7874171D01*
X828566Y7883840D01*
X825382Y7894337D01*
X824000Y7908367D01*
X824000Y8741633D01*
X825382Y8755663D01*
X828566Y8766160D01*
X833734Y8775829D01*
X840693Y8784308D01*
X843263Y8786417D01*
X852065Y8795220D01*
X858980Y8805570D01*
X863744Y8817071D01*
X866171Y8829280D01*
X866171Y8841728D01*
X863742Y8853936D01*
X858978Y8865437D01*
X852062Y8875786D01*
X843259Y8884588D01*
X832909Y8891503D01*
X821408Y8896267D01*
X802978Y8899000D01*
X697022Y8899000D01*
X684634Y8897780D01*
X672722Y8894166D01*
X661744Y8888298D01*
X652121Y8880402D01*
X644225Y8870779D01*
X638357Y8859801D01*
X634743Y8847889D01*
X633523Y8835501D01*
X634743Y8823113D01*
X638357Y8811201D01*
X644225Y8800223D01*
X656737Y8786417D01*
X659307Y8784308D01*
X666266Y8775829D01*
X671434Y8766160D01*
X674618Y8755663D01*
X676000Y8741633D01*
X676000Y7908367D01*
X674618Y7894337D01*
X671434Y7883840D01*
X666266Y7874171D01*
X659307Y7865693D01*
X650829Y7858734D01*
X641160Y7853566D01*
X630663Y7850382D01*
X616633Y7849000D01*
X383367Y7849000D01*
X369337Y7850382D01*
X358840Y7853566D01*
X349171Y7858734D01*
X340693Y7865693D01*
X333734Y7874171D01*
X328566Y7883840D01*
X325382Y7894337D01*
X324000Y7908367D01*
X324000Y8741633D01*
X325382Y8755663D01*
X328566Y8766160D01*
X333734Y8775829D01*
X340693Y8784308D01*
X343263Y8786417D01*
X352065Y8795220D01*
X358980Y8805570D01*
X363744Y8817071D01*
X366171Y8829280D01*
X366171Y8841728D01*
X363742Y8853936D01*
X358978Y8865437D01*
X352062Y8875786D01*
X343259Y8884588D01*
X332909Y8891503D01*
X321408Y8896267D01*
X302978Y8899000D01*
X197022Y8899000D01*
X184634Y8897780D01*
X172722Y8894166D01*
X161744Y8888298D01*
X152121Y8880402D01*
X144225Y8870779D01*
X138357Y8859801D01*
X134743Y8847889D01*
X133523Y8835501D01*
X134743Y8823113D01*
X138357Y8811201D01*
X144225Y8800223D01*
X156737Y8786417D01*
X159307Y8784308D01*
X166266Y8775829D01*
X171434Y8766160D01*
X174618Y8755663D01*
X176000Y8741633D01*
X176000Y7908367D01*
X174618Y7894337D01*
X171434Y7883840D01*
X166266Y7874171D01*
X159307Y7865693D01*
X150829Y7858734D01*
X141160Y7853566D01*
X130663Y7850382D01*
X116633Y7849000D01*
X-116633Y7849000D01*
X-130663Y7850382D01*
X-141160Y7853566D01*
X-150829Y7858734D01*
X-159307Y7865693D01*
X-166266Y7874171D01*
X-171434Y7883840D01*
X-174618Y7894337D01*
X-176000Y7908367D01*
X-176000Y8741633D01*
X-174618Y8755663D01*
X-171434Y8766160D01*
X-166266Y8775829D01*
X-159307Y8784308D01*
X-156737Y8786417D01*
X-147935Y8795220D01*
X-141020Y8805570D01*
X-136256Y8817071D01*
X-133829Y8829280D01*
X-133829Y8841728D01*
X-136258Y8853936D01*
X-141022Y8865437D01*
X-147938Y8875786D01*
X-156741Y8884588D01*
X-167091Y8891503D01*
X-178592Y8896267D01*
X-197022Y8899000D01*
X-302978Y8899000D01*
X-315366Y8897780D01*
X-327278Y8894166D01*
X-338256Y8888298D01*
X-347879Y8880402D01*
X-355775Y8870779D01*
X-361643Y8859801D01*
X-365257Y8847889D01*
X-366477Y8835501D01*
X-365257Y8823113D01*
X-361643Y8811201D01*
X-355775Y8800223D01*
X-343263Y8786417D01*
X-340693Y8784308D01*
X-333734Y8775829D01*
X-328566Y8766160D01*
X-325382Y8755663D01*
X-324000Y8741633D01*
X-324000Y7908367D01*
X-325382Y7894337D01*
X-328566Y7883840D01*
X-333734Y7874171D01*
X-340693Y7865693D01*
X-349171Y7858734D01*
X-358840Y7853566D01*
X-369337Y7850382D01*
X-383367Y7849000D01*
X-616633Y7849000D01*
X-630663Y7850382D01*
X-641160Y7853566D01*
X-650829Y7858734D01*
X-659307Y7865693D01*
X-666266Y7874171D01*
X-671434Y7883840D01*
X-674618Y7894337D01*
X-676000Y7908367D01*
X-676000Y8741633D01*
X-674618Y8755663D01*
X-671434Y8766160D01*
X-666266Y8775829D01*
X-659307Y8784308D01*
X-656737Y8786417D01*
X-647935Y8795220D01*
X-641020Y8805570D01*
X-636256Y8817071D01*
X-633829Y8829280D01*
X-633829Y8841728D01*
X-636258Y8853936D01*
X-641022Y8865437D01*
X-647938Y8875786D01*
X-656741Y8884588D01*
X-667091Y8891503D01*
X-678592Y8896267D01*
X-697022Y8899000D01*
X-802978Y8899000D01*
X-815366Y8897780D01*
X-827278Y8894166D01*
X-838256Y8888298D01*
X-847879Y8880402D01*
X-855775Y8870779D01*
X-861643Y8859801D01*
X-865257Y8847889D01*
X-866477Y8835501D01*
X-865257Y8823113D01*
X-861643Y8811201D01*
X-855775Y8800223D01*
X-843263Y8786417D01*
X-840693Y8784308D01*
X-833734Y8775829D01*
X-828566Y8766160D01*
X-825382Y8755663D01*
X-824000Y8741633D01*
X-824000Y7908367D01*
X-825382Y7894337D01*
X-828566Y7883840D01*
X-833734Y7874171D01*
X-840693Y7865693D01*
X-849171Y7858734D01*
X-858840Y7853566D01*
X-869337Y7850382D01*
X-883367Y7849000D01*
X-1116633Y7849000D01*
X-1130663Y7850382D01*
X-1141160Y7853566D01*
X-1150829Y7858734D01*
X-1159307Y7865693D01*
X-1166266Y7874171D01*
X-1171434Y7883840D01*
X-1174618Y7894337D01*
X-1176000Y7908367D01*
X-1176000Y8741633D01*
X-1174618Y8755663D01*
X-1171434Y8766160D01*
X-1166266Y8775829D01*
X-1159308Y8784306D01*
X-1150891Y8791215D01*
X-1142090Y8800018D01*
X-1135175Y8810368D01*
X-1130412Y8821869D01*
X-1127984Y8834078D01*
X-1127985Y8846526D01*
X-1130414Y8858735D01*
X-1135179Y8870235D01*
X-1142095Y8880585D01*
X-1150898Y8889386D01*
X-1161248Y8896301D01*
X-1172749Y8901064D01*
X-1181320Y8902768D01*
X-1222161Y8915157D01*
X-1258159Y8934398D01*
X-1289709Y8960291D01*
X-1315602Y8991841D01*
X-1334843Y9027839D01*
X-1347232Y9068681D01*
X-1348936Y9077249D01*
X-1353698Y9088750D01*
X-1360613Y9099101D01*
X-1369414Y9107904D01*
X-1379764Y9114820D01*
X-1391264Y9119585D01*
X-1403472Y9122015D01*
X-1415920Y9122016D01*
X-1428129Y9119588D01*
X-1439630Y9114826D01*
X-1449981Y9107911D01*
X-1458785Y9099109D01*
X-1465694Y9090692D01*
X-1474171Y9083734D01*
X-1483840Y9078566D01*
X-1494337Y9075382D01*
X-1508367Y9074000D01*
X-2341633Y9074000D01*
X-2355663Y9075382D01*
X-2366160Y9078566D01*
X-2375829Y9083734D01*
X-2384307Y9090693D01*
X-2391266Y9099171D01*
X-2396434Y9108840D01*
X-2399618Y9119337D01*
X-2401000Y9133367D01*
X-2401000Y9366633D01*
X-2399618Y9380663D01*
X-2396434Y9391160D01*
X-2391266Y9400829D01*
X-2384307Y9409307D01*
X-2375829Y9416266D01*
X-2366160Y9421434D01*
X-2355663Y9424618D01*
X-2341633Y9426000D01*
X-1508367Y9426000D01*
X-1494337Y9424618D01*
X-1483840Y9421434D01*
X-1474171Y9416266D01*
X-1465692Y9409307D01*
X-1463583Y9406737D01*
X-1454780Y9397935D01*
X-1444430Y9391020D01*
X-1432929Y9386256D01*
X-1420720Y9383829D01*
X-1408272Y9383829D01*
X-1396064Y9386258D01*
X-1384563Y9391022D01*
X-1374214Y9397938D01*
X-1365412Y9406741D01*
X-1358497Y9417091D01*
X-1353733Y9428592D01*
X-1351000Y9447022D01*
X-1351000Y9552978D01*
X-1352220Y9565366D01*
X-1355834Y9577278D01*
X-1361702Y9588256D01*
X-1369598Y9597879D01*
X-1379221Y9605775D01*
X-1390199Y9611643D01*
X-1402111Y9615257D01*
X-1414499Y9616477D01*
X-1426887Y9615257D01*
X-1438799Y9611643D01*
X-1449777Y9605775D01*
X-1463583Y9593263D01*
X-1465692Y9590693D01*
X-1474171Y9583734D01*
X-1483840Y9578566D01*
X-1494337Y9575382D01*
X-1508367Y9574000D01*
X-2341633Y9574000D01*
X-2355663Y9575382D01*
X-2366160Y9578566D01*
X-2375829Y9583734D01*
X-2384307Y9590693D01*
X-2391266Y9599171D01*
X-2396434Y9608840D01*
X-2399618Y9619337D01*
X-2401000Y9633367D01*
X-2401000Y9866633D01*
X-2399618Y9880663D01*
X-2396434Y9891160D01*
X-2391266Y9900829D01*
X-2384307Y9909307D01*
X-2375829Y9916266D01*
X-2366160Y9921434D01*
X-2355663Y9924618D01*
X-2341633Y9926000D01*
X-1508367Y9926000D01*
X-1494337Y9924618D01*
X-1483840Y9921434D01*
X-1474171Y9916266D01*
X-1465692Y9909307D01*
X-1463583Y9906737D01*
X-1454780Y9897935D01*
X-1444430Y9891020D01*
X-1432929Y9886256D01*
X-1420720Y9883829D01*
X-1408272Y9883829D01*
X-1396064Y9886258D01*
X-1384563Y9891022D01*
X-1374214Y9897938D01*
X-1365412Y9906741D01*
X-1358497Y9917091D01*
X-1353733Y9928592D01*
X-1351000Y9947022D01*
X-1351000Y10052978D01*
X-1352220Y10065366D01*
X-1355834Y10077278D01*
X-1361702Y10088256D01*
X-1369598Y10097879D01*
X-1379221Y10105775D01*
X-1390199Y10111643D01*
X-1402111Y10115257D01*
X-1414499Y10116477D01*
X-1426887Y10115257D01*
X-1438799Y10111643D01*
X-1449777Y10105775D01*
X-1463583Y10093263D01*
X-1465692Y10090693D01*
X-1474171Y10083734D01*
X-1483840Y10078566D01*
X-1494337Y10075382D01*
X-1508367Y10074000D01*
X-2341633Y10074000D01*
X-2355663Y10075382D01*
X-2366160Y10078566D01*
X-2375829Y10083734D01*
X-2384307Y10090693D01*
X-2391266Y10099171D01*
X-2396434Y10108840D01*
X-2399618Y10119337D01*
X-2401000Y10133367D01*
X-2401000Y10366633D01*
X-2399618Y10380663D01*
X-2396434Y10391160D01*
X-2391266Y10400829D01*
X-2384307Y10409307D01*
X-2375829Y10416266D01*
X-2366160Y10421434D01*
X-2355663Y10424618D01*
X-2341633Y10426000D01*
X-1508367Y10426000D01*
X-1494337Y10424618D01*
X-1483840Y10421434D01*
X-1474171Y10416266D01*
X-1465692Y10409307D01*
X-1463583Y10406737D01*
X-1454780Y10397935D01*
X-1444430Y10391020D01*
X-1432929Y10386256D01*
X-1420720Y10383829D01*
X-1408272Y10383829D01*
X-1396064Y10386258D01*
X-1384563Y10391022D01*
X-1374214Y10397938D01*
X-1365412Y10406741D01*
X-1358497Y10417091D01*
X-1353733Y10428592D01*
X-1351000Y10447022D01*
X-1351000Y10552978D01*
X-1352220Y10565366D01*
X-1355834Y10577278D01*
X-1361702Y10588256D01*
X-1369598Y10597879D01*
X-1379221Y10605775D01*
X-1390199Y10611643D01*
X-1402111Y10615257D01*
X-1414499Y10616477D01*
X-1426887Y10615257D01*
X-1438799Y10611643D01*
X-1449777Y10605775D01*
X-1463583Y10593263D01*
X-1465692Y10590693D01*
X-1474171Y10583734D01*
X-1483840Y10578566D01*
X-1494337Y10575382D01*
X-1508367Y10574000D01*
X-2341633Y10574000D01*
X-2355663Y10575382D01*
X-2366160Y10578566D01*
X-2375829Y10583734D01*
X-2384307Y10590693D01*
X-2391266Y10599171D01*
X-2396434Y10608840D01*
X-2399618Y10619337D01*
X-2401000Y10633367D01*
X-2401000Y10866633D01*
X-2399618Y10880663D01*
X-2396434Y10891160D01*
X-2391266Y10900829D01*
X-2384307Y10909307D01*
X-2375829Y10916266D01*
X-2366160Y10921434D01*
X-2355663Y10924618D01*
X-2341633Y10926000D01*
X-1508367Y10926000D01*
X-1494337Y10924618D01*
X-1483840Y10921434D01*
X-1474171Y10916266D01*
X-1465692Y10909307D01*
X-1463583Y10906737D01*
X-1454780Y10897935D01*
X-1444430Y10891020D01*
X-1432929Y10886256D01*
X-1420720Y10883829D01*
X-1408272Y10883829D01*
X-1396064Y10886258D01*
X-1384563Y10891022D01*
X-1374214Y10897938D01*
X-1365412Y10906741D01*
X-1358497Y10917091D01*
X-1353733Y10928592D01*
X-1351000Y10947022D01*
X-1351000Y11052978D01*
X-1352220Y11065366D01*
X-1355834Y11077278D01*
X-1361702Y11088256D01*
X-1369598Y11097879D01*
X-1379221Y11105775D01*
X-1390199Y11111643D01*
X-1402111Y11115257D01*
X-1414499Y11116477D01*
X-1426887Y11115257D01*
X-1438799Y11111643D01*
X-1449777Y11105775D01*
X-1463583Y11093263D01*
X-1465692Y11090693D01*
X-1474171Y11083734D01*
X-1483840Y11078566D01*
X-1494337Y11075382D01*
X-1508367Y11074000D01*
X-2341633Y11074000D01*
X-2355663Y11075382D01*
X-2366160Y11078566D01*
X-2375829Y11083734D01*
X-2384307Y11090693D01*
X-2391266Y11099171D01*
X-2396434Y11108840D01*
X-2399618Y11119337D01*
X-2401000Y11133367D01*
X-2401000Y11366633D01*
X-2399618Y11380663D01*
X-2396434Y11391160D01*
X-2391266Y11400829D01*
X-2384307Y11409307D01*
X-2375829Y11416266D01*
X-2366160Y11421434D01*
X-2355663Y11424618D01*
X-2341633Y11426000D01*
X-1508367Y11426000D01*
X-1494337Y11424618D01*
X-1483840Y11421434D01*
X-1474171Y11416266D01*
X-1465694Y11409308D01*
X-1458785Y11400891D01*
X-1449982Y11392090D01*
X-1439632Y11385175D01*
X-1428131Y11380412D01*
X-1415922Y11377984D01*
X-1403474Y11377985D01*
X-1391265Y11380414D01*
X-1379765Y11385179D01*
X-1369415Y11392095D01*
X-1360614Y11400898D01*
X-1353699Y11411248D01*
X-1348936Y11422749D01*
X-1347232Y11431320D01*
X-1334843Y11472161D01*
X-1315602Y11508159D01*
X-1289709Y11539709D01*
X-1258159Y11565602D01*
X-1222161Y11584843D01*
X-1181319Y11597232D01*
X-1172751Y11598936D01*
X-1161250Y11603698D01*
X-1150899Y11610613D01*
X-1142096Y11619414D01*
X-1135180Y11629764D01*
X-1130415Y11641264D01*
X-1127985Y11653472D01*
X-1127984Y11665920D01*
X-1130412Y11678129D01*
X-1135174Y11689630D01*
X-1142089Y11699981D01*
X-1150891Y11708785D01*
X-1159308Y11715694D01*
X-1166266Y11724171D01*
X-1171434Y11733840D01*
X-1174618Y11744337D01*
X-1176000Y11758367D01*
X-1176000Y12591633D01*
X-1174618Y12605663D01*
X-1171434Y12616160D01*
X-1166266Y12625829D01*
X-1159307Y12634307D01*
X-1150829Y12641266D01*
X-1141160Y12646434D01*
X-1130663Y12649618D01*
X-1116633Y12651000D01*
X-883367Y12651000D01*
X-869337Y12649618D01*
X-869337Y12649618D01*
G37*
G36*
X-3842753Y8557985D02*
G01*
X-3816316Y8549965D01*
X-3791947Y8536940D01*
X-3770589Y8519411D01*
X-3753060Y8498053D01*
X-3740035Y8473684D01*
X-3732015Y8447247D01*
X-3729000Y8416633D01*
X-3729000Y8013367D01*
X-3732015Y7982753D01*
X-3740035Y7956316D01*
X-3753060Y7931947D01*
X-3770589Y7910589D01*
X-3791947Y7893060D01*
X-3816316Y7880035D01*
X-3842753Y7872015D01*
X-3873367Y7869000D01*
X-4326633Y7869000D01*
X-4357247Y7872015D01*
X-4383684Y7880035D01*
X-4408053Y7893060D01*
X-4429411Y7910589D01*
X-4446940Y7931947D01*
X-4459965Y7956316D01*
X-4467985Y7982753D01*
X-4471000Y8013367D01*
X-4471000Y8416633D01*
X-4467985Y8447247D01*
X-4459965Y8473684D01*
X-4446940Y8498053D01*
X-4429411Y8519411D01*
X-4408053Y8536940D01*
X-4383684Y8549965D01*
X-4357247Y8557985D01*
X-4326633Y8561000D01*
X-3873367Y8561000D01*
X-3842753Y8557985D01*
X-3842753Y8557985D01*
G37*
G36*
X-6442753Y8557985D02*
G01*
X-6416316Y8549965D01*
X-6391947Y8536940D01*
X-6370589Y8519411D01*
X-6353060Y8498053D01*
X-6340035Y8473684D01*
X-6332015Y8447247D01*
X-6329000Y8416633D01*
X-6329000Y8013367D01*
X-6332015Y7982753D01*
X-6340035Y7956316D01*
X-6353060Y7931947D01*
X-6370589Y7910589D01*
X-6391947Y7893060D01*
X-6416316Y7880035D01*
X-6442753Y7872015D01*
X-6473367Y7869000D01*
X-6926633Y7869000D01*
X-6957247Y7872015D01*
X-6983684Y7880035D01*
X-7008053Y7893060D01*
X-7029411Y7910589D01*
X-7046940Y7931947D01*
X-7059965Y7956316D01*
X-7067985Y7982753D01*
X-7071000Y8013367D01*
X-7071000Y8416633D01*
X-7067985Y8447247D01*
X-7059965Y8473684D01*
X-7046940Y8498053D01*
X-7029411Y8519411D01*
X-7008053Y8536940D01*
X-6983684Y8549965D01*
X-6957247Y8557985D01*
X-6926633Y8561000D01*
X-6473367Y8561000D01*
X-6442753Y8557985D01*
X-6442753Y8557985D01*
G37*
G36*
X-5142753Y8557985D02*
G01*
X-5116316Y8549965D01*
X-5091947Y8536940D01*
X-5070589Y8519411D01*
X-5053060Y8498053D01*
X-5040035Y8473684D01*
X-5032015Y8447247D01*
X-5029000Y8416633D01*
X-5029000Y8013367D01*
X-5032015Y7982753D01*
X-5040035Y7956316D01*
X-5053060Y7931947D01*
X-5070589Y7910589D01*
X-5091947Y7893060D01*
X-5116316Y7880035D01*
X-5142753Y7872015D01*
X-5173367Y7869000D01*
X-5626633Y7869000D01*
X-5657247Y7872015D01*
X-5683684Y7880035D01*
X-5708053Y7893060D01*
X-5729411Y7910589D01*
X-5746940Y7931947D01*
X-5759965Y7956316D01*
X-5767985Y7982753D01*
X-5771000Y8013367D01*
X-5771000Y8416633D01*
X-5767985Y8447247D01*
X-5759965Y8473684D01*
X-5746940Y8498053D01*
X-5729411Y8519411D01*
X-5708053Y8536940D01*
X-5683684Y8549965D01*
X-5657247Y8557985D01*
X-5626633Y8561000D01*
X-5173367Y8561000D01*
X-5142753Y8557985D01*
X-5142753Y8557985D01*
G37*
G36*
X4747247Y8617985D02*
G01*
X4773684Y8609965D01*
X4798053Y8596940D01*
X4819411Y8579411D01*
X4836940Y8558053D01*
X4849965Y8533684D01*
X4857985Y8507247D01*
X4861000Y8476633D01*
X4861000Y8023367D01*
X4857985Y7992753D01*
X4849965Y7966316D01*
X4836940Y7941947D01*
X4819411Y7920589D01*
X4798053Y7903060D01*
X4773684Y7890035D01*
X4747247Y7882015D01*
X4716633Y7879000D01*
X4313367Y7879000D01*
X4282753Y7882015D01*
X4256316Y7890035D01*
X4231947Y7903060D01*
X4210589Y7920589D01*
X4193060Y7941947D01*
X4180035Y7966316D01*
X4172015Y7992753D01*
X4169000Y8023367D01*
X4169000Y8476633D01*
X4172015Y8507247D01*
X4180035Y8533684D01*
X4193060Y8558053D01*
X4210589Y8579411D01*
X4231947Y8596940D01*
X4256316Y8609965D01*
X4282753Y8617985D01*
X4313367Y8621000D01*
X4716633Y8621000D01*
X4747247Y8617985D01*
X4747247Y8617985D01*
G37*
G36*
X5717247Y8617985D02*
G01*
X5743684Y8609965D01*
X5768053Y8596940D01*
X5789411Y8579411D01*
X5806940Y8558053D01*
X5819965Y8533684D01*
X5827985Y8507247D01*
X5831000Y8476633D01*
X5831000Y8023367D01*
X5827985Y7992753D01*
X5819965Y7966316D01*
X5806940Y7941947D01*
X5789411Y7920589D01*
X5768053Y7903060D01*
X5743684Y7890035D01*
X5717247Y7882015D01*
X5686633Y7879000D01*
X5283367Y7879000D01*
X5252753Y7882015D01*
X5226316Y7890035D01*
X5201947Y7903060D01*
X5180589Y7920589D01*
X5163060Y7941947D01*
X5150035Y7966316D01*
X5142015Y7992753D01*
X5139000Y8023367D01*
X5139000Y8476633D01*
X5142015Y8507247D01*
X5150035Y8533684D01*
X5163060Y8558053D01*
X5180589Y8579411D01*
X5201947Y8596940D01*
X5226316Y8609965D01*
X5252753Y8617985D01*
X5283367Y8621000D01*
X5686633Y8621000D01*
X5717247Y8617985D01*
X5717247Y8617985D01*
G37*
G36*
X-5142753Y9527985D02*
G01*
X-5116316Y9519965D01*
X-5091947Y9506940D01*
X-5070589Y9489411D01*
X-5053060Y9468053D01*
X-5040035Y9443684D01*
X-5032015Y9417247D01*
X-5029000Y9386633D01*
X-5029000Y8983367D01*
X-5032015Y8952753D01*
X-5040035Y8926316D01*
X-5053060Y8901947D01*
X-5070589Y8880589D01*
X-5091947Y8863060D01*
X-5116316Y8850035D01*
X-5142753Y8842015D01*
X-5173367Y8839000D01*
X-5626633Y8839000D01*
X-5657247Y8842015D01*
X-5683684Y8850035D01*
X-5708053Y8863060D01*
X-5729411Y8880589D01*
X-5746940Y8901947D01*
X-5759965Y8926316D01*
X-5767985Y8952753D01*
X-5771000Y8983367D01*
X-5771000Y9386633D01*
X-5767985Y9417247D01*
X-5759965Y9443684D01*
X-5746940Y9468053D01*
X-5729411Y9489411D01*
X-5708053Y9506940D01*
X-5683684Y9519965D01*
X-5657247Y9527985D01*
X-5626633Y9531000D01*
X-5173367Y9531000D01*
X-5142753Y9527985D01*
X-5142753Y9527985D01*
G37*
G36*
X-3842753Y9527985D02*
G01*
X-3816316Y9519965D01*
X-3791947Y9506940D01*
X-3770589Y9489411D01*
X-3753060Y9468053D01*
X-3740035Y9443684D01*
X-3732015Y9417247D01*
X-3729000Y9386633D01*
X-3729000Y8983367D01*
X-3732015Y8952753D01*
X-3740035Y8926316D01*
X-3753060Y8901947D01*
X-3770589Y8880589D01*
X-3791947Y8863060D01*
X-3816316Y8850035D01*
X-3842753Y8842015D01*
X-3873367Y8839000D01*
X-4326633Y8839000D01*
X-4357247Y8842015D01*
X-4383684Y8850035D01*
X-4408053Y8863060D01*
X-4429411Y8880589D01*
X-4446940Y8901947D01*
X-4459965Y8926316D01*
X-4467985Y8952753D01*
X-4471000Y8983367D01*
X-4471000Y9386633D01*
X-4467985Y9417247D01*
X-4459965Y9443684D01*
X-4446940Y9468053D01*
X-4429411Y9489411D01*
X-4408053Y9506940D01*
X-4383684Y9519965D01*
X-4357247Y9527985D01*
X-4326633Y9531000D01*
X-3873367Y9531000D01*
X-3842753Y9527985D01*
X-3842753Y9527985D01*
G37*
G36*
X-6442753Y9527985D02*
G01*
X-6416316Y9519965D01*
X-6391947Y9506940D01*
X-6370589Y9489411D01*
X-6353060Y9468053D01*
X-6340035Y9443684D01*
X-6332015Y9417247D01*
X-6329000Y9386633D01*
X-6329000Y8983367D01*
X-6332015Y8952753D01*
X-6340035Y8926316D01*
X-6353060Y8901947D01*
X-6370589Y8880589D01*
X-6391947Y8863060D01*
X-6416316Y8850035D01*
X-6442753Y8842015D01*
X-6473367Y8839000D01*
X-6926633Y8839000D01*
X-6957247Y8842015D01*
X-6983684Y8850035D01*
X-7008053Y8863060D01*
X-7029411Y8880589D01*
X-7046940Y8901947D01*
X-7059965Y8926316D01*
X-7067985Y8952753D01*
X-7071000Y8983367D01*
X-7071000Y9386633D01*
X-7067985Y9417247D01*
X-7059965Y9443684D01*
X-7046940Y9468053D01*
X-7029411Y9489411D01*
X-7008053Y9506940D01*
X-6983684Y9519965D01*
X-6957247Y9527985D01*
X-6926633Y9531000D01*
X-6473367Y9531000D01*
X-6442753Y9527985D01*
X-6442753Y9527985D01*
G37*
G36*
X4747247Y10317985D02*
G01*
X4773684Y10309965D01*
X4798053Y10296940D01*
X4819411Y10279411D01*
X4836940Y10258053D01*
X4849965Y10233684D01*
X4857985Y10207247D01*
X4861000Y10176633D01*
X4861000Y9723367D01*
X4857985Y9692753D01*
X4849965Y9666316D01*
X4836940Y9641947D01*
X4819411Y9620589D01*
X4798053Y9603060D01*
X4773684Y9590035D01*
X4747247Y9582015D01*
X4716633Y9579000D01*
X4313367Y9579000D01*
X4282753Y9582015D01*
X4256316Y9590035D01*
X4231947Y9603060D01*
X4210589Y9620589D01*
X4193060Y9641947D01*
X4180035Y9666316D01*
X4172015Y9692753D01*
X4169000Y9723367D01*
X4169000Y10176633D01*
X4172015Y10207247D01*
X4180035Y10233684D01*
X4193060Y10258053D01*
X4210589Y10279411D01*
X4231947Y10296940D01*
X4256316Y10309965D01*
X4282753Y10317985D01*
X4313367Y10321000D01*
X4716633Y10321000D01*
X4747247Y10317985D01*
X4747247Y10317985D01*
G37*
G36*
X5717247Y10317985D02*
G01*
X5743684Y10309965D01*
X5768053Y10296940D01*
X5789411Y10279411D01*
X5806940Y10258053D01*
X5819965Y10233684D01*
X5827985Y10207247D01*
X5831000Y10176633D01*
X5831000Y9723367D01*
X5827985Y9692753D01*
X5819965Y9666316D01*
X5806940Y9641947D01*
X5789411Y9620589D01*
X5768053Y9603060D01*
X5743684Y9590035D01*
X5717247Y9582015D01*
X5686633Y9579000D01*
X5283367Y9579000D01*
X5252753Y9582015D01*
X5226316Y9590035D01*
X5201947Y9603060D01*
X5180589Y9620589D01*
X5163060Y9641947D01*
X5150035Y9666316D01*
X5142015Y9692753D01*
X5139000Y9723367D01*
X5139000Y10176633D01*
X5142015Y10207247D01*
X5150035Y10233684D01*
X5163060Y10258053D01*
X5180589Y10279411D01*
X5201947Y10296940D01*
X5226316Y10309965D01*
X5252753Y10317985D01*
X5283367Y10321000D01*
X5686633Y10321000D01*
X5717247Y10317985D01*
X5717247Y10317985D01*
G37*
G36*
X5717247Y11617985D02*
G01*
X5743684Y11609965D01*
X5768053Y11596940D01*
X5789411Y11579411D01*
X5806940Y11558053D01*
X5819965Y11533684D01*
X5827985Y11507247D01*
X5831000Y11476633D01*
X5831000Y11023367D01*
X5827985Y10992753D01*
X5819965Y10966316D01*
X5806940Y10941947D01*
X5789411Y10920589D01*
X5768053Y10903060D01*
X5743684Y10890035D01*
X5717247Y10882015D01*
X5686633Y10879000D01*
X5283367Y10879000D01*
X5252753Y10882015D01*
X5226316Y10890035D01*
X5201947Y10903060D01*
X5180589Y10920589D01*
X5163060Y10941947D01*
X5150035Y10966316D01*
X5142015Y10992753D01*
X5139000Y11023367D01*
X5139000Y11476633D01*
X5142015Y11507247D01*
X5150035Y11533684D01*
X5163060Y11558053D01*
X5180589Y11579411D01*
X5201947Y11596940D01*
X5226316Y11609965D01*
X5252753Y11617985D01*
X5283367Y11621000D01*
X5686633Y11621000D01*
X5717247Y11617985D01*
X5717247Y11617985D01*
G37*
G36*
X4747247Y11617985D02*
G01*
X4773684Y11609965D01*
X4798053Y11596940D01*
X4819411Y11579411D01*
X4836940Y11558053D01*
X4849965Y11533684D01*
X4857985Y11507247D01*
X4861000Y11476633D01*
X4861000Y11023367D01*
X4857985Y10992753D01*
X4849965Y10966316D01*
X4836940Y10941947D01*
X4819411Y10920589D01*
X4798053Y10903060D01*
X4773684Y10890035D01*
X4747247Y10882015D01*
X4716633Y10879000D01*
X4313367Y10879000D01*
X4282753Y10882015D01*
X4256316Y10890035D01*
X4231947Y10903060D01*
X4210589Y10920589D01*
X4193060Y10941947D01*
X4180035Y10966316D01*
X4172015Y10992753D01*
X4169000Y11023367D01*
X4169000Y11476633D01*
X4172015Y11507247D01*
X4180035Y11533684D01*
X4193060Y11558053D01*
X4210589Y11579411D01*
X4231947Y11596940D01*
X4256316Y11609965D01*
X4282753Y11617985D01*
X4313367Y11621000D01*
X4716633Y11621000D01*
X4747247Y11617985D01*
X4747247Y11617985D01*
G37*
G36*
X5717247Y12867985D02*
G01*
X5743684Y12859965D01*
X5768053Y12846940D01*
X5789411Y12829411D01*
X5806940Y12808053D01*
X5819965Y12783684D01*
X5827985Y12757247D01*
X5831000Y12726633D01*
X5831000Y12273367D01*
X5827985Y12242753D01*
X5819965Y12216316D01*
X5806940Y12191947D01*
X5789411Y12170589D01*
X5768053Y12153060D01*
X5743684Y12140035D01*
X5717247Y12132015D01*
X5686633Y12129000D01*
X5283367Y12129000D01*
X5252753Y12132015D01*
X5226316Y12140035D01*
X5201947Y12153060D01*
X5180589Y12170589D01*
X5163060Y12191947D01*
X5150035Y12216316D01*
X5142015Y12242753D01*
X5139000Y12273367D01*
X5139000Y12726633D01*
X5142015Y12757247D01*
X5150035Y12783684D01*
X5163060Y12808053D01*
X5180589Y12829411D01*
X5201947Y12846940D01*
X5226316Y12859965D01*
X5252753Y12867985D01*
X5283367Y12871000D01*
X5686633Y12871000D01*
X5717247Y12867985D01*
X5717247Y12867985D01*
G37*
G36*
X4747247Y12867985D02*
G01*
X4773684Y12859965D01*
X4798053Y12846940D01*
X4819411Y12829411D01*
X4836940Y12808053D01*
X4849965Y12783684D01*
X4857985Y12757247D01*
X4861000Y12726633D01*
X4861000Y12273367D01*
X4857985Y12242753D01*
X4849965Y12216316D01*
X4836940Y12191947D01*
X4819411Y12170589D01*
X4798053Y12153060D01*
X4773684Y12140035D01*
X4747247Y12132015D01*
X4716633Y12129000D01*
X4313367Y12129000D01*
X4282753Y12132015D01*
X4256316Y12140035D01*
X4231947Y12153060D01*
X4210589Y12170589D01*
X4193060Y12191947D01*
X4180035Y12216316D01*
X4172015Y12242753D01*
X4169000Y12273367D01*
X4169000Y12726633D01*
X4172015Y12757247D01*
X4180035Y12783684D01*
X4193060Y12808053D01*
X4210589Y12829411D01*
X4231947Y12846940D01*
X4256316Y12859965D01*
X4282753Y12867985D01*
X4313367Y12871000D01*
X4716633Y12871000D01*
X4747247Y12867985D01*
X4747247Y12867985D01*
G37*
G36*
X967247Y14367985D02*
G01*
X993684Y14359965D01*
X1018053Y14346940D01*
X1039411Y14329411D01*
X1056940Y14308053D01*
X1069965Y14283684D01*
X1077985Y14257247D01*
X1081000Y14226633D01*
X1081000Y13773367D01*
X1077985Y13742753D01*
X1069965Y13716316D01*
X1056940Y13691947D01*
X1039411Y13670589D01*
X1018053Y13653060D01*
X993684Y13640035D01*
X967247Y13632015D01*
X936633Y13629000D01*
X533367Y13629000D01*
X502753Y13632015D01*
X476316Y13640035D01*
X451947Y13653060D01*
X430589Y13670589D01*
X413060Y13691947D01*
X400035Y13716316D01*
X392015Y13742753D01*
X389000Y13773367D01*
X389000Y14226633D01*
X392015Y14257247D01*
X400035Y14283684D01*
X413060Y14308053D01*
X430589Y14329411D01*
X451947Y14346940D01*
X476316Y14359965D01*
X502753Y14367985D01*
X533367Y14371000D01*
X936633Y14371000D01*
X967247Y14367985D01*
X967247Y14367985D01*
G37*
G36*
X-2753Y14367985D02*
G01*
X23684Y14359965D01*
X48053Y14346940D01*
X69411Y14329411D01*
X86940Y14308053D01*
X99965Y14283684D01*
X107985Y14257247D01*
X111000Y14226633D01*
X111000Y13773367D01*
X107985Y13742753D01*
X99965Y13716316D01*
X86940Y13691947D01*
X69411Y13670589D01*
X48053Y13653060D01*
X23684Y13640035D01*
X-2753Y13632015D01*
X-33367Y13629000D01*
X-436633Y13629000D01*
X-467247Y13632015D01*
X-493684Y13640035D01*
X-518053Y13653060D01*
X-539411Y13670589D01*
X-556940Y13691947D01*
X-569965Y13716316D01*
X-577985Y13742753D01*
X-581000Y13773367D01*
X-581000Y14226633D01*
X-577985Y14257247D01*
X-569965Y14283684D01*
X-556940Y14308053D01*
X-539411Y14329411D01*
X-518053Y14346940D01*
X-493684Y14359965D01*
X-467247Y14367985D01*
X-436633Y14371000D01*
X-33367Y14371000D01*
X-2753Y14367985D01*
X-2753Y14367985D01*
G37*
G36*
X-3924000Y13749000D02*
G01*
X-4676000Y13749000D01*
X-4676000Y14251000D01*
X-3924000Y14251000D01*
X-3924000Y13749000D01*
X-3924000Y13749000D01*
G37*
G36*
X-2024000Y13749000D02*
G01*
X-2776000Y13749000D01*
X-2776000Y14251000D01*
X-2024000Y14251000D01*
X-2024000Y13749000D01*
X-2024000Y13749000D01*
G37*
G36*
X-5492753Y14607985D02*
G01*
X-5466316Y14599965D01*
X-5441947Y14586940D01*
X-5420589Y14569411D01*
X-5403060Y14548053D01*
X-5390035Y14523684D01*
X-5382015Y14497247D01*
X-5379000Y14466633D01*
X-5379000Y14063367D01*
X-5382015Y14032753D01*
X-5390035Y14006316D01*
X-5403060Y13981947D01*
X-5420589Y13960589D01*
X-5441947Y13943060D01*
X-5466316Y13930035D01*
X-5492753Y13922015D01*
X-5523367Y13919000D01*
X-5976633Y13919000D01*
X-6007247Y13922015D01*
X-6033684Y13930035D01*
X-6058053Y13943060D01*
X-6079411Y13960589D01*
X-6096940Y13981947D01*
X-6109965Y14006316D01*
X-6117985Y14032753D01*
X-6121000Y14063367D01*
X-6121000Y14466633D01*
X-6117985Y14497247D01*
X-6109965Y14523684D01*
X-6096940Y14548053D01*
X-6079411Y14569411D01*
X-6058053Y14586940D01*
X-6033684Y14599965D01*
X-6007247Y14607985D01*
X-5976633Y14611000D01*
X-5523367Y14611000D01*
X-5492753Y14607985D01*
X-5492753Y14607985D01*
G37*
G36*
X-2024000Y14399000D02*
G01*
X-2776000Y14399000D01*
X-2776000Y14901000D01*
X-2024000Y14901000D01*
X-2024000Y14399000D01*
X-2024000Y14399000D01*
G37*
G36*
X3981000Y14424000D02*
G01*
X2819000Y14424000D01*
X2819000Y15176000D01*
X3981000Y15176000D01*
X3981000Y14424000D01*
X3981000Y14424000D01*
G37*
G36*
X6181000Y14424000D02*
G01*
X5019000Y14424000D01*
X5019000Y15176000D01*
X6181000Y15176000D01*
X6181000Y14424000D01*
X6181000Y14424000D01*
G37*
G36*
X-5492753Y15577985D02*
G01*
X-5466316Y15569965D01*
X-5441947Y15556940D01*
X-5420589Y15539411D01*
X-5403060Y15518053D01*
X-5390035Y15493684D01*
X-5382015Y15467247D01*
X-5379000Y15436633D01*
X-5379000Y15033367D01*
X-5382015Y15002753D01*
X-5390035Y14976316D01*
X-5403060Y14951947D01*
X-5420589Y14930589D01*
X-5441947Y14913060D01*
X-5466316Y14900035D01*
X-5492753Y14892015D01*
X-5523367Y14889000D01*
X-5976633Y14889000D01*
X-6007247Y14892015D01*
X-6033684Y14900035D01*
X-6058053Y14913060D01*
X-6079411Y14930589D01*
X-6096940Y14951947D01*
X-6109965Y14976316D01*
X-6117985Y15002753D01*
X-6121000Y15033367D01*
X-6121000Y15436633D01*
X-6117985Y15467247D01*
X-6109965Y15493684D01*
X-6096940Y15518053D01*
X-6079411Y15539411D01*
X-6058053Y15556940D01*
X-6033684Y15569965D01*
X-6007247Y15577985D01*
X-5976633Y15581000D01*
X-5523367Y15581000D01*
X-5492753Y15577985D01*
X-5492753Y15577985D01*
G37*
G36*
X-3924000Y15049000D02*
G01*
X-4676000Y15049000D01*
X-4676000Y15551000D01*
X-3924000Y15551000D01*
X-3924000Y15049000D01*
X-3924000Y15049000D01*
G37*
G36*
X-2024000Y15049000D02*
G01*
X-2776000Y15049000D01*
X-2776000Y15551000D01*
X-2024000Y15551000D01*
X-2024000Y15049000D01*
X-2024000Y15049000D01*
G37*
G36*
X3981000Y15374000D02*
G01*
X2819000Y15374000D01*
X2819000Y16126000D01*
X3981000Y16126000D01*
X3981000Y15374000D01*
X3981000Y15374000D01*
G37*
G36*
X6181000Y15374000D02*
G01*
X5019000Y15374000D01*
X5019000Y16126000D01*
X6181000Y16126000D01*
X6181000Y15374000D01*
X6181000Y15374000D01*
G37*
G36*
X3981000Y16324000D02*
G01*
X2819000Y16324000D01*
X2819000Y17076000D01*
X3981000Y17076000D01*
X3981000Y16324000D01*
X3981000Y16324000D01*
G37*
G36*
X6181000Y16324000D02*
G01*
X5019000Y16324000D01*
X5019000Y17076000D01*
X6181000Y17076000D01*
X6181000Y16324000D01*
X6181000Y16324000D01*
G37*
G36*
X-5492753Y17607985D02*
G01*
X-5466316Y17599965D01*
X-5441947Y17586940D01*
X-5420589Y17569411D01*
X-5403060Y17548053D01*
X-5390035Y17523684D01*
X-5382015Y17497247D01*
X-5379000Y17466633D01*
X-5379000Y17063367D01*
X-5382015Y17032753D01*
X-5390035Y17006316D01*
X-5403060Y16981947D01*
X-5420589Y16960589D01*
X-5441947Y16943060D01*
X-5466316Y16930035D01*
X-5492753Y16922015D01*
X-5523367Y16919000D01*
X-5976633Y16919000D01*
X-6007247Y16922015D01*
X-6033684Y16930035D01*
X-6058053Y16943060D01*
X-6079411Y16960589D01*
X-6096940Y16981947D01*
X-6109965Y17006316D01*
X-6117985Y17032753D01*
X-6121000Y17063367D01*
X-6121000Y17466633D01*
X-6117985Y17497247D01*
X-6109965Y17523684D01*
X-6096940Y17548053D01*
X-6079411Y17569411D01*
X-6058053Y17586940D01*
X-6033684Y17599965D01*
X-6007247Y17607985D01*
X-5976633Y17611000D01*
X-5523367Y17611000D01*
X-5492753Y17607985D01*
X-5492753Y17607985D01*
G37*
G36*
X1717247Y17867985D02*
G01*
X1743684Y17859965D01*
X1768053Y17846940D01*
X1789411Y17829411D01*
X1806940Y17808053D01*
X1819965Y17783684D01*
X1827985Y17757247D01*
X1831000Y17726633D01*
X1831000Y17273367D01*
X1827985Y17242753D01*
X1819965Y17216316D01*
X1806940Y17191947D01*
X1789411Y17170589D01*
X1768053Y17153060D01*
X1743684Y17140035D01*
X1717247Y17132015D01*
X1686633Y17129000D01*
X1283367Y17129000D01*
X1252753Y17132015D01*
X1226316Y17140035D01*
X1201947Y17153060D01*
X1180589Y17170589D01*
X1163060Y17191947D01*
X1150035Y17216316D01*
X1142015Y17242753D01*
X1139000Y17273367D01*
X1139000Y17726633D01*
X1142015Y17757247D01*
X1150035Y17783684D01*
X1163060Y17808053D01*
X1180589Y17829411D01*
X1201947Y17846940D01*
X1226316Y17859965D01*
X1252753Y17867985D01*
X1283367Y17871000D01*
X1686633Y17871000D01*
X1717247Y17867985D01*
X1717247Y17867985D01*
G37*
G36*
X747247Y17867985D02*
G01*
X773684Y17859965D01*
X798053Y17846940D01*
X819411Y17829411D01*
X836940Y17808053D01*
X849965Y17783684D01*
X857985Y17757247D01*
X861000Y17726633D01*
X861000Y17273367D01*
X857985Y17242753D01*
X849965Y17216316D01*
X836940Y17191947D01*
X819411Y17170589D01*
X798053Y17153060D01*
X773684Y17140035D01*
X747247Y17132015D01*
X716633Y17129000D01*
X313367Y17129000D01*
X282753Y17132015D01*
X256316Y17140035D01*
X231947Y17153060D01*
X210589Y17170589D01*
X193060Y17191947D01*
X180035Y17216316D01*
X172015Y17242753D01*
X169000Y17273367D01*
X169000Y17726633D01*
X172015Y17757247D01*
X180035Y17783684D01*
X193060Y17808053D01*
X210589Y17829411D01*
X231947Y17846940D01*
X256316Y17859965D01*
X282753Y17867985D01*
X313367Y17871000D01*
X716633Y17871000D01*
X747247Y17867985D01*
X747247Y17867985D01*
G37*
G36*
X-5492753Y18577985D02*
G01*
X-5466316Y18569965D01*
X-5441947Y18556940D01*
X-5420589Y18539411D01*
X-5403060Y18518053D01*
X-5390035Y18493684D01*
X-5382015Y18467247D01*
X-5379000Y18436633D01*
X-5379000Y18033367D01*
X-5382015Y18002753D01*
X-5390035Y17976316D01*
X-5403060Y17951947D01*
X-5420589Y17930589D01*
X-5441947Y17913060D01*
X-5466316Y17900035D01*
X-5492753Y17892015D01*
X-5523367Y17889000D01*
X-5976633Y17889000D01*
X-6007247Y17892015D01*
X-6033684Y17900035D01*
X-6058053Y17913060D01*
X-6079411Y17930589D01*
X-6096940Y17951947D01*
X-6109965Y17976316D01*
X-6117985Y18002753D01*
X-6121000Y18033367D01*
X-6121000Y18436633D01*
X-6117985Y18467247D01*
X-6109965Y18493684D01*
X-6096940Y18518053D01*
X-6079411Y18539411D01*
X-6058053Y18556940D01*
X-6033684Y18569965D01*
X-6007247Y18577985D01*
X-5976633Y18581000D01*
X-5523367Y18581000D01*
X-5492753Y18577985D01*
X-5492753Y18577985D01*
G37*
G36*
X5854894Y19196616D02*
G01*
X5894705Y19184540D01*
X5931390Y19164931D01*
X5963544Y19138544D01*
X5989931Y19106390D01*
X6009540Y19069705D01*
X6021616Y19029894D01*
X6026000Y18985383D01*
X6026000Y18439617D01*
X6021616Y18395106D01*
X6009540Y18355295D01*
X5989931Y18318610D01*
X5963544Y18286456D01*
X5931390Y18260069D01*
X5894705Y18240460D01*
X5854894Y18228384D01*
X5810383Y18224000D01*
X5189617Y18224000D01*
X5145106Y18228384D01*
X5105295Y18240460D01*
X5068610Y18260069D01*
X5036456Y18286456D01*
X5010069Y18318610D01*
X4990460Y18355295D01*
X4978384Y18395106D01*
X4974000Y18439617D01*
X4974000Y18985383D01*
X4978384Y19029894D01*
X4990460Y19069705D01*
X5010069Y19106390D01*
X5036456Y19138544D01*
X5068610Y19164931D01*
X5105295Y19184540D01*
X5145106Y19196616D01*
X5189617Y19201000D01*
X5810383Y19201000D01*
X5854894Y19196616D01*
X5854894Y19196616D01*
G37*
G36*
X5854894Y20771616D02*
G01*
X5894705Y20759540D01*
X5931390Y20739931D01*
X5963544Y20713544D01*
X5989931Y20681390D01*
X6009540Y20644705D01*
X6021616Y20604894D01*
X6026000Y20560383D01*
X6026000Y20014617D01*
X6021616Y19970106D01*
X6009540Y19930295D01*
X5989931Y19893610D01*
X5963544Y19861456D01*
X5931390Y19835069D01*
X5894705Y19815460D01*
X5854894Y19803384D01*
X5810383Y19799000D01*
X5189617Y19799000D01*
X5145106Y19803384D01*
X5105295Y19815460D01*
X5068610Y19835069D01*
X5036456Y19861456D01*
X5010069Y19893610D01*
X4990460Y19930295D01*
X4978384Y19970106D01*
X4974000Y20014617D01*
X4974000Y20560383D01*
X4978384Y20604894D01*
X4990460Y20644705D01*
X5010069Y20681390D01*
X5036456Y20713544D01*
X5068610Y20739931D01*
X5105295Y20759540D01*
X5145106Y20771616D01*
X5189617Y20776000D01*
X5810383Y20776000D01*
X5854894Y20771616D01*
X5854894Y20771616D01*
G37*
G36*
X551000Y19849000D02*
G01*
X-551000Y19849000D01*
X-551000Y23101000D01*
X551000Y23101000D01*
X551000Y19849000D01*
X551000Y19849000D01*
G37*
G36*
X-1989000Y19849000D02*
G01*
X-3091000Y19849000D01*
X-3091000Y23101000D01*
X-1989000Y23101000D01*
X-1989000Y19849000D01*
X-1989000Y19849000D01*
G37*
G36*
X3091000Y19849000D02*
G01*
X1989000Y19849000D01*
X1989000Y23101000D01*
X3091000Y23101000D01*
X3091000Y19849000D01*
X3091000Y19849000D01*
G37*
G36*
X7342144Y26545715D02*
G01*
X7390753Y26530970D01*
X7435543Y26507029D01*
X7474806Y26474806D01*
X7507029Y26435543D01*
X7530970Y26390753D01*
X7545715Y26342144D01*
X7551000Y26288483D01*
X7551000Y21711517D01*
X7545715Y21657856D01*
X7530970Y21609247D01*
X7507029Y21564457D01*
X7474806Y21525194D01*
X7435543Y21492971D01*
X7390753Y21469030D01*
X7342144Y21454285D01*
X7288483Y21449000D01*
X4711517Y21449000D01*
X4657856Y21454285D01*
X4609247Y21469030D01*
X4564457Y21492971D01*
X4525194Y21525194D01*
X4492971Y21564457D01*
X4469030Y21609247D01*
X4454285Y21657856D01*
X4449000Y21711517D01*
X4449000Y26288483D01*
X4454285Y26342144D01*
X4469030Y26390753D01*
X4492971Y26435543D01*
X4525194Y26474806D01*
X4564457Y26507029D01*
X4609247Y26530970D01*
X4657856Y26545715D01*
X4711517Y26551000D01*
X7288483Y26551000D01*
X7342144Y26545715D01*
X7342144Y26545715D01*
G37*
G36*
X-4657856Y26545715D02*
G01*
X-4609247Y26530970D01*
X-4564457Y26507029D01*
X-4525194Y26474806D01*
X-4492971Y26435543D01*
X-4469030Y26390753D01*
X-4454285Y26342144D01*
X-4449000Y26288483D01*
X-4449000Y21711517D01*
X-4454285Y21657856D01*
X-4469030Y21609247D01*
X-4492971Y21564457D01*
X-4525194Y21525194D01*
X-4564457Y21492971D01*
X-4609247Y21469030D01*
X-4657856Y21454285D01*
X-4711517Y21449000D01*
X-7288483Y21449000D01*
X-7342144Y21454285D01*
X-7390753Y21469030D01*
X-7435543Y21492971D01*
X-7474806Y21525194D01*
X-7507029Y21564457D01*
X-7530970Y21609247D01*
X-7545715Y21657856D01*
X-7551000Y21711517D01*
X-7551000Y26288483D01*
X-7545715Y26342144D01*
X-7530970Y26390753D01*
X-7507029Y26435543D01*
X-7474806Y26474806D01*
X-7435543Y26507029D01*
X-7390753Y26530970D01*
X-7342144Y26545715D01*
X-7288483Y26551000D01*
X-4711517Y26551000D01*
X-4657856Y26545715D01*
X-4657856Y26545715D01*
G37*
G36*
X551000Y24899000D02*
G01*
X-551000Y24899000D01*
X-551000Y28151000D01*
X551000Y28151000D01*
X551000Y24899000D01*
X551000Y24899000D01*
G37*
G36*
X3091000Y24899000D02*
G01*
X1989000Y24899000D01*
X1989000Y28151000D01*
X3091000Y28151000D01*
X3091000Y24899000D01*
X3091000Y24899000D01*
G37*
G36*
X-1989000Y24899000D02*
G01*
X-3091000Y24899000D01*
X-3091000Y28151000D01*
X-1989000Y28151000D01*
X-1989000Y24899000D01*
X-1989000Y24899000D01*
G37*
M02*
