M48
; DRILL file {KiCad 5.1.4+dfsg1-1} date Sat Jan  9 21:35:19 2021
; FORMAT={-:-/ absolute / metric / decimal}
; #@! TF.CreationDate,2021-01-09T21:35:19+00:00
; #@! TF.GenerationSoftware,Kicad,Pcbnew,5.1.4+dfsg1-1
FMAT,2
METRIC
T1C0.300
T2C0.450
T3C0.650
%
G90
G05
T1
X147.0Y-102.271
X148.1Y-102.271
X149.8Y-102.171
X149.8Y-106.671
X150.0Y-95.271
X151.0Y-102.171
X151.0Y-106.671
X152.4Y-109.671
X153.0Y-101.921
X153.0Y-111.371
X153.1Y-90.271
X153.9Y-90.971
X154.1Y-85.371
X154.3Y-93.371
X154.3Y-98.371
X155.5Y-96.371
X155.6Y-93.371
X155.8Y-87.371
X156.0Y-98.421
X156.0Y-99.571
X156.0Y-101.471
X156.2Y-102.471
X156.25Y-97.171
X156.3Y-85.371
X157.0Y-86.371
X157.4Y-102.471
X157.7Y-91.071
X157.7Y-109.271
X158.5Y-79.971
X158.9Y-91.071
X159.8Y-112.071
X159.9Y-101.971
X160.0Y-106.371
X160.0Y-109.92
X160.1Y-96.771
X160.2Y-84.471
X160.2Y-88.471
X160.5Y-86.171
X161.2Y-96.671
X161.2Y-115.271
X161.3Y-120.971
X161.3Y-130.571
X161.75Y-88.471
X161.9Y-97.471
X161.9Y-101.371
X162.1Y-85.071
X163.25Y-114.171
X163.8Y-104.271
X164.3Y-92.471
X164.3Y-94.171
X164.3Y-114.971
X164.4Y-91.371
X164.4Y-116.471
X165.0Y-83.071
X165.0Y-119.471
X165.4Y-75.071
X166.3Y-100.171
X166.6Y-128.171
X166.7Y-130.471
X166.9Y-76.271
X167.1Y-89.971
X167.6Y-91.971
X167.6Y-93.721
X167.7Y-95.471
X167.7Y-105.771
X167.8Y-84.971
X167.9Y-100.671
X167.9Y-109.571
X168.0Y-83.071
X168.0Y-90.871
X168.2Y-85.971
X169.1Y-111.671
X169.1Y-112.871
X169.9Y-95.971
X170.0Y-85.971
X170.3Y-97.671
X170.4Y-104.671
X170.4Y-106.871
X170.5Y-94.271
X171.3Y-98.671
X171.3Y-102.371
X171.6Y-108.771
X173.0Y-101.471
X178.9Y-98.771
T3
X144.275Y-101.671
X144.275Y-105.671
T2
X142.425Y-100.096G85X141.875Y-100.096
G05
X141.875Y-107.246G85X142.425Y-107.246
G05
X145.865Y-100.096G85X145.315Y-100.096
G05
X145.315Y-107.246G85X145.865Y-107.246
G05
T0
M30
