G04 #@! TF.GenerationSoftware,KiCad,Pcbnew,5.1.4+dfsg1-1*
G04 #@! TF.CreationDate,2021-01-09T21:35:19+00:00*
G04 #@! TF.ProjectId,bike-light-board,62696b65-2d6c-4696-9768-742d626f6172,rev?*
G04 #@! TF.SameCoordinates,Original*
G04 #@! TF.FileFunction,Copper,L1,Top*
G04 #@! TF.FilePolarity,Positive*
%FSLAX46Y46*%
G04 Gerber Fmt 4.6, Leading zero omitted, Abs format (unit mm)*
G04 Created by KiCad (PCBNEW 5.1.4+dfsg1-1) date 2021-01-09 21:35:19*
%MOMM*%
%LPD*%
G04 APERTURE LIST*
G04 #@! TA.AperFunction,ComponentPad*
%ADD10O,1.700000X1.500000*%
G04 #@! TD*
G04 #@! TA.AperFunction,ComponentPad*
%ADD11O,2.300000X1.500000*%
G04 #@! TD*
G04 #@! TA.AperFunction,Conductor*
%ADD12C,0.350000*%
G04 #@! TD*
G04 #@! TA.AperFunction,SMDPad,CuDef*
%ADD13C,0.975000*%
G04 #@! TD*
G04 #@! TA.AperFunction,SMDPad,CuDef*
%ADD14R,1.500000X1.000000*%
G04 #@! TD*
G04 #@! TA.AperFunction,ViaPad*
%ADD15C,0.800000*%
G04 #@! TD*
G04 #@! TA.AperFunction,Conductor*
%ADD16C,0.300000*%
G04 #@! TD*
G04 #@! TA.AperFunction,Conductor*
%ADD17C,0.400000*%
G04 #@! TD*
G04 #@! TA.AperFunction,Conductor*
%ADD18C,0.600000*%
G04 #@! TD*
G04 #@! TA.AperFunction,Conductor*
%ADD19C,1.000000*%
G04 #@! TD*
G04 #@! TA.AperFunction,Conductor*
%ADD20C,0.250000*%
G04 #@! TD*
G04 #@! TA.AperFunction,Conductor*
%ADD21C,0.254000*%
G04 #@! TD*
G04 APERTURE END LIST*
D10*
G04 #@! TO.P,J1,6*
G04 #@! TO.N,Net-(J1-Pad6)*
X-18850000Y3575000D03*
D11*
X-15410000Y3575000D03*
D10*
X-18850000Y-3575000D03*
D11*
X-15410000Y-3575000D03*
G04 #@! TD*
D12*
G04 #@! TO.N,SW_EN*
G04 #@! TO.C,Q4*
G36*
X1205142Y948826D02*
G01*
X1228803Y945316D01*
X1252007Y939504D01*
X1274529Y931446D01*
X1296153Y921218D01*
X1316670Y908921D01*
X1335883Y894671D01*
X1353607Y878607D01*
X1369671Y860883D01*
X1383921Y841670D01*
X1396218Y821153D01*
X1406446Y799529D01*
X1414504Y777007D01*
X1420316Y753803D01*
X1423826Y730142D01*
X1425000Y706250D01*
X1425000Y-206250D01*
X1423826Y-230142D01*
X1420316Y-253803D01*
X1414504Y-277007D01*
X1406446Y-299529D01*
X1396218Y-321153D01*
X1383921Y-341670D01*
X1369671Y-360883D01*
X1353607Y-378607D01*
X1335883Y-394671D01*
X1316670Y-408921D01*
X1296153Y-421218D01*
X1274529Y-431446D01*
X1252007Y-439504D01*
X1228803Y-445316D01*
X1205142Y-448826D01*
X1181250Y-450000D01*
X693750Y-450000D01*
X669858Y-448826D01*
X646197Y-445316D01*
X622993Y-439504D01*
X600471Y-431446D01*
X578847Y-421218D01*
X558330Y-408921D01*
X539117Y-394671D01*
X521393Y-378607D01*
X505329Y-360883D01*
X491079Y-341670D01*
X478782Y-321153D01*
X468554Y-299529D01*
X460496Y-277007D01*
X454684Y-253803D01*
X451174Y-230142D01*
X450000Y-206250D01*
X450000Y706250D01*
X451174Y730142D01*
X454684Y753803D01*
X460496Y777007D01*
X468554Y799529D01*
X478782Y821153D01*
X491079Y841670D01*
X505329Y860883D01*
X521393Y878607D01*
X539117Y894671D01*
X558330Y908921D01*
X578847Y921218D01*
X600471Y931446D01*
X622993Y939504D01*
X646197Y945316D01*
X669858Y948826D01*
X693750Y950000D01*
X1181250Y950000D01*
X1205142Y948826D01*
X1205142Y948826D01*
G37*
D13*
G04 #@! TD*
G04 #@! TO.P,Q4,2*
G04 #@! TO.N,SW_EN*
X937500Y250000D03*
D12*
G04 #@! TO.N,LIGHT_SENS*
G04 #@! TO.C,Q4*
G36*
X-669858Y948826D02*
G01*
X-646197Y945316D01*
X-622993Y939504D01*
X-600471Y931446D01*
X-578847Y921218D01*
X-558330Y908921D01*
X-539117Y894671D01*
X-521393Y878607D01*
X-505329Y860883D01*
X-491079Y841670D01*
X-478782Y821153D01*
X-468554Y799529D01*
X-460496Y777007D01*
X-454684Y753803D01*
X-451174Y730142D01*
X-450000Y706250D01*
X-450000Y-206250D01*
X-451174Y-230142D01*
X-454684Y-253803D01*
X-460496Y-277007D01*
X-468554Y-299529D01*
X-478782Y-321153D01*
X-491079Y-341670D01*
X-505329Y-360883D01*
X-521393Y-378607D01*
X-539117Y-394671D01*
X-558330Y-408921D01*
X-578847Y-421218D01*
X-600471Y-431446D01*
X-622993Y-439504D01*
X-646197Y-445316D01*
X-669858Y-448826D01*
X-693750Y-450000D01*
X-1181250Y-450000D01*
X-1205142Y-448826D01*
X-1228803Y-445316D01*
X-1252007Y-439504D01*
X-1274529Y-431446D01*
X-1296153Y-421218D01*
X-1316670Y-408921D01*
X-1335883Y-394671D01*
X-1353607Y-378607D01*
X-1369671Y-360883D01*
X-1383921Y-341670D01*
X-1396218Y-321153D01*
X-1406446Y-299529D01*
X-1414504Y-277007D01*
X-1420316Y-253803D01*
X-1423826Y-230142D01*
X-1425000Y-206250D01*
X-1425000Y706250D01*
X-1423826Y730142D01*
X-1420316Y753803D01*
X-1414504Y777007D01*
X-1406446Y799529D01*
X-1396218Y821153D01*
X-1383921Y841670D01*
X-1369671Y860883D01*
X-1353607Y878607D01*
X-1335883Y894671D01*
X-1316670Y908921D01*
X-1296153Y921218D01*
X-1274529Y931446D01*
X-1252007Y939504D01*
X-1228803Y945316D01*
X-1205142Y948826D01*
X-1181250Y950000D01*
X-693750Y950000D01*
X-669858Y948826D01*
X-669858Y948826D01*
G37*
D13*
G04 #@! TD*
G04 #@! TO.P,Q4,1*
G04 #@! TO.N,LIGHT_SENS*
X-937500Y250000D03*
D14*
G04 #@! TO.P,D8,1*
G04 #@! TO.N,+VSW*
X-2450000Y-24900000D03*
G04 #@! TO.P,D8,2*
G04 #@! TO.N,N/C*
X-2450000Y-28100000D03*
G04 #@! TO.P,D8,4*
G04 #@! TO.N,Net-(D7-Pad2)*
X2450000Y-24900000D03*
G04 #@! TO.P,D8,3*
G04 #@! TO.N,GND*
X2450000Y-28100000D03*
G04 #@! TD*
G04 #@! TO.P,D7,1*
G04 #@! TO.N,+VSW*
X-2450000Y-14300000D03*
G04 #@! TO.P,D7,2*
G04 #@! TO.N,Net-(D7-Pad2)*
X-2450000Y-17500000D03*
G04 #@! TO.P,D7,4*
G04 #@! TO.N,Net-(D6-Pad2)*
X2450000Y-14300000D03*
G04 #@! TO.P,D7,3*
G04 #@! TO.N,GND*
X2450000Y-17500000D03*
G04 #@! TD*
G04 #@! TO.P,D6,1*
G04 #@! TO.N,+VSW*
X-2450000Y-3700000D03*
G04 #@! TO.P,D6,2*
G04 #@! TO.N,Net-(D6-Pad2)*
X-2450000Y-6900000D03*
G04 #@! TO.P,D6,4*
G04 #@! TO.N,Net-(D5-Pad2)*
X2450000Y-3700000D03*
G04 #@! TO.P,D6,3*
G04 #@! TO.N,GND*
X2450000Y-6900000D03*
G04 #@! TD*
G04 #@! TO.P,D5,1*
G04 #@! TO.N,+VSW*
X-2450000Y6900000D03*
G04 #@! TO.P,D5,2*
G04 #@! TO.N,Net-(D5-Pad2)*
X-2450000Y3700000D03*
G04 #@! TO.P,D5,4*
G04 #@! TO.N,Net-(D4-Pad2)*
X2450000Y6900000D03*
G04 #@! TO.P,D5,3*
G04 #@! TO.N,GND*
X2450000Y3700000D03*
G04 #@! TD*
G04 #@! TO.P,D4,1*
G04 #@! TO.N,+VSW*
X-2450000Y17500000D03*
G04 #@! TO.P,D4,2*
G04 #@! TO.N,Net-(D4-Pad2)*
X-2450000Y14300000D03*
G04 #@! TO.P,D4,4*
G04 #@! TO.N,Net-(D3-Pad2)*
X2450000Y17500000D03*
G04 #@! TO.P,D4,3*
G04 #@! TO.N,GND*
X2450000Y14300000D03*
G04 #@! TD*
G04 #@! TO.P,D3,1*
G04 #@! TO.N,+VSW*
X-2450000Y28100000D03*
G04 #@! TO.P,D3,2*
G04 #@! TO.N,Net-(D3-Pad2)*
X-2450000Y24900000D03*
G04 #@! TO.P,D3,4*
G04 #@! TO.N,Net-(D3-Pad4)*
X2450000Y28100000D03*
G04 #@! TO.P,D3,3*
G04 #@! TO.N,GND*
X2450000Y24900000D03*
G04 #@! TD*
D15*
G04 #@! TO.N,GND*
X-3300000Y12600000D03*
X5700000Y-26800000D03*
X300000Y-26900000D03*
X3400000Y-12800000D03*
X3300000Y-11300000D03*
X300000Y-17300000D03*
X6700000Y-2100000D03*
X9300000Y6000000D03*
X6100000Y13700000D03*
X-5200000Y16300000D03*
X7000000Y20600000D03*
X5900000Y27400000D03*
X-800000Y15200000D03*
X-8000000Y1750000D03*
X6700000Y8200000D03*
X900000Y6200000D03*
X-5000000Y4100000D03*
X4000000Y20600000D03*
X6900000Y3000000D03*
X9400000Y-1000000D03*
X9400000Y-3200000D03*
X-8000000Y-7700000D03*
X-8600000Y-6000000D03*
X-3300000Y-5600000D03*
X-1200000Y-8400000D03*
X5600000Y-24500000D03*
X-5500000Y7300000D03*
X200000Y-11600000D03*
X-12900000Y1400000D03*
X8100000Y-8000000D03*
X6600000Y11700000D03*
X17900000Y4900000D03*
X-7100000Y12700000D03*
X-14000000Y1400004D03*
G04 #@! TO.N,+BATT*
X-500000Y17500000D03*
X-11200000Y-3000000D03*
X-11200000Y1500000D03*
X-11000000Y8400000D03*
X-4700000Y18300000D03*
X-2500000Y23700000D03*
X-6900000Y18300000D03*
X-7900000Y13400000D03*
G04 #@! TO.N,+3V3*
X6600006Y9950000D03*
X-4750000Y6500000D03*
X-6700000Y5300000D03*
X750004Y15200000D03*
X10300000Y5000000D03*
X10300000Y1300000D03*
X1100000Y18600000D03*
X-5000000Y2200000D03*
X9500000Y9400000D03*
X7200000Y17700000D03*
X9000000Y17700000D03*
G04 #@! TO.N,PROG_nRESET*
X7000000Y12800000D03*
X6800000Y18700000D03*
G04 #@! TO.N,+VSW*
X6900000Y-5900000D03*
X4000000Y-15800000D03*
X-4000000Y17300000D03*
G04 #@! TO.N,PROG_CLK*
X8900000Y7700000D03*
X2800000Y-600000D03*
X-3600000Y1200000D03*
X-5000000Y5250000D03*
G04 #@! TO.N,PROG_MOSI*
X200000Y7000000D03*
X-800000Y19200000D03*
G04 #@! TO.N,/SW_FET_EN*
X10600000Y-5100000D03*
X8100000Y-9200000D03*
X12000000Y2200000D03*
X3400000Y12300000D03*
G04 #@! TO.N,LIGHT_SENS*
X-4800000Y1200000D03*
X-1100000Y1700000D03*
X-5400000Y10300000D03*
G04 #@! TO.N,SW_EN*
X3300000Y11200000D03*
G04 #@! TO.N,ACCEL_INT*
X3300000Y9500000D03*
X900000Y2300000D03*
G04 #@! TO.N,BUTTON*
X-900000Y6900000D03*
X5300000Y3500000D03*
X-2100000Y12600000D03*
G04 #@! TO.N,/VBUS_FET_EN*
X2250000Y-10500000D03*
G04 #@! TO.N,CHRG_STAT*
X-1000000Y-6249958D03*
X-1000000Y-2700000D03*
X-6700000Y10300000D03*
G04 #@! TO.N,Net-(D1-Pad5)*
X-10000000Y-3000000D03*
X-10000000Y1500000D03*
G04 #@! TO.N,Net-(D3-Pad4)*
X4400000Y28600000D03*
G04 #@! TD*
D16*
G04 #@! TO.N,GND*
X-1800000Y20500000D02*
X-1300000Y20500000D01*
X-2015000Y20285000D02*
X-1800000Y20500000D01*
X-5000000Y4100000D02*
X-5000000Y4119252D01*
X-5000000Y4119252D02*
X-3900000Y5219252D01*
X-3900000Y5219252D02*
X-3900000Y7100000D01*
X-4100000Y7300000D02*
X-5500000Y7300000D01*
X-3900000Y7100000D02*
X-4100000Y7300000D01*
G04 #@! TO.N,+BATT*
X-11200000Y1500000D02*
X-11200000Y-3000000D01*
X-11000000Y8400000D02*
X-8800000Y10600000D01*
X-4900000Y18300000D02*
X-4700000Y18300000D01*
X-500000Y17500000D02*
X-500000Y18100000D01*
X-500000Y18100000D02*
X200000Y18800000D01*
X200000Y18800000D02*
X200000Y22300000D01*
X200000Y22300000D02*
X-1300000Y23800000D01*
X-2400000Y23800000D02*
X-2500000Y23700000D01*
X-1300000Y23800000D02*
X-2400000Y23800000D01*
X-6800000Y18300000D02*
X-6900000Y18300000D01*
X-6800000Y18300000D02*
X-4900000Y18300000D01*
X-8800000Y12500000D02*
X-7900000Y13400000D01*
X-8800000Y10600000D02*
X-8800000Y12500000D01*
D17*
G04 #@! TO.N,+3V3*
X10300000Y5000000D02*
X10300000Y1300000D01*
D18*
X750004Y15200000D02*
X750004Y15250004D01*
X750004Y15250004D02*
X800000Y15300000D01*
X800000Y18300000D02*
X1100000Y18600000D01*
X800000Y15300000D02*
X800000Y18300000D01*
X-5000000Y2200000D02*
X-5900000Y2200000D01*
X-6700000Y3000000D02*
X-6700000Y5300000D01*
X-5900000Y2200000D02*
X-6700000Y3000000D01*
X-4850000Y6400000D02*
X-4750000Y6500000D01*
X-6700000Y5300000D02*
X-6700000Y5900000D01*
X-6700000Y5900000D02*
X-6200000Y6400000D01*
X-6200000Y6400000D02*
X-4850000Y6400000D01*
D17*
X8950000Y9950000D02*
X6600006Y9950000D01*
X9500000Y9400000D02*
X8950000Y9950000D01*
D18*
X7200000Y17700000D02*
X9000000Y17700000D01*
D16*
G04 #@! TO.N,PROG_nRESET*
X6900000Y12900000D02*
X7000000Y12800000D01*
X6800000Y18700000D02*
X6900000Y18600000D01*
X7000000Y12800000D02*
X7000000Y16300000D01*
X7000000Y16300000D02*
X6300000Y17000000D01*
X6300000Y18200000D02*
X6800000Y18700000D01*
X6300000Y17000000D02*
X6300000Y18200000D01*
D18*
G04 #@! TO.N,+VSW*
X-2450000Y17500000D02*
X-2700000Y17500000D01*
D19*
X-950000Y-15800000D02*
X4000000Y-15800000D01*
X-2450000Y-14300000D02*
X-950000Y-15800000D01*
D16*
X-2650000Y17300000D02*
X-2450000Y17500000D01*
X-4000000Y17300000D02*
X-2650000Y17300000D01*
D18*
X-4200000Y-21200000D02*
X-2490000Y-22910000D01*
X-4200000Y-14900000D02*
X-4200000Y-21200000D01*
X-2490000Y-24860000D02*
X-2450000Y-24900000D01*
X-2490000Y-22910000D02*
X-2490000Y-24860000D01*
X-3600000Y-14300000D02*
X-4200000Y-14900000D01*
X-2450000Y-14300000D02*
X-3600000Y-14300000D01*
X-2450000Y19650000D02*
X-2450000Y17500000D01*
X-5000000Y22200000D02*
X-2450000Y19650000D01*
X-5000000Y26800000D02*
X-5000000Y22200000D01*
X-3700000Y28100000D02*
X-5000000Y26800000D01*
X-2450000Y28100000D02*
X-3700000Y28100000D01*
X-2450000Y10350000D02*
X-2450000Y6900000D01*
X-3700000Y16100000D02*
X-4300000Y15500000D01*
X-4300000Y12200000D02*
X-2450000Y10350000D01*
X-4300000Y15500000D02*
X-4300000Y12200000D01*
X-2800000Y16100000D02*
X-3700000Y16100000D01*
X-2450000Y16450000D02*
X-2800000Y16100000D01*
X-2450000Y17500000D02*
X-2450000Y16450000D01*
X-2450000Y-1050000D02*
X-2450000Y-3700000D01*
X-2700000Y-800000D02*
X-2450000Y-1050000D01*
X-3700000Y2900000D02*
X-2700000Y1900000D01*
X-2700000Y1900000D02*
X-2700000Y-800000D01*
X-3700000Y4500000D02*
X-3700000Y2900000D01*
X-2450000Y5750000D02*
X-3700000Y4500000D01*
X-2450000Y6900000D02*
X-2450000Y5750000D01*
D19*
X-3400000Y-3700000D02*
X-2450000Y-3700000D01*
X-2540000Y-14240000D02*
X-2540000Y-11760000D01*
X-2600000Y-14300000D02*
X-2540000Y-14240000D01*
X-4700000Y-9600000D02*
X-4700000Y-5000000D01*
X-2540000Y-11760000D02*
X-4700000Y-9600000D01*
X-4700000Y-5000000D02*
X-3400000Y-3700000D01*
X-2450000Y-14300000D02*
X-2600000Y-14300000D01*
D16*
G04 #@! TO.N,Net-(D3-Pad2)*
X-2450000Y24900000D02*
X-1200000Y24900000D01*
X2450000Y21250000D02*
X2450000Y17500000D01*
X-1200000Y24900000D02*
X2450000Y21250000D01*
G04 #@! TO.N,Net-(D4-Pad2)*
X900000Y8900000D02*
X2450000Y7350000D01*
X900000Y12100000D02*
X900000Y8900000D01*
X-1300000Y14300000D02*
X900000Y12100000D01*
X2450000Y7350000D02*
X2450000Y6900000D01*
X-2450000Y14300000D02*
X-1300000Y14300000D01*
G04 #@! TO.N,Net-(D5-Pad2)*
X2450000Y-2050000D02*
X2450000Y-3700000D01*
X1400000Y-1000000D02*
X2450000Y-2050000D01*
X-1500000Y-1000000D02*
X1400000Y-1000000D01*
X-2450000Y3700000D02*
X-2000000Y3250000D01*
X-2000000Y3250000D02*
X-2000000Y-500000D01*
X-2000000Y-500000D02*
X-1500000Y-1000000D01*
G04 #@! TO.N,Net-(D6-Pad2)*
X-2250000Y-7100000D02*
X-2450000Y-6900000D01*
X-1000000Y-7100000D02*
X-2250000Y-7100000D01*
X-100000Y-8000000D02*
X-1000000Y-7100000D01*
X-100000Y-10000000D02*
X-100000Y-8000000D01*
X2450000Y-12550000D02*
X-100000Y-10000000D01*
X2450000Y-14300000D02*
X2450000Y-12550000D01*
G04 #@! TO.N,PROG_CLK*
X7750000Y6550000D02*
X8900000Y7700000D01*
X7750000Y2350000D02*
X7750000Y6550000D01*
X2800000Y-600000D02*
X4800000Y-600000D01*
X4800000Y-600000D02*
X7750000Y2350000D01*
X-5000000Y5250000D02*
X-5350000Y5250000D01*
X-5350000Y5250000D02*
X-5900000Y4700000D01*
X-5900000Y4700000D02*
X-5900000Y3500000D01*
X-5900000Y3500000D02*
X-5600000Y3200000D01*
X-5600000Y3200000D02*
X-4900000Y3200000D01*
X-4900000Y3200000D02*
X-4249999Y2549999D01*
X-4249999Y1849999D02*
X-3600000Y1200000D01*
X-4249999Y2549999D02*
X-4249999Y1849999D01*
G04 #@! TO.N,PROG_MOSI*
X-1300000Y18700000D02*
X-800000Y19200000D01*
X-1300000Y16100000D02*
X-1300000Y18700000D01*
X-2000000Y15400000D02*
X-1300000Y16100000D01*
X-3300000Y15400000D02*
X-2000000Y15400000D01*
X-1700000Y13400000D02*
X-3400000Y13400000D01*
X-3600000Y13600000D02*
X-3600000Y15100000D01*
X-3400000Y13400000D02*
X-3600000Y13600000D01*
X-3600000Y15100000D02*
X-3300000Y15400000D01*
X200000Y11500000D02*
X-1700000Y13400000D01*
X200000Y7000000D02*
X200000Y11500000D01*
G04 #@! TO.N,/SW_FET_EN*
X10600000Y-6700000D02*
X10600000Y-5100000D01*
X8100000Y-9200000D02*
X10600000Y-6700000D01*
X12000000Y4900000D02*
X12000000Y2200000D01*
X10400000Y6500000D02*
X12000000Y4900000D01*
X10400000Y9800000D02*
X10400000Y6500000D01*
X9500000Y10700000D02*
X10400000Y9800000D01*
X5300000Y10700000D02*
X9500000Y10700000D01*
X3700000Y12300000D02*
X5300000Y10700000D01*
X3400000Y12300000D02*
X3700000Y12300000D01*
G04 #@! TO.N,LIGHT_SENS*
X-1100000Y412500D02*
X-937500Y250000D01*
X-1100000Y1700000D02*
X-1100000Y412500D01*
X-6200000Y1200000D02*
X-4800000Y1200000D01*
X-7700000Y2700000D02*
X-6200000Y1200000D01*
X-7700000Y8000000D02*
X-7700000Y2700000D01*
X-5400000Y10300000D02*
X-7700000Y8000000D01*
G04 #@! TO.N,SW_EN*
X3050000Y250000D02*
X937500Y250000D01*
X5050000Y2250000D02*
X3050000Y250000D01*
X5600000Y2250000D02*
X5050000Y2250000D01*
X6100000Y2750000D02*
X5600000Y2250000D01*
X6100000Y6800000D02*
X6100000Y2750000D01*
X5500000Y7400000D02*
X6100000Y6800000D01*
X5500000Y9000000D02*
X5500000Y7400000D01*
X3300000Y11200000D02*
X5500000Y9000000D01*
G04 #@! TO.N,ACCEL_INT*
X4800000Y8600000D02*
X3900000Y9500000D01*
X4800000Y7100000D02*
X4800000Y8600000D01*
X900000Y2300000D02*
X3300000Y2300000D01*
X4400000Y3400000D02*
X4400000Y4000000D01*
X3300000Y2300000D02*
X4400000Y3400000D01*
X3900000Y9500000D02*
X3300000Y9500000D01*
X5400000Y6500000D02*
X4800000Y7100000D01*
X5400000Y5000000D02*
X5400000Y6500000D01*
X4400000Y4000000D02*
X5400000Y5000000D01*
G04 #@! TO.N,BUTTON*
X-900000Y6700000D02*
X-700000Y6900000D01*
X3549999Y1549999D02*
X550001Y1549999D01*
X550001Y1549999D02*
X-900000Y3000000D01*
X-900000Y3000000D02*
X-900000Y6700000D01*
X5300000Y3300000D02*
X3549999Y1549999D01*
X5300000Y3500000D02*
X5300000Y3300000D01*
X-900000Y7500000D02*
X-900000Y6900000D01*
X-900000Y11400000D02*
X-900000Y7500000D01*
X-2100000Y12600000D02*
X-900000Y11400000D01*
D20*
G04 #@! TO.N,CHRG_STAT*
X-1000000Y-2700000D02*
X-1000000Y-6249958D01*
D18*
G04 #@! TO.N,Net-(D1-Pad5)*
X-10000000Y1500000D02*
X-10000000Y-3000000D01*
D16*
G04 #@! TO.N,Net-(D3-Pad4)*
X3900000Y28100000D02*
X2450000Y28100000D01*
X4400000Y28600000D02*
X3900000Y28100000D01*
G04 #@! TO.N,Net-(D7-Pad2)*
X2450000Y-23050000D02*
X2450000Y-24900000D01*
X1500000Y-22100000D02*
X2450000Y-23050000D01*
X-500000Y-22100000D02*
X1500000Y-22100000D01*
X-2450000Y-20150000D02*
X-500000Y-22100000D01*
X-2450000Y-17500000D02*
X-2450000Y-20150000D01*
G04 #@! TD*
D21*
G04 #@! TO.N,GND*
G36*
X5805064Y33974354D02*
G01*
X6584678Y33761076D01*
X7314201Y33413112D01*
X7970584Y32941453D01*
X8533065Y32361018D01*
X8983868Y31690150D01*
X9308749Y30950051D01*
X9498269Y30160645D01*
X9548001Y29483414D01*
X9548000Y18321553D01*
X9527181Y18342372D01*
X9391731Y18432877D01*
X9241227Y18495218D01*
X9081452Y18527000D01*
X8918548Y18527000D01*
X8758773Y18495218D01*
X8608269Y18432877D01*
X8599473Y18427000D01*
X7600527Y18427000D01*
X7591731Y18432877D01*
X7585552Y18435437D01*
X7595218Y18458773D01*
X7627000Y18618548D01*
X7627000Y18781452D01*
X7595218Y18941227D01*
X7532877Y19091731D01*
X7442372Y19227181D01*
X7327181Y19342372D01*
X7191731Y19432877D01*
X7041227Y19495218D01*
X6881452Y19527000D01*
X6718548Y19527000D01*
X6558773Y19495218D01*
X6408269Y19432877D01*
X6272819Y19342372D01*
X6157628Y19227181D01*
X6067123Y19091731D01*
X6004782Y18941227D01*
X5973000Y18781452D01*
X5973000Y18689001D01*
X5912034Y18628035D01*
X5890027Y18609974D01*
X5871966Y18587967D01*
X5871963Y18587964D01*
X5863888Y18578124D01*
X5817922Y18522115D01*
X5775377Y18442517D01*
X5764344Y18421876D01*
X5731349Y18313111D01*
X5720210Y18200000D01*
X5723001Y18171659D01*
X5723000Y17028332D01*
X5720210Y17000000D01*
X5723000Y16971669D01*
X5723000Y16971665D01*
X5723504Y16966553D01*
X5731349Y16886889D01*
X5746846Y16835804D01*
X5764343Y16778125D01*
X5817921Y16677886D01*
X5890026Y16590026D01*
X5912038Y16571961D01*
X6423001Y16060998D01*
X6423000Y13392553D01*
X6357628Y13327181D01*
X6267123Y13191731D01*
X6204782Y13041227D01*
X6173000Y12881452D01*
X6173000Y12718548D01*
X6204782Y12558773D01*
X6267123Y12408269D01*
X6357628Y12272819D01*
X6472819Y12157628D01*
X6608269Y12067123D01*
X6758773Y12004782D01*
X6918548Y11973000D01*
X7081452Y11973000D01*
X7241227Y12004782D01*
X7391731Y12067123D01*
X7527181Y12157628D01*
X7642372Y12272819D01*
X7732877Y12408269D01*
X7795218Y12558773D01*
X7827000Y12718548D01*
X7827000Y12881452D01*
X7795218Y13041227D01*
X7732877Y13191731D01*
X7642372Y13327181D01*
X7577000Y13392553D01*
X7577000Y16271672D01*
X7579790Y16300001D01*
X7577000Y16328330D01*
X7577000Y16328336D01*
X7568650Y16413112D01*
X7535657Y16521876D01*
X7482079Y16622115D01*
X7409974Y16709974D01*
X7387962Y16728039D01*
X7243001Y16873000D01*
X7281452Y16873000D01*
X7441227Y16904782D01*
X7591731Y16967123D01*
X7600527Y16973000D01*
X8599473Y16973000D01*
X8608269Y16967123D01*
X8758773Y16904782D01*
X8918548Y16873000D01*
X9081452Y16873000D01*
X9241227Y16904782D01*
X9391731Y16967123D01*
X9527181Y17057628D01*
X9548000Y17078447D01*
X9548000Y11648304D01*
X9549927Y11628737D01*
X9549884Y11622560D01*
X9550500Y11616279D01*
X9570901Y11422182D01*
X9579141Y11382038D01*
X9586815Y11341812D01*
X9588639Y11335770D01*
X9609300Y11269026D01*
X9558045Y11274074D01*
X9528336Y11277000D01*
X9528331Y11277000D01*
X9500000Y11279790D01*
X9471669Y11277000D01*
X5539001Y11277000D01*
X4138963Y12677038D01*
X4132877Y12691731D01*
X4042372Y12827181D01*
X3927181Y12942372D01*
X3791731Y13032877D01*
X3641227Y13095218D01*
X3481452Y13127000D01*
X3318548Y13127000D01*
X3158773Y13095218D01*
X3008269Y13032877D01*
X2872819Y12942372D01*
X2757628Y12827181D01*
X2667123Y12691731D01*
X2604782Y12541227D01*
X2573000Y12381452D01*
X2573000Y12218548D01*
X2604782Y12058773D01*
X2667123Y11908269D01*
X2735854Y11805407D01*
X2657628Y11727181D01*
X2567123Y11591731D01*
X2504782Y11441227D01*
X2473000Y11281452D01*
X2473000Y11118548D01*
X2504782Y10958773D01*
X2567123Y10808269D01*
X2657628Y10672819D01*
X2772819Y10557628D01*
X2908269Y10467123D01*
X3058773Y10404782D01*
X3218548Y10373000D01*
X3310999Y10373000D01*
X3356999Y10327000D01*
X3218548Y10327000D01*
X3058773Y10295218D01*
X2908269Y10232877D01*
X2772819Y10142372D01*
X2657628Y10027181D01*
X2567123Y9891731D01*
X2504782Y9741227D01*
X2473000Y9581452D01*
X2473000Y9418548D01*
X2504782Y9258773D01*
X2567123Y9108269D01*
X2657628Y8972819D01*
X2772819Y8857628D01*
X2908269Y8767123D01*
X3058773Y8704782D01*
X3218548Y8673000D01*
X3381452Y8673000D01*
X3541227Y8704782D01*
X3691731Y8767123D01*
X3766750Y8817249D01*
X4223001Y8360997D01*
X4223000Y7128331D01*
X4220210Y7100000D01*
X4231349Y6986889D01*
X4245589Y6939949D01*
X4264343Y6878125D01*
X4317921Y6777886D01*
X4390026Y6690026D01*
X4412038Y6671961D01*
X4823001Y6260997D01*
X4823000Y5239001D01*
X4012034Y4428035D01*
X3990027Y4409974D01*
X3971966Y4387967D01*
X3971963Y4387964D01*
X3952579Y4364344D01*
X3917922Y4322115D01*
X3864343Y4221876D01*
X3849517Y4173000D01*
X3837098Y4132062D01*
X3838072Y4200000D01*
X3825812Y4324482D01*
X3789502Y4444180D01*
X3730537Y4554494D01*
X3651185Y4651185D01*
X3554494Y4730537D01*
X3444180Y4789502D01*
X3324482Y4825812D01*
X3200000Y4838072D01*
X2735750Y4835000D01*
X2577000Y4676250D01*
X2577000Y3827000D01*
X2597000Y3827000D01*
X2597000Y3573000D01*
X2577000Y3573000D01*
X2577000Y3553000D01*
X2323000Y3553000D01*
X2323000Y3573000D01*
X1223750Y3573000D01*
X1065000Y3414250D01*
X1061928Y3200000D01*
X1070869Y3109213D01*
X981452Y3127000D01*
X818548Y3127000D01*
X658773Y3095218D01*
X508269Y3032877D01*
X372819Y2942372D01*
X257628Y2827181D01*
X190013Y2725988D01*
X-323000Y3239001D01*
X-323000Y4200000D01*
X1061928Y4200000D01*
X1065000Y3985750D01*
X1223750Y3827000D01*
X2323000Y3827000D01*
X2323000Y4676250D01*
X2164250Y4835000D01*
X1700000Y4838072D01*
X1575518Y4825812D01*
X1455820Y4789502D01*
X1345506Y4730537D01*
X1248815Y4651185D01*
X1169463Y4554494D01*
X1110498Y4444180D01*
X1074188Y4324482D01*
X1061928Y4200000D01*
X-323000Y4200000D01*
X-323000Y6307447D01*
X-294593Y6335854D01*
X-191731Y6267123D01*
X-41227Y6204782D01*
X118548Y6173000D01*
X281452Y6173000D01*
X441227Y6204782D01*
X591731Y6267123D01*
X727181Y6357628D01*
X842372Y6472819D01*
X932877Y6608269D01*
X995218Y6758773D01*
X1027000Y6918548D01*
X1027000Y7081452D01*
X995218Y7241227D01*
X932877Y7391731D01*
X842372Y7527181D01*
X777000Y7592553D01*
X777000Y8206999D01*
X1344317Y7639682D01*
X1343245Y7638376D01*
X1303595Y7564196D01*
X1279178Y7483707D01*
X1270934Y7400000D01*
X1270934Y6400000D01*
X1279178Y6316293D01*
X1303595Y6235804D01*
X1343245Y6161624D01*
X1396605Y6096605D01*
X1461624Y6043245D01*
X1535804Y6003595D01*
X1616293Y5979178D01*
X1700000Y5970934D01*
X3200000Y5970934D01*
X3283707Y5979178D01*
X3364196Y6003595D01*
X3438376Y6043245D01*
X3503395Y6096605D01*
X3556755Y6161624D01*
X3596405Y6235804D01*
X3620822Y6316293D01*
X3629066Y6400000D01*
X3629066Y7400000D01*
X3620822Y7483707D01*
X3596405Y7564196D01*
X3556755Y7638376D01*
X3503395Y7703395D01*
X3438376Y7756755D01*
X3364196Y7796405D01*
X3283707Y7820822D01*
X3200000Y7829066D01*
X2786936Y7829066D01*
X1477000Y9139001D01*
X1477000Y12071669D01*
X1479790Y12100000D01*
X1468651Y12213112D01*
X1442293Y12300000D01*
X1435657Y12321876D01*
X1382079Y12422115D01*
X1309974Y12509974D01*
X1287963Y12528038D01*
X16001Y13800000D01*
X1061928Y13800000D01*
X1074188Y13675518D01*
X1110498Y13555820D01*
X1169463Y13445506D01*
X1248815Y13348815D01*
X1345506Y13269463D01*
X1455820Y13210498D01*
X1575518Y13174188D01*
X1700000Y13161928D01*
X2164250Y13165000D01*
X2323000Y13323750D01*
X2323000Y14173000D01*
X2577000Y14173000D01*
X2577000Y13323750D01*
X2735750Y13165000D01*
X3200000Y13161928D01*
X3324482Y13174188D01*
X3444180Y13210498D01*
X3554494Y13269463D01*
X3651185Y13348815D01*
X3730537Y13445506D01*
X3789502Y13555820D01*
X3825812Y13675518D01*
X3838072Y13800000D01*
X3835000Y14014250D01*
X3676250Y14173000D01*
X2577000Y14173000D01*
X2323000Y14173000D01*
X1223750Y14173000D01*
X1065000Y14014250D01*
X1061928Y13800000D01*
X16001Y13800000D01*
X-871961Y14687962D01*
X-890026Y14709974D01*
X-977885Y14782079D01*
X-1078124Y14835657D01*
X-1142230Y14855103D01*
X-1186889Y14868651D01*
X-1241955Y14874074D01*
X-1271664Y14877000D01*
X-1271669Y14877000D01*
X-1278585Y14877681D01*
X-1279178Y14883707D01*
X-1303595Y14964196D01*
X-1343245Y15038376D01*
X-1396605Y15103395D01*
X-1442741Y15141258D01*
X-912037Y15671962D01*
X-890026Y15690026D01*
X-817921Y15777885D01*
X-764343Y15878124D01*
X-731350Y15986888D01*
X-723000Y16071664D01*
X-723000Y16071670D01*
X-720210Y16099999D01*
X-723000Y16128328D01*
X-723000Y16701156D01*
X-581452Y16673000D01*
X-418548Y16673000D01*
X-258773Y16704782D01*
X-108269Y16767123D01*
X27181Y16857628D01*
X73001Y16903448D01*
X73000Y15675351D01*
X17127Y15591731D01*
X-45214Y15441227D01*
X-76996Y15281452D01*
X-76996Y15118548D01*
X-45214Y14958773D01*
X17127Y14808269D01*
X107632Y14672819D01*
X222823Y14557628D01*
X358273Y14467123D01*
X508777Y14404782D01*
X668552Y14373000D01*
X831456Y14373000D01*
X991231Y14404782D01*
X1141735Y14467123D01*
X1166847Y14483903D01*
X1223750Y14427000D01*
X2323000Y14427000D01*
X2323000Y15276250D01*
X2577000Y15276250D01*
X2577000Y14427000D01*
X3676250Y14427000D01*
X3835000Y14585750D01*
X3838072Y14800000D01*
X3825812Y14924482D01*
X3789502Y15044180D01*
X3730537Y15154494D01*
X3651185Y15251185D01*
X3554494Y15330537D01*
X3444180Y15389502D01*
X3324482Y15425812D01*
X3200000Y15438072D01*
X2735750Y15435000D01*
X2577000Y15276250D01*
X2323000Y15276250D01*
X2164250Y15435000D01*
X1700000Y15438072D01*
X1575518Y15425812D01*
X1549838Y15418022D01*
X1545222Y15441227D01*
X1527000Y15485219D01*
X1527000Y16608301D01*
X1535804Y16603595D01*
X1616293Y16579178D01*
X1700000Y16570934D01*
X3200000Y16570934D01*
X3283707Y16579178D01*
X3364196Y16603595D01*
X3438376Y16643245D01*
X3503395Y16696605D01*
X3556755Y16761624D01*
X3596405Y16835804D01*
X3620822Y16916293D01*
X3629066Y17000000D01*
X3629066Y18000000D01*
X3620822Y18083707D01*
X3596405Y18164196D01*
X3556755Y18238376D01*
X3503395Y18303395D01*
X3438376Y18356755D01*
X3364196Y18396405D01*
X3283707Y18420822D01*
X3200000Y18429066D01*
X3027000Y18429066D01*
X3027000Y21221661D01*
X3029791Y21250000D01*
X3018651Y21363112D01*
X2985657Y21471877D01*
X2971816Y21497772D01*
X2932079Y21572115D01*
X2859974Y21659974D01*
X2837963Y21678038D01*
X116001Y24400000D01*
X1061928Y24400000D01*
X1074188Y24275518D01*
X1110498Y24155820D01*
X1169463Y24045506D01*
X1248815Y23948815D01*
X1345506Y23869463D01*
X1455820Y23810498D01*
X1575518Y23774188D01*
X1700000Y23761928D01*
X2164250Y23765000D01*
X2323000Y23923750D01*
X2323000Y24773000D01*
X2577000Y24773000D01*
X2577000Y23923750D01*
X2735750Y23765000D01*
X3200000Y23761928D01*
X3324482Y23774188D01*
X3444180Y23810498D01*
X3554494Y23869463D01*
X3651185Y23948815D01*
X3730537Y24045506D01*
X3789502Y24155820D01*
X3825812Y24275518D01*
X3838072Y24400000D01*
X3835000Y24614250D01*
X3676250Y24773000D01*
X2577000Y24773000D01*
X2323000Y24773000D01*
X1223750Y24773000D01*
X1065000Y24614250D01*
X1061928Y24400000D01*
X116001Y24400000D01*
X-771961Y25287962D01*
X-790026Y25309974D01*
X-877885Y25382079D01*
X-911413Y25400000D01*
X1061928Y25400000D01*
X1065000Y25185750D01*
X1223750Y25027000D01*
X2323000Y25027000D01*
X2323000Y25876250D01*
X2577000Y25876250D01*
X2577000Y25027000D01*
X3676250Y25027000D01*
X3835000Y25185750D01*
X3838072Y25400000D01*
X3825812Y25524482D01*
X3789502Y25644180D01*
X3730537Y25754494D01*
X3651185Y25851185D01*
X3554494Y25930537D01*
X3444180Y25989502D01*
X3324482Y26025812D01*
X3200000Y26038072D01*
X2735750Y26035000D01*
X2577000Y25876250D01*
X2323000Y25876250D01*
X2164250Y26035000D01*
X1700000Y26038072D01*
X1575518Y26025812D01*
X1455820Y25989502D01*
X1345506Y25930537D01*
X1248815Y25851185D01*
X1169463Y25754494D01*
X1110498Y25644180D01*
X1074188Y25524482D01*
X1061928Y25400000D01*
X-911413Y25400000D01*
X-978124Y25435657D01*
X-1042230Y25455103D01*
X-1086889Y25468651D01*
X-1141955Y25474074D01*
X-1171664Y25477000D01*
X-1171669Y25477000D01*
X-1200000Y25479790D01*
X-1228331Y25477000D01*
X-1278517Y25477000D01*
X-1279178Y25483707D01*
X-1303595Y25564196D01*
X-1343245Y25638376D01*
X-1396605Y25703395D01*
X-1461624Y25756755D01*
X-1535804Y25796405D01*
X-1616293Y25820822D01*
X-1700000Y25829066D01*
X-3200000Y25829066D01*
X-3283707Y25820822D01*
X-3364196Y25796405D01*
X-3438376Y25756755D01*
X-3503395Y25703395D01*
X-3556755Y25638376D01*
X-3596405Y25564196D01*
X-3620822Y25483707D01*
X-3629066Y25400000D01*
X-3629066Y24400000D01*
X-3620822Y24316293D01*
X-3596405Y24235804D01*
X-3556755Y24161624D01*
X-3503395Y24096605D01*
X-3438376Y24043245D01*
X-3364196Y24003595D01*
X-3283707Y23979178D01*
X-3279663Y23978780D01*
X-3295218Y23941227D01*
X-3327000Y23781452D01*
X-3327000Y23618548D01*
X-3295218Y23458773D01*
X-3232877Y23308269D01*
X-3142372Y23172819D01*
X-3027181Y23057628D01*
X-2891731Y22967123D01*
X-2741227Y22904782D01*
X-2581452Y22873000D01*
X-2418548Y22873000D01*
X-2258773Y22904782D01*
X-2108269Y22967123D01*
X-1972819Y23057628D01*
X-1857628Y23172819D01*
X-1824098Y23223000D01*
X-1539001Y23223000D01*
X-376999Y22060998D01*
X-377000Y19911983D01*
X-408269Y19932877D01*
X-558773Y19995218D01*
X-718548Y20027000D01*
X-881452Y20027000D01*
X-1041227Y19995218D01*
X-1191731Y19932877D01*
X-1327181Y19842372D01*
X-1442372Y19727181D01*
X-1532877Y19591731D01*
X-1595218Y19441227D01*
X-1627000Y19281452D01*
X-1627000Y19189001D01*
X-1687966Y19128035D01*
X-1709973Y19109974D01*
X-1723000Y19094101D01*
X-1723000Y19614292D01*
X-1719483Y19650000D01*
X-1733520Y19792518D01*
X-1775090Y19929557D01*
X-1827175Y20027000D01*
X-1842597Y20055853D01*
X-1933447Y20166554D01*
X-1961184Y20189317D01*
X-4273000Y22501132D01*
X-4273000Y26498868D01*
X-3487943Y27283924D01*
X-3438376Y27243245D01*
X-3364196Y27203595D01*
X-3283707Y27179178D01*
X-3200000Y27170934D01*
X-1700000Y27170934D01*
X-1616293Y27179178D01*
X-1535804Y27203595D01*
X-1461624Y27243245D01*
X-1396605Y27296605D01*
X-1343245Y27361624D01*
X-1303595Y27435804D01*
X-1279178Y27516293D01*
X-1270934Y27600000D01*
X-1270934Y28600000D01*
X1270934Y28600000D01*
X1270934Y27600000D01*
X1279178Y27516293D01*
X1303595Y27435804D01*
X1343245Y27361624D01*
X1396605Y27296605D01*
X1461624Y27243245D01*
X1535804Y27203595D01*
X1616293Y27179178D01*
X1700000Y27170934D01*
X3200000Y27170934D01*
X3283707Y27179178D01*
X3364196Y27203595D01*
X3438376Y27243245D01*
X3503395Y27296605D01*
X3556755Y27361624D01*
X3596405Y27435804D01*
X3620822Y27516293D01*
X3621483Y27523000D01*
X3871669Y27523000D01*
X3900000Y27520210D01*
X3928331Y27523000D01*
X3928336Y27523000D01*
X3958045Y27525926D01*
X4013111Y27531349D01*
X4057770Y27544897D01*
X4121876Y27564343D01*
X4222115Y27617921D01*
X4309974Y27690026D01*
X4328039Y27712038D01*
X4389001Y27773000D01*
X4481452Y27773000D01*
X4641227Y27804782D01*
X4791731Y27867123D01*
X4927181Y27957628D01*
X5042372Y28072819D01*
X5132877Y28208269D01*
X5195218Y28358773D01*
X5227000Y28518548D01*
X5227000Y28681452D01*
X5195218Y28841227D01*
X5132877Y28991731D01*
X5042372Y29127181D01*
X4927181Y29242372D01*
X4791731Y29332877D01*
X4641227Y29395218D01*
X4481452Y29427000D01*
X4318548Y29427000D01*
X4158773Y29395218D01*
X4008269Y29332877D01*
X3872819Y29242372D01*
X3757628Y29127181D01*
X3667123Y28991731D01*
X3604782Y28841227D01*
X3591343Y28773666D01*
X3556755Y28838376D01*
X3503395Y28903395D01*
X3438376Y28956755D01*
X3364196Y28996405D01*
X3283707Y29020822D01*
X3200000Y29029066D01*
X1700000Y29029066D01*
X1616293Y29020822D01*
X1535804Y28996405D01*
X1461624Y28956755D01*
X1396605Y28903395D01*
X1343245Y28838376D01*
X1303595Y28764196D01*
X1279178Y28683707D01*
X1270934Y28600000D01*
X-1270934Y28600000D01*
X-1279178Y28683707D01*
X-1303595Y28764196D01*
X-1343245Y28838376D01*
X-1396605Y28903395D01*
X-1461624Y28956755D01*
X-1535804Y28996405D01*
X-1616293Y29020822D01*
X-1700000Y29029066D01*
X-3200000Y29029066D01*
X-3283707Y29020822D01*
X-3364196Y28996405D01*
X-3438376Y28956755D01*
X-3503395Y28903395D01*
X-3556755Y28838376D01*
X-3562836Y28827000D01*
X-3664292Y28827000D01*
X-3700000Y28830517D01*
X-3842518Y28816480D01*
X-3979557Y28774910D01*
X-4105853Y28707403D01*
X-4216554Y28616554D01*
X-4239317Y28588817D01*
X-5488811Y27339321D01*
X-5516554Y27316553D01*
X-5607403Y27205852D01*
X-5626067Y27170934D01*
X-5674910Y27079556D01*
X-5716480Y26942517D01*
X-5730517Y26800000D01*
X-5727000Y26764292D01*
X-5726999Y22235718D01*
X-5730517Y22200000D01*
X-5716480Y22057483D01*
X-5674910Y21920444D01*
X-5626454Y21829791D01*
X-5607402Y21794147D01*
X-5516553Y21683446D01*
X-5488811Y21660679D01*
X-3177000Y19348867D01*
X-3176999Y18429066D01*
X-3200000Y18429066D01*
X-3283707Y18420822D01*
X-3364196Y18396405D01*
X-3438376Y18356755D01*
X-3503395Y18303395D01*
X-3556755Y18238376D01*
X-3596405Y18164196D01*
X-3620822Y18083707D01*
X-3625140Y18039865D01*
X-3758773Y18095218D01*
X-3892251Y18121769D01*
X-3873000Y18218548D01*
X-3873000Y18381452D01*
X-3904782Y18541227D01*
X-3967123Y18691731D01*
X-4057628Y18827181D01*
X-4172819Y18942372D01*
X-4308269Y19032877D01*
X-4458773Y19095218D01*
X-4618548Y19127000D01*
X-4781452Y19127000D01*
X-4941227Y19095218D01*
X-5091731Y19032877D01*
X-5227181Y18942372D01*
X-5292553Y18877000D01*
X-6307447Y18877000D01*
X-6372819Y18942372D01*
X-6508269Y19032877D01*
X-6658773Y19095218D01*
X-6818548Y19127000D01*
X-6981452Y19127000D01*
X-7141227Y19095218D01*
X-7291731Y19032877D01*
X-7427181Y18942372D01*
X-7542372Y18827181D01*
X-7632877Y18691731D01*
X-7695218Y18541227D01*
X-7727000Y18381452D01*
X-7727000Y18218548D01*
X-7695218Y18058773D01*
X-7632877Y17908269D01*
X-7542372Y17772819D01*
X-7427181Y17657628D01*
X-7291731Y17567123D01*
X-7141227Y17504782D01*
X-6981452Y17473000D01*
X-6818548Y17473000D01*
X-6658773Y17504782D01*
X-6508269Y17567123D01*
X-6372819Y17657628D01*
X-6307447Y17723000D01*
X-5292553Y17723000D01*
X-5227181Y17657628D01*
X-5091731Y17567123D01*
X-4941227Y17504782D01*
X-4807749Y17478231D01*
X-4827000Y17381452D01*
X-4827000Y17218548D01*
X-4795218Y17058773D01*
X-4732877Y16908269D01*
X-4642372Y16772819D01*
X-4527181Y16657628D01*
X-4391731Y16567123D01*
X-4299297Y16528836D01*
X-4788811Y16039321D01*
X-4816554Y16016553D01*
X-4907403Y15905852D01*
X-4958651Y15809974D01*
X-4974910Y15779556D01*
X-5016480Y15642517D01*
X-5030517Y15500000D01*
X-5027000Y15464292D01*
X-5026999Y12235718D01*
X-5030517Y12200000D01*
X-5016480Y12057483D01*
X-4974910Y11920444D01*
X-4946409Y11867123D01*
X-4907402Y11794147D01*
X-4816553Y11683446D01*
X-4788811Y11660679D01*
X-3177000Y10048867D01*
X-3176999Y7829066D01*
X-3200000Y7829066D01*
X-3283707Y7820822D01*
X-3364196Y7796405D01*
X-3438376Y7756755D01*
X-3503395Y7703395D01*
X-3556755Y7638376D01*
X-3596405Y7564196D01*
X-3620822Y7483707D01*
X-3629066Y7400000D01*
X-3629066Y6400000D01*
X-3620822Y6316293D01*
X-3596405Y6235804D01*
X-3556755Y6161624D01*
X-3503395Y6096605D01*
X-3438376Y6043245D01*
X-3364196Y6003595D01*
X-3283707Y5979178D01*
X-3252071Y5976062D01*
X-4188811Y5039321D01*
X-4200636Y5029617D01*
X-4173000Y5168548D01*
X-4173000Y5331452D01*
X-4204782Y5491227D01*
X-4267123Y5641731D01*
X-4353180Y5770524D01*
X-4222819Y5857628D01*
X-4107628Y5972819D01*
X-4017123Y6108269D01*
X-3954782Y6258773D01*
X-3923000Y6418548D01*
X-3923000Y6581452D01*
X-3954782Y6741227D01*
X-4017123Y6891731D01*
X-4107628Y7027181D01*
X-4222819Y7142372D01*
X-4358269Y7232877D01*
X-4508773Y7295218D01*
X-4668548Y7327000D01*
X-4831452Y7327000D01*
X-4991227Y7295218D01*
X-5141731Y7232877D01*
X-5277181Y7142372D01*
X-5292553Y7127000D01*
X-6164292Y7127000D01*
X-6200000Y7130517D01*
X-6342518Y7116480D01*
X-6453646Y7082770D01*
X-6479557Y7074910D01*
X-6605853Y7007403D01*
X-6716554Y6916554D01*
X-6739317Y6888817D01*
X-7123000Y6505132D01*
X-7123000Y7760999D01*
X-5410998Y9473000D01*
X-5318548Y9473000D01*
X-5158773Y9504782D01*
X-5008269Y9567123D01*
X-4872819Y9657628D01*
X-4757628Y9772819D01*
X-4667123Y9908269D01*
X-4604782Y10058773D01*
X-4573000Y10218548D01*
X-4573000Y10381452D01*
X-4604782Y10541227D01*
X-4667123Y10691731D01*
X-4757628Y10827181D01*
X-4872819Y10942372D01*
X-5008269Y11032877D01*
X-5158773Y11095218D01*
X-5318548Y11127000D01*
X-5481452Y11127000D01*
X-5641227Y11095218D01*
X-5791731Y11032877D01*
X-5927181Y10942372D01*
X-6042372Y10827181D01*
X-6050000Y10815765D01*
X-6057628Y10827181D01*
X-6172819Y10942372D01*
X-6308269Y11032877D01*
X-6458773Y11095218D01*
X-6618548Y11127000D01*
X-6781452Y11127000D01*
X-6941227Y11095218D01*
X-7091731Y11032877D01*
X-7227181Y10942372D01*
X-7342372Y10827181D01*
X-7432877Y10691731D01*
X-7495218Y10541227D01*
X-7527000Y10381452D01*
X-7527000Y10218548D01*
X-7495218Y10058773D01*
X-7432877Y9908269D01*
X-7342372Y9772819D01*
X-7227181Y9657628D01*
X-7091731Y9567123D01*
X-6990719Y9525282D01*
X-8087962Y8428039D01*
X-8109974Y8409974D01*
X-8182079Y8322114D01*
X-8235657Y8221875D01*
X-8245318Y8190026D01*
X-8268651Y8113111D01*
X-8279790Y8000000D01*
X-8277000Y7971669D01*
X-8276999Y2728341D01*
X-8279790Y2700000D01*
X-8268651Y2586889D01*
X-8237271Y2483447D01*
X-8235656Y2478124D01*
X-8182078Y2377885D01*
X-8164286Y2356206D01*
X-8128037Y2312036D01*
X-8128034Y2312033D01*
X-8109973Y2290026D01*
X-8087966Y2271965D01*
X-6628039Y812038D01*
X-6609974Y790026D01*
X-6522115Y717921D01*
X-6421876Y664343D01*
X-6313112Y631350D01*
X-6228336Y623000D01*
X-6228330Y623000D01*
X-6200001Y620210D01*
X-6171672Y623000D01*
X-5392553Y623000D01*
X-5327181Y557628D01*
X-5191731Y467123D01*
X-5041227Y404782D01*
X-4881452Y373000D01*
X-4718548Y373000D01*
X-4558773Y404782D01*
X-4408269Y467123D01*
X-4272819Y557628D01*
X-4200000Y630447D01*
X-4127181Y557628D01*
X-3991731Y467123D01*
X-3841227Y404782D01*
X-3681452Y373000D01*
X-3518548Y373000D01*
X-3426999Y391211D01*
X-3426999Y-764282D01*
X-3430517Y-800000D01*
X-3416480Y-942517D01*
X-3374910Y-1079556D01*
X-3344923Y-1135657D01*
X-3307402Y-1205853D01*
X-3216553Y-1316554D01*
X-3188811Y-1339321D01*
X-3177000Y-1351132D01*
X-3176999Y-2770934D01*
X-3200000Y-2770934D01*
X-3220978Y-2773000D01*
X-3354473Y-2773000D01*
X-3400000Y-2768516D01*
X-3445527Y-2773000D01*
X-3445538Y-2773000D01*
X-3581724Y-2786413D01*
X-3756464Y-2839420D01*
X-3917506Y-2925498D01*
X-4023288Y-3012312D01*
X-4023292Y-3012316D01*
X-4058659Y-3041341D01*
X-4087684Y-3076708D01*
X-5323292Y-4312317D01*
X-5358658Y-4341341D01*
X-5387683Y-4376708D01*
X-5387688Y-4376713D01*
X-5474501Y-4482495D01*
X-5560580Y-4643537D01*
X-5595436Y-4758445D01*
X-5613586Y-4818276D01*
X-5626980Y-4954274D01*
X-5631484Y-5000000D01*
X-5626999Y-5045537D01*
X-5627000Y-9554473D01*
X-5631484Y-9600000D01*
X-5627000Y-9645527D01*
X-5627000Y-9645537D01*
X-5613587Y-9781723D01*
X-5565043Y-9941749D01*
X-5560580Y-9956463D01*
X-5474501Y-10117505D01*
X-5388859Y-10221860D01*
X-5358659Y-10258659D01*
X-5323287Y-10287688D01*
X-3466999Y-12143977D01*
X-3467000Y-13466736D01*
X-3503395Y-13496605D01*
X-3556755Y-13561624D01*
X-3562836Y-13573000D01*
X-3564293Y-13573000D01*
X-3600001Y-13569483D01*
X-3742518Y-13583520D01*
X-3774413Y-13593195D01*
X-3879557Y-13625090D01*
X-4005853Y-13692597D01*
X-4116554Y-13783446D01*
X-4139322Y-13811189D01*
X-4688811Y-14360679D01*
X-4716554Y-14383447D01*
X-4797206Y-14481723D01*
X-4807402Y-14494147D01*
X-4874910Y-14620444D01*
X-4916480Y-14757483D01*
X-4930517Y-14900000D01*
X-4927000Y-14935708D01*
X-4926999Y-21164282D01*
X-4930517Y-21200000D01*
X-4916480Y-21342517D01*
X-4874910Y-21479556D01*
X-4847225Y-21531350D01*
X-4807402Y-21605853D01*
X-4716553Y-21716554D01*
X-4688811Y-21739321D01*
X-3217000Y-23211133D01*
X-3216999Y-23972608D01*
X-3283707Y-23979178D01*
X-3364196Y-24003595D01*
X-3438376Y-24043245D01*
X-3503395Y-24096605D01*
X-3556755Y-24161624D01*
X-3596405Y-24235804D01*
X-3620822Y-24316293D01*
X-3629066Y-24400000D01*
X-3629066Y-25400000D01*
X-3620822Y-25483707D01*
X-3596405Y-25564196D01*
X-3556755Y-25638376D01*
X-3503395Y-25703395D01*
X-3438376Y-25756755D01*
X-3364196Y-25796405D01*
X-3283707Y-25820822D01*
X-3200000Y-25829066D01*
X-1700000Y-25829066D01*
X-1616293Y-25820822D01*
X-1535804Y-25796405D01*
X-1461624Y-25756755D01*
X-1396605Y-25703395D01*
X-1343245Y-25638376D01*
X-1303595Y-25564196D01*
X-1279178Y-25483707D01*
X-1270934Y-25400000D01*
X-1270934Y-24400000D01*
X-1279178Y-24316293D01*
X-1303595Y-24235804D01*
X-1343245Y-24161624D01*
X-1396605Y-24096605D01*
X-1461624Y-24043245D01*
X-1535804Y-24003595D01*
X-1616293Y-23979178D01*
X-1700000Y-23970934D01*
X-1763000Y-23970934D01*
X-1763000Y-22945707D01*
X-1759483Y-22909999D01*
X-1773520Y-22767482D01*
X-1783195Y-22735587D01*
X-1815090Y-22630443D01*
X-1882597Y-22504147D01*
X-1973447Y-22393446D01*
X-2001184Y-22370683D01*
X-3473000Y-20898868D01*
X-3473000Y-18328340D01*
X-3438376Y-18356755D01*
X-3364196Y-18396405D01*
X-3283707Y-18420822D01*
X-3200000Y-18429066D01*
X-3027000Y-18429066D01*
X-3026999Y-20121659D01*
X-3029790Y-20150000D01*
X-3018651Y-20263111D01*
X-2985656Y-20371876D01*
X-2932078Y-20472115D01*
X-2901160Y-20509788D01*
X-2878037Y-20537964D01*
X-2878034Y-20537967D01*
X-2859973Y-20559974D01*
X-2837966Y-20578035D01*
X-928039Y-22487962D01*
X-909974Y-22509974D01*
X-822115Y-22582079D01*
X-721876Y-22635657D01*
X-613112Y-22668650D01*
X-528336Y-22677000D01*
X-528330Y-22677000D01*
X-500001Y-22679790D01*
X-471672Y-22677000D01*
X1260999Y-22677000D01*
X1873000Y-23289001D01*
X1873000Y-23970934D01*
X1700000Y-23970934D01*
X1616293Y-23979178D01*
X1535804Y-24003595D01*
X1461624Y-24043245D01*
X1396605Y-24096605D01*
X1343245Y-24161624D01*
X1303595Y-24235804D01*
X1279178Y-24316293D01*
X1270934Y-24400000D01*
X1270934Y-25400000D01*
X1279178Y-25483707D01*
X1303595Y-25564196D01*
X1343245Y-25638376D01*
X1396605Y-25703395D01*
X1461624Y-25756755D01*
X1535804Y-25796405D01*
X1616293Y-25820822D01*
X1700000Y-25829066D01*
X3200000Y-25829066D01*
X3283707Y-25820822D01*
X3364196Y-25796405D01*
X3438376Y-25756755D01*
X3503395Y-25703395D01*
X3556755Y-25638376D01*
X3596405Y-25564196D01*
X3620822Y-25483707D01*
X3629066Y-25400000D01*
X3629066Y-24400000D01*
X3620822Y-24316293D01*
X3596405Y-24235804D01*
X3556755Y-24161624D01*
X3503395Y-24096605D01*
X3438376Y-24043245D01*
X3364196Y-24003595D01*
X3283707Y-23979178D01*
X3200000Y-23970934D01*
X3027000Y-23970934D01*
X3027000Y-23078331D01*
X3029790Y-23050000D01*
X3018651Y-22936888D01*
X2985657Y-22828125D01*
X2985657Y-22828124D01*
X2932079Y-22727885D01*
X2859974Y-22640026D01*
X2837963Y-22621962D01*
X1928039Y-21712038D01*
X1909974Y-21690026D01*
X1822115Y-21617921D01*
X1721876Y-21564343D01*
X1657770Y-21544897D01*
X1613111Y-21531349D01*
X1558045Y-21525926D01*
X1528336Y-21523000D01*
X1528331Y-21523000D01*
X1500000Y-21520210D01*
X1471669Y-21523000D01*
X-260999Y-21523000D01*
X-1873000Y-19910999D01*
X-1873000Y-18429066D01*
X-1700000Y-18429066D01*
X-1616293Y-18420822D01*
X-1535804Y-18396405D01*
X-1461624Y-18356755D01*
X-1396605Y-18303395D01*
X-1343245Y-18238376D01*
X-1303595Y-18164196D01*
X-1279178Y-18083707D01*
X-1270934Y-18000000D01*
X1061928Y-18000000D01*
X1074188Y-18124482D01*
X1110498Y-18244180D01*
X1169463Y-18354494D01*
X1248815Y-18451185D01*
X1345506Y-18530537D01*
X1455820Y-18589502D01*
X1575518Y-18625812D01*
X1700000Y-18638072D01*
X2164250Y-18635000D01*
X2323000Y-18476250D01*
X2323000Y-17627000D01*
X2577000Y-17627000D01*
X2577000Y-18476250D01*
X2735750Y-18635000D01*
X3200000Y-18638072D01*
X3324482Y-18625812D01*
X3444180Y-18589502D01*
X3554494Y-18530537D01*
X3651185Y-18451185D01*
X3730537Y-18354494D01*
X3789502Y-18244180D01*
X3825812Y-18124482D01*
X3838072Y-18000000D01*
X3835000Y-17785750D01*
X3676250Y-17627000D01*
X2577000Y-17627000D01*
X2323000Y-17627000D01*
X1223750Y-17627000D01*
X1065000Y-17785750D01*
X1061928Y-18000000D01*
X-1270934Y-18000000D01*
X-1270934Y-17000000D01*
X-1279178Y-16916293D01*
X-1303595Y-16835804D01*
X-1343245Y-16761624D01*
X-1396605Y-16696605D01*
X-1461624Y-16643245D01*
X-1535804Y-16603595D01*
X-1616293Y-16579178D01*
X-1700000Y-16570934D01*
X-3200000Y-16570934D01*
X-3283707Y-16579178D01*
X-3364196Y-16603595D01*
X-3438376Y-16643245D01*
X-3473000Y-16671660D01*
X-3473000Y-15201132D01*
X-3432020Y-15160152D01*
X-3364196Y-15196405D01*
X-3283707Y-15220822D01*
X-3200000Y-15229066D01*
X-2831909Y-15229066D01*
X-1637684Y-16423292D01*
X-1608659Y-16458659D01*
X-1573292Y-16487684D01*
X-1573289Y-16487687D01*
X-1467506Y-16574501D01*
X-1381427Y-16620511D01*
X-1306464Y-16660580D01*
X-1131724Y-16713587D01*
X-995538Y-16727000D01*
X-995526Y-16727000D01*
X-950001Y-16731484D01*
X-904476Y-16727000D01*
X1125903Y-16727000D01*
X1110498Y-16755820D01*
X1074188Y-16875518D01*
X1061928Y-17000000D01*
X1065000Y-17214250D01*
X1223750Y-17373000D01*
X2323000Y-17373000D01*
X2323000Y-17353000D01*
X2577000Y-17353000D01*
X2577000Y-17373000D01*
X3676250Y-17373000D01*
X3835000Y-17214250D01*
X3838072Y-17000000D01*
X3825812Y-16875518D01*
X3789502Y-16755820D01*
X3774097Y-16727000D01*
X4045538Y-16727000D01*
X4181724Y-16713587D01*
X4356464Y-16660580D01*
X4517505Y-16574501D01*
X4658659Y-16458659D01*
X4774501Y-16317505D01*
X4860580Y-16156464D01*
X4913587Y-15981724D01*
X4931485Y-15800000D01*
X4913587Y-15618276D01*
X4860580Y-15443536D01*
X4774501Y-15282495D01*
X4658659Y-15141341D01*
X4517505Y-15025499D01*
X4356464Y-14939420D01*
X4181724Y-14886413D01*
X4045538Y-14873000D01*
X3621876Y-14873000D01*
X3629066Y-14800000D01*
X3629066Y-13800000D01*
X3620822Y-13716293D01*
X3596405Y-13635804D01*
X3556755Y-13561624D01*
X3503395Y-13496605D01*
X3438376Y-13443245D01*
X3364196Y-13403595D01*
X3283707Y-13379178D01*
X3200000Y-13370934D01*
X3027000Y-13370934D01*
X3027000Y-12578339D01*
X3029791Y-12550000D01*
X3018651Y-12436888D01*
X2985657Y-12328123D01*
X2958601Y-12277505D01*
X2932079Y-12227885D01*
X2859974Y-12140026D01*
X2837962Y-12121961D01*
X2011826Y-11295825D01*
X2168548Y-11327000D01*
X2331452Y-11327000D01*
X2491227Y-11295218D01*
X2641731Y-11232877D01*
X2777181Y-11142372D01*
X2892372Y-11027181D01*
X2982877Y-10891731D01*
X3045218Y-10741227D01*
X3077000Y-10581452D01*
X3077000Y-10418548D01*
X3045218Y-10258773D01*
X2982877Y-10108269D01*
X2892372Y-9972819D01*
X2777181Y-9857628D01*
X2641731Y-9767123D01*
X2491227Y-9704782D01*
X2331452Y-9673000D01*
X2168548Y-9673000D01*
X2008773Y-9704782D01*
X1858269Y-9767123D01*
X1722819Y-9857628D01*
X1607628Y-9972819D01*
X1517123Y-10108269D01*
X1454782Y-10258773D01*
X1423000Y-10418548D01*
X1423000Y-10581452D01*
X1454175Y-10738174D01*
X477000Y-9760999D01*
X477000Y-9118548D01*
X7273000Y-9118548D01*
X7273000Y-9281452D01*
X7304782Y-9441227D01*
X7367123Y-9591731D01*
X7457628Y-9727181D01*
X7572819Y-9842372D01*
X7708269Y-9932877D01*
X7858773Y-9995218D01*
X8018548Y-10027000D01*
X8181452Y-10027000D01*
X8341227Y-9995218D01*
X8491731Y-9932877D01*
X8627181Y-9842372D01*
X8742372Y-9727181D01*
X8832877Y-9591731D01*
X8895218Y-9441227D01*
X8927000Y-9281452D01*
X8927000Y-9189001D01*
X10987963Y-7128038D01*
X11009974Y-7109974D01*
X11082079Y-7022115D01*
X11135657Y-6921876D01*
X11154547Y-6859603D01*
X11168651Y-6813112D01*
X11176332Y-6735119D01*
X11177000Y-6728336D01*
X11177000Y-6728331D01*
X11179790Y-6700000D01*
X11177000Y-6671669D01*
X11177000Y-5692553D01*
X11242372Y-5627181D01*
X11332877Y-5491731D01*
X11395218Y-5341227D01*
X11427000Y-5181452D01*
X11427000Y-5018548D01*
X11395218Y-4858773D01*
X11332877Y-4708269D01*
X11242372Y-4572819D01*
X11127181Y-4457628D01*
X10991731Y-4367123D01*
X10841227Y-4304782D01*
X10681452Y-4273000D01*
X10518548Y-4273000D01*
X10358773Y-4304782D01*
X10208269Y-4367123D01*
X10072819Y-4457628D01*
X9957628Y-4572819D01*
X9867123Y-4708269D01*
X9804782Y-4858773D01*
X9773000Y-5018548D01*
X9773000Y-5181452D01*
X9804782Y-5341227D01*
X9867123Y-5491731D01*
X9957628Y-5627181D01*
X10023001Y-5692554D01*
X10023000Y-6460999D01*
X8110999Y-8373000D01*
X8018548Y-8373000D01*
X7858773Y-8404782D01*
X7708269Y-8467123D01*
X7572819Y-8557628D01*
X7457628Y-8672819D01*
X7367123Y-8808269D01*
X7304782Y-8958773D01*
X7273000Y-9118548D01*
X477000Y-9118548D01*
X477000Y-8028328D01*
X479790Y-7999999D01*
X477000Y-7971670D01*
X477000Y-7971664D01*
X468650Y-7886888D01*
X435657Y-7778124D01*
X382079Y-7677885D01*
X332284Y-7617210D01*
X328037Y-7612035D01*
X328035Y-7612033D01*
X309974Y-7590026D01*
X287967Y-7571965D01*
X116002Y-7400000D01*
X1061928Y-7400000D01*
X1074188Y-7524482D01*
X1110498Y-7644180D01*
X1169463Y-7754494D01*
X1248815Y-7851185D01*
X1345506Y-7930537D01*
X1455820Y-7989502D01*
X1575518Y-8025812D01*
X1700000Y-8038072D01*
X2164250Y-8035000D01*
X2323000Y-7876250D01*
X2323000Y-7027000D01*
X2577000Y-7027000D01*
X2577000Y-7876250D01*
X2735750Y-8035000D01*
X3200000Y-8038072D01*
X3324482Y-8025812D01*
X3444180Y-7989502D01*
X3554494Y-7930537D01*
X3651185Y-7851185D01*
X3730537Y-7754494D01*
X3789502Y-7644180D01*
X3825812Y-7524482D01*
X3838072Y-7400000D01*
X3835000Y-7185750D01*
X3676250Y-7027000D01*
X2577000Y-7027000D01*
X2323000Y-7027000D01*
X1223750Y-7027000D01*
X1065000Y-7185750D01*
X1061928Y-7400000D01*
X116002Y-7400000D01*
X-432244Y-6851755D01*
X-357628Y-6777139D01*
X-267123Y-6641689D01*
X-204782Y-6491185D01*
X-186644Y-6400000D01*
X1061928Y-6400000D01*
X1065000Y-6614250D01*
X1223750Y-6773000D01*
X2323000Y-6773000D01*
X2323000Y-5923750D01*
X2577000Y-5923750D01*
X2577000Y-6773000D01*
X3676250Y-6773000D01*
X3835000Y-6614250D01*
X3838072Y-6400000D01*
X3825812Y-6275518D01*
X3789502Y-6155820D01*
X3730537Y-6045506D01*
X3651185Y-5948815D01*
X3554494Y-5869463D01*
X3459241Y-5818548D01*
X6073000Y-5818548D01*
X6073000Y-5981452D01*
X6104782Y-6141227D01*
X6167123Y-6291731D01*
X6257628Y-6427181D01*
X6372819Y-6542372D01*
X6508269Y-6632877D01*
X6658773Y-6695218D01*
X6818548Y-6727000D01*
X6981452Y-6727000D01*
X7141227Y-6695218D01*
X7291731Y-6632877D01*
X7427181Y-6542372D01*
X7542372Y-6427181D01*
X7632877Y-6291731D01*
X7695218Y-6141227D01*
X7727000Y-5981452D01*
X7727000Y-5818548D01*
X7695218Y-5658773D01*
X7632877Y-5508269D01*
X7542372Y-5372819D01*
X7427181Y-5257628D01*
X7291731Y-5167123D01*
X7141227Y-5104782D01*
X6981452Y-5073000D01*
X6818548Y-5073000D01*
X6658773Y-5104782D01*
X6508269Y-5167123D01*
X6372819Y-5257628D01*
X6257628Y-5372819D01*
X6167123Y-5508269D01*
X6104782Y-5658773D01*
X6073000Y-5818548D01*
X3459241Y-5818548D01*
X3444180Y-5810498D01*
X3324482Y-5774188D01*
X3200000Y-5761928D01*
X2735750Y-5765000D01*
X2577000Y-5923750D01*
X2323000Y-5923750D01*
X2164250Y-5765000D01*
X1700000Y-5761928D01*
X1575518Y-5774188D01*
X1455820Y-5810498D01*
X1345506Y-5869463D01*
X1248815Y-5948815D01*
X1169463Y-6045506D01*
X1110498Y-6155820D01*
X1074188Y-6275518D01*
X1061928Y-6400000D01*
X-186644Y-6400000D01*
X-173000Y-6331410D01*
X-173000Y-6168506D01*
X-204782Y-6008731D01*
X-267123Y-5858227D01*
X-357628Y-5722777D01*
X-448000Y-5632405D01*
X-448000Y-3317553D01*
X-357628Y-3227181D01*
X-267123Y-3091731D01*
X-204782Y-2941227D01*
X-173000Y-2781452D01*
X-173000Y-2618548D01*
X-204782Y-2458773D01*
X-267123Y-2308269D01*
X-357628Y-2172819D01*
X-472819Y-2057628D01*
X-608269Y-1967123D01*
X-758773Y-1904782D01*
X-918548Y-1873000D01*
X-1081452Y-1873000D01*
X-1241227Y-1904782D01*
X-1391731Y-1967123D01*
X-1527181Y-2057628D01*
X-1642372Y-2172819D01*
X-1723000Y-2293487D01*
X-1723000Y-1535056D01*
X-1721876Y-1535657D01*
X-1677218Y-1549204D01*
X-1613112Y-1568651D01*
X-1555114Y-1574363D01*
X-1528336Y-1577000D01*
X-1528331Y-1577000D01*
X-1500000Y-1579790D01*
X-1471669Y-1577000D01*
X1160999Y-1577000D01*
X1873000Y-2289002D01*
X1873000Y-2770934D01*
X1700000Y-2770934D01*
X1616293Y-2779178D01*
X1535804Y-2803595D01*
X1461624Y-2843245D01*
X1396605Y-2896605D01*
X1343245Y-2961624D01*
X1303595Y-3035804D01*
X1279178Y-3116293D01*
X1270934Y-3200000D01*
X1270934Y-4200000D01*
X1279178Y-4283707D01*
X1303595Y-4364196D01*
X1343245Y-4438376D01*
X1396605Y-4503395D01*
X1461624Y-4556755D01*
X1535804Y-4596405D01*
X1616293Y-4620822D01*
X1700000Y-4629066D01*
X3200000Y-4629066D01*
X3283707Y-4620822D01*
X3364196Y-4596405D01*
X3438376Y-4556755D01*
X3503395Y-4503395D01*
X3556755Y-4438376D01*
X3596405Y-4364196D01*
X3620822Y-4283707D01*
X3629066Y-4200000D01*
X3629066Y-3200000D01*
X3620822Y-3116293D01*
X3596405Y-3035804D01*
X3556755Y-2961624D01*
X3503395Y-2896605D01*
X3438376Y-2843245D01*
X3364196Y-2803595D01*
X3283707Y-2779178D01*
X3200000Y-2770934D01*
X3027000Y-2770934D01*
X3027000Y-2078328D01*
X3029790Y-2049999D01*
X3027000Y-2021670D01*
X3027000Y-2021664D01*
X3018650Y-1936888D01*
X2985657Y-1828124D01*
X2932079Y-1727885D01*
X2859974Y-1640026D01*
X2837968Y-1621966D01*
X2624243Y-1408241D01*
X2718548Y-1427000D01*
X2881452Y-1427000D01*
X3041227Y-1395218D01*
X3191731Y-1332877D01*
X3327181Y-1242372D01*
X3392553Y-1177000D01*
X4771669Y-1177000D01*
X4800000Y-1179790D01*
X4828331Y-1177000D01*
X4828336Y-1177000D01*
X4858045Y-1174074D01*
X4913111Y-1168651D01*
X4957770Y-1155103D01*
X5021876Y-1135657D01*
X5122115Y-1082079D01*
X5209974Y-1009974D01*
X5228039Y-987962D01*
X8137968Y1921967D01*
X8159974Y1940026D01*
X8232079Y2027885D01*
X8285657Y2128124D01*
X8303483Y2186889D01*
X8318651Y2236888D01*
X8324866Y2300000D01*
X8327000Y2321664D01*
X8327000Y2321668D01*
X8329790Y2349999D01*
X8327000Y2378330D01*
X8327000Y6310999D01*
X8889001Y6873000D01*
X8981452Y6873000D01*
X9141227Y6904782D01*
X9291731Y6967123D01*
X9427181Y7057628D01*
X9542372Y7172819D01*
X9632877Y7308269D01*
X9695218Y7458773D01*
X9727000Y7618548D01*
X9727000Y7781452D01*
X9695218Y7941227D01*
X9632877Y8091731D01*
X9542372Y8227181D01*
X9427181Y8342372D01*
X9291731Y8432877D01*
X9141227Y8495218D01*
X8981452Y8527000D01*
X8818548Y8527000D01*
X8658773Y8495218D01*
X8508269Y8432877D01*
X8372819Y8342372D01*
X8257628Y8227181D01*
X8167123Y8091731D01*
X8104782Y7941227D01*
X8073000Y7781452D01*
X8073000Y7689001D01*
X7362034Y6978035D01*
X7340027Y6959974D01*
X7321966Y6937967D01*
X7321963Y6937964D01*
X7298840Y6909788D01*
X7267922Y6872115D01*
X7236385Y6813112D01*
X7214344Y6771876D01*
X7181349Y6663111D01*
X7170210Y6550000D01*
X7173001Y6521659D01*
X7173000Y2589002D01*
X4560999Y-23000D01*
X3593001Y-23000D01*
X5289002Y1673000D01*
X5571669Y1673000D01*
X5600000Y1670210D01*
X5628331Y1673000D01*
X5628336Y1673000D01*
X5658045Y1675926D01*
X5713111Y1681349D01*
X5757770Y1694897D01*
X5821876Y1714343D01*
X5922115Y1767921D01*
X6009974Y1840026D01*
X6028039Y1862038D01*
X6487962Y2321961D01*
X6509974Y2340026D01*
X6582079Y2427885D01*
X6635657Y2528124D01*
X6659236Y2605853D01*
X6668651Y2636888D01*
X6675337Y2704782D01*
X6677000Y2721664D01*
X6677000Y2721669D01*
X6679790Y2750000D01*
X6677000Y2778331D01*
X6677000Y6771672D01*
X6679790Y6800001D01*
X6677000Y6828330D01*
X6677000Y6828336D01*
X6668650Y6913112D01*
X6635657Y7021876D01*
X6582079Y7122115D01*
X6540365Y7172943D01*
X6528037Y7187965D01*
X6528035Y7187967D01*
X6509974Y7209974D01*
X6487968Y7228034D01*
X6077000Y7639001D01*
X6077000Y8971669D01*
X6079790Y9000000D01*
X6076562Y9032785D01*
X6073116Y9067772D01*
X6068651Y9113112D01*
X6048423Y9179791D01*
X6035657Y9221876D01*
X5982079Y9322115D01*
X5909974Y9409974D01*
X5887963Y9428038D01*
X5183678Y10132323D01*
X5186888Y10131349D01*
X5300000Y10120209D01*
X5328339Y10123000D01*
X5791216Y10123000D01*
X5773006Y10031452D01*
X5773006Y9868548D01*
X5804788Y9708773D01*
X5867129Y9558269D01*
X5957634Y9422819D01*
X6072825Y9307628D01*
X6208275Y9217123D01*
X6358779Y9154782D01*
X6518554Y9123000D01*
X6681458Y9123000D01*
X6841233Y9154782D01*
X6991737Y9217123D01*
X7127187Y9307628D01*
X7142559Y9323000D01*
X8673000Y9323000D01*
X8673000Y9318548D01*
X8704782Y9158773D01*
X8767123Y9008269D01*
X8857628Y8872819D01*
X8972819Y8757628D01*
X9108269Y8667123D01*
X9258773Y8604782D01*
X9418548Y8573000D01*
X9581452Y8573000D01*
X9741227Y8604782D01*
X9823000Y8638654D01*
X9823001Y6528341D01*
X9820210Y6500000D01*
X9831349Y6386889D01*
X9860949Y6289316D01*
X9864344Y6278124D01*
X9917922Y6177885D01*
X9941858Y6148719D01*
X9971963Y6112036D01*
X9971966Y6112033D01*
X9990027Y6090026D01*
X10012034Y6071965D01*
X10256999Y5827000D01*
X10218548Y5827000D01*
X10058773Y5795218D01*
X9908269Y5732877D01*
X9772819Y5642372D01*
X9657628Y5527181D01*
X9567123Y5391731D01*
X9504782Y5241227D01*
X9473000Y5081452D01*
X9473000Y4918548D01*
X9504782Y4758773D01*
X9567123Y4608269D01*
X9657628Y4472819D01*
X9673000Y4457447D01*
X9673001Y1842554D01*
X9657628Y1827181D01*
X9567123Y1691731D01*
X9504782Y1541227D01*
X9473000Y1381452D01*
X9473000Y1218548D01*
X9504782Y1058773D01*
X9567123Y908269D01*
X9657628Y772819D01*
X9772819Y657628D01*
X9908269Y567123D01*
X10058773Y504782D01*
X10218548Y473000D01*
X10381452Y473000D01*
X10541227Y504782D01*
X10691731Y567123D01*
X10827181Y657628D01*
X10942372Y772819D01*
X11032877Y908269D01*
X11095218Y1058773D01*
X11127000Y1218548D01*
X11127000Y1381452D01*
X11095218Y1541227D01*
X11032877Y1691731D01*
X10942372Y1827181D01*
X10927000Y1842553D01*
X10927000Y4457447D01*
X10942372Y4472819D01*
X11032877Y4608269D01*
X11095218Y4758773D01*
X11127000Y4918548D01*
X11127000Y4956999D01*
X11423000Y4660999D01*
X11423001Y2792554D01*
X11357628Y2727181D01*
X11267123Y2591731D01*
X11204782Y2441227D01*
X11173000Y2281452D01*
X11173000Y2118548D01*
X11204782Y1958773D01*
X11267123Y1808269D01*
X11357628Y1672819D01*
X11472819Y1557628D01*
X11608269Y1467123D01*
X11758773Y1404782D01*
X11918548Y1373000D01*
X12081452Y1373000D01*
X12241227Y1404782D01*
X12391731Y1467123D01*
X12527181Y1557628D01*
X12642372Y1672819D01*
X12732877Y1808269D01*
X12795218Y1958773D01*
X12827000Y2118548D01*
X12827000Y2281452D01*
X12795218Y2441227D01*
X12732877Y2591731D01*
X12642372Y2727181D01*
X12577000Y2792553D01*
X12577000Y4871661D01*
X12579791Y4900000D01*
X12568651Y5013112D01*
X12544958Y5091215D01*
X12535657Y5121876D01*
X12482079Y5222115D01*
X12409974Y5309974D01*
X12387963Y5328038D01*
X10977000Y6739001D01*
X10977000Y9771672D01*
X10979790Y9800001D01*
X10977000Y9828330D01*
X10977000Y9828336D01*
X10968650Y9913112D01*
X10935657Y10021876D01*
X10882079Y10122115D01*
X10834744Y10179792D01*
X10828037Y10187965D01*
X10828035Y10187967D01*
X10809974Y10209974D01*
X10787968Y10228034D01*
X10777883Y10238119D01*
X10955877Y10220666D01*
X10955891Y10220665D01*
X11106021Y10205945D01*
X11207998Y10175155D01*
X11302060Y10125142D01*
X11384612Y10057814D01*
X11452514Y9975734D01*
X11503181Y9882027D01*
X11534683Y9780263D01*
X11548001Y9653551D01*
X11548000Y7177797D01*
X11548243Y7175334D01*
X11548514Y7150496D01*
X11550837Y7129207D01*
X11551005Y7107794D01*
X11551714Y7101523D01*
X11599260Y6705742D01*
X11608094Y6665728D01*
X11616365Y6625615D01*
X11618278Y6619601D01*
X11741793Y6240594D01*
X11758224Y6203075D01*
X11774135Y6165317D01*
X11777180Y6159789D01*
X11971958Y5811990D01*
X11995384Y5778347D01*
X12018307Y5744427D01*
X12022362Y5739603D01*
X12022367Y5739596D01*
X12022373Y5739591D01*
X12280992Y5436254D01*
X12310497Y5407811D01*
X12339580Y5378981D01*
X12344496Y5375036D01*
X12344502Y5375030D01*
X12344509Y5375026D01*
X12657120Y5127698D01*
X12691587Y5105529D01*
X12725717Y5082896D01*
X12731309Y5079979D01*
X12731313Y5079976D01*
X12731317Y5079974D01*
X13086017Y4898077D01*
X13124093Y4883040D01*
X13162009Y4867451D01*
X13168055Y4865678D01*
X13168065Y4865674D01*
X13168075Y4865672D01*
X13551345Y4756135D01*
X13591640Y4748776D01*
X13631839Y4740853D01*
X13638124Y4740286D01*
X14035381Y4707278D01*
X14076335Y4707886D01*
X14117311Y4707922D01*
X14123587Y4708587D01*
X14519690Y4753369D01*
X14559744Y4761920D01*
X14599934Y4769914D01*
X14605961Y4771786D01*
X14985822Y4892652D01*
X15023463Y4908824D01*
X15061324Y4924468D01*
X15066864Y4927470D01*
X15066873Y4927474D01*
X15066880Y4927479D01*
X15416023Y5119821D01*
X15449778Y5142977D01*
X15483908Y5165696D01*
X15488767Y5169723D01*
X15793907Y5426223D01*
X15822590Y5455564D01*
X15851587Y5484410D01*
X15855567Y5489298D01*
X15855573Y5489304D01*
X15855577Y5489311D01*
X16105080Y5800187D01*
X16127487Y5834493D01*
X16150361Y5868470D01*
X16153316Y5874040D01*
X16153319Y5874044D01*
X16153321Y5874048D01*
X16337690Y6227470D01*
X16353000Y6265459D01*
X16368846Y6303248D01*
X16370665Y6309291D01*
X16482878Y6691797D01*
X16490526Y6732081D01*
X16498721Y6772183D01*
X16499332Y6778464D01*
X16535112Y7175481D01*
X16534790Y7216481D01*
X16535040Y7257412D01*
X16534419Y7263682D01*
X16534419Y7263693D01*
X16534417Y7263703D01*
X16492403Y7660099D01*
X16484135Y7700202D01*
X16476419Y7740457D01*
X16474591Y7746489D01*
X16474590Y7746496D01*
X16474587Y7746502D01*
X16356378Y8127192D01*
X16340468Y8164950D01*
X16325090Y8202914D01*
X16322127Y8208475D01*
X16322123Y8208484D01*
X16322118Y8208491D01*
X16132218Y8558968D01*
X16109273Y8592922D01*
X16086818Y8627171D01*
X16082829Y8632053D01*
X16082825Y8632059D01*
X16082820Y8632064D01*
X15828462Y8938982D01*
X15828457Y8938987D01*
X15732207Y9055127D01*
X15681456Y9148792D01*
X15649866Y9250528D01*
X15638638Y9356459D01*
X15648201Y9462559D01*
X15678189Y9564781D01*
X15727458Y9659226D01*
X15806799Y9758083D01*
X16091089Y10042373D01*
X16190569Y10124087D01*
X16284452Y10174427D01*
X16386323Y10205571D01*
X16513679Y10218508D01*
X19057890Y10218508D01*
X19186021Y10205945D01*
X19287998Y10175155D01*
X19382060Y10125142D01*
X19464612Y10057814D01*
X19532514Y9975734D01*
X19583181Y9882027D01*
X19614683Y9780263D01*
X19628000Y9653560D01*
X19627999Y-9648397D01*
X19615435Y-9776529D01*
X19584647Y-9878505D01*
X19534633Y-9972567D01*
X19467306Y-10055118D01*
X19385226Y-10123021D01*
X19291519Y-10173688D01*
X19189754Y-10205190D01*
X19063061Y-10218506D01*
X16516322Y-10218506D01*
X16388190Y-10205942D01*
X16286214Y-10175154D01*
X16192152Y-10125140D01*
X16092955Y-10044237D01*
X15812599Y-9763881D01*
X15730877Y-9664392D01*
X15680537Y-9570508D01*
X15649391Y-9468633D01*
X15638626Y-9362653D01*
X15648651Y-9256596D01*
X15679085Y-9154508D01*
X15728767Y-9060278D01*
X15809348Y-8960769D01*
X15833450Y-8936349D01*
X15846933Y-8919714D01*
X15862025Y-8904516D01*
X15865980Y-8899597D01*
X16113586Y-8587197D01*
X16135768Y-8552778D01*
X16158450Y-8518639D01*
X16161370Y-8513051D01*
X16161373Y-8513047D01*
X16161375Y-8513043D01*
X16343584Y-8158501D01*
X16358659Y-8120426D01*
X16374276Y-8082536D01*
X16376058Y-8076482D01*
X16485935Y-7693298D01*
X16493329Y-7653012D01*
X16501288Y-7612816D01*
X16501860Y-7606531D01*
X16535216Y-7209303D01*
X16534644Y-7168350D01*
X16534644Y-7127374D01*
X16533984Y-7121097D01*
X16489550Y-6724956D01*
X16481030Y-6684869D01*
X16473075Y-6644696D01*
X16471212Y-6638675D01*
X16471210Y-6638668D01*
X16471207Y-6638662D01*
X16350676Y-6258701D01*
X16334549Y-6221075D01*
X16318927Y-6183173D01*
X16315925Y-6177621D01*
X16123886Y-5828302D01*
X16100736Y-5794492D01*
X16078070Y-5760377D01*
X16074052Y-5755520D01*
X16074048Y-5755514D01*
X16074043Y-5755509D01*
X15817815Y-5450148D01*
X15788546Y-5421486D01*
X15759679Y-5392416D01*
X15754794Y-5388433D01*
X15754788Y-5388427D01*
X15754781Y-5388423D01*
X15444124Y-5138647D01*
X15409860Y-5116225D01*
X15375881Y-5093306D01*
X15370309Y-5090343D01*
X15017045Y-4905661D01*
X14979085Y-4890324D01*
X14941296Y-4874439D01*
X14935254Y-4872615D01*
X14552846Y-4760066D01*
X14512598Y-4752388D01*
X14472474Y-4744152D01*
X14466193Y-4743536D01*
X14069207Y-4707408D01*
X14028242Y-4707694D01*
X13987277Y-4707408D01*
X13980996Y-4708024D01*
X13980994Y-4708024D01*
X13584553Y-4749691D01*
X13544435Y-4757926D01*
X13504181Y-4765605D01*
X13498139Y-4767429D01*
X13117340Y-4885306D01*
X13079575Y-4901181D01*
X13041590Y-4916528D01*
X13036018Y-4919491D01*
X12685367Y-5109087D01*
X12651415Y-5131988D01*
X12617124Y-5154427D01*
X12612233Y-5158416D01*
X12305086Y-5412510D01*
X12276219Y-5441580D01*
X12246950Y-5470242D01*
X12242927Y-5475105D01*
X11990984Y-5784018D01*
X11968315Y-5818137D01*
X11945168Y-5851942D01*
X11942171Y-5857486D01*
X11942166Y-5857494D01*
X11942163Y-5857502D01*
X11755023Y-6209460D01*
X11739415Y-6247327D01*
X11723273Y-6284989D01*
X11721410Y-6291008D01*
X11721406Y-6291018D01*
X11721404Y-6291028D01*
X11606191Y-6672630D01*
X11598236Y-6712803D01*
X11589716Y-6752890D01*
X11589056Y-6759166D01*
X11550157Y-7155890D01*
X11550157Y-7155903D01*
X11548001Y-7177793D01*
X11548000Y-9648397D01*
X11535436Y-9776529D01*
X11504648Y-9878505D01*
X11454634Y-9972567D01*
X11387307Y-10055118D01*
X11305227Y-10123021D01*
X11211520Y-10173688D01*
X11109755Y-10205190D01*
X10964322Y-10220476D01*
X10952052Y-10220390D01*
X10945771Y-10221006D01*
X10751674Y-10241407D01*
X10711534Y-10249647D01*
X10671306Y-10257320D01*
X10665265Y-10259144D01*
X10665263Y-10259145D01*
X10665261Y-10259145D01*
X10665259Y-10259146D01*
X10478827Y-10316855D01*
X10441060Y-10332730D01*
X10403073Y-10348078D01*
X10397508Y-10351037D01*
X10397504Y-10351039D01*
X10397503Y-10351040D01*
X10397501Y-10351041D01*
X10225824Y-10443867D01*
X10191879Y-10466763D01*
X10157583Y-10489206D01*
X10152692Y-10493195D01*
X10002314Y-10617598D01*
X9973429Y-10646685D01*
X9944177Y-10675331D01*
X9940159Y-10680188D01*
X9940154Y-10680193D01*
X9940150Y-10680198D01*
X9816803Y-10831436D01*
X9794132Y-10865559D01*
X9770988Y-10899360D01*
X9767986Y-10904912D01*
X9676361Y-11077233D01*
X9660741Y-11115129D01*
X9644611Y-11152764D01*
X9642749Y-11158779D01*
X9642744Y-11158792D01*
X9642742Y-11158805D01*
X9586336Y-11345629D01*
X9578379Y-11385812D01*
X9569861Y-11425887D01*
X9569201Y-11432164D01*
X9550156Y-11626397D01*
X9550156Y-11626421D01*
X9548001Y-11648301D01*
X9548000Y-29479864D01*
X9474353Y-30305065D01*
X9261075Y-31084677D01*
X8913108Y-31814204D01*
X8441452Y-32470583D01*
X7861017Y-33033064D01*
X7190149Y-33483868D01*
X6450054Y-33808747D01*
X5660647Y-33998268D01*
X4983429Y-34047999D01*
X-4979865Y-34047999D01*
X-5805066Y-33974352D01*
X-6584678Y-33761074D01*
X-7314205Y-33413107D01*
X-7970584Y-32941451D01*
X-8533065Y-32361016D01*
X-8983869Y-31690148D01*
X-9308748Y-30950053D01*
X-9498269Y-30160646D01*
X-9548000Y-29483428D01*
X-9548000Y-27600000D01*
X-3629066Y-27600000D01*
X-3629066Y-28600000D01*
X-3620822Y-28683707D01*
X-3596405Y-28764196D01*
X-3556755Y-28838376D01*
X-3503395Y-28903395D01*
X-3438376Y-28956755D01*
X-3364196Y-28996405D01*
X-3283707Y-29020822D01*
X-3200000Y-29029066D01*
X-1700000Y-29029066D01*
X-1616293Y-29020822D01*
X-1535804Y-28996405D01*
X-1461624Y-28956755D01*
X-1396605Y-28903395D01*
X-1343245Y-28838376D01*
X-1303595Y-28764196D01*
X-1279178Y-28683707D01*
X-1270934Y-28600000D01*
X1061928Y-28600000D01*
X1074188Y-28724482D01*
X1110498Y-28844180D01*
X1169463Y-28954494D01*
X1248815Y-29051185D01*
X1345506Y-29130537D01*
X1455820Y-29189502D01*
X1575518Y-29225812D01*
X1700000Y-29238072D01*
X2164250Y-29235000D01*
X2323000Y-29076250D01*
X2323000Y-28227000D01*
X2577000Y-28227000D01*
X2577000Y-29076250D01*
X2735750Y-29235000D01*
X3200000Y-29238072D01*
X3324482Y-29225812D01*
X3444180Y-29189502D01*
X3554494Y-29130537D01*
X3651185Y-29051185D01*
X3730537Y-28954494D01*
X3789502Y-28844180D01*
X3825812Y-28724482D01*
X3838072Y-28600000D01*
X3835000Y-28385750D01*
X3676250Y-28227000D01*
X2577000Y-28227000D01*
X2323000Y-28227000D01*
X1223750Y-28227000D01*
X1065000Y-28385750D01*
X1061928Y-28600000D01*
X-1270934Y-28600000D01*
X-1270934Y-27600000D01*
X1061928Y-27600000D01*
X1065000Y-27814250D01*
X1223750Y-27973000D01*
X2323000Y-27973000D01*
X2323000Y-27123750D01*
X2577000Y-27123750D01*
X2577000Y-27973000D01*
X3676250Y-27973000D01*
X3835000Y-27814250D01*
X3838072Y-27600000D01*
X3825812Y-27475518D01*
X3789502Y-27355820D01*
X3730537Y-27245506D01*
X3651185Y-27148815D01*
X3554494Y-27069463D01*
X3444180Y-27010498D01*
X3324482Y-26974188D01*
X3200000Y-26961928D01*
X2735750Y-26965000D01*
X2577000Y-27123750D01*
X2323000Y-27123750D01*
X2164250Y-26965000D01*
X1700000Y-26961928D01*
X1575518Y-26974188D01*
X1455820Y-27010498D01*
X1345506Y-27069463D01*
X1248815Y-27148815D01*
X1169463Y-27245506D01*
X1110498Y-27355820D01*
X1074188Y-27475518D01*
X1061928Y-27600000D01*
X-1270934Y-27600000D01*
X-1279178Y-27516293D01*
X-1303595Y-27435804D01*
X-1343245Y-27361624D01*
X-1396605Y-27296605D01*
X-1461624Y-27243245D01*
X-1535804Y-27203595D01*
X-1616293Y-27179178D01*
X-1700000Y-27170934D01*
X-3200000Y-27170934D01*
X-3283707Y-27179178D01*
X-3364196Y-27203595D01*
X-3438376Y-27243245D01*
X-3503395Y-27296605D01*
X-3556755Y-27361624D01*
X-3596405Y-27435804D01*
X-3620822Y-27516293D01*
X-3629066Y-27600000D01*
X-9548000Y-27600000D01*
X-9548000Y-11648301D01*
X-9549927Y-11628734D01*
X-9549884Y-11622558D01*
X-9550500Y-11616277D01*
X-9570901Y-11422180D01*
X-9579141Y-11382036D01*
X-9586815Y-11341810D01*
X-9588639Y-11335768D01*
X-9646351Y-11149330D01*
X-9662243Y-11111524D01*
X-9677573Y-11073581D01*
X-9680531Y-11068017D01*
X-9680535Y-11068008D01*
X-9680540Y-11068001D01*
X-9773360Y-10896332D01*
X-9796268Y-10862368D01*
X-9818702Y-10828087D01*
X-9822691Y-10823196D01*
X-9947095Y-10672819D01*
X-9976161Y-10643954D01*
X-10004826Y-10614683D01*
X-10009683Y-10610665D01*
X-10009689Y-10610659D01*
X-10009696Y-10610655D01*
X-10160931Y-10487310D01*
X-10195028Y-10464656D01*
X-10228855Y-10441494D01*
X-10234399Y-10438497D01*
X-10234407Y-10438492D01*
X-10234415Y-10438489D01*
X-10406729Y-10346867D01*
X-10444631Y-10331245D01*
X-10482259Y-10315118D01*
X-10488278Y-10313255D01*
X-10488288Y-10313251D01*
X-10488298Y-10313249D01*
X-10675124Y-10256843D01*
X-10715307Y-10248886D01*
X-10755382Y-10240368D01*
X-10761659Y-10239708D01*
X-10955892Y-10220663D01*
X-11106022Y-10205942D01*
X-11207998Y-10175154D01*
X-11302060Y-10125140D01*
X-11384611Y-10057813D01*
X-11452514Y-9975733D01*
X-11503181Y-9882026D01*
X-11534683Y-9780261D01*
X-11547999Y-9653568D01*
X-11547999Y-7177793D01*
X-11548242Y-7175330D01*
X-11548513Y-7150493D01*
X-11550836Y-7129204D01*
X-11551004Y-7107791D01*
X-11551713Y-7101520D01*
X-11599259Y-6705739D01*
X-11608092Y-6665733D01*
X-11616364Y-6625611D01*
X-11618277Y-6619597D01*
X-11741792Y-6240591D01*
X-11758223Y-6203072D01*
X-11774134Y-6165314D01*
X-11777179Y-6159786D01*
X-11971957Y-5811987D01*
X-11995383Y-5778344D01*
X-12018306Y-5744424D01*
X-12022361Y-5739600D01*
X-12022366Y-5739593D01*
X-12022372Y-5739588D01*
X-12280991Y-5436251D01*
X-12310479Y-5407825D01*
X-12339579Y-5378978D01*
X-12344495Y-5375033D01*
X-12344501Y-5375027D01*
X-12344508Y-5375023D01*
X-12657119Y-5127696D01*
X-12691550Y-5105549D01*
X-12725716Y-5082893D01*
X-12731311Y-5079974D01*
X-13086015Y-4898074D01*
X-13124105Y-4883031D01*
X-13162008Y-4867448D01*
X-13168054Y-4865675D01*
X-13168064Y-4865671D01*
X-13168074Y-4865669D01*
X-13551344Y-4756132D01*
X-13591639Y-4748773D01*
X-13631838Y-4740850D01*
X-13638123Y-4740283D01*
X-14035380Y-4707275D01*
X-14076334Y-4707883D01*
X-14117310Y-4707919D01*
X-14123586Y-4708584D01*
X-14519689Y-4753366D01*
X-14559737Y-4761915D01*
X-14599933Y-4769911D01*
X-14605961Y-4771783D01*
X-14985821Y-4892649D01*
X-15023462Y-4908821D01*
X-15061323Y-4924465D01*
X-15066863Y-4927467D01*
X-15066872Y-4927471D01*
X-15066879Y-4927476D01*
X-15416022Y-5119818D01*
X-15449777Y-5142974D01*
X-15483907Y-5165693D01*
X-15488766Y-5169720D01*
X-15793906Y-5426220D01*
X-15822553Y-5455524D01*
X-15851586Y-5484406D01*
X-15855566Y-5489295D01*
X-15855572Y-5489301D01*
X-15855576Y-5489308D01*
X-16105079Y-5800184D01*
X-16127486Y-5834490D01*
X-16150360Y-5868467D01*
X-16153315Y-5874037D01*
X-16153318Y-5874041D01*
X-16153318Y-5874042D01*
X-16337690Y-6227468D01*
X-16353007Y-6265476D01*
X-16368845Y-6303245D01*
X-16370664Y-6309288D01*
X-16482877Y-6691794D01*
X-16490525Y-6732078D01*
X-16498720Y-6772180D01*
X-16499331Y-6778461D01*
X-16535111Y-7175478D01*
X-16534789Y-7216449D01*
X-16535039Y-7257409D01*
X-16534418Y-7263679D01*
X-16534418Y-7263691D01*
X-16534416Y-7263702D01*
X-16492402Y-7660095D01*
X-16484135Y-7700191D01*
X-16476418Y-7740454D01*
X-16474590Y-7746486D01*
X-16474589Y-7746493D01*
X-16474586Y-7746499D01*
X-16356377Y-8127189D01*
X-16340467Y-8164947D01*
X-16325089Y-8202911D01*
X-16322126Y-8208472D01*
X-16322122Y-8208481D01*
X-16322117Y-8208488D01*
X-16132217Y-8558965D01*
X-16109294Y-8592887D01*
X-16086818Y-8627167D01*
X-16082828Y-8632050D01*
X-16082824Y-8632056D01*
X-16082819Y-8632061D01*
X-15828462Y-8938979D01*
X-15732207Y-9055124D01*
X-15681456Y-9148791D01*
X-15649866Y-9250526D01*
X-15638638Y-9356457D01*
X-15648200Y-9462553D01*
X-15678188Y-9564778D01*
X-15727458Y-9659224D01*
X-15806795Y-9758077D01*
X-16091084Y-10042367D01*
X-16190571Y-10124087D01*
X-16284449Y-10174423D01*
X-16386324Y-10205570D01*
X-16513679Y-10218506D01*
X-19057890Y-10218506D01*
X-19186022Y-10205942D01*
X-19287998Y-10175154D01*
X-19382060Y-10125140D01*
X-19464611Y-10057813D01*
X-19532514Y-9975733D01*
X-19583181Y-9882026D01*
X-19614683Y-9780261D01*
X-19627999Y-9653568D01*
X-19627999Y-4541198D01*
X-19607070Y-4558374D01*
X-19402597Y-4667667D01*
X-19180732Y-4734969D01*
X-19007812Y-4752000D01*
X-18692188Y-4752000D01*
X-18519268Y-4734969D01*
X-18297403Y-4667667D01*
X-18092930Y-4558374D01*
X-17913709Y-4411291D01*
X-17766626Y-4232070D01*
X-17657333Y-4027597D01*
X-17590031Y-3805732D01*
X-17567306Y-3575000D01*
X-17590031Y-3344268D01*
X-17657333Y-3122403D01*
X-17766626Y-2917930D01*
X-17913709Y-2738709D01*
X-18092930Y-2591626D01*
X-18297403Y-2482333D01*
X-18519268Y-2415031D01*
X-18692188Y-2398000D01*
X-19007812Y-2398000D01*
X-19180732Y-2415031D01*
X-19402597Y-2482333D01*
X-19607070Y-2591626D01*
X-19627999Y-2608802D01*
X-19627999Y-1925934D01*
X-17477000Y-1925934D01*
X-17477000Y-2074066D01*
X-17448101Y-2219350D01*
X-17391414Y-2356206D01*
X-17309117Y-2479372D01*
X-17204372Y-2584117D01*
X-17081206Y-2666414D01*
X-16944350Y-2723101D01*
X-16799066Y-2752000D01*
X-16657199Y-2752000D01*
X-16793374Y-2917930D01*
X-16902667Y-3122403D01*
X-16969969Y-3344268D01*
X-16992694Y-3575000D01*
X-16969969Y-3805732D01*
X-16902667Y-4027597D01*
X-16793374Y-4232070D01*
X-16646291Y-4411291D01*
X-16467070Y-4558374D01*
X-16262597Y-4667667D01*
X-16040732Y-4734969D01*
X-15867812Y-4752000D01*
X-14952188Y-4752000D01*
X-14779268Y-4734969D01*
X-14557403Y-4667667D01*
X-14352930Y-4558374D01*
X-14173709Y-4411291D01*
X-14026626Y-4232070D01*
X-13917333Y-4027597D01*
X-13850031Y-3805732D01*
X-13827306Y-3575000D01*
X-13850031Y-3344268D01*
X-13917333Y-3122403D01*
X-14026626Y-2917930D01*
X-14173709Y-2738709D01*
X-14352930Y-2591626D01*
X-14557403Y-2482333D01*
X-14779268Y-2415031D01*
X-14952188Y-2398000D01*
X-15867812Y-2398000D01*
X-16040732Y-2415031D01*
X-16112423Y-2436778D01*
X-16058586Y-2356206D01*
X-16001899Y-2219350D01*
X-15973000Y-2074066D01*
X-15973000Y-1925934D01*
X-16001899Y-1780650D01*
X-16058586Y-1643794D01*
X-16140883Y-1520628D01*
X-16245628Y-1415883D01*
X-16368794Y-1333586D01*
X-16505650Y-1276899D01*
X-16650934Y-1248000D01*
X-16799066Y-1248000D01*
X-16944350Y-1276899D01*
X-17081206Y-1333586D01*
X-17204372Y-1415883D01*
X-17309117Y-1520628D01*
X-17391414Y-1643794D01*
X-17448101Y-1780650D01*
X-17477000Y-1925934D01*
X-19627999Y-1925934D01*
X-19627999Y2074066D01*
X-17477000Y2074066D01*
X-17477000Y1925934D01*
X-17448101Y1780650D01*
X-17391414Y1643794D01*
X-17309117Y1520628D01*
X-17204372Y1415883D01*
X-17081206Y1333586D01*
X-16944350Y1276899D01*
X-16799066Y1248000D01*
X-16650934Y1248000D01*
X-16505650Y1276899D01*
X-16368794Y1333586D01*
X-16245628Y1415883D01*
X-16140883Y1520628D01*
X-16100242Y1581452D01*
X-12027000Y1581452D01*
X-12027000Y1418548D01*
X-11995218Y1258773D01*
X-11932877Y1108269D01*
X-11842372Y972819D01*
X-11777000Y907447D01*
X-11776999Y-2407446D01*
X-11842372Y-2472819D01*
X-11932877Y-2608269D01*
X-11995218Y-2758773D01*
X-12027000Y-2918548D01*
X-12027000Y-3081452D01*
X-11995218Y-3241227D01*
X-11932877Y-3391731D01*
X-11842372Y-3527181D01*
X-11727181Y-3642372D01*
X-11591731Y-3732877D01*
X-11441227Y-3795218D01*
X-11281452Y-3827000D01*
X-11118548Y-3827000D01*
X-10958773Y-3795218D01*
X-10808269Y-3732877D01*
X-10672819Y-3642372D01*
X-10600000Y-3569553D01*
X-10527181Y-3642372D01*
X-10391731Y-3732877D01*
X-10241227Y-3795218D01*
X-10081452Y-3827000D01*
X-9918548Y-3827000D01*
X-9758773Y-3795218D01*
X-9608269Y-3732877D01*
X-9472819Y-3642372D01*
X-9357628Y-3527181D01*
X-9267123Y-3391731D01*
X-9204782Y-3241227D01*
X-9173000Y-3081452D01*
X-9173000Y-2918548D01*
X-9204782Y-2758773D01*
X-9267123Y-2608269D01*
X-9273000Y-2599473D01*
X-9273000Y1099473D01*
X-9267123Y1108269D01*
X-9204782Y1258773D01*
X-9173000Y1418548D01*
X-9173000Y1581452D01*
X-9204782Y1741227D01*
X-9267123Y1891731D01*
X-9357628Y2027181D01*
X-9472819Y2142372D01*
X-9608269Y2232877D01*
X-9758773Y2295218D01*
X-9918548Y2327000D01*
X-10081452Y2327000D01*
X-10241227Y2295218D01*
X-10391731Y2232877D01*
X-10527181Y2142372D01*
X-10600000Y2069553D01*
X-10672819Y2142372D01*
X-10808269Y2232877D01*
X-10958773Y2295218D01*
X-11118548Y2327000D01*
X-11281452Y2327000D01*
X-11441227Y2295218D01*
X-11591731Y2232877D01*
X-11727181Y2142372D01*
X-11842372Y2027181D01*
X-11932877Y1891731D01*
X-11995218Y1741227D01*
X-12027000Y1581452D01*
X-16100242Y1581452D01*
X-16058586Y1643794D01*
X-16001899Y1780650D01*
X-15973000Y1925934D01*
X-15973000Y2074066D01*
X-16001899Y2219350D01*
X-16058586Y2356206D01*
X-16112423Y2436778D01*
X-16040732Y2415031D01*
X-15867812Y2398000D01*
X-14952188Y2398000D01*
X-14779268Y2415031D01*
X-14557403Y2482333D01*
X-14352930Y2591626D01*
X-14173709Y2738709D01*
X-14026626Y2917930D01*
X-13917333Y3122403D01*
X-13850031Y3344268D01*
X-13827306Y3575000D01*
X-13850031Y3805732D01*
X-13917333Y4027597D01*
X-14026626Y4232070D01*
X-14173709Y4411291D01*
X-14352930Y4558374D01*
X-14557403Y4667667D01*
X-14779268Y4734969D01*
X-14952188Y4752000D01*
X-15867812Y4752000D01*
X-16040732Y4734969D01*
X-16262597Y4667667D01*
X-16467070Y4558374D01*
X-16646291Y4411291D01*
X-16793374Y4232070D01*
X-16902667Y4027597D01*
X-16969969Y3805732D01*
X-16992694Y3575000D01*
X-16969969Y3344268D01*
X-16902667Y3122403D01*
X-16793374Y2917930D01*
X-16657199Y2752000D01*
X-16799066Y2752000D01*
X-16944350Y2723101D01*
X-17081206Y2666414D01*
X-17204372Y2584117D01*
X-17309117Y2479372D01*
X-17391414Y2356206D01*
X-17448101Y2219350D01*
X-17477000Y2074066D01*
X-19627999Y2074066D01*
X-19627999Y2608802D01*
X-19607070Y2591626D01*
X-19402597Y2482333D01*
X-19180732Y2415031D01*
X-19007812Y2398000D01*
X-18692188Y2398000D01*
X-18519268Y2415031D01*
X-18297403Y2482333D01*
X-18092930Y2591626D01*
X-17913709Y2738709D01*
X-17766626Y2917930D01*
X-17657333Y3122403D01*
X-17590031Y3344268D01*
X-17567306Y3575000D01*
X-17590031Y3805732D01*
X-17657333Y4027597D01*
X-17766626Y4232070D01*
X-17913709Y4411291D01*
X-18092930Y4558374D01*
X-18297403Y4667667D01*
X-18519268Y4734969D01*
X-18692188Y4752000D01*
X-19007812Y4752000D01*
X-19180732Y4734969D01*
X-19402597Y4667667D01*
X-19607070Y4558374D01*
X-19627999Y4541198D01*
X-19627999Y9648399D01*
X-19615436Y9776530D01*
X-19584646Y9878507D01*
X-19534633Y9972569D01*
X-19467305Y10055121D01*
X-19385225Y10123023D01*
X-19291518Y10173690D01*
X-19189754Y10205192D01*
X-19063061Y10218508D01*
X-16516322Y10218508D01*
X-16388191Y10205945D01*
X-16286214Y10175155D01*
X-16192152Y10125142D01*
X-16092950Y10044235D01*
X-15812595Y9763879D01*
X-15730877Y9664394D01*
X-15680537Y9570510D01*
X-15649391Y9468635D01*
X-15638626Y9362655D01*
X-15648651Y9256598D01*
X-15679085Y9154510D01*
X-15728766Y9060281D01*
X-15809341Y8960779D01*
X-15833442Y8936362D01*
X-15846931Y8919720D01*
X-15862027Y8904518D01*
X-15865982Y8899599D01*
X-16113587Y8587198D01*
X-16135765Y8552785D01*
X-16158450Y8518641D01*
X-16161374Y8513048D01*
X-16343584Y8158503D01*
X-16358671Y8120400D01*
X-16374276Y8082538D01*
X-16376056Y8076490D01*
X-16376059Y8076483D01*
X-16376060Y8076476D01*
X-16485935Y7693300D01*
X-16493328Y7653020D01*
X-16501288Y7612818D01*
X-16501860Y7606533D01*
X-16535216Y7209305D01*
X-16534644Y7168352D01*
X-16534644Y7127375D01*
X-16533984Y7121098D01*
X-16489549Y6724957D01*
X-16481037Y6684912D01*
X-16473075Y6644699D01*
X-16471208Y6638670D01*
X-16350676Y6258704D01*
X-16334545Y6221067D01*
X-16318926Y6183174D01*
X-16315924Y6177622D01*
X-16123884Y5828303D01*
X-16100740Y5794501D01*
X-16078069Y5760379D01*
X-16074050Y5755521D01*
X-16074046Y5755515D01*
X-16074041Y5755510D01*
X-15817814Y5450151D01*
X-15788545Y5421489D01*
X-15759678Y5392419D01*
X-15754793Y5388436D01*
X-15754787Y5388430D01*
X-15754780Y5388426D01*
X-15444123Y5138650D01*
X-15409859Y5116228D01*
X-15375880Y5093309D01*
X-15370308Y5090346D01*
X-15017044Y4905664D01*
X-14979047Y4890312D01*
X-14941294Y4874442D01*
X-14935253Y4872618D01*
X-14552844Y4760069D01*
X-14512590Y4752390D01*
X-14472472Y4744155D01*
X-14466193Y4743539D01*
X-14466191Y4743539D01*
X-14069206Y4707411D01*
X-14028240Y4707697D01*
X-13987275Y4707411D01*
X-13980994Y4708027D01*
X-13980992Y4708027D01*
X-13584551Y4749695D01*
X-13544413Y4757934D01*
X-13504180Y4765609D01*
X-13498140Y4767432D01*
X-13498134Y4767434D01*
X-13117339Y4885310D01*
X-13079561Y4901191D01*
X-13041590Y4916532D01*
X-13036017Y4919495D01*
X-12685366Y5109091D01*
X-12651402Y5132000D01*
X-12617123Y5154432D01*
X-12612232Y5158420D01*
X-12305086Y5412515D01*
X-12276240Y5441562D01*
X-12246950Y5470245D01*
X-12242927Y5475108D01*
X-11990984Y5784021D01*
X-11968328Y5818120D01*
X-11945167Y5851947D01*
X-11942165Y5857498D01*
X-11755022Y6209465D01*
X-11739411Y6247339D01*
X-11723273Y6284993D01*
X-11721409Y6291016D01*
X-11721406Y6291023D01*
X-11721405Y6291030D01*
X-11606191Y6672634D01*
X-11598238Y6712799D01*
X-11589716Y6752893D01*
X-11589056Y6759170D01*
X-11550324Y7154186D01*
X-11547999Y7177796D01*
X-11547999Y7778446D01*
X-11527181Y7757628D01*
X-11391731Y7667123D01*
X-11241227Y7604782D01*
X-11081452Y7573000D01*
X-10918548Y7573000D01*
X-10758773Y7604782D01*
X-10608269Y7667123D01*
X-10472819Y7757628D01*
X-10357628Y7872819D01*
X-10267123Y8008269D01*
X-10204782Y8158773D01*
X-10173000Y8318548D01*
X-10173000Y8410999D01*
X-8412037Y10171962D01*
X-8390026Y10190026D01*
X-8317921Y10277885D01*
X-8264343Y10378124D01*
X-8246756Y10436101D01*
X-8231349Y10486888D01*
X-8225017Y10551184D01*
X-8223000Y10571664D01*
X-8223000Y10571669D01*
X-8220210Y10600000D01*
X-8223000Y10628331D01*
X-8223000Y12260999D01*
X-7910998Y12573000D01*
X-7818548Y12573000D01*
X-7658773Y12604782D01*
X-7508269Y12667123D01*
X-7372819Y12757628D01*
X-7257628Y12872819D01*
X-7167123Y13008269D01*
X-7104782Y13158773D01*
X-7073000Y13318548D01*
X-7073000Y13481452D01*
X-7104782Y13641227D01*
X-7167123Y13791731D01*
X-7257628Y13927181D01*
X-7372819Y14042372D01*
X-7508269Y14132877D01*
X-7658773Y14195218D01*
X-7818548Y14227000D01*
X-7981452Y14227000D01*
X-8141227Y14195218D01*
X-8291731Y14132877D01*
X-8427181Y14042372D01*
X-8542372Y13927181D01*
X-8632877Y13791731D01*
X-8695218Y13641227D01*
X-8727000Y13481452D01*
X-8727000Y13389002D01*
X-9187967Y12928034D01*
X-9209973Y12909974D01*
X-9228034Y12887967D01*
X-9228037Y12887964D01*
X-9243887Y12868650D01*
X-9282078Y12822115D01*
X-9309044Y12771664D01*
X-9335656Y12721876D01*
X-9368651Y12613111D01*
X-9379790Y12500000D01*
X-9376999Y12471659D01*
X-9377000Y10839001D01*
X-10989001Y9227000D01*
X-11081452Y9227000D01*
X-11241227Y9195218D01*
X-11391731Y9132877D01*
X-11527181Y9042372D01*
X-11547999Y9021554D01*
X-11547999Y9648399D01*
X-11535436Y9776530D01*
X-11504646Y9878507D01*
X-11454633Y9972569D01*
X-11387305Y10055121D01*
X-11305225Y10123023D01*
X-11211518Y10173690D01*
X-11109754Y10205192D01*
X-10964321Y10220478D01*
X-10952051Y10220392D01*
X-10945770Y10221008D01*
X-10751673Y10241409D01*
X-10711529Y10249649D01*
X-10671303Y10257323D01*
X-10665263Y10259146D01*
X-10665257Y10259148D01*
X-10478823Y10316859D01*
X-10441017Y10332751D01*
X-10403074Y10348081D01*
X-10397506Y10351041D01*
X-10397501Y10351043D01*
X-10397497Y10351046D01*
X-10225825Y10443868D01*
X-10191861Y10466776D01*
X-10157580Y10489210D01*
X-10152699Y10493191D01*
X-10152691Y10493197D01*
X-10152684Y10493204D01*
X-10002312Y10617602D01*
X-9973445Y10646672D01*
X-9944176Y10675334D01*
X-9940153Y10680197D01*
X-9816803Y10831439D01*
X-9794137Y10865554D01*
X-9770987Y10899364D01*
X-9767985Y10904915D01*
X-9676360Y11077238D01*
X-9660739Y11115138D01*
X-9644611Y11152767D01*
X-9642748Y11158786D01*
X-9642744Y11158796D01*
X-9642742Y11158806D01*
X-9586335Y11345632D01*
X-9578373Y11385845D01*
X-9569861Y11425890D01*
X-9569201Y11432166D01*
X-9550156Y11626400D01*
X-9550156Y11626413D01*
X-9548000Y11648303D01*
X-9548000Y29479865D01*
X-9474353Y30305065D01*
X-9261075Y31084678D01*
X-8913111Y31814201D01*
X-8441452Y32470584D01*
X-7861017Y33033065D01*
X-7190149Y33483868D01*
X-6450051Y33808749D01*
X-5660645Y33998269D01*
X-4983428Y34048000D01*
X4979876Y34048000D01*
X5805064Y33974354D01*
X5805064Y33974354D01*
G37*
X5805064Y33974354D02*
X6584678Y33761076D01*
X7314201Y33413112D01*
X7970584Y32941453D01*
X8533065Y32361018D01*
X8983868Y31690150D01*
X9308749Y30950051D01*
X9498269Y30160645D01*
X9548001Y29483414D01*
X9548000Y18321553D01*
X9527181Y18342372D01*
X9391731Y18432877D01*
X9241227Y18495218D01*
X9081452Y18527000D01*
X8918548Y18527000D01*
X8758773Y18495218D01*
X8608269Y18432877D01*
X8599473Y18427000D01*
X7600527Y18427000D01*
X7591731Y18432877D01*
X7585552Y18435437D01*
X7595218Y18458773D01*
X7627000Y18618548D01*
X7627000Y18781452D01*
X7595218Y18941227D01*
X7532877Y19091731D01*
X7442372Y19227181D01*
X7327181Y19342372D01*
X7191731Y19432877D01*
X7041227Y19495218D01*
X6881452Y19527000D01*
X6718548Y19527000D01*
X6558773Y19495218D01*
X6408269Y19432877D01*
X6272819Y19342372D01*
X6157628Y19227181D01*
X6067123Y19091731D01*
X6004782Y18941227D01*
X5973000Y18781452D01*
X5973000Y18689001D01*
X5912034Y18628035D01*
X5890027Y18609974D01*
X5871966Y18587967D01*
X5871963Y18587964D01*
X5863888Y18578124D01*
X5817922Y18522115D01*
X5775377Y18442517D01*
X5764344Y18421876D01*
X5731349Y18313111D01*
X5720210Y18200000D01*
X5723001Y18171659D01*
X5723000Y17028332D01*
X5720210Y17000000D01*
X5723000Y16971669D01*
X5723000Y16971665D01*
X5723504Y16966553D01*
X5731349Y16886889D01*
X5746846Y16835804D01*
X5764343Y16778125D01*
X5817921Y16677886D01*
X5890026Y16590026D01*
X5912038Y16571961D01*
X6423001Y16060998D01*
X6423000Y13392553D01*
X6357628Y13327181D01*
X6267123Y13191731D01*
X6204782Y13041227D01*
X6173000Y12881452D01*
X6173000Y12718548D01*
X6204782Y12558773D01*
X6267123Y12408269D01*
X6357628Y12272819D01*
X6472819Y12157628D01*
X6608269Y12067123D01*
X6758773Y12004782D01*
X6918548Y11973000D01*
X7081452Y11973000D01*
X7241227Y12004782D01*
X7391731Y12067123D01*
X7527181Y12157628D01*
X7642372Y12272819D01*
X7732877Y12408269D01*
X7795218Y12558773D01*
X7827000Y12718548D01*
X7827000Y12881452D01*
X7795218Y13041227D01*
X7732877Y13191731D01*
X7642372Y13327181D01*
X7577000Y13392553D01*
X7577000Y16271672D01*
X7579790Y16300001D01*
X7577000Y16328330D01*
X7577000Y16328336D01*
X7568650Y16413112D01*
X7535657Y16521876D01*
X7482079Y16622115D01*
X7409974Y16709974D01*
X7387962Y16728039D01*
X7243001Y16873000D01*
X7281452Y16873000D01*
X7441227Y16904782D01*
X7591731Y16967123D01*
X7600527Y16973000D01*
X8599473Y16973000D01*
X8608269Y16967123D01*
X8758773Y16904782D01*
X8918548Y16873000D01*
X9081452Y16873000D01*
X9241227Y16904782D01*
X9391731Y16967123D01*
X9527181Y17057628D01*
X9548000Y17078447D01*
X9548000Y11648304D01*
X9549927Y11628737D01*
X9549884Y11622560D01*
X9550500Y11616279D01*
X9570901Y11422182D01*
X9579141Y11382038D01*
X9586815Y11341812D01*
X9588639Y11335770D01*
X9609300Y11269026D01*
X9558045Y11274074D01*
X9528336Y11277000D01*
X9528331Y11277000D01*
X9500000Y11279790D01*
X9471669Y11277000D01*
X5539001Y11277000D01*
X4138963Y12677038D01*
X4132877Y12691731D01*
X4042372Y12827181D01*
X3927181Y12942372D01*
X3791731Y13032877D01*
X3641227Y13095218D01*
X3481452Y13127000D01*
X3318548Y13127000D01*
X3158773Y13095218D01*
X3008269Y13032877D01*
X2872819Y12942372D01*
X2757628Y12827181D01*
X2667123Y12691731D01*
X2604782Y12541227D01*
X2573000Y12381452D01*
X2573000Y12218548D01*
X2604782Y12058773D01*
X2667123Y11908269D01*
X2735854Y11805407D01*
X2657628Y11727181D01*
X2567123Y11591731D01*
X2504782Y11441227D01*
X2473000Y11281452D01*
X2473000Y11118548D01*
X2504782Y10958773D01*
X2567123Y10808269D01*
X2657628Y10672819D01*
X2772819Y10557628D01*
X2908269Y10467123D01*
X3058773Y10404782D01*
X3218548Y10373000D01*
X3310999Y10373000D01*
X3356999Y10327000D01*
X3218548Y10327000D01*
X3058773Y10295218D01*
X2908269Y10232877D01*
X2772819Y10142372D01*
X2657628Y10027181D01*
X2567123Y9891731D01*
X2504782Y9741227D01*
X2473000Y9581452D01*
X2473000Y9418548D01*
X2504782Y9258773D01*
X2567123Y9108269D01*
X2657628Y8972819D01*
X2772819Y8857628D01*
X2908269Y8767123D01*
X3058773Y8704782D01*
X3218548Y8673000D01*
X3381452Y8673000D01*
X3541227Y8704782D01*
X3691731Y8767123D01*
X3766750Y8817249D01*
X4223001Y8360997D01*
X4223000Y7128331D01*
X4220210Y7100000D01*
X4231349Y6986889D01*
X4245589Y6939949D01*
X4264343Y6878125D01*
X4317921Y6777886D01*
X4390026Y6690026D01*
X4412038Y6671961D01*
X4823001Y6260997D01*
X4823000Y5239001D01*
X4012034Y4428035D01*
X3990027Y4409974D01*
X3971966Y4387967D01*
X3971963Y4387964D01*
X3952579Y4364344D01*
X3917922Y4322115D01*
X3864343Y4221876D01*
X3849517Y4173000D01*
X3837098Y4132062D01*
X3838072Y4200000D01*
X3825812Y4324482D01*
X3789502Y4444180D01*
X3730537Y4554494D01*
X3651185Y4651185D01*
X3554494Y4730537D01*
X3444180Y4789502D01*
X3324482Y4825812D01*
X3200000Y4838072D01*
X2735750Y4835000D01*
X2577000Y4676250D01*
X2577000Y3827000D01*
X2597000Y3827000D01*
X2597000Y3573000D01*
X2577000Y3573000D01*
X2577000Y3553000D01*
X2323000Y3553000D01*
X2323000Y3573000D01*
X1223750Y3573000D01*
X1065000Y3414250D01*
X1061928Y3200000D01*
X1070869Y3109213D01*
X981452Y3127000D01*
X818548Y3127000D01*
X658773Y3095218D01*
X508269Y3032877D01*
X372819Y2942372D01*
X257628Y2827181D01*
X190013Y2725988D01*
X-323000Y3239001D01*
X-323000Y4200000D01*
X1061928Y4200000D01*
X1065000Y3985750D01*
X1223750Y3827000D01*
X2323000Y3827000D01*
X2323000Y4676250D01*
X2164250Y4835000D01*
X1700000Y4838072D01*
X1575518Y4825812D01*
X1455820Y4789502D01*
X1345506Y4730537D01*
X1248815Y4651185D01*
X1169463Y4554494D01*
X1110498Y4444180D01*
X1074188Y4324482D01*
X1061928Y4200000D01*
X-323000Y4200000D01*
X-323000Y6307447D01*
X-294593Y6335854D01*
X-191731Y6267123D01*
X-41227Y6204782D01*
X118548Y6173000D01*
X281452Y6173000D01*
X441227Y6204782D01*
X591731Y6267123D01*
X727181Y6357628D01*
X842372Y6472819D01*
X932877Y6608269D01*
X995218Y6758773D01*
X1027000Y6918548D01*
X1027000Y7081452D01*
X995218Y7241227D01*
X932877Y7391731D01*
X842372Y7527181D01*
X777000Y7592553D01*
X777000Y8206999D01*
X1344317Y7639682D01*
X1343245Y7638376D01*
X1303595Y7564196D01*
X1279178Y7483707D01*
X1270934Y7400000D01*
X1270934Y6400000D01*
X1279178Y6316293D01*
X1303595Y6235804D01*
X1343245Y6161624D01*
X1396605Y6096605D01*
X1461624Y6043245D01*
X1535804Y6003595D01*
X1616293Y5979178D01*
X1700000Y5970934D01*
X3200000Y5970934D01*
X3283707Y5979178D01*
X3364196Y6003595D01*
X3438376Y6043245D01*
X3503395Y6096605D01*
X3556755Y6161624D01*
X3596405Y6235804D01*
X3620822Y6316293D01*
X3629066Y6400000D01*
X3629066Y7400000D01*
X3620822Y7483707D01*
X3596405Y7564196D01*
X3556755Y7638376D01*
X3503395Y7703395D01*
X3438376Y7756755D01*
X3364196Y7796405D01*
X3283707Y7820822D01*
X3200000Y7829066D01*
X2786936Y7829066D01*
X1477000Y9139001D01*
X1477000Y12071669D01*
X1479790Y12100000D01*
X1468651Y12213112D01*
X1442293Y12300000D01*
X1435657Y12321876D01*
X1382079Y12422115D01*
X1309974Y12509974D01*
X1287963Y12528038D01*
X16001Y13800000D01*
X1061928Y13800000D01*
X1074188Y13675518D01*
X1110498Y13555820D01*
X1169463Y13445506D01*
X1248815Y13348815D01*
X1345506Y13269463D01*
X1455820Y13210498D01*
X1575518Y13174188D01*
X1700000Y13161928D01*
X2164250Y13165000D01*
X2323000Y13323750D01*
X2323000Y14173000D01*
X2577000Y14173000D01*
X2577000Y13323750D01*
X2735750Y13165000D01*
X3200000Y13161928D01*
X3324482Y13174188D01*
X3444180Y13210498D01*
X3554494Y13269463D01*
X3651185Y13348815D01*
X3730537Y13445506D01*
X3789502Y13555820D01*
X3825812Y13675518D01*
X3838072Y13800000D01*
X3835000Y14014250D01*
X3676250Y14173000D01*
X2577000Y14173000D01*
X2323000Y14173000D01*
X1223750Y14173000D01*
X1065000Y14014250D01*
X1061928Y13800000D01*
X16001Y13800000D01*
X-871961Y14687962D01*
X-890026Y14709974D01*
X-977885Y14782079D01*
X-1078124Y14835657D01*
X-1142230Y14855103D01*
X-1186889Y14868651D01*
X-1241955Y14874074D01*
X-1271664Y14877000D01*
X-1271669Y14877000D01*
X-1278585Y14877681D01*
X-1279178Y14883707D01*
X-1303595Y14964196D01*
X-1343245Y15038376D01*
X-1396605Y15103395D01*
X-1442741Y15141258D01*
X-912037Y15671962D01*
X-890026Y15690026D01*
X-817921Y15777885D01*
X-764343Y15878124D01*
X-731350Y15986888D01*
X-723000Y16071664D01*
X-723000Y16071670D01*
X-720210Y16099999D01*
X-723000Y16128328D01*
X-723000Y16701156D01*
X-581452Y16673000D01*
X-418548Y16673000D01*
X-258773Y16704782D01*
X-108269Y16767123D01*
X27181Y16857628D01*
X73001Y16903448D01*
X73000Y15675351D01*
X17127Y15591731D01*
X-45214Y15441227D01*
X-76996Y15281452D01*
X-76996Y15118548D01*
X-45214Y14958773D01*
X17127Y14808269D01*
X107632Y14672819D01*
X222823Y14557628D01*
X358273Y14467123D01*
X508777Y14404782D01*
X668552Y14373000D01*
X831456Y14373000D01*
X991231Y14404782D01*
X1141735Y14467123D01*
X1166847Y14483903D01*
X1223750Y14427000D01*
X2323000Y14427000D01*
X2323000Y15276250D01*
X2577000Y15276250D01*
X2577000Y14427000D01*
X3676250Y14427000D01*
X3835000Y14585750D01*
X3838072Y14800000D01*
X3825812Y14924482D01*
X3789502Y15044180D01*
X3730537Y15154494D01*
X3651185Y15251185D01*
X3554494Y15330537D01*
X3444180Y15389502D01*
X3324482Y15425812D01*
X3200000Y15438072D01*
X2735750Y15435000D01*
X2577000Y15276250D01*
X2323000Y15276250D01*
X2164250Y15435000D01*
X1700000Y15438072D01*
X1575518Y15425812D01*
X1549838Y15418022D01*
X1545222Y15441227D01*
X1527000Y15485219D01*
X1527000Y16608301D01*
X1535804Y16603595D01*
X1616293Y16579178D01*
X1700000Y16570934D01*
X3200000Y16570934D01*
X3283707Y16579178D01*
X3364196Y16603595D01*
X3438376Y16643245D01*
X3503395Y16696605D01*
X3556755Y16761624D01*
X3596405Y16835804D01*
X3620822Y16916293D01*
X3629066Y17000000D01*
X3629066Y18000000D01*
X3620822Y18083707D01*
X3596405Y18164196D01*
X3556755Y18238376D01*
X3503395Y18303395D01*
X3438376Y18356755D01*
X3364196Y18396405D01*
X3283707Y18420822D01*
X3200000Y18429066D01*
X3027000Y18429066D01*
X3027000Y21221661D01*
X3029791Y21250000D01*
X3018651Y21363112D01*
X2985657Y21471877D01*
X2971816Y21497772D01*
X2932079Y21572115D01*
X2859974Y21659974D01*
X2837963Y21678038D01*
X116001Y24400000D01*
X1061928Y24400000D01*
X1074188Y24275518D01*
X1110498Y24155820D01*
X1169463Y24045506D01*
X1248815Y23948815D01*
X1345506Y23869463D01*
X1455820Y23810498D01*
X1575518Y23774188D01*
X1700000Y23761928D01*
X2164250Y23765000D01*
X2323000Y23923750D01*
X2323000Y24773000D01*
X2577000Y24773000D01*
X2577000Y23923750D01*
X2735750Y23765000D01*
X3200000Y23761928D01*
X3324482Y23774188D01*
X3444180Y23810498D01*
X3554494Y23869463D01*
X3651185Y23948815D01*
X3730537Y24045506D01*
X3789502Y24155820D01*
X3825812Y24275518D01*
X3838072Y24400000D01*
X3835000Y24614250D01*
X3676250Y24773000D01*
X2577000Y24773000D01*
X2323000Y24773000D01*
X1223750Y24773000D01*
X1065000Y24614250D01*
X1061928Y24400000D01*
X116001Y24400000D01*
X-771961Y25287962D01*
X-790026Y25309974D01*
X-877885Y25382079D01*
X-911413Y25400000D01*
X1061928Y25400000D01*
X1065000Y25185750D01*
X1223750Y25027000D01*
X2323000Y25027000D01*
X2323000Y25876250D01*
X2577000Y25876250D01*
X2577000Y25027000D01*
X3676250Y25027000D01*
X3835000Y25185750D01*
X3838072Y25400000D01*
X3825812Y25524482D01*
X3789502Y25644180D01*
X3730537Y25754494D01*
X3651185Y25851185D01*
X3554494Y25930537D01*
X3444180Y25989502D01*
X3324482Y26025812D01*
X3200000Y26038072D01*
X2735750Y26035000D01*
X2577000Y25876250D01*
X2323000Y25876250D01*
X2164250Y26035000D01*
X1700000Y26038072D01*
X1575518Y26025812D01*
X1455820Y25989502D01*
X1345506Y25930537D01*
X1248815Y25851185D01*
X1169463Y25754494D01*
X1110498Y25644180D01*
X1074188Y25524482D01*
X1061928Y25400000D01*
X-911413Y25400000D01*
X-978124Y25435657D01*
X-1042230Y25455103D01*
X-1086889Y25468651D01*
X-1141955Y25474074D01*
X-1171664Y25477000D01*
X-1171669Y25477000D01*
X-1200000Y25479790D01*
X-1228331Y25477000D01*
X-1278517Y25477000D01*
X-1279178Y25483707D01*
X-1303595Y25564196D01*
X-1343245Y25638376D01*
X-1396605Y25703395D01*
X-1461624Y25756755D01*
X-1535804Y25796405D01*
X-1616293Y25820822D01*
X-1700000Y25829066D01*
X-3200000Y25829066D01*
X-3283707Y25820822D01*
X-3364196Y25796405D01*
X-3438376Y25756755D01*
X-3503395Y25703395D01*
X-3556755Y25638376D01*
X-3596405Y25564196D01*
X-3620822Y25483707D01*
X-3629066Y25400000D01*
X-3629066Y24400000D01*
X-3620822Y24316293D01*
X-3596405Y24235804D01*
X-3556755Y24161624D01*
X-3503395Y24096605D01*
X-3438376Y24043245D01*
X-3364196Y24003595D01*
X-3283707Y23979178D01*
X-3279663Y23978780D01*
X-3295218Y23941227D01*
X-3327000Y23781452D01*
X-3327000Y23618548D01*
X-3295218Y23458773D01*
X-3232877Y23308269D01*
X-3142372Y23172819D01*
X-3027181Y23057628D01*
X-2891731Y22967123D01*
X-2741227Y22904782D01*
X-2581452Y22873000D01*
X-2418548Y22873000D01*
X-2258773Y22904782D01*
X-2108269Y22967123D01*
X-1972819Y23057628D01*
X-1857628Y23172819D01*
X-1824098Y23223000D01*
X-1539001Y23223000D01*
X-376999Y22060998D01*
X-377000Y19911983D01*
X-408269Y19932877D01*
X-558773Y19995218D01*
X-718548Y20027000D01*
X-881452Y20027000D01*
X-1041227Y19995218D01*
X-1191731Y19932877D01*
X-1327181Y19842372D01*
X-1442372Y19727181D01*
X-1532877Y19591731D01*
X-1595218Y19441227D01*
X-1627000Y19281452D01*
X-1627000Y19189001D01*
X-1687966Y19128035D01*
X-1709973Y19109974D01*
X-1723000Y19094101D01*
X-1723000Y19614292D01*
X-1719483Y19650000D01*
X-1733520Y19792518D01*
X-1775090Y19929557D01*
X-1827175Y20027000D01*
X-1842597Y20055853D01*
X-1933447Y20166554D01*
X-1961184Y20189317D01*
X-4273000Y22501132D01*
X-4273000Y26498868D01*
X-3487943Y27283924D01*
X-3438376Y27243245D01*
X-3364196Y27203595D01*
X-3283707Y27179178D01*
X-3200000Y27170934D01*
X-1700000Y27170934D01*
X-1616293Y27179178D01*
X-1535804Y27203595D01*
X-1461624Y27243245D01*
X-1396605Y27296605D01*
X-1343245Y27361624D01*
X-1303595Y27435804D01*
X-1279178Y27516293D01*
X-1270934Y27600000D01*
X-1270934Y28600000D01*
X1270934Y28600000D01*
X1270934Y27600000D01*
X1279178Y27516293D01*
X1303595Y27435804D01*
X1343245Y27361624D01*
X1396605Y27296605D01*
X1461624Y27243245D01*
X1535804Y27203595D01*
X1616293Y27179178D01*
X1700000Y27170934D01*
X3200000Y27170934D01*
X3283707Y27179178D01*
X3364196Y27203595D01*
X3438376Y27243245D01*
X3503395Y27296605D01*
X3556755Y27361624D01*
X3596405Y27435804D01*
X3620822Y27516293D01*
X3621483Y27523000D01*
X3871669Y27523000D01*
X3900000Y27520210D01*
X3928331Y27523000D01*
X3928336Y27523000D01*
X3958045Y27525926D01*
X4013111Y27531349D01*
X4057770Y27544897D01*
X4121876Y27564343D01*
X4222115Y27617921D01*
X4309974Y27690026D01*
X4328039Y27712038D01*
X4389001Y27773000D01*
X4481452Y27773000D01*
X4641227Y27804782D01*
X4791731Y27867123D01*
X4927181Y27957628D01*
X5042372Y28072819D01*
X5132877Y28208269D01*
X5195218Y28358773D01*
X5227000Y28518548D01*
X5227000Y28681452D01*
X5195218Y28841227D01*
X5132877Y28991731D01*
X5042372Y29127181D01*
X4927181Y29242372D01*
X4791731Y29332877D01*
X4641227Y29395218D01*
X4481452Y29427000D01*
X4318548Y29427000D01*
X4158773Y29395218D01*
X4008269Y29332877D01*
X3872819Y29242372D01*
X3757628Y29127181D01*
X3667123Y28991731D01*
X3604782Y28841227D01*
X3591343Y28773666D01*
X3556755Y28838376D01*
X3503395Y28903395D01*
X3438376Y28956755D01*
X3364196Y28996405D01*
X3283707Y29020822D01*
X3200000Y29029066D01*
X1700000Y29029066D01*
X1616293Y29020822D01*
X1535804Y28996405D01*
X1461624Y28956755D01*
X1396605Y28903395D01*
X1343245Y28838376D01*
X1303595Y28764196D01*
X1279178Y28683707D01*
X1270934Y28600000D01*
X-1270934Y28600000D01*
X-1279178Y28683707D01*
X-1303595Y28764196D01*
X-1343245Y28838376D01*
X-1396605Y28903395D01*
X-1461624Y28956755D01*
X-1535804Y28996405D01*
X-1616293Y29020822D01*
X-1700000Y29029066D01*
X-3200000Y29029066D01*
X-3283707Y29020822D01*
X-3364196Y28996405D01*
X-3438376Y28956755D01*
X-3503395Y28903395D01*
X-3556755Y28838376D01*
X-3562836Y28827000D01*
X-3664292Y28827000D01*
X-3700000Y28830517D01*
X-3842518Y28816480D01*
X-3979557Y28774910D01*
X-4105853Y28707403D01*
X-4216554Y28616554D01*
X-4239317Y28588817D01*
X-5488811Y27339321D01*
X-5516554Y27316553D01*
X-5607403Y27205852D01*
X-5626067Y27170934D01*
X-5674910Y27079556D01*
X-5716480Y26942517D01*
X-5730517Y26800000D01*
X-5727000Y26764292D01*
X-5726999Y22235718D01*
X-5730517Y22200000D01*
X-5716480Y22057483D01*
X-5674910Y21920444D01*
X-5626454Y21829791D01*
X-5607402Y21794147D01*
X-5516553Y21683446D01*
X-5488811Y21660679D01*
X-3177000Y19348867D01*
X-3176999Y18429066D01*
X-3200000Y18429066D01*
X-3283707Y18420822D01*
X-3364196Y18396405D01*
X-3438376Y18356755D01*
X-3503395Y18303395D01*
X-3556755Y18238376D01*
X-3596405Y18164196D01*
X-3620822Y18083707D01*
X-3625140Y18039865D01*
X-3758773Y18095218D01*
X-3892251Y18121769D01*
X-3873000Y18218548D01*
X-3873000Y18381452D01*
X-3904782Y18541227D01*
X-3967123Y18691731D01*
X-4057628Y18827181D01*
X-4172819Y18942372D01*
X-4308269Y19032877D01*
X-4458773Y19095218D01*
X-4618548Y19127000D01*
X-4781452Y19127000D01*
X-4941227Y19095218D01*
X-5091731Y19032877D01*
X-5227181Y18942372D01*
X-5292553Y18877000D01*
X-6307447Y18877000D01*
X-6372819Y18942372D01*
X-6508269Y19032877D01*
X-6658773Y19095218D01*
X-6818548Y19127000D01*
X-6981452Y19127000D01*
X-7141227Y19095218D01*
X-7291731Y19032877D01*
X-7427181Y18942372D01*
X-7542372Y18827181D01*
X-7632877Y18691731D01*
X-7695218Y18541227D01*
X-7727000Y18381452D01*
X-7727000Y18218548D01*
X-7695218Y18058773D01*
X-7632877Y17908269D01*
X-7542372Y17772819D01*
X-7427181Y17657628D01*
X-7291731Y17567123D01*
X-7141227Y17504782D01*
X-6981452Y17473000D01*
X-6818548Y17473000D01*
X-6658773Y17504782D01*
X-6508269Y17567123D01*
X-6372819Y17657628D01*
X-6307447Y17723000D01*
X-5292553Y17723000D01*
X-5227181Y17657628D01*
X-5091731Y17567123D01*
X-4941227Y17504782D01*
X-4807749Y17478231D01*
X-4827000Y17381452D01*
X-4827000Y17218548D01*
X-4795218Y17058773D01*
X-4732877Y16908269D01*
X-4642372Y16772819D01*
X-4527181Y16657628D01*
X-4391731Y16567123D01*
X-4299297Y16528836D01*
X-4788811Y16039321D01*
X-4816554Y16016553D01*
X-4907403Y15905852D01*
X-4958651Y15809974D01*
X-4974910Y15779556D01*
X-5016480Y15642517D01*
X-5030517Y15500000D01*
X-5027000Y15464292D01*
X-5026999Y12235718D01*
X-5030517Y12200000D01*
X-5016480Y12057483D01*
X-4974910Y11920444D01*
X-4946409Y11867123D01*
X-4907402Y11794147D01*
X-4816553Y11683446D01*
X-4788811Y11660679D01*
X-3177000Y10048867D01*
X-3176999Y7829066D01*
X-3200000Y7829066D01*
X-3283707Y7820822D01*
X-3364196Y7796405D01*
X-3438376Y7756755D01*
X-3503395Y7703395D01*
X-3556755Y7638376D01*
X-3596405Y7564196D01*
X-3620822Y7483707D01*
X-3629066Y7400000D01*
X-3629066Y6400000D01*
X-3620822Y6316293D01*
X-3596405Y6235804D01*
X-3556755Y6161624D01*
X-3503395Y6096605D01*
X-3438376Y6043245D01*
X-3364196Y6003595D01*
X-3283707Y5979178D01*
X-3252071Y5976062D01*
X-4188811Y5039321D01*
X-4200636Y5029617D01*
X-4173000Y5168548D01*
X-4173000Y5331452D01*
X-4204782Y5491227D01*
X-4267123Y5641731D01*
X-4353180Y5770524D01*
X-4222819Y5857628D01*
X-4107628Y5972819D01*
X-4017123Y6108269D01*
X-3954782Y6258773D01*
X-3923000Y6418548D01*
X-3923000Y6581452D01*
X-3954782Y6741227D01*
X-4017123Y6891731D01*
X-4107628Y7027181D01*
X-4222819Y7142372D01*
X-4358269Y7232877D01*
X-4508773Y7295218D01*
X-4668548Y7327000D01*
X-4831452Y7327000D01*
X-4991227Y7295218D01*
X-5141731Y7232877D01*
X-5277181Y7142372D01*
X-5292553Y7127000D01*
X-6164292Y7127000D01*
X-6200000Y7130517D01*
X-6342518Y7116480D01*
X-6453646Y7082770D01*
X-6479557Y7074910D01*
X-6605853Y7007403D01*
X-6716554Y6916554D01*
X-6739317Y6888817D01*
X-7123000Y6505132D01*
X-7123000Y7760999D01*
X-5410998Y9473000D01*
X-5318548Y9473000D01*
X-5158773Y9504782D01*
X-5008269Y9567123D01*
X-4872819Y9657628D01*
X-4757628Y9772819D01*
X-4667123Y9908269D01*
X-4604782Y10058773D01*
X-4573000Y10218548D01*
X-4573000Y10381452D01*
X-4604782Y10541227D01*
X-4667123Y10691731D01*
X-4757628Y10827181D01*
X-4872819Y10942372D01*
X-5008269Y11032877D01*
X-5158773Y11095218D01*
X-5318548Y11127000D01*
X-5481452Y11127000D01*
X-5641227Y11095218D01*
X-5791731Y11032877D01*
X-5927181Y10942372D01*
X-6042372Y10827181D01*
X-6050000Y10815765D01*
X-6057628Y10827181D01*
X-6172819Y10942372D01*
X-6308269Y11032877D01*
X-6458773Y11095218D01*
X-6618548Y11127000D01*
X-6781452Y11127000D01*
X-6941227Y11095218D01*
X-7091731Y11032877D01*
X-7227181Y10942372D01*
X-7342372Y10827181D01*
X-7432877Y10691731D01*
X-7495218Y10541227D01*
X-7527000Y10381452D01*
X-7527000Y10218548D01*
X-7495218Y10058773D01*
X-7432877Y9908269D01*
X-7342372Y9772819D01*
X-7227181Y9657628D01*
X-7091731Y9567123D01*
X-6990719Y9525282D01*
X-8087962Y8428039D01*
X-8109974Y8409974D01*
X-8182079Y8322114D01*
X-8235657Y8221875D01*
X-8245318Y8190026D01*
X-8268651Y8113111D01*
X-8279790Y8000000D01*
X-8277000Y7971669D01*
X-8276999Y2728341D01*
X-8279790Y2700000D01*
X-8268651Y2586889D01*
X-8237271Y2483447D01*
X-8235656Y2478124D01*
X-8182078Y2377885D01*
X-8164286Y2356206D01*
X-8128037Y2312036D01*
X-8128034Y2312033D01*
X-8109973Y2290026D01*
X-8087966Y2271965D01*
X-6628039Y812038D01*
X-6609974Y790026D01*
X-6522115Y717921D01*
X-6421876Y664343D01*
X-6313112Y631350D01*
X-6228336Y623000D01*
X-6228330Y623000D01*
X-6200001Y620210D01*
X-6171672Y623000D01*
X-5392553Y623000D01*
X-5327181Y557628D01*
X-5191731Y467123D01*
X-5041227Y404782D01*
X-4881452Y373000D01*
X-4718548Y373000D01*
X-4558773Y404782D01*
X-4408269Y467123D01*
X-4272819Y557628D01*
X-4200000Y630447D01*
X-4127181Y557628D01*
X-3991731Y467123D01*
X-3841227Y404782D01*
X-3681452Y373000D01*
X-3518548Y373000D01*
X-3426999Y391211D01*
X-3426999Y-764282D01*
X-3430517Y-800000D01*
X-3416480Y-942517D01*
X-3374910Y-1079556D01*
X-3344923Y-1135657D01*
X-3307402Y-1205853D01*
X-3216553Y-1316554D01*
X-3188811Y-1339321D01*
X-3177000Y-1351132D01*
X-3176999Y-2770934D01*
X-3200000Y-2770934D01*
X-3220978Y-2773000D01*
X-3354473Y-2773000D01*
X-3400000Y-2768516D01*
X-3445527Y-2773000D01*
X-3445538Y-2773000D01*
X-3581724Y-2786413D01*
X-3756464Y-2839420D01*
X-3917506Y-2925498D01*
X-4023288Y-3012312D01*
X-4023292Y-3012316D01*
X-4058659Y-3041341D01*
X-4087684Y-3076708D01*
X-5323292Y-4312317D01*
X-5358658Y-4341341D01*
X-5387683Y-4376708D01*
X-5387688Y-4376713D01*
X-5474501Y-4482495D01*
X-5560580Y-4643537D01*
X-5595436Y-4758445D01*
X-5613586Y-4818276D01*
X-5626980Y-4954274D01*
X-5631484Y-5000000D01*
X-5626999Y-5045537D01*
X-5627000Y-9554473D01*
X-5631484Y-9600000D01*
X-5627000Y-9645527D01*
X-5627000Y-9645537D01*
X-5613587Y-9781723D01*
X-5565043Y-9941749D01*
X-5560580Y-9956463D01*
X-5474501Y-10117505D01*
X-5388859Y-10221860D01*
X-5358659Y-10258659D01*
X-5323287Y-10287688D01*
X-3466999Y-12143977D01*
X-3467000Y-13466736D01*
X-3503395Y-13496605D01*
X-3556755Y-13561624D01*
X-3562836Y-13573000D01*
X-3564293Y-13573000D01*
X-3600001Y-13569483D01*
X-3742518Y-13583520D01*
X-3774413Y-13593195D01*
X-3879557Y-13625090D01*
X-4005853Y-13692597D01*
X-4116554Y-13783446D01*
X-4139322Y-13811189D01*
X-4688811Y-14360679D01*
X-4716554Y-14383447D01*
X-4797206Y-14481723D01*
X-4807402Y-14494147D01*
X-4874910Y-14620444D01*
X-4916480Y-14757483D01*
X-4930517Y-14900000D01*
X-4927000Y-14935708D01*
X-4926999Y-21164282D01*
X-4930517Y-21200000D01*
X-4916480Y-21342517D01*
X-4874910Y-21479556D01*
X-4847225Y-21531350D01*
X-4807402Y-21605853D01*
X-4716553Y-21716554D01*
X-4688811Y-21739321D01*
X-3217000Y-23211133D01*
X-3216999Y-23972608D01*
X-3283707Y-23979178D01*
X-3364196Y-24003595D01*
X-3438376Y-24043245D01*
X-3503395Y-24096605D01*
X-3556755Y-24161624D01*
X-3596405Y-24235804D01*
X-3620822Y-24316293D01*
X-3629066Y-24400000D01*
X-3629066Y-25400000D01*
X-3620822Y-25483707D01*
X-3596405Y-25564196D01*
X-3556755Y-25638376D01*
X-3503395Y-25703395D01*
X-3438376Y-25756755D01*
X-3364196Y-25796405D01*
X-3283707Y-25820822D01*
X-3200000Y-25829066D01*
X-1700000Y-25829066D01*
X-1616293Y-25820822D01*
X-1535804Y-25796405D01*
X-1461624Y-25756755D01*
X-1396605Y-25703395D01*
X-1343245Y-25638376D01*
X-1303595Y-25564196D01*
X-1279178Y-25483707D01*
X-1270934Y-25400000D01*
X-1270934Y-24400000D01*
X-1279178Y-24316293D01*
X-1303595Y-24235804D01*
X-1343245Y-24161624D01*
X-1396605Y-24096605D01*
X-1461624Y-24043245D01*
X-1535804Y-24003595D01*
X-1616293Y-23979178D01*
X-1700000Y-23970934D01*
X-1763000Y-23970934D01*
X-1763000Y-22945707D01*
X-1759483Y-22909999D01*
X-1773520Y-22767482D01*
X-1783195Y-22735587D01*
X-1815090Y-22630443D01*
X-1882597Y-22504147D01*
X-1973447Y-22393446D01*
X-2001184Y-22370683D01*
X-3473000Y-20898868D01*
X-3473000Y-18328340D01*
X-3438376Y-18356755D01*
X-3364196Y-18396405D01*
X-3283707Y-18420822D01*
X-3200000Y-18429066D01*
X-3027000Y-18429066D01*
X-3026999Y-20121659D01*
X-3029790Y-20150000D01*
X-3018651Y-20263111D01*
X-2985656Y-20371876D01*
X-2932078Y-20472115D01*
X-2901160Y-20509788D01*
X-2878037Y-20537964D01*
X-2878034Y-20537967D01*
X-2859973Y-20559974D01*
X-2837966Y-20578035D01*
X-928039Y-22487962D01*
X-909974Y-22509974D01*
X-822115Y-22582079D01*
X-721876Y-22635657D01*
X-613112Y-22668650D01*
X-528336Y-22677000D01*
X-528330Y-22677000D01*
X-500001Y-22679790D01*
X-471672Y-22677000D01*
X1260999Y-22677000D01*
X1873000Y-23289001D01*
X1873000Y-23970934D01*
X1700000Y-23970934D01*
X1616293Y-23979178D01*
X1535804Y-24003595D01*
X1461624Y-24043245D01*
X1396605Y-24096605D01*
X1343245Y-24161624D01*
X1303595Y-24235804D01*
X1279178Y-24316293D01*
X1270934Y-24400000D01*
X1270934Y-25400000D01*
X1279178Y-25483707D01*
X1303595Y-25564196D01*
X1343245Y-25638376D01*
X1396605Y-25703395D01*
X1461624Y-25756755D01*
X1535804Y-25796405D01*
X1616293Y-25820822D01*
X1700000Y-25829066D01*
X3200000Y-25829066D01*
X3283707Y-25820822D01*
X3364196Y-25796405D01*
X3438376Y-25756755D01*
X3503395Y-25703395D01*
X3556755Y-25638376D01*
X3596405Y-25564196D01*
X3620822Y-25483707D01*
X3629066Y-25400000D01*
X3629066Y-24400000D01*
X3620822Y-24316293D01*
X3596405Y-24235804D01*
X3556755Y-24161624D01*
X3503395Y-24096605D01*
X3438376Y-24043245D01*
X3364196Y-24003595D01*
X3283707Y-23979178D01*
X3200000Y-23970934D01*
X3027000Y-23970934D01*
X3027000Y-23078331D01*
X3029790Y-23050000D01*
X3018651Y-22936888D01*
X2985657Y-22828125D01*
X2985657Y-22828124D01*
X2932079Y-22727885D01*
X2859974Y-22640026D01*
X2837963Y-22621962D01*
X1928039Y-21712038D01*
X1909974Y-21690026D01*
X1822115Y-21617921D01*
X1721876Y-21564343D01*
X1657770Y-21544897D01*
X1613111Y-21531349D01*
X1558045Y-21525926D01*
X1528336Y-21523000D01*
X1528331Y-21523000D01*
X1500000Y-21520210D01*
X1471669Y-21523000D01*
X-260999Y-21523000D01*
X-1873000Y-19910999D01*
X-1873000Y-18429066D01*
X-1700000Y-18429066D01*
X-1616293Y-18420822D01*
X-1535804Y-18396405D01*
X-1461624Y-18356755D01*
X-1396605Y-18303395D01*
X-1343245Y-18238376D01*
X-1303595Y-18164196D01*
X-1279178Y-18083707D01*
X-1270934Y-18000000D01*
X1061928Y-18000000D01*
X1074188Y-18124482D01*
X1110498Y-18244180D01*
X1169463Y-18354494D01*
X1248815Y-18451185D01*
X1345506Y-18530537D01*
X1455820Y-18589502D01*
X1575518Y-18625812D01*
X1700000Y-18638072D01*
X2164250Y-18635000D01*
X2323000Y-18476250D01*
X2323000Y-17627000D01*
X2577000Y-17627000D01*
X2577000Y-18476250D01*
X2735750Y-18635000D01*
X3200000Y-18638072D01*
X3324482Y-18625812D01*
X3444180Y-18589502D01*
X3554494Y-18530537D01*
X3651185Y-18451185D01*
X3730537Y-18354494D01*
X3789502Y-18244180D01*
X3825812Y-18124482D01*
X3838072Y-18000000D01*
X3835000Y-17785750D01*
X3676250Y-17627000D01*
X2577000Y-17627000D01*
X2323000Y-17627000D01*
X1223750Y-17627000D01*
X1065000Y-17785750D01*
X1061928Y-18000000D01*
X-1270934Y-18000000D01*
X-1270934Y-17000000D01*
X-1279178Y-16916293D01*
X-1303595Y-16835804D01*
X-1343245Y-16761624D01*
X-1396605Y-16696605D01*
X-1461624Y-16643245D01*
X-1535804Y-16603595D01*
X-1616293Y-16579178D01*
X-1700000Y-16570934D01*
X-3200000Y-16570934D01*
X-3283707Y-16579178D01*
X-3364196Y-16603595D01*
X-3438376Y-16643245D01*
X-3473000Y-16671660D01*
X-3473000Y-15201132D01*
X-3432020Y-15160152D01*
X-3364196Y-15196405D01*
X-3283707Y-15220822D01*
X-3200000Y-15229066D01*
X-2831909Y-15229066D01*
X-1637684Y-16423292D01*
X-1608659Y-16458659D01*
X-1573292Y-16487684D01*
X-1573289Y-16487687D01*
X-1467506Y-16574501D01*
X-1381427Y-16620511D01*
X-1306464Y-16660580D01*
X-1131724Y-16713587D01*
X-995538Y-16727000D01*
X-995526Y-16727000D01*
X-950001Y-16731484D01*
X-904476Y-16727000D01*
X1125903Y-16727000D01*
X1110498Y-16755820D01*
X1074188Y-16875518D01*
X1061928Y-17000000D01*
X1065000Y-17214250D01*
X1223750Y-17373000D01*
X2323000Y-17373000D01*
X2323000Y-17353000D01*
X2577000Y-17353000D01*
X2577000Y-17373000D01*
X3676250Y-17373000D01*
X3835000Y-17214250D01*
X3838072Y-17000000D01*
X3825812Y-16875518D01*
X3789502Y-16755820D01*
X3774097Y-16727000D01*
X4045538Y-16727000D01*
X4181724Y-16713587D01*
X4356464Y-16660580D01*
X4517505Y-16574501D01*
X4658659Y-16458659D01*
X4774501Y-16317505D01*
X4860580Y-16156464D01*
X4913587Y-15981724D01*
X4931485Y-15800000D01*
X4913587Y-15618276D01*
X4860580Y-15443536D01*
X4774501Y-15282495D01*
X4658659Y-15141341D01*
X4517505Y-15025499D01*
X4356464Y-14939420D01*
X4181724Y-14886413D01*
X4045538Y-14873000D01*
X3621876Y-14873000D01*
X3629066Y-14800000D01*
X3629066Y-13800000D01*
X3620822Y-13716293D01*
X3596405Y-13635804D01*
X3556755Y-13561624D01*
X3503395Y-13496605D01*
X3438376Y-13443245D01*
X3364196Y-13403595D01*
X3283707Y-13379178D01*
X3200000Y-13370934D01*
X3027000Y-13370934D01*
X3027000Y-12578339D01*
X3029791Y-12550000D01*
X3018651Y-12436888D01*
X2985657Y-12328123D01*
X2958601Y-12277505D01*
X2932079Y-12227885D01*
X2859974Y-12140026D01*
X2837962Y-12121961D01*
X2011826Y-11295825D01*
X2168548Y-11327000D01*
X2331452Y-11327000D01*
X2491227Y-11295218D01*
X2641731Y-11232877D01*
X2777181Y-11142372D01*
X2892372Y-11027181D01*
X2982877Y-10891731D01*
X3045218Y-10741227D01*
X3077000Y-10581452D01*
X3077000Y-10418548D01*
X3045218Y-10258773D01*
X2982877Y-10108269D01*
X2892372Y-9972819D01*
X2777181Y-9857628D01*
X2641731Y-9767123D01*
X2491227Y-9704782D01*
X2331452Y-9673000D01*
X2168548Y-9673000D01*
X2008773Y-9704782D01*
X1858269Y-9767123D01*
X1722819Y-9857628D01*
X1607628Y-9972819D01*
X1517123Y-10108269D01*
X1454782Y-10258773D01*
X1423000Y-10418548D01*
X1423000Y-10581452D01*
X1454175Y-10738174D01*
X477000Y-9760999D01*
X477000Y-9118548D01*
X7273000Y-9118548D01*
X7273000Y-9281452D01*
X7304782Y-9441227D01*
X7367123Y-9591731D01*
X7457628Y-9727181D01*
X7572819Y-9842372D01*
X7708269Y-9932877D01*
X7858773Y-9995218D01*
X8018548Y-10027000D01*
X8181452Y-10027000D01*
X8341227Y-9995218D01*
X8491731Y-9932877D01*
X8627181Y-9842372D01*
X8742372Y-9727181D01*
X8832877Y-9591731D01*
X8895218Y-9441227D01*
X8927000Y-9281452D01*
X8927000Y-9189001D01*
X10987963Y-7128038D01*
X11009974Y-7109974D01*
X11082079Y-7022115D01*
X11135657Y-6921876D01*
X11154547Y-6859603D01*
X11168651Y-6813112D01*
X11176332Y-6735119D01*
X11177000Y-6728336D01*
X11177000Y-6728331D01*
X11179790Y-6700000D01*
X11177000Y-6671669D01*
X11177000Y-5692553D01*
X11242372Y-5627181D01*
X11332877Y-5491731D01*
X11395218Y-5341227D01*
X11427000Y-5181452D01*
X11427000Y-5018548D01*
X11395218Y-4858773D01*
X11332877Y-4708269D01*
X11242372Y-4572819D01*
X11127181Y-4457628D01*
X10991731Y-4367123D01*
X10841227Y-4304782D01*
X10681452Y-4273000D01*
X10518548Y-4273000D01*
X10358773Y-4304782D01*
X10208269Y-4367123D01*
X10072819Y-4457628D01*
X9957628Y-4572819D01*
X9867123Y-4708269D01*
X9804782Y-4858773D01*
X9773000Y-5018548D01*
X9773000Y-5181452D01*
X9804782Y-5341227D01*
X9867123Y-5491731D01*
X9957628Y-5627181D01*
X10023001Y-5692554D01*
X10023000Y-6460999D01*
X8110999Y-8373000D01*
X8018548Y-8373000D01*
X7858773Y-8404782D01*
X7708269Y-8467123D01*
X7572819Y-8557628D01*
X7457628Y-8672819D01*
X7367123Y-8808269D01*
X7304782Y-8958773D01*
X7273000Y-9118548D01*
X477000Y-9118548D01*
X477000Y-8028328D01*
X479790Y-7999999D01*
X477000Y-7971670D01*
X477000Y-7971664D01*
X468650Y-7886888D01*
X435657Y-7778124D01*
X382079Y-7677885D01*
X332284Y-7617210D01*
X328037Y-7612035D01*
X328035Y-7612033D01*
X309974Y-7590026D01*
X287967Y-7571965D01*
X116002Y-7400000D01*
X1061928Y-7400000D01*
X1074188Y-7524482D01*
X1110498Y-7644180D01*
X1169463Y-7754494D01*
X1248815Y-7851185D01*
X1345506Y-7930537D01*
X1455820Y-7989502D01*
X1575518Y-8025812D01*
X1700000Y-8038072D01*
X2164250Y-8035000D01*
X2323000Y-7876250D01*
X2323000Y-7027000D01*
X2577000Y-7027000D01*
X2577000Y-7876250D01*
X2735750Y-8035000D01*
X3200000Y-8038072D01*
X3324482Y-8025812D01*
X3444180Y-7989502D01*
X3554494Y-7930537D01*
X3651185Y-7851185D01*
X3730537Y-7754494D01*
X3789502Y-7644180D01*
X3825812Y-7524482D01*
X3838072Y-7400000D01*
X3835000Y-7185750D01*
X3676250Y-7027000D01*
X2577000Y-7027000D01*
X2323000Y-7027000D01*
X1223750Y-7027000D01*
X1065000Y-7185750D01*
X1061928Y-7400000D01*
X116002Y-7400000D01*
X-432244Y-6851755D01*
X-357628Y-6777139D01*
X-267123Y-6641689D01*
X-204782Y-6491185D01*
X-186644Y-6400000D01*
X1061928Y-6400000D01*
X1065000Y-6614250D01*
X1223750Y-6773000D01*
X2323000Y-6773000D01*
X2323000Y-5923750D01*
X2577000Y-5923750D01*
X2577000Y-6773000D01*
X3676250Y-6773000D01*
X3835000Y-6614250D01*
X3838072Y-6400000D01*
X3825812Y-6275518D01*
X3789502Y-6155820D01*
X3730537Y-6045506D01*
X3651185Y-5948815D01*
X3554494Y-5869463D01*
X3459241Y-5818548D01*
X6073000Y-5818548D01*
X6073000Y-5981452D01*
X6104782Y-6141227D01*
X6167123Y-6291731D01*
X6257628Y-6427181D01*
X6372819Y-6542372D01*
X6508269Y-6632877D01*
X6658773Y-6695218D01*
X6818548Y-6727000D01*
X6981452Y-6727000D01*
X7141227Y-6695218D01*
X7291731Y-6632877D01*
X7427181Y-6542372D01*
X7542372Y-6427181D01*
X7632877Y-6291731D01*
X7695218Y-6141227D01*
X7727000Y-5981452D01*
X7727000Y-5818548D01*
X7695218Y-5658773D01*
X7632877Y-5508269D01*
X7542372Y-5372819D01*
X7427181Y-5257628D01*
X7291731Y-5167123D01*
X7141227Y-5104782D01*
X6981452Y-5073000D01*
X6818548Y-5073000D01*
X6658773Y-5104782D01*
X6508269Y-5167123D01*
X6372819Y-5257628D01*
X6257628Y-5372819D01*
X6167123Y-5508269D01*
X6104782Y-5658773D01*
X6073000Y-5818548D01*
X3459241Y-5818548D01*
X3444180Y-5810498D01*
X3324482Y-5774188D01*
X3200000Y-5761928D01*
X2735750Y-5765000D01*
X2577000Y-5923750D01*
X2323000Y-5923750D01*
X2164250Y-5765000D01*
X1700000Y-5761928D01*
X1575518Y-5774188D01*
X1455820Y-5810498D01*
X1345506Y-5869463D01*
X1248815Y-5948815D01*
X1169463Y-6045506D01*
X1110498Y-6155820D01*
X1074188Y-6275518D01*
X1061928Y-6400000D01*
X-186644Y-6400000D01*
X-173000Y-6331410D01*
X-173000Y-6168506D01*
X-204782Y-6008731D01*
X-267123Y-5858227D01*
X-357628Y-5722777D01*
X-448000Y-5632405D01*
X-448000Y-3317553D01*
X-357628Y-3227181D01*
X-267123Y-3091731D01*
X-204782Y-2941227D01*
X-173000Y-2781452D01*
X-173000Y-2618548D01*
X-204782Y-2458773D01*
X-267123Y-2308269D01*
X-357628Y-2172819D01*
X-472819Y-2057628D01*
X-608269Y-1967123D01*
X-758773Y-1904782D01*
X-918548Y-1873000D01*
X-1081452Y-1873000D01*
X-1241227Y-1904782D01*
X-1391731Y-1967123D01*
X-1527181Y-2057628D01*
X-1642372Y-2172819D01*
X-1723000Y-2293487D01*
X-1723000Y-1535056D01*
X-1721876Y-1535657D01*
X-1677218Y-1549204D01*
X-1613112Y-1568651D01*
X-1555114Y-1574363D01*
X-1528336Y-1577000D01*
X-1528331Y-1577000D01*
X-1500000Y-1579790D01*
X-1471669Y-1577000D01*
X1160999Y-1577000D01*
X1873000Y-2289002D01*
X1873000Y-2770934D01*
X1700000Y-2770934D01*
X1616293Y-2779178D01*
X1535804Y-2803595D01*
X1461624Y-2843245D01*
X1396605Y-2896605D01*
X1343245Y-2961624D01*
X1303595Y-3035804D01*
X1279178Y-3116293D01*
X1270934Y-3200000D01*
X1270934Y-4200000D01*
X1279178Y-4283707D01*
X1303595Y-4364196D01*
X1343245Y-4438376D01*
X1396605Y-4503395D01*
X1461624Y-4556755D01*
X1535804Y-4596405D01*
X1616293Y-4620822D01*
X1700000Y-4629066D01*
X3200000Y-4629066D01*
X3283707Y-4620822D01*
X3364196Y-4596405D01*
X3438376Y-4556755D01*
X3503395Y-4503395D01*
X3556755Y-4438376D01*
X3596405Y-4364196D01*
X3620822Y-4283707D01*
X3629066Y-4200000D01*
X3629066Y-3200000D01*
X3620822Y-3116293D01*
X3596405Y-3035804D01*
X3556755Y-2961624D01*
X3503395Y-2896605D01*
X3438376Y-2843245D01*
X3364196Y-2803595D01*
X3283707Y-2779178D01*
X3200000Y-2770934D01*
X3027000Y-2770934D01*
X3027000Y-2078328D01*
X3029790Y-2049999D01*
X3027000Y-2021670D01*
X3027000Y-2021664D01*
X3018650Y-1936888D01*
X2985657Y-1828124D01*
X2932079Y-1727885D01*
X2859974Y-1640026D01*
X2837968Y-1621966D01*
X2624243Y-1408241D01*
X2718548Y-1427000D01*
X2881452Y-1427000D01*
X3041227Y-1395218D01*
X3191731Y-1332877D01*
X3327181Y-1242372D01*
X3392553Y-1177000D01*
X4771669Y-1177000D01*
X4800000Y-1179790D01*
X4828331Y-1177000D01*
X4828336Y-1177000D01*
X4858045Y-1174074D01*
X4913111Y-1168651D01*
X4957770Y-1155103D01*
X5021876Y-1135657D01*
X5122115Y-1082079D01*
X5209974Y-1009974D01*
X5228039Y-987962D01*
X8137968Y1921967D01*
X8159974Y1940026D01*
X8232079Y2027885D01*
X8285657Y2128124D01*
X8303483Y2186889D01*
X8318651Y2236888D01*
X8324866Y2300000D01*
X8327000Y2321664D01*
X8327000Y2321668D01*
X8329790Y2349999D01*
X8327000Y2378330D01*
X8327000Y6310999D01*
X8889001Y6873000D01*
X8981452Y6873000D01*
X9141227Y6904782D01*
X9291731Y6967123D01*
X9427181Y7057628D01*
X9542372Y7172819D01*
X9632877Y7308269D01*
X9695218Y7458773D01*
X9727000Y7618548D01*
X9727000Y7781452D01*
X9695218Y7941227D01*
X9632877Y8091731D01*
X9542372Y8227181D01*
X9427181Y8342372D01*
X9291731Y8432877D01*
X9141227Y8495218D01*
X8981452Y8527000D01*
X8818548Y8527000D01*
X8658773Y8495218D01*
X8508269Y8432877D01*
X8372819Y8342372D01*
X8257628Y8227181D01*
X8167123Y8091731D01*
X8104782Y7941227D01*
X8073000Y7781452D01*
X8073000Y7689001D01*
X7362034Y6978035D01*
X7340027Y6959974D01*
X7321966Y6937967D01*
X7321963Y6937964D01*
X7298840Y6909788D01*
X7267922Y6872115D01*
X7236385Y6813112D01*
X7214344Y6771876D01*
X7181349Y6663111D01*
X7170210Y6550000D01*
X7173001Y6521659D01*
X7173000Y2589002D01*
X4560999Y-23000D01*
X3593001Y-23000D01*
X5289002Y1673000D01*
X5571669Y1673000D01*
X5600000Y1670210D01*
X5628331Y1673000D01*
X5628336Y1673000D01*
X5658045Y1675926D01*
X5713111Y1681349D01*
X5757770Y1694897D01*
X5821876Y1714343D01*
X5922115Y1767921D01*
X6009974Y1840026D01*
X6028039Y1862038D01*
X6487962Y2321961D01*
X6509974Y2340026D01*
X6582079Y2427885D01*
X6635657Y2528124D01*
X6659236Y2605853D01*
X6668651Y2636888D01*
X6675337Y2704782D01*
X6677000Y2721664D01*
X6677000Y2721669D01*
X6679790Y2750000D01*
X6677000Y2778331D01*
X6677000Y6771672D01*
X6679790Y6800001D01*
X6677000Y6828330D01*
X6677000Y6828336D01*
X6668650Y6913112D01*
X6635657Y7021876D01*
X6582079Y7122115D01*
X6540365Y7172943D01*
X6528037Y7187965D01*
X6528035Y7187967D01*
X6509974Y7209974D01*
X6487968Y7228034D01*
X6077000Y7639001D01*
X6077000Y8971669D01*
X6079790Y9000000D01*
X6076562Y9032785D01*
X6073116Y9067772D01*
X6068651Y9113112D01*
X6048423Y9179791D01*
X6035657Y9221876D01*
X5982079Y9322115D01*
X5909974Y9409974D01*
X5887963Y9428038D01*
X5183678Y10132323D01*
X5186888Y10131349D01*
X5300000Y10120209D01*
X5328339Y10123000D01*
X5791216Y10123000D01*
X5773006Y10031452D01*
X5773006Y9868548D01*
X5804788Y9708773D01*
X5867129Y9558269D01*
X5957634Y9422819D01*
X6072825Y9307628D01*
X6208275Y9217123D01*
X6358779Y9154782D01*
X6518554Y9123000D01*
X6681458Y9123000D01*
X6841233Y9154782D01*
X6991737Y9217123D01*
X7127187Y9307628D01*
X7142559Y9323000D01*
X8673000Y9323000D01*
X8673000Y9318548D01*
X8704782Y9158773D01*
X8767123Y9008269D01*
X8857628Y8872819D01*
X8972819Y8757628D01*
X9108269Y8667123D01*
X9258773Y8604782D01*
X9418548Y8573000D01*
X9581452Y8573000D01*
X9741227Y8604782D01*
X9823000Y8638654D01*
X9823001Y6528341D01*
X9820210Y6500000D01*
X9831349Y6386889D01*
X9860949Y6289316D01*
X9864344Y6278124D01*
X9917922Y6177885D01*
X9941858Y6148719D01*
X9971963Y6112036D01*
X9971966Y6112033D01*
X9990027Y6090026D01*
X10012034Y6071965D01*
X10256999Y5827000D01*
X10218548Y5827000D01*
X10058773Y5795218D01*
X9908269Y5732877D01*
X9772819Y5642372D01*
X9657628Y5527181D01*
X9567123Y5391731D01*
X9504782Y5241227D01*
X9473000Y5081452D01*
X9473000Y4918548D01*
X9504782Y4758773D01*
X9567123Y4608269D01*
X9657628Y4472819D01*
X9673000Y4457447D01*
X9673001Y1842554D01*
X9657628Y1827181D01*
X9567123Y1691731D01*
X9504782Y1541227D01*
X9473000Y1381452D01*
X9473000Y1218548D01*
X9504782Y1058773D01*
X9567123Y908269D01*
X9657628Y772819D01*
X9772819Y657628D01*
X9908269Y567123D01*
X10058773Y504782D01*
X10218548Y473000D01*
X10381452Y473000D01*
X10541227Y504782D01*
X10691731Y567123D01*
X10827181Y657628D01*
X10942372Y772819D01*
X11032877Y908269D01*
X11095218Y1058773D01*
X11127000Y1218548D01*
X11127000Y1381452D01*
X11095218Y1541227D01*
X11032877Y1691731D01*
X10942372Y1827181D01*
X10927000Y1842553D01*
X10927000Y4457447D01*
X10942372Y4472819D01*
X11032877Y4608269D01*
X11095218Y4758773D01*
X11127000Y4918548D01*
X11127000Y4956999D01*
X11423000Y4660999D01*
X11423001Y2792554D01*
X11357628Y2727181D01*
X11267123Y2591731D01*
X11204782Y2441227D01*
X11173000Y2281452D01*
X11173000Y2118548D01*
X11204782Y1958773D01*
X11267123Y1808269D01*
X11357628Y1672819D01*
X11472819Y1557628D01*
X11608269Y1467123D01*
X11758773Y1404782D01*
X11918548Y1373000D01*
X12081452Y1373000D01*
X12241227Y1404782D01*
X12391731Y1467123D01*
X12527181Y1557628D01*
X12642372Y1672819D01*
X12732877Y1808269D01*
X12795218Y1958773D01*
X12827000Y2118548D01*
X12827000Y2281452D01*
X12795218Y2441227D01*
X12732877Y2591731D01*
X12642372Y2727181D01*
X12577000Y2792553D01*
X12577000Y4871661D01*
X12579791Y4900000D01*
X12568651Y5013112D01*
X12544958Y5091215D01*
X12535657Y5121876D01*
X12482079Y5222115D01*
X12409974Y5309974D01*
X12387963Y5328038D01*
X10977000Y6739001D01*
X10977000Y9771672D01*
X10979790Y9800001D01*
X10977000Y9828330D01*
X10977000Y9828336D01*
X10968650Y9913112D01*
X10935657Y10021876D01*
X10882079Y10122115D01*
X10834744Y10179792D01*
X10828037Y10187965D01*
X10828035Y10187967D01*
X10809974Y10209974D01*
X10787968Y10228034D01*
X10777883Y10238119D01*
X10955877Y10220666D01*
X10955891Y10220665D01*
X11106021Y10205945D01*
X11207998Y10175155D01*
X11302060Y10125142D01*
X11384612Y10057814D01*
X11452514Y9975734D01*
X11503181Y9882027D01*
X11534683Y9780263D01*
X11548001Y9653551D01*
X11548000Y7177797D01*
X11548243Y7175334D01*
X11548514Y7150496D01*
X11550837Y7129207D01*
X11551005Y7107794D01*
X11551714Y7101523D01*
X11599260Y6705742D01*
X11608094Y6665728D01*
X11616365Y6625615D01*
X11618278Y6619601D01*
X11741793Y6240594D01*
X11758224Y6203075D01*
X11774135Y6165317D01*
X11777180Y6159789D01*
X11971958Y5811990D01*
X11995384Y5778347D01*
X12018307Y5744427D01*
X12022362Y5739603D01*
X12022367Y5739596D01*
X12022373Y5739591D01*
X12280992Y5436254D01*
X12310497Y5407811D01*
X12339580Y5378981D01*
X12344496Y5375036D01*
X12344502Y5375030D01*
X12344509Y5375026D01*
X12657120Y5127698D01*
X12691587Y5105529D01*
X12725717Y5082896D01*
X12731309Y5079979D01*
X12731313Y5079976D01*
X12731317Y5079974D01*
X13086017Y4898077D01*
X13124093Y4883040D01*
X13162009Y4867451D01*
X13168055Y4865678D01*
X13168065Y4865674D01*
X13168075Y4865672D01*
X13551345Y4756135D01*
X13591640Y4748776D01*
X13631839Y4740853D01*
X13638124Y4740286D01*
X14035381Y4707278D01*
X14076335Y4707886D01*
X14117311Y4707922D01*
X14123587Y4708587D01*
X14519690Y4753369D01*
X14559744Y4761920D01*
X14599934Y4769914D01*
X14605961Y4771786D01*
X14985822Y4892652D01*
X15023463Y4908824D01*
X15061324Y4924468D01*
X15066864Y4927470D01*
X15066873Y4927474D01*
X15066880Y4927479D01*
X15416023Y5119821D01*
X15449778Y5142977D01*
X15483908Y5165696D01*
X15488767Y5169723D01*
X15793907Y5426223D01*
X15822590Y5455564D01*
X15851587Y5484410D01*
X15855567Y5489298D01*
X15855573Y5489304D01*
X15855577Y5489311D01*
X16105080Y5800187D01*
X16127487Y5834493D01*
X16150361Y5868470D01*
X16153316Y5874040D01*
X16153319Y5874044D01*
X16153321Y5874048D01*
X16337690Y6227470D01*
X16353000Y6265459D01*
X16368846Y6303248D01*
X16370665Y6309291D01*
X16482878Y6691797D01*
X16490526Y6732081D01*
X16498721Y6772183D01*
X16499332Y6778464D01*
X16535112Y7175481D01*
X16534790Y7216481D01*
X16535040Y7257412D01*
X16534419Y7263682D01*
X16534419Y7263693D01*
X16534417Y7263703D01*
X16492403Y7660099D01*
X16484135Y7700202D01*
X16476419Y7740457D01*
X16474591Y7746489D01*
X16474590Y7746496D01*
X16474587Y7746502D01*
X16356378Y8127192D01*
X16340468Y8164950D01*
X16325090Y8202914D01*
X16322127Y8208475D01*
X16322123Y8208484D01*
X16322118Y8208491D01*
X16132218Y8558968D01*
X16109273Y8592922D01*
X16086818Y8627171D01*
X16082829Y8632053D01*
X16082825Y8632059D01*
X16082820Y8632064D01*
X15828462Y8938982D01*
X15828457Y8938987D01*
X15732207Y9055127D01*
X15681456Y9148792D01*
X15649866Y9250528D01*
X15638638Y9356459D01*
X15648201Y9462559D01*
X15678189Y9564781D01*
X15727458Y9659226D01*
X15806799Y9758083D01*
X16091089Y10042373D01*
X16190569Y10124087D01*
X16284452Y10174427D01*
X16386323Y10205571D01*
X16513679Y10218508D01*
X19057890Y10218508D01*
X19186021Y10205945D01*
X19287998Y10175155D01*
X19382060Y10125142D01*
X19464612Y10057814D01*
X19532514Y9975734D01*
X19583181Y9882027D01*
X19614683Y9780263D01*
X19628000Y9653560D01*
X19627999Y-9648397D01*
X19615435Y-9776529D01*
X19584647Y-9878505D01*
X19534633Y-9972567D01*
X19467306Y-10055118D01*
X19385226Y-10123021D01*
X19291519Y-10173688D01*
X19189754Y-10205190D01*
X19063061Y-10218506D01*
X16516322Y-10218506D01*
X16388190Y-10205942D01*
X16286214Y-10175154D01*
X16192152Y-10125140D01*
X16092955Y-10044237D01*
X15812599Y-9763881D01*
X15730877Y-9664392D01*
X15680537Y-9570508D01*
X15649391Y-9468633D01*
X15638626Y-9362653D01*
X15648651Y-9256596D01*
X15679085Y-9154508D01*
X15728767Y-9060278D01*
X15809348Y-8960769D01*
X15833450Y-8936349D01*
X15846933Y-8919714D01*
X15862025Y-8904516D01*
X15865980Y-8899597D01*
X16113586Y-8587197D01*
X16135768Y-8552778D01*
X16158450Y-8518639D01*
X16161370Y-8513051D01*
X16161373Y-8513047D01*
X16161375Y-8513043D01*
X16343584Y-8158501D01*
X16358659Y-8120426D01*
X16374276Y-8082536D01*
X16376058Y-8076482D01*
X16485935Y-7693298D01*
X16493329Y-7653012D01*
X16501288Y-7612816D01*
X16501860Y-7606531D01*
X16535216Y-7209303D01*
X16534644Y-7168350D01*
X16534644Y-7127374D01*
X16533984Y-7121097D01*
X16489550Y-6724956D01*
X16481030Y-6684869D01*
X16473075Y-6644696D01*
X16471212Y-6638675D01*
X16471210Y-6638668D01*
X16471207Y-6638662D01*
X16350676Y-6258701D01*
X16334549Y-6221075D01*
X16318927Y-6183173D01*
X16315925Y-6177621D01*
X16123886Y-5828302D01*
X16100736Y-5794492D01*
X16078070Y-5760377D01*
X16074052Y-5755520D01*
X16074048Y-5755514D01*
X16074043Y-5755509D01*
X15817815Y-5450148D01*
X15788546Y-5421486D01*
X15759679Y-5392416D01*
X15754794Y-5388433D01*
X15754788Y-5388427D01*
X15754781Y-5388423D01*
X15444124Y-5138647D01*
X15409860Y-5116225D01*
X15375881Y-5093306D01*
X15370309Y-5090343D01*
X15017045Y-4905661D01*
X14979085Y-4890324D01*
X14941296Y-4874439D01*
X14935254Y-4872615D01*
X14552846Y-4760066D01*
X14512598Y-4752388D01*
X14472474Y-4744152D01*
X14466193Y-4743536D01*
X14069207Y-4707408D01*
X14028242Y-4707694D01*
X13987277Y-4707408D01*
X13980996Y-4708024D01*
X13980994Y-4708024D01*
X13584553Y-4749691D01*
X13544435Y-4757926D01*
X13504181Y-4765605D01*
X13498139Y-4767429D01*
X13117340Y-4885306D01*
X13079575Y-4901181D01*
X13041590Y-4916528D01*
X13036018Y-4919491D01*
X12685367Y-5109087D01*
X12651415Y-5131988D01*
X12617124Y-5154427D01*
X12612233Y-5158416D01*
X12305086Y-5412510D01*
X12276219Y-5441580D01*
X12246950Y-5470242D01*
X12242927Y-5475105D01*
X11990984Y-5784018D01*
X11968315Y-5818137D01*
X11945168Y-5851942D01*
X11942171Y-5857486D01*
X11942166Y-5857494D01*
X11942163Y-5857502D01*
X11755023Y-6209460D01*
X11739415Y-6247327D01*
X11723273Y-6284989D01*
X11721410Y-6291008D01*
X11721406Y-6291018D01*
X11721404Y-6291028D01*
X11606191Y-6672630D01*
X11598236Y-6712803D01*
X11589716Y-6752890D01*
X11589056Y-6759166D01*
X11550157Y-7155890D01*
X11550157Y-7155903D01*
X11548001Y-7177793D01*
X11548000Y-9648397D01*
X11535436Y-9776529D01*
X11504648Y-9878505D01*
X11454634Y-9972567D01*
X11387307Y-10055118D01*
X11305227Y-10123021D01*
X11211520Y-10173688D01*
X11109755Y-10205190D01*
X10964322Y-10220476D01*
X10952052Y-10220390D01*
X10945771Y-10221006D01*
X10751674Y-10241407D01*
X10711534Y-10249647D01*
X10671306Y-10257320D01*
X10665265Y-10259144D01*
X10665263Y-10259145D01*
X10665261Y-10259145D01*
X10665259Y-10259146D01*
X10478827Y-10316855D01*
X10441060Y-10332730D01*
X10403073Y-10348078D01*
X10397508Y-10351037D01*
X10397504Y-10351039D01*
X10397503Y-10351040D01*
X10397501Y-10351041D01*
X10225824Y-10443867D01*
X10191879Y-10466763D01*
X10157583Y-10489206D01*
X10152692Y-10493195D01*
X10002314Y-10617598D01*
X9973429Y-10646685D01*
X9944177Y-10675331D01*
X9940159Y-10680188D01*
X9940154Y-10680193D01*
X9940150Y-10680198D01*
X9816803Y-10831436D01*
X9794132Y-10865559D01*
X9770988Y-10899360D01*
X9767986Y-10904912D01*
X9676361Y-11077233D01*
X9660741Y-11115129D01*
X9644611Y-11152764D01*
X9642749Y-11158779D01*
X9642744Y-11158792D01*
X9642742Y-11158805D01*
X9586336Y-11345629D01*
X9578379Y-11385812D01*
X9569861Y-11425887D01*
X9569201Y-11432164D01*
X9550156Y-11626397D01*
X9550156Y-11626421D01*
X9548001Y-11648301D01*
X9548000Y-29479864D01*
X9474353Y-30305065D01*
X9261075Y-31084677D01*
X8913108Y-31814204D01*
X8441452Y-32470583D01*
X7861017Y-33033064D01*
X7190149Y-33483868D01*
X6450054Y-33808747D01*
X5660647Y-33998268D01*
X4983429Y-34047999D01*
X-4979865Y-34047999D01*
X-5805066Y-33974352D01*
X-6584678Y-33761074D01*
X-7314205Y-33413107D01*
X-7970584Y-32941451D01*
X-8533065Y-32361016D01*
X-8983869Y-31690148D01*
X-9308748Y-30950053D01*
X-9498269Y-30160646D01*
X-9548000Y-29483428D01*
X-9548000Y-27600000D01*
X-3629066Y-27600000D01*
X-3629066Y-28600000D01*
X-3620822Y-28683707D01*
X-3596405Y-28764196D01*
X-3556755Y-28838376D01*
X-3503395Y-28903395D01*
X-3438376Y-28956755D01*
X-3364196Y-28996405D01*
X-3283707Y-29020822D01*
X-3200000Y-29029066D01*
X-1700000Y-29029066D01*
X-1616293Y-29020822D01*
X-1535804Y-28996405D01*
X-1461624Y-28956755D01*
X-1396605Y-28903395D01*
X-1343245Y-28838376D01*
X-1303595Y-28764196D01*
X-1279178Y-28683707D01*
X-1270934Y-28600000D01*
X1061928Y-28600000D01*
X1074188Y-28724482D01*
X1110498Y-28844180D01*
X1169463Y-28954494D01*
X1248815Y-29051185D01*
X1345506Y-29130537D01*
X1455820Y-29189502D01*
X1575518Y-29225812D01*
X1700000Y-29238072D01*
X2164250Y-29235000D01*
X2323000Y-29076250D01*
X2323000Y-28227000D01*
X2577000Y-28227000D01*
X2577000Y-29076250D01*
X2735750Y-29235000D01*
X3200000Y-29238072D01*
X3324482Y-29225812D01*
X3444180Y-29189502D01*
X3554494Y-29130537D01*
X3651185Y-29051185D01*
X3730537Y-28954494D01*
X3789502Y-28844180D01*
X3825812Y-28724482D01*
X3838072Y-28600000D01*
X3835000Y-28385750D01*
X3676250Y-28227000D01*
X2577000Y-28227000D01*
X2323000Y-28227000D01*
X1223750Y-28227000D01*
X1065000Y-28385750D01*
X1061928Y-28600000D01*
X-1270934Y-28600000D01*
X-1270934Y-27600000D01*
X1061928Y-27600000D01*
X1065000Y-27814250D01*
X1223750Y-27973000D01*
X2323000Y-27973000D01*
X2323000Y-27123750D01*
X2577000Y-27123750D01*
X2577000Y-27973000D01*
X3676250Y-27973000D01*
X3835000Y-27814250D01*
X3838072Y-27600000D01*
X3825812Y-27475518D01*
X3789502Y-27355820D01*
X3730537Y-27245506D01*
X3651185Y-27148815D01*
X3554494Y-27069463D01*
X3444180Y-27010498D01*
X3324482Y-26974188D01*
X3200000Y-26961928D01*
X2735750Y-26965000D01*
X2577000Y-27123750D01*
X2323000Y-27123750D01*
X2164250Y-26965000D01*
X1700000Y-26961928D01*
X1575518Y-26974188D01*
X1455820Y-27010498D01*
X1345506Y-27069463D01*
X1248815Y-27148815D01*
X1169463Y-27245506D01*
X1110498Y-27355820D01*
X1074188Y-27475518D01*
X1061928Y-27600000D01*
X-1270934Y-27600000D01*
X-1279178Y-27516293D01*
X-1303595Y-27435804D01*
X-1343245Y-27361624D01*
X-1396605Y-27296605D01*
X-1461624Y-27243245D01*
X-1535804Y-27203595D01*
X-1616293Y-27179178D01*
X-1700000Y-27170934D01*
X-3200000Y-27170934D01*
X-3283707Y-27179178D01*
X-3364196Y-27203595D01*
X-3438376Y-27243245D01*
X-3503395Y-27296605D01*
X-3556755Y-27361624D01*
X-3596405Y-27435804D01*
X-3620822Y-27516293D01*
X-3629066Y-27600000D01*
X-9548000Y-27600000D01*
X-9548000Y-11648301D01*
X-9549927Y-11628734D01*
X-9549884Y-11622558D01*
X-9550500Y-11616277D01*
X-9570901Y-11422180D01*
X-9579141Y-11382036D01*
X-9586815Y-11341810D01*
X-9588639Y-11335768D01*
X-9646351Y-11149330D01*
X-9662243Y-11111524D01*
X-9677573Y-11073581D01*
X-9680531Y-11068017D01*
X-9680535Y-11068008D01*
X-9680540Y-11068001D01*
X-9773360Y-10896332D01*
X-9796268Y-10862368D01*
X-9818702Y-10828087D01*
X-9822691Y-10823196D01*
X-9947095Y-10672819D01*
X-9976161Y-10643954D01*
X-10004826Y-10614683D01*
X-10009683Y-10610665D01*
X-10009689Y-10610659D01*
X-10009696Y-10610655D01*
X-10160931Y-10487310D01*
X-10195028Y-10464656D01*
X-10228855Y-10441494D01*
X-10234399Y-10438497D01*
X-10234407Y-10438492D01*
X-10234415Y-10438489D01*
X-10406729Y-10346867D01*
X-10444631Y-10331245D01*
X-10482259Y-10315118D01*
X-10488278Y-10313255D01*
X-10488288Y-10313251D01*
X-10488298Y-10313249D01*
X-10675124Y-10256843D01*
X-10715307Y-10248886D01*
X-10755382Y-10240368D01*
X-10761659Y-10239708D01*
X-10955892Y-10220663D01*
X-11106022Y-10205942D01*
X-11207998Y-10175154D01*
X-11302060Y-10125140D01*
X-11384611Y-10057813D01*
X-11452514Y-9975733D01*
X-11503181Y-9882026D01*
X-11534683Y-9780261D01*
X-11547999Y-9653568D01*
X-11547999Y-7177793D01*
X-11548242Y-7175330D01*
X-11548513Y-7150493D01*
X-11550836Y-7129204D01*
X-11551004Y-7107791D01*
X-11551713Y-7101520D01*
X-11599259Y-6705739D01*
X-11608092Y-6665733D01*
X-11616364Y-6625611D01*
X-11618277Y-6619597D01*
X-11741792Y-6240591D01*
X-11758223Y-6203072D01*
X-11774134Y-6165314D01*
X-11777179Y-6159786D01*
X-11971957Y-5811987D01*
X-11995383Y-5778344D01*
X-12018306Y-5744424D01*
X-12022361Y-5739600D01*
X-12022366Y-5739593D01*
X-12022372Y-5739588D01*
X-12280991Y-5436251D01*
X-12310479Y-5407825D01*
X-12339579Y-5378978D01*
X-12344495Y-5375033D01*
X-12344501Y-5375027D01*
X-12344508Y-5375023D01*
X-12657119Y-5127696D01*
X-12691550Y-5105549D01*
X-12725716Y-5082893D01*
X-12731311Y-5079974D01*
X-13086015Y-4898074D01*
X-13124105Y-4883031D01*
X-13162008Y-4867448D01*
X-13168054Y-4865675D01*
X-13168064Y-4865671D01*
X-13168074Y-4865669D01*
X-13551344Y-4756132D01*
X-13591639Y-4748773D01*
X-13631838Y-4740850D01*
X-13638123Y-4740283D01*
X-14035380Y-4707275D01*
X-14076334Y-4707883D01*
X-14117310Y-4707919D01*
X-14123586Y-4708584D01*
X-14519689Y-4753366D01*
X-14559737Y-4761915D01*
X-14599933Y-4769911D01*
X-14605961Y-4771783D01*
X-14985821Y-4892649D01*
X-15023462Y-4908821D01*
X-15061323Y-4924465D01*
X-15066863Y-4927467D01*
X-15066872Y-4927471D01*
X-15066879Y-4927476D01*
X-15416022Y-5119818D01*
X-15449777Y-5142974D01*
X-15483907Y-5165693D01*
X-15488766Y-5169720D01*
X-15793906Y-5426220D01*
X-15822553Y-5455524D01*
X-15851586Y-5484406D01*
X-15855566Y-5489295D01*
X-15855572Y-5489301D01*
X-15855576Y-5489308D01*
X-16105079Y-5800184D01*
X-16127486Y-5834490D01*
X-16150360Y-5868467D01*
X-16153315Y-5874037D01*
X-16153318Y-5874041D01*
X-16153318Y-5874042D01*
X-16337690Y-6227468D01*
X-16353007Y-6265476D01*
X-16368845Y-6303245D01*
X-16370664Y-6309288D01*
X-16482877Y-6691794D01*
X-16490525Y-6732078D01*
X-16498720Y-6772180D01*
X-16499331Y-6778461D01*
X-16535111Y-7175478D01*
X-16534789Y-7216449D01*
X-16535039Y-7257409D01*
X-16534418Y-7263679D01*
X-16534418Y-7263691D01*
X-16534416Y-7263702D01*
X-16492402Y-7660095D01*
X-16484135Y-7700191D01*
X-16476418Y-7740454D01*
X-16474590Y-7746486D01*
X-16474589Y-7746493D01*
X-16474586Y-7746499D01*
X-16356377Y-8127189D01*
X-16340467Y-8164947D01*
X-16325089Y-8202911D01*
X-16322126Y-8208472D01*
X-16322122Y-8208481D01*
X-16322117Y-8208488D01*
X-16132217Y-8558965D01*
X-16109294Y-8592887D01*
X-16086818Y-8627167D01*
X-16082828Y-8632050D01*
X-16082824Y-8632056D01*
X-16082819Y-8632061D01*
X-15828462Y-8938979D01*
X-15732207Y-9055124D01*
X-15681456Y-9148791D01*
X-15649866Y-9250526D01*
X-15638638Y-9356457D01*
X-15648200Y-9462553D01*
X-15678188Y-9564778D01*
X-15727458Y-9659224D01*
X-15806795Y-9758077D01*
X-16091084Y-10042367D01*
X-16190571Y-10124087D01*
X-16284449Y-10174423D01*
X-16386324Y-10205570D01*
X-16513679Y-10218506D01*
X-19057890Y-10218506D01*
X-19186022Y-10205942D01*
X-19287998Y-10175154D01*
X-19382060Y-10125140D01*
X-19464611Y-10057813D01*
X-19532514Y-9975733D01*
X-19583181Y-9882026D01*
X-19614683Y-9780261D01*
X-19627999Y-9653568D01*
X-19627999Y-4541198D01*
X-19607070Y-4558374D01*
X-19402597Y-4667667D01*
X-19180732Y-4734969D01*
X-19007812Y-4752000D01*
X-18692188Y-4752000D01*
X-18519268Y-4734969D01*
X-18297403Y-4667667D01*
X-18092930Y-4558374D01*
X-17913709Y-4411291D01*
X-17766626Y-4232070D01*
X-17657333Y-4027597D01*
X-17590031Y-3805732D01*
X-17567306Y-3575000D01*
X-17590031Y-3344268D01*
X-17657333Y-3122403D01*
X-17766626Y-2917930D01*
X-17913709Y-2738709D01*
X-18092930Y-2591626D01*
X-18297403Y-2482333D01*
X-18519268Y-2415031D01*
X-18692188Y-2398000D01*
X-19007812Y-2398000D01*
X-19180732Y-2415031D01*
X-19402597Y-2482333D01*
X-19607070Y-2591626D01*
X-19627999Y-2608802D01*
X-19627999Y-1925934D01*
X-17477000Y-1925934D01*
X-17477000Y-2074066D01*
X-17448101Y-2219350D01*
X-17391414Y-2356206D01*
X-17309117Y-2479372D01*
X-17204372Y-2584117D01*
X-17081206Y-2666414D01*
X-16944350Y-2723101D01*
X-16799066Y-2752000D01*
X-16657199Y-2752000D01*
X-16793374Y-2917930D01*
X-16902667Y-3122403D01*
X-16969969Y-3344268D01*
X-16992694Y-3575000D01*
X-16969969Y-3805732D01*
X-16902667Y-4027597D01*
X-16793374Y-4232070D01*
X-16646291Y-4411291D01*
X-16467070Y-4558374D01*
X-16262597Y-4667667D01*
X-16040732Y-4734969D01*
X-15867812Y-4752000D01*
X-14952188Y-4752000D01*
X-14779268Y-4734969D01*
X-14557403Y-4667667D01*
X-14352930Y-4558374D01*
X-14173709Y-4411291D01*
X-14026626Y-4232070D01*
X-13917333Y-4027597D01*
X-13850031Y-3805732D01*
X-13827306Y-3575000D01*
X-13850031Y-3344268D01*
X-13917333Y-3122403D01*
X-14026626Y-2917930D01*
X-14173709Y-2738709D01*
X-14352930Y-2591626D01*
X-14557403Y-2482333D01*
X-14779268Y-2415031D01*
X-14952188Y-2398000D01*
X-15867812Y-2398000D01*
X-16040732Y-2415031D01*
X-16112423Y-2436778D01*
X-16058586Y-2356206D01*
X-16001899Y-2219350D01*
X-15973000Y-2074066D01*
X-15973000Y-1925934D01*
X-16001899Y-1780650D01*
X-16058586Y-1643794D01*
X-16140883Y-1520628D01*
X-16245628Y-1415883D01*
X-16368794Y-1333586D01*
X-16505650Y-1276899D01*
X-16650934Y-1248000D01*
X-16799066Y-1248000D01*
X-16944350Y-1276899D01*
X-17081206Y-1333586D01*
X-17204372Y-1415883D01*
X-17309117Y-1520628D01*
X-17391414Y-1643794D01*
X-17448101Y-1780650D01*
X-17477000Y-1925934D01*
X-19627999Y-1925934D01*
X-19627999Y2074066D01*
X-17477000Y2074066D01*
X-17477000Y1925934D01*
X-17448101Y1780650D01*
X-17391414Y1643794D01*
X-17309117Y1520628D01*
X-17204372Y1415883D01*
X-17081206Y1333586D01*
X-16944350Y1276899D01*
X-16799066Y1248000D01*
X-16650934Y1248000D01*
X-16505650Y1276899D01*
X-16368794Y1333586D01*
X-16245628Y1415883D01*
X-16140883Y1520628D01*
X-16100242Y1581452D01*
X-12027000Y1581452D01*
X-12027000Y1418548D01*
X-11995218Y1258773D01*
X-11932877Y1108269D01*
X-11842372Y972819D01*
X-11777000Y907447D01*
X-11776999Y-2407446D01*
X-11842372Y-2472819D01*
X-11932877Y-2608269D01*
X-11995218Y-2758773D01*
X-12027000Y-2918548D01*
X-12027000Y-3081452D01*
X-11995218Y-3241227D01*
X-11932877Y-3391731D01*
X-11842372Y-3527181D01*
X-11727181Y-3642372D01*
X-11591731Y-3732877D01*
X-11441227Y-3795218D01*
X-11281452Y-3827000D01*
X-11118548Y-3827000D01*
X-10958773Y-3795218D01*
X-10808269Y-3732877D01*
X-10672819Y-3642372D01*
X-10600000Y-3569553D01*
X-10527181Y-3642372D01*
X-10391731Y-3732877D01*
X-10241227Y-3795218D01*
X-10081452Y-3827000D01*
X-9918548Y-3827000D01*
X-9758773Y-3795218D01*
X-9608269Y-3732877D01*
X-9472819Y-3642372D01*
X-9357628Y-3527181D01*
X-9267123Y-3391731D01*
X-9204782Y-3241227D01*
X-9173000Y-3081452D01*
X-9173000Y-2918548D01*
X-9204782Y-2758773D01*
X-9267123Y-2608269D01*
X-9273000Y-2599473D01*
X-9273000Y1099473D01*
X-9267123Y1108269D01*
X-9204782Y1258773D01*
X-9173000Y1418548D01*
X-9173000Y1581452D01*
X-9204782Y1741227D01*
X-9267123Y1891731D01*
X-9357628Y2027181D01*
X-9472819Y2142372D01*
X-9608269Y2232877D01*
X-9758773Y2295218D01*
X-9918548Y2327000D01*
X-10081452Y2327000D01*
X-10241227Y2295218D01*
X-10391731Y2232877D01*
X-10527181Y2142372D01*
X-10600000Y2069553D01*
X-10672819Y2142372D01*
X-10808269Y2232877D01*
X-10958773Y2295218D01*
X-11118548Y2327000D01*
X-11281452Y2327000D01*
X-11441227Y2295218D01*
X-11591731Y2232877D01*
X-11727181Y2142372D01*
X-11842372Y2027181D01*
X-11932877Y1891731D01*
X-11995218Y1741227D01*
X-12027000Y1581452D01*
X-16100242Y1581452D01*
X-16058586Y1643794D01*
X-16001899Y1780650D01*
X-15973000Y1925934D01*
X-15973000Y2074066D01*
X-16001899Y2219350D01*
X-16058586Y2356206D01*
X-16112423Y2436778D01*
X-16040732Y2415031D01*
X-15867812Y2398000D01*
X-14952188Y2398000D01*
X-14779268Y2415031D01*
X-14557403Y2482333D01*
X-14352930Y2591626D01*
X-14173709Y2738709D01*
X-14026626Y2917930D01*
X-13917333Y3122403D01*
X-13850031Y3344268D01*
X-13827306Y3575000D01*
X-13850031Y3805732D01*
X-13917333Y4027597D01*
X-14026626Y4232070D01*
X-14173709Y4411291D01*
X-14352930Y4558374D01*
X-14557403Y4667667D01*
X-14779268Y4734969D01*
X-14952188Y4752000D01*
X-15867812Y4752000D01*
X-16040732Y4734969D01*
X-16262597Y4667667D01*
X-16467070Y4558374D01*
X-16646291Y4411291D01*
X-16793374Y4232070D01*
X-16902667Y4027597D01*
X-16969969Y3805732D01*
X-16992694Y3575000D01*
X-16969969Y3344268D01*
X-16902667Y3122403D01*
X-16793374Y2917930D01*
X-16657199Y2752000D01*
X-16799066Y2752000D01*
X-16944350Y2723101D01*
X-17081206Y2666414D01*
X-17204372Y2584117D01*
X-17309117Y2479372D01*
X-17391414Y2356206D01*
X-17448101Y2219350D01*
X-17477000Y2074066D01*
X-19627999Y2074066D01*
X-19627999Y2608802D01*
X-19607070Y2591626D01*
X-19402597Y2482333D01*
X-19180732Y2415031D01*
X-19007812Y2398000D01*
X-18692188Y2398000D01*
X-18519268Y2415031D01*
X-18297403Y2482333D01*
X-18092930Y2591626D01*
X-17913709Y2738709D01*
X-17766626Y2917930D01*
X-17657333Y3122403D01*
X-17590031Y3344268D01*
X-17567306Y3575000D01*
X-17590031Y3805732D01*
X-17657333Y4027597D01*
X-17766626Y4232070D01*
X-17913709Y4411291D01*
X-18092930Y4558374D01*
X-18297403Y4667667D01*
X-18519268Y4734969D01*
X-18692188Y4752000D01*
X-19007812Y4752000D01*
X-19180732Y4734969D01*
X-19402597Y4667667D01*
X-19607070Y4558374D01*
X-19627999Y4541198D01*
X-19627999Y9648399D01*
X-19615436Y9776530D01*
X-19584646Y9878507D01*
X-19534633Y9972569D01*
X-19467305Y10055121D01*
X-19385225Y10123023D01*
X-19291518Y10173690D01*
X-19189754Y10205192D01*
X-19063061Y10218508D01*
X-16516322Y10218508D01*
X-16388191Y10205945D01*
X-16286214Y10175155D01*
X-16192152Y10125142D01*
X-16092950Y10044235D01*
X-15812595Y9763879D01*
X-15730877Y9664394D01*
X-15680537Y9570510D01*
X-15649391Y9468635D01*
X-15638626Y9362655D01*
X-15648651Y9256598D01*
X-15679085Y9154510D01*
X-15728766Y9060281D01*
X-15809341Y8960779D01*
X-15833442Y8936362D01*
X-15846931Y8919720D01*
X-15862027Y8904518D01*
X-15865982Y8899599D01*
X-16113587Y8587198D01*
X-16135765Y8552785D01*
X-16158450Y8518641D01*
X-16161374Y8513048D01*
X-16343584Y8158503D01*
X-16358671Y8120400D01*
X-16374276Y8082538D01*
X-16376056Y8076490D01*
X-16376059Y8076483D01*
X-16376060Y8076476D01*
X-16485935Y7693300D01*
X-16493328Y7653020D01*
X-16501288Y7612818D01*
X-16501860Y7606533D01*
X-16535216Y7209305D01*
X-16534644Y7168352D01*
X-16534644Y7127375D01*
X-16533984Y7121098D01*
X-16489549Y6724957D01*
X-16481037Y6684912D01*
X-16473075Y6644699D01*
X-16471208Y6638670D01*
X-16350676Y6258704D01*
X-16334545Y6221067D01*
X-16318926Y6183174D01*
X-16315924Y6177622D01*
X-16123884Y5828303D01*
X-16100740Y5794501D01*
X-16078069Y5760379D01*
X-16074050Y5755521D01*
X-16074046Y5755515D01*
X-16074041Y5755510D01*
X-15817814Y5450151D01*
X-15788545Y5421489D01*
X-15759678Y5392419D01*
X-15754793Y5388436D01*
X-15754787Y5388430D01*
X-15754780Y5388426D01*
X-15444123Y5138650D01*
X-15409859Y5116228D01*
X-15375880Y5093309D01*
X-15370308Y5090346D01*
X-15017044Y4905664D01*
X-14979047Y4890312D01*
X-14941294Y4874442D01*
X-14935253Y4872618D01*
X-14552844Y4760069D01*
X-14512590Y4752390D01*
X-14472472Y4744155D01*
X-14466193Y4743539D01*
X-14466191Y4743539D01*
X-14069206Y4707411D01*
X-14028240Y4707697D01*
X-13987275Y4707411D01*
X-13980994Y4708027D01*
X-13980992Y4708027D01*
X-13584551Y4749695D01*
X-13544413Y4757934D01*
X-13504180Y4765609D01*
X-13498140Y4767432D01*
X-13498134Y4767434D01*
X-13117339Y4885310D01*
X-13079561Y4901191D01*
X-13041590Y4916532D01*
X-13036017Y4919495D01*
X-12685366Y5109091D01*
X-12651402Y5132000D01*
X-12617123Y5154432D01*
X-12612232Y5158420D01*
X-12305086Y5412515D01*
X-12276240Y5441562D01*
X-12246950Y5470245D01*
X-12242927Y5475108D01*
X-11990984Y5784021D01*
X-11968328Y5818120D01*
X-11945167Y5851947D01*
X-11942165Y5857498D01*
X-11755022Y6209465D01*
X-11739411Y6247339D01*
X-11723273Y6284993D01*
X-11721409Y6291016D01*
X-11721406Y6291023D01*
X-11721405Y6291030D01*
X-11606191Y6672634D01*
X-11598238Y6712799D01*
X-11589716Y6752893D01*
X-11589056Y6759170D01*
X-11550324Y7154186D01*
X-11547999Y7177796D01*
X-11547999Y7778446D01*
X-11527181Y7757628D01*
X-11391731Y7667123D01*
X-11241227Y7604782D01*
X-11081452Y7573000D01*
X-10918548Y7573000D01*
X-10758773Y7604782D01*
X-10608269Y7667123D01*
X-10472819Y7757628D01*
X-10357628Y7872819D01*
X-10267123Y8008269D01*
X-10204782Y8158773D01*
X-10173000Y8318548D01*
X-10173000Y8410999D01*
X-8412037Y10171962D01*
X-8390026Y10190026D01*
X-8317921Y10277885D01*
X-8264343Y10378124D01*
X-8246756Y10436101D01*
X-8231349Y10486888D01*
X-8225017Y10551184D01*
X-8223000Y10571664D01*
X-8223000Y10571669D01*
X-8220210Y10600000D01*
X-8223000Y10628331D01*
X-8223000Y12260999D01*
X-7910998Y12573000D01*
X-7818548Y12573000D01*
X-7658773Y12604782D01*
X-7508269Y12667123D01*
X-7372819Y12757628D01*
X-7257628Y12872819D01*
X-7167123Y13008269D01*
X-7104782Y13158773D01*
X-7073000Y13318548D01*
X-7073000Y13481452D01*
X-7104782Y13641227D01*
X-7167123Y13791731D01*
X-7257628Y13927181D01*
X-7372819Y14042372D01*
X-7508269Y14132877D01*
X-7658773Y14195218D01*
X-7818548Y14227000D01*
X-7981452Y14227000D01*
X-8141227Y14195218D01*
X-8291731Y14132877D01*
X-8427181Y14042372D01*
X-8542372Y13927181D01*
X-8632877Y13791731D01*
X-8695218Y13641227D01*
X-8727000Y13481452D01*
X-8727000Y13389002D01*
X-9187967Y12928034D01*
X-9209973Y12909974D01*
X-9228034Y12887967D01*
X-9228037Y12887964D01*
X-9243887Y12868650D01*
X-9282078Y12822115D01*
X-9309044Y12771664D01*
X-9335656Y12721876D01*
X-9368651Y12613111D01*
X-9379790Y12500000D01*
X-9376999Y12471659D01*
X-9377000Y10839001D01*
X-10989001Y9227000D01*
X-11081452Y9227000D01*
X-11241227Y9195218D01*
X-11391731Y9132877D01*
X-11527181Y9042372D01*
X-11547999Y9021554D01*
X-11547999Y9648399D01*
X-11535436Y9776530D01*
X-11504646Y9878507D01*
X-11454633Y9972569D01*
X-11387305Y10055121D01*
X-11305225Y10123023D01*
X-11211518Y10173690D01*
X-11109754Y10205192D01*
X-10964321Y10220478D01*
X-10952051Y10220392D01*
X-10945770Y10221008D01*
X-10751673Y10241409D01*
X-10711529Y10249649D01*
X-10671303Y10257323D01*
X-10665263Y10259146D01*
X-10665257Y10259148D01*
X-10478823Y10316859D01*
X-10441017Y10332751D01*
X-10403074Y10348081D01*
X-10397506Y10351041D01*
X-10397501Y10351043D01*
X-10397497Y10351046D01*
X-10225825Y10443868D01*
X-10191861Y10466776D01*
X-10157580Y10489210D01*
X-10152699Y10493191D01*
X-10152691Y10493197D01*
X-10152684Y10493204D01*
X-10002312Y10617602D01*
X-9973445Y10646672D01*
X-9944176Y10675334D01*
X-9940153Y10680197D01*
X-9816803Y10831439D01*
X-9794137Y10865554D01*
X-9770987Y10899364D01*
X-9767985Y10904915D01*
X-9676360Y11077238D01*
X-9660739Y11115138D01*
X-9644611Y11152767D01*
X-9642748Y11158786D01*
X-9642744Y11158796D01*
X-9642742Y11158806D01*
X-9586335Y11345632D01*
X-9578373Y11385845D01*
X-9569861Y11425890D01*
X-9569201Y11432166D01*
X-9550156Y11626400D01*
X-9550156Y11626413D01*
X-9548000Y11648303D01*
X-9548000Y29479865D01*
X-9474353Y30305065D01*
X-9261075Y31084678D01*
X-8913111Y31814201D01*
X-8441452Y32470584D01*
X-7861017Y33033065D01*
X-7190149Y33483868D01*
X-6450051Y33808749D01*
X-5660645Y33998269D01*
X-4983428Y34048000D01*
X4979876Y34048000D01*
X5805064Y33974354D01*
G36*
X-1551999Y-5632404D02*
G01*
X-1642372Y-5722777D01*
X-1732877Y-5858227D01*
X-1779562Y-5970934D01*
X-3200000Y-5970934D01*
X-3283707Y-5979178D01*
X-3364196Y-6003595D01*
X-3438376Y-6043245D01*
X-3503395Y-6096605D01*
X-3556755Y-6161624D01*
X-3596405Y-6235804D01*
X-3620822Y-6316293D01*
X-3629066Y-6400000D01*
X-3629066Y-7400000D01*
X-3620822Y-7483707D01*
X-3596405Y-7564196D01*
X-3556755Y-7638376D01*
X-3503395Y-7703395D01*
X-3438376Y-7756755D01*
X-3364196Y-7796405D01*
X-3283707Y-7820822D01*
X-3200000Y-7829066D01*
X-1700000Y-7829066D01*
X-1616293Y-7820822D01*
X-1535804Y-7796405D01*
X-1461624Y-7756755D01*
X-1396605Y-7703395D01*
X-1374943Y-7677000D01*
X-1239001Y-7677000D01*
X-676999Y-8239003D01*
X-677000Y-9971669D01*
X-679790Y-10000000D01*
X-677000Y-10028331D01*
X-677000Y-10028335D01*
X-675692Y-10041616D01*
X-668651Y-10113111D01*
X-652193Y-10167364D01*
X-635657Y-10221875D01*
X-582079Y-10322114D01*
X-509974Y-10409974D01*
X-487962Y-10428039D01*
X1873001Y-12789002D01*
X1873001Y-13370934D01*
X1700000Y-13370934D01*
X1616293Y-13379178D01*
X1535804Y-13403595D01*
X1461624Y-13443245D01*
X1396605Y-13496605D01*
X1343245Y-13561624D01*
X1303595Y-13635804D01*
X1279178Y-13716293D01*
X1270934Y-13800000D01*
X1270934Y-14800000D01*
X1278124Y-14873000D01*
X-566024Y-14873000D01*
X-1270934Y-14168091D01*
X-1270934Y-13800000D01*
X-1279178Y-13716293D01*
X-1303595Y-13635804D01*
X-1343245Y-13561624D01*
X-1396605Y-13496605D01*
X-1461624Y-13443245D01*
X-1535804Y-13403595D01*
X-1613000Y-13380177D01*
X-1613000Y-11805524D01*
X-1608516Y-11759999D01*
X-1613000Y-11714474D01*
X-1613000Y-11714462D01*
X-1626413Y-11578276D01*
X-1679420Y-11403536D01*
X-1727201Y-11314144D01*
X-1765499Y-11242494D01*
X-1852312Y-11136712D01*
X-1852316Y-11136708D01*
X-1881341Y-11101341D01*
X-1916708Y-11072316D01*
X-3773000Y-9216025D01*
X-3773000Y-5383975D01*
X-3018090Y-4629066D01*
X-1700000Y-4629066D01*
X-1616293Y-4620822D01*
X-1551999Y-4601318D01*
X-1551999Y-5632404D01*
X-1551999Y-5632404D01*
G37*
X-1551999Y-5632404D02*
X-1642372Y-5722777D01*
X-1732877Y-5858227D01*
X-1779562Y-5970934D01*
X-3200000Y-5970934D01*
X-3283707Y-5979178D01*
X-3364196Y-6003595D01*
X-3438376Y-6043245D01*
X-3503395Y-6096605D01*
X-3556755Y-6161624D01*
X-3596405Y-6235804D01*
X-3620822Y-6316293D01*
X-3629066Y-6400000D01*
X-3629066Y-7400000D01*
X-3620822Y-7483707D01*
X-3596405Y-7564196D01*
X-3556755Y-7638376D01*
X-3503395Y-7703395D01*
X-3438376Y-7756755D01*
X-3364196Y-7796405D01*
X-3283707Y-7820822D01*
X-3200000Y-7829066D01*
X-1700000Y-7829066D01*
X-1616293Y-7820822D01*
X-1535804Y-7796405D01*
X-1461624Y-7756755D01*
X-1396605Y-7703395D01*
X-1374943Y-7677000D01*
X-1239001Y-7677000D01*
X-676999Y-8239003D01*
X-677000Y-9971669D01*
X-679790Y-10000000D01*
X-677000Y-10028331D01*
X-677000Y-10028335D01*
X-675692Y-10041616D01*
X-668651Y-10113111D01*
X-652193Y-10167364D01*
X-635657Y-10221875D01*
X-582079Y-10322114D01*
X-509974Y-10409974D01*
X-487962Y-10428039D01*
X1873001Y-12789002D01*
X1873001Y-13370934D01*
X1700000Y-13370934D01*
X1616293Y-13379178D01*
X1535804Y-13403595D01*
X1461624Y-13443245D01*
X1396605Y-13496605D01*
X1343245Y-13561624D01*
X1303595Y-13635804D01*
X1279178Y-13716293D01*
X1270934Y-13800000D01*
X1270934Y-14800000D01*
X1278124Y-14873000D01*
X-566024Y-14873000D01*
X-1270934Y-14168091D01*
X-1270934Y-13800000D01*
X-1279178Y-13716293D01*
X-1303595Y-13635804D01*
X-1343245Y-13561624D01*
X-1396605Y-13496605D01*
X-1461624Y-13443245D01*
X-1535804Y-13403595D01*
X-1613000Y-13380177D01*
X-1613000Y-11805524D01*
X-1608516Y-11759999D01*
X-1613000Y-11714474D01*
X-1613000Y-11714462D01*
X-1626413Y-11578276D01*
X-1679420Y-11403536D01*
X-1727201Y-11314144D01*
X-1765499Y-11242494D01*
X-1852312Y-11136712D01*
X-1852316Y-11136708D01*
X-1881341Y-11101341D01*
X-1916708Y-11072316D01*
X-3773000Y-9216025D01*
X-3773000Y-5383975D01*
X-3018090Y-4629066D01*
X-1700000Y-4629066D01*
X-1616293Y-4620822D01*
X-1551999Y-4601318D01*
X-1551999Y-5632404D01*
G36*
X-4416480Y4642517D02*
G01*
X-4430517Y4500000D01*
X-4427000Y4464292D01*
X-4426999Y3543001D01*
X-4471963Y3587964D01*
X-4490026Y3609974D01*
X-4577885Y3682079D01*
X-4678124Y3735657D01*
X-4742230Y3755103D01*
X-4786889Y3768651D01*
X-4841955Y3774074D01*
X-4871664Y3777000D01*
X-4871669Y3777000D01*
X-4900000Y3779790D01*
X-4928331Y3777000D01*
X-5323000Y3777000D01*
X-5323000Y4460999D01*
X-5303445Y4480554D01*
X-5241227Y4454782D01*
X-5081452Y4423000D01*
X-4918548Y4423000D01*
X-4758773Y4454782D01*
X-4608269Y4517123D01*
X-4472819Y4607628D01*
X-4407140Y4673307D01*
X-4416480Y4642517D01*
X-4416480Y4642517D01*
G37*
X-4416480Y4642517D02*
X-4430517Y4500000D01*
X-4427000Y4464292D01*
X-4426999Y3543001D01*
X-4471963Y3587964D01*
X-4490026Y3609974D01*
X-4577885Y3682079D01*
X-4678124Y3735657D01*
X-4742230Y3755103D01*
X-4786889Y3768651D01*
X-4841955Y3774074D01*
X-4871664Y3777000D01*
X-4871669Y3777000D01*
X-4900000Y3779790D01*
X-4928331Y3777000D01*
X-5323000Y3777000D01*
X-5323000Y4460999D01*
X-5303445Y4480554D01*
X-5241227Y4454782D01*
X-5081452Y4423000D01*
X-4918548Y4423000D01*
X-4758773Y4454782D01*
X-4608269Y4517123D01*
X-4472819Y4607628D01*
X-4407140Y4673307D01*
X-4416480Y4642517D01*
G36*
X-3567494Y12847846D02*
G01*
X-3513112Y12831349D01*
X-3455114Y12825637D01*
X-3428336Y12823000D01*
X-3428331Y12823000D01*
X-3400000Y12820210D01*
X-3371669Y12823000D01*
X-2898844Y12823000D01*
X-2927000Y12681452D01*
X-2927000Y12518548D01*
X-2895218Y12358773D01*
X-2832877Y12208269D01*
X-2742372Y12072819D01*
X-2627181Y11957628D01*
X-2491731Y11867123D01*
X-2341227Y11804782D01*
X-2181452Y11773000D01*
X-2089001Y11773000D01*
X-1477000Y11160999D01*
X-1476999Y7764973D01*
X-1535804Y7796405D01*
X-1616293Y7820822D01*
X-1700000Y7829066D01*
X-1723000Y7829066D01*
X-1723000Y10314293D01*
X-1719483Y10350001D01*
X-1733520Y10492518D01*
X-1775090Y10629557D01*
X-1792650Y10662409D01*
X-1842597Y10755853D01*
X-1933447Y10866554D01*
X-1961184Y10889317D01*
X-3573000Y12501132D01*
X-3573000Y12849517D01*
X-3567494Y12847846D01*
X-3567494Y12847846D01*
G37*
X-3567494Y12847846D02*
X-3513112Y12831349D01*
X-3455114Y12825637D01*
X-3428336Y12823000D01*
X-3428331Y12823000D01*
X-3400000Y12820210D01*
X-3371669Y12823000D01*
X-2898844Y12823000D01*
X-2927000Y12681452D01*
X-2927000Y12518548D01*
X-2895218Y12358773D01*
X-2832877Y12208269D01*
X-2742372Y12072819D01*
X-2627181Y11957628D01*
X-2491731Y11867123D01*
X-2341227Y11804782D01*
X-2181452Y11773000D01*
X-2089001Y11773000D01*
X-1477000Y11160999D01*
X-1476999Y7764973D01*
X-1535804Y7796405D01*
X-1616293Y7820822D01*
X-1700000Y7829066D01*
X-1723000Y7829066D01*
X-1723000Y10314293D01*
X-1719483Y10350001D01*
X-1733520Y10492518D01*
X-1775090Y10629557D01*
X-1792650Y10662409D01*
X-1842597Y10755853D01*
X-1933447Y10866554D01*
X-1961184Y10889317D01*
X-3573000Y12501132D01*
X-3573000Y12849517D01*
X-3567494Y12847846D01*
G04 #@! TD*
M02*
