G04 #@! TF.GenerationSoftware,KiCad,Pcbnew,5.1.4+dfsg1-1*
G04 #@! TF.CreationDate,2021-01-09T21:35:19+00:00*
G04 #@! TF.ProjectId,bike-light-board,62696b65-2d6c-4696-9768-742d626f6172,rev?*
G04 #@! TF.SameCoordinates,Original*
G04 #@! TF.FileFunction,Legend,Top*
G04 #@! TF.FilePolarity,Positive*
%FSLAX46Y46*%
G04 Gerber Fmt 4.6, Leading zero omitted, Abs format (unit mm)*
G04 Created by KiCad (PCBNEW 5.1.4+dfsg1-1) date 2021-01-09 21:35:19*
%MOMM*%
%LPD*%
G04 APERTURE LIST*
%ADD10C,0.010000*%
%ADD11C,0.120000*%
G04 APERTURE END LIST*
D10*
G04 #@! TO.C,G\002A\002A\002A*
G36*
X11843857Y1894850D02*
G01*
X11885601Y2026167D01*
X11955885Y2143799D01*
X12053616Y2247051D01*
X12177701Y2335227D01*
X12327047Y2407633D01*
X12500561Y2463573D01*
X12697151Y2502353D01*
X12915723Y2523276D01*
X13155185Y2525647D01*
X13303332Y2518240D01*
X13469188Y2504472D01*
X13617541Y2487096D01*
X13761202Y2464104D01*
X13912983Y2433486D01*
X14059171Y2399668D01*
X14383024Y2310553D01*
X14723289Y2196173D01*
X15076128Y2058409D01*
X15437704Y1899144D01*
X15804179Y1720257D01*
X16171717Y1523631D01*
X16536480Y1311148D01*
X16894630Y1084688D01*
X17242331Y846133D01*
X17273821Y823528D01*
X17411175Y724546D01*
X17519354Y751494D01*
X17666528Y798970D01*
X17783558Y860796D01*
X17871228Y937513D01*
X17930316Y1029663D01*
X17934451Y1039191D01*
X17946183Y1084849D01*
X17954477Y1151334D01*
X17957730Y1225657D01*
X17957733Y1227850D01*
X17952166Y1337350D01*
X17934050Y1439967D01*
X17901265Y1539082D01*
X17851688Y1638082D01*
X17783200Y1740350D01*
X17693679Y1849270D01*
X17581002Y1968227D01*
X17443051Y2100605D01*
X17367317Y2169832D01*
X17271459Y2257996D01*
X17199431Y2328834D01*
X17148584Y2386136D01*
X17116269Y2433689D01*
X17099836Y2475282D01*
X17096638Y2514705D01*
X17102245Y2548933D01*
X17135033Y2614300D01*
X17194804Y2664930D01*
X17277542Y2699721D01*
X17379228Y2717573D01*
X17495846Y2717383D01*
X17623378Y2698050D01*
X17635770Y2695212D01*
X17702795Y2676821D01*
X17763072Y2653266D01*
X17822002Y2620928D01*
X17884984Y2576186D01*
X17957419Y2515420D01*
X18044707Y2435009D01*
X18093460Y2388377D01*
X18247052Y2234150D01*
X18374393Y2092121D01*
X18478760Y1957902D01*
X18563428Y1827106D01*
X18631674Y1695344D01*
X18659756Y1629982D01*
X18717175Y1455272D01*
X18754016Y1271477D01*
X18769528Y1087102D01*
X18762963Y910653D01*
X18736291Y760749D01*
X18680082Y598896D01*
X18599855Y453568D01*
X18494176Y323516D01*
X18361616Y207494D01*
X18200742Y104254D01*
X18010123Y12548D01*
X17788327Y-68870D01*
X17781806Y-70965D01*
X17546560Y-133115D01*
X17283133Y-178166D01*
X16992582Y-206107D01*
X16675967Y-216928D01*
X16338349Y-210693D01*
X16338349Y676782D01*
X16373007Y677593D01*
X16390108Y680549D01*
X16392349Y685551D01*
X16391400Y686644D01*
X16371235Y700752D01*
X16327389Y728085D01*
X16265629Y765146D01*
X16191726Y808441D01*
X16162800Y825144D01*
X16039240Y893784D01*
X15893925Y970526D01*
X15734693Y1051540D01*
X15569381Y1132995D01*
X15405827Y1211061D01*
X15251870Y1281906D01*
X15115347Y1341700D01*
X15053666Y1367227D01*
X14765804Y1478601D01*
X14499700Y1571383D01*
X14249772Y1646965D01*
X14010437Y1706740D01*
X13776114Y1752101D01*
X13541218Y1784441D01*
X13300169Y1805154D01*
X13298195Y1805277D01*
X13100524Y1812299D01*
X12933295Y1806961D01*
X12796780Y1789304D01*
X12691253Y1759366D01*
X12616984Y1717187D01*
X12604124Y1705530D01*
X12565685Y1651552D01*
X12559925Y1596975D01*
X12586897Y1538555D01*
X12607255Y1512935D01*
X12672021Y1456429D01*
X12767775Y1397527D01*
X12891776Y1336918D01*
X13041287Y1275291D01*
X13213568Y1213334D01*
X13405881Y1151735D01*
X13615486Y1091184D01*
X13839645Y1032369D01*
X14075619Y975978D01*
X14320668Y922700D01*
X14572055Y873224D01*
X14827040Y828238D01*
X15082884Y788431D01*
X15336849Y754491D01*
X15586195Y727107D01*
X15807200Y708435D01*
X15970141Y697008D01*
X16102028Y688229D01*
X16205558Y681999D01*
X16283432Y678217D01*
X16338349Y676782D01*
X16338349Y-210693D01*
X16334344Y-210619D01*
X15968773Y-187170D01*
X15580310Y-146571D01*
X15214641Y-95767D01*
X14764457Y-18065D01*
X14343490Y72015D01*
X13949148Y175218D01*
X13578842Y292290D01*
X13229980Y423977D01*
X12901210Y570429D01*
X12668468Y689855D01*
X12467895Y808877D01*
X12297854Y929091D01*
X12156708Y1052093D01*
X12042818Y1179477D01*
X11954546Y1312838D01*
X11890255Y1453773D01*
X11850359Y1593942D01*
X11831745Y1750543D01*
X11843857Y1894850D01*
X11843857Y1894850D01*
G37*
X11843857Y1894850D02*
X11885601Y2026167D01*
X11955885Y2143799D01*
X12053616Y2247051D01*
X12177701Y2335227D01*
X12327047Y2407633D01*
X12500561Y2463573D01*
X12697151Y2502353D01*
X12915723Y2523276D01*
X13155185Y2525647D01*
X13303332Y2518240D01*
X13469188Y2504472D01*
X13617541Y2487096D01*
X13761202Y2464104D01*
X13912983Y2433486D01*
X14059171Y2399668D01*
X14383024Y2310553D01*
X14723289Y2196173D01*
X15076128Y2058409D01*
X15437704Y1899144D01*
X15804179Y1720257D01*
X16171717Y1523631D01*
X16536480Y1311148D01*
X16894630Y1084688D01*
X17242331Y846133D01*
X17273821Y823528D01*
X17411175Y724546D01*
X17519354Y751494D01*
X17666528Y798970D01*
X17783558Y860796D01*
X17871228Y937513D01*
X17930316Y1029663D01*
X17934451Y1039191D01*
X17946183Y1084849D01*
X17954477Y1151334D01*
X17957730Y1225657D01*
X17957733Y1227850D01*
X17952166Y1337350D01*
X17934050Y1439967D01*
X17901265Y1539082D01*
X17851688Y1638082D01*
X17783200Y1740350D01*
X17693679Y1849270D01*
X17581002Y1968227D01*
X17443051Y2100605D01*
X17367317Y2169832D01*
X17271459Y2257996D01*
X17199431Y2328834D01*
X17148584Y2386136D01*
X17116269Y2433689D01*
X17099836Y2475282D01*
X17096638Y2514705D01*
X17102245Y2548933D01*
X17135033Y2614300D01*
X17194804Y2664930D01*
X17277542Y2699721D01*
X17379228Y2717573D01*
X17495846Y2717383D01*
X17623378Y2698050D01*
X17635770Y2695212D01*
X17702795Y2676821D01*
X17763072Y2653266D01*
X17822002Y2620928D01*
X17884984Y2576186D01*
X17957419Y2515420D01*
X18044707Y2435009D01*
X18093460Y2388377D01*
X18247052Y2234150D01*
X18374393Y2092121D01*
X18478760Y1957902D01*
X18563428Y1827106D01*
X18631674Y1695344D01*
X18659756Y1629982D01*
X18717175Y1455272D01*
X18754016Y1271477D01*
X18769528Y1087102D01*
X18762963Y910653D01*
X18736291Y760749D01*
X18680082Y598896D01*
X18599855Y453568D01*
X18494176Y323516D01*
X18361616Y207494D01*
X18200742Y104254D01*
X18010123Y12548D01*
X17788327Y-68870D01*
X17781806Y-70965D01*
X17546560Y-133115D01*
X17283133Y-178166D01*
X16992582Y-206107D01*
X16675967Y-216928D01*
X16338349Y-210693D01*
X16338349Y676782D01*
X16373007Y677593D01*
X16390108Y680549D01*
X16392349Y685551D01*
X16391400Y686644D01*
X16371235Y700752D01*
X16327389Y728085D01*
X16265629Y765146D01*
X16191726Y808441D01*
X16162800Y825144D01*
X16039240Y893784D01*
X15893925Y970526D01*
X15734693Y1051540D01*
X15569381Y1132995D01*
X15405827Y1211061D01*
X15251870Y1281906D01*
X15115347Y1341700D01*
X15053666Y1367227D01*
X14765804Y1478601D01*
X14499700Y1571383D01*
X14249772Y1646965D01*
X14010437Y1706740D01*
X13776114Y1752101D01*
X13541218Y1784441D01*
X13300169Y1805154D01*
X13298195Y1805277D01*
X13100524Y1812299D01*
X12933295Y1806961D01*
X12796780Y1789304D01*
X12691253Y1759366D01*
X12616984Y1717187D01*
X12604124Y1705530D01*
X12565685Y1651552D01*
X12559925Y1596975D01*
X12586897Y1538555D01*
X12607255Y1512935D01*
X12672021Y1456429D01*
X12767775Y1397527D01*
X12891776Y1336918D01*
X13041287Y1275291D01*
X13213568Y1213334D01*
X13405881Y1151735D01*
X13615486Y1091184D01*
X13839645Y1032369D01*
X14075619Y975978D01*
X14320668Y922700D01*
X14572055Y873224D01*
X14827040Y828238D01*
X15082884Y788431D01*
X15336849Y754491D01*
X15586195Y727107D01*
X15807200Y708435D01*
X15970141Y697008D01*
X16102028Y688229D01*
X16205558Y681999D01*
X16283432Y678217D01*
X16338349Y676782D01*
X16338349Y-210693D01*
X16334344Y-210619D01*
X15968773Y-187170D01*
X15580310Y-146571D01*
X15214641Y-95767D01*
X14764457Y-18065D01*
X14343490Y72015D01*
X13949148Y175218D01*
X13578842Y292290D01*
X13229980Y423977D01*
X12901210Y570429D01*
X12668468Y689855D01*
X12467895Y808877D01*
X12297854Y929091D01*
X12156708Y1052093D01*
X12042818Y1179477D01*
X11954546Y1312838D01*
X11890255Y1453773D01*
X11850359Y1593942D01*
X11831745Y1750543D01*
X11843857Y1894850D01*
G36*
X11793857Y-705150D02*
G01*
X11835601Y-573833D01*
X11905885Y-456201D01*
X12003616Y-352949D01*
X12127701Y-264773D01*
X12277047Y-192367D01*
X12450561Y-136427D01*
X12647151Y-97647D01*
X12865723Y-76724D01*
X13105185Y-74353D01*
X13253332Y-81760D01*
X13419188Y-95528D01*
X13567541Y-112904D01*
X13711202Y-135896D01*
X13862983Y-166514D01*
X14009171Y-200332D01*
X14333024Y-289447D01*
X14673289Y-403827D01*
X15026128Y-541591D01*
X15387704Y-700856D01*
X15754179Y-879743D01*
X16121717Y-1076369D01*
X16486480Y-1288852D01*
X16844630Y-1515312D01*
X17192331Y-1753867D01*
X17223821Y-1776472D01*
X17361175Y-1875454D01*
X17469354Y-1848506D01*
X17616528Y-1801030D01*
X17733558Y-1739204D01*
X17821228Y-1662487D01*
X17880316Y-1570337D01*
X17884451Y-1560809D01*
X17896183Y-1515151D01*
X17904477Y-1448666D01*
X17907730Y-1374343D01*
X17907733Y-1372150D01*
X17902166Y-1262650D01*
X17884050Y-1160033D01*
X17851265Y-1060918D01*
X17801688Y-961918D01*
X17733200Y-859650D01*
X17643679Y-750730D01*
X17531002Y-631773D01*
X17393051Y-499395D01*
X17317317Y-430168D01*
X17221459Y-342004D01*
X17149431Y-271166D01*
X17098584Y-213864D01*
X17066269Y-166311D01*
X17049836Y-124718D01*
X17046638Y-85295D01*
X17052245Y-51067D01*
X17085033Y14300D01*
X17144804Y64930D01*
X17227542Y99721D01*
X17329228Y117573D01*
X17445846Y117383D01*
X17573378Y98050D01*
X17585770Y95212D01*
X17652795Y76821D01*
X17713072Y53266D01*
X17772002Y20928D01*
X17834984Y-23814D01*
X17907419Y-84580D01*
X17994707Y-164991D01*
X18043460Y-211623D01*
X18197052Y-365850D01*
X18324393Y-507879D01*
X18428760Y-642098D01*
X18513428Y-772894D01*
X18581674Y-904656D01*
X18609756Y-970018D01*
X18667175Y-1144728D01*
X18704016Y-1328523D01*
X18719528Y-1512898D01*
X18712963Y-1689347D01*
X18686291Y-1839251D01*
X18630082Y-2001104D01*
X18549855Y-2146432D01*
X18444176Y-2276484D01*
X18311616Y-2392506D01*
X18150742Y-2495746D01*
X17960123Y-2587452D01*
X17738327Y-2668870D01*
X17731806Y-2670965D01*
X17496560Y-2733115D01*
X17233133Y-2778166D01*
X16942582Y-2806107D01*
X16625967Y-2816928D01*
X16288349Y-2810693D01*
X16288349Y-1923218D01*
X16323007Y-1922407D01*
X16340108Y-1919451D01*
X16342349Y-1914449D01*
X16341400Y-1913356D01*
X16321235Y-1899248D01*
X16277389Y-1871915D01*
X16215629Y-1834854D01*
X16141726Y-1791559D01*
X16112800Y-1774856D01*
X15989240Y-1706216D01*
X15843925Y-1629474D01*
X15684693Y-1548460D01*
X15519381Y-1467005D01*
X15355827Y-1388939D01*
X15201870Y-1318094D01*
X15065347Y-1258300D01*
X15003666Y-1232773D01*
X14715804Y-1121399D01*
X14449700Y-1028617D01*
X14199772Y-953035D01*
X13960437Y-893260D01*
X13726114Y-847899D01*
X13491218Y-815559D01*
X13250169Y-794846D01*
X13248195Y-794723D01*
X13050524Y-787701D01*
X12883295Y-793039D01*
X12746780Y-810696D01*
X12641253Y-840634D01*
X12566984Y-882813D01*
X12554124Y-894470D01*
X12515685Y-948448D01*
X12509925Y-1003025D01*
X12536897Y-1061445D01*
X12557255Y-1087065D01*
X12622021Y-1143571D01*
X12717775Y-1202473D01*
X12841776Y-1263082D01*
X12991287Y-1324709D01*
X13163568Y-1386666D01*
X13355881Y-1448265D01*
X13565486Y-1508816D01*
X13789645Y-1567631D01*
X14025619Y-1624022D01*
X14270668Y-1677300D01*
X14522055Y-1726776D01*
X14777040Y-1771762D01*
X15032884Y-1811569D01*
X15286849Y-1845509D01*
X15536195Y-1872893D01*
X15757200Y-1891565D01*
X15920141Y-1902992D01*
X16052028Y-1911771D01*
X16155558Y-1918001D01*
X16233432Y-1921783D01*
X16288349Y-1923218D01*
X16288349Y-2810693D01*
X16284344Y-2810619D01*
X15918773Y-2787170D01*
X15530310Y-2746571D01*
X15164641Y-2695767D01*
X14714457Y-2618065D01*
X14293490Y-2527985D01*
X13899148Y-2424782D01*
X13528842Y-2307710D01*
X13179980Y-2176023D01*
X12851210Y-2029571D01*
X12618468Y-1910145D01*
X12417895Y-1791123D01*
X12247854Y-1670909D01*
X12106708Y-1547907D01*
X11992818Y-1420523D01*
X11904546Y-1287162D01*
X11840255Y-1146227D01*
X11800359Y-1006058D01*
X11781745Y-849457D01*
X11793857Y-705150D01*
X11793857Y-705150D01*
G37*
X11793857Y-705150D02*
X11835601Y-573833D01*
X11905885Y-456201D01*
X12003616Y-352949D01*
X12127701Y-264773D01*
X12277047Y-192367D01*
X12450561Y-136427D01*
X12647151Y-97647D01*
X12865723Y-76724D01*
X13105185Y-74353D01*
X13253332Y-81760D01*
X13419188Y-95528D01*
X13567541Y-112904D01*
X13711202Y-135896D01*
X13862983Y-166514D01*
X14009171Y-200332D01*
X14333024Y-289447D01*
X14673289Y-403827D01*
X15026128Y-541591D01*
X15387704Y-700856D01*
X15754179Y-879743D01*
X16121717Y-1076369D01*
X16486480Y-1288852D01*
X16844630Y-1515312D01*
X17192331Y-1753867D01*
X17223821Y-1776472D01*
X17361175Y-1875454D01*
X17469354Y-1848506D01*
X17616528Y-1801030D01*
X17733558Y-1739204D01*
X17821228Y-1662487D01*
X17880316Y-1570337D01*
X17884451Y-1560809D01*
X17896183Y-1515151D01*
X17904477Y-1448666D01*
X17907730Y-1374343D01*
X17907733Y-1372150D01*
X17902166Y-1262650D01*
X17884050Y-1160033D01*
X17851265Y-1060918D01*
X17801688Y-961918D01*
X17733200Y-859650D01*
X17643679Y-750730D01*
X17531002Y-631773D01*
X17393051Y-499395D01*
X17317317Y-430168D01*
X17221459Y-342004D01*
X17149431Y-271166D01*
X17098584Y-213864D01*
X17066269Y-166311D01*
X17049836Y-124718D01*
X17046638Y-85295D01*
X17052245Y-51067D01*
X17085033Y14300D01*
X17144804Y64930D01*
X17227542Y99721D01*
X17329228Y117573D01*
X17445846Y117383D01*
X17573378Y98050D01*
X17585770Y95212D01*
X17652795Y76821D01*
X17713072Y53266D01*
X17772002Y20928D01*
X17834984Y-23814D01*
X17907419Y-84580D01*
X17994707Y-164991D01*
X18043460Y-211623D01*
X18197052Y-365850D01*
X18324393Y-507879D01*
X18428760Y-642098D01*
X18513428Y-772894D01*
X18581674Y-904656D01*
X18609756Y-970018D01*
X18667175Y-1144728D01*
X18704016Y-1328523D01*
X18719528Y-1512898D01*
X18712963Y-1689347D01*
X18686291Y-1839251D01*
X18630082Y-2001104D01*
X18549855Y-2146432D01*
X18444176Y-2276484D01*
X18311616Y-2392506D01*
X18150742Y-2495746D01*
X17960123Y-2587452D01*
X17738327Y-2668870D01*
X17731806Y-2670965D01*
X17496560Y-2733115D01*
X17233133Y-2778166D01*
X16942582Y-2806107D01*
X16625967Y-2816928D01*
X16288349Y-2810693D01*
X16288349Y-1923218D01*
X16323007Y-1922407D01*
X16340108Y-1919451D01*
X16342349Y-1914449D01*
X16341400Y-1913356D01*
X16321235Y-1899248D01*
X16277389Y-1871915D01*
X16215629Y-1834854D01*
X16141726Y-1791559D01*
X16112800Y-1774856D01*
X15989240Y-1706216D01*
X15843925Y-1629474D01*
X15684693Y-1548460D01*
X15519381Y-1467005D01*
X15355827Y-1388939D01*
X15201870Y-1318094D01*
X15065347Y-1258300D01*
X15003666Y-1232773D01*
X14715804Y-1121399D01*
X14449700Y-1028617D01*
X14199772Y-953035D01*
X13960437Y-893260D01*
X13726114Y-847899D01*
X13491218Y-815559D01*
X13250169Y-794846D01*
X13248195Y-794723D01*
X13050524Y-787701D01*
X12883295Y-793039D01*
X12746780Y-810696D01*
X12641253Y-840634D01*
X12566984Y-882813D01*
X12554124Y-894470D01*
X12515685Y-948448D01*
X12509925Y-1003025D01*
X12536897Y-1061445D01*
X12557255Y-1087065D01*
X12622021Y-1143571D01*
X12717775Y-1202473D01*
X12841776Y-1263082D01*
X12991287Y-1324709D01*
X13163568Y-1386666D01*
X13355881Y-1448265D01*
X13565486Y-1508816D01*
X13789645Y-1567631D01*
X14025619Y-1624022D01*
X14270668Y-1677300D01*
X14522055Y-1726776D01*
X14777040Y-1771762D01*
X15032884Y-1811569D01*
X15286849Y-1845509D01*
X15536195Y-1872893D01*
X15757200Y-1891565D01*
X15920141Y-1902992D01*
X16052028Y-1911771D01*
X16155558Y-1918001D01*
X16233432Y-1921783D01*
X16288349Y-1923218D01*
X16288349Y-2810693D01*
X16284344Y-2810619D01*
X15918773Y-2787170D01*
X15530310Y-2746571D01*
X15164641Y-2695767D01*
X14714457Y-2618065D01*
X14293490Y-2527985D01*
X13899148Y-2424782D01*
X13528842Y-2307710D01*
X13179980Y-2176023D01*
X12851210Y-2029571D01*
X12618468Y-1910145D01*
X12417895Y-1791123D01*
X12247854Y-1670909D01*
X12106708Y-1547907D01*
X11992818Y-1420523D01*
X11904546Y-1287162D01*
X11840255Y-1146227D01*
X11800359Y-1006058D01*
X11781745Y-849457D01*
X11793857Y-705150D01*
D11*
G04 #@! TO.C,Q4*
X2000000Y600000D02*
X2000000Y-100000D01*
G04 #@! TO.C,D8*
X600000Y-28000000D02*
X1600000Y-27000000D01*
G04 #@! TO.C,D7*
X600000Y-17400000D02*
X1600000Y-16400000D01*
G04 #@! TO.C,D6*
X600000Y-6800000D02*
X1600000Y-5800000D01*
G04 #@! TO.C,D5*
X600000Y3800000D02*
X1600000Y4800000D01*
G04 #@! TO.C,D4*
X600000Y14400000D02*
X1600000Y15400000D01*
G04 #@! TO.C,D3*
X600000Y25000000D02*
X1600000Y26000000D01*
G04 #@! TD*
M02*
